<?xml version="1.0" encoding="UTF-8"?>
<svg width="77px" height="51px" viewBox="0 0 77 51" version="1.1" xmlns="http://www.w3.org/2000/svg" xmlns:xlink="http://www.w3.org/1999/xlink">
    <!-- Generator: Sketch 53.2 (72643) - https://sketchapp.com -->
    <title>sim2</title>
    <desc>Created with Sketch.</desc>
    <defs>
        <polygon id="path-1" points="0.0584363706 0.0217960386 7.00462559 0.0217960386 7.00462559 6.85323397 0.0584363706 6.85323397"></polygon>
    </defs>
    <g id="mock-up" stroke="none" stroke-width="1" fill="none" fill-rule="evenodd">
        <g id="MO_Web_Desktop_Offer_Details" transform="translate(-440.000000, -477.000000)">
            <g id="Group-14">
                <g id="Group-10" transform="translate(428.000000, 364.000000)">
                    <g id="Group-12">
                        <g id="Group-19" transform="translate(0.000000, 98.000000)">
                            <g id="sim2" transform="translate(12.000000, 15.000000)">
                                <path d="M56.2904683,1.1 L56.2904683,1.28289934 C56.2904683,2.44269732 55.3502663,3.38289934 54.1904683,3.38289934 L45.0340776,3.38289934 C43.8742796,3.38289934 42.9340776,2.44269732 42.9340776,1.28289934 L42.9340776,1.1 L5,1.1 C2.84608948,1.1 1.1,2.84608948 1.1,5 L1.1,13.5510774 C2.215386,13.6010972 3.10431366,14.5212066 3.10431366,15.6489362 L3.10431366,35.3510638 C3.10431366,36.4787934 2.215386,37.3989028 1.1,37.4489226 L1.1,46 C1.1,48.1539105 2.84608948,49.9 5,49.9 L72,49.9 C74.1539105,49.9 75.9,48.1539105 75.9,46 L75.9,13.4352292 L62.8932751,1.1 L56.2904683,1.1 Z" id="Combined-Shape" stroke="#000000" stroke-width="2.2" fill="#FFFFFF"></path>
                                <g id="Page-1" transform="translate(50.000000, 33.000000)">
                                    <polygon id="Fill-1" fill="#000000" points="11.5387517 0.206431429 6.42712961 5.95398946 1.30841675 0.204567294 -4.17105024e-05 0.205714454 0.00287802467 11.7366793 2.58726076 11.7358189 2.58559234 5.36090778 6.42810286 9.80801663 10.2683888 5.35890025 10.2700572 11.7338114 12.85444 11.7330944 12.8513812 0.202272974"></polygon>
                                    <g id="Group-7" transform="translate(13.625431, 0.121642)">
                                        <g id="Group-4">
                                            <mask id="mask-2" fill="white">
                                                <use xlink:href="#path-1"></use>
                                            </mask>
                                            <g id="Clip-3"></g>
                                            <path d="M2.37837456,4.64036229 C2.68842263,4.95998972 3.0731325,5.12632791 3.53208706,5.12618451 C3.99104162,5.12604112 4.37547342,4.95970293 4.68552149,4.63978871 C4.99543052,4.30696893 5.15657209,3.91033839 5.15643306,3.43699152 C5.15629402,2.96378805 4.99501341,2.56715751 4.68482631,2.24738668 C4.37463921,1.91485369 3.99020741,1.7486589 3.53111381,1.74880229 C3.07215925,1.74894569 2.68772745,1.91542727 2.37767939,2.24796026 C2.06777035,2.56787448 1.90648974,2.96450503 1.90662878,3.43799529 C1.90676781,3.91134215 2.06818746,4.32059146 2.37837456,4.64036229 M5.98688916,1.01892179 C6.66927298,1.6712256 7.00434735,2.47710545 7.00462542,3.43656134 C7.00490349,4.39601722 6.67024623,5.20204046 5.98814048,5.86753662 C5.30617376,6.52012722 4.48753563,6.852947 3.53250416,6.85323379 C2.56495954,6.85352058 1.74618238,6.52113099 1.06379856,5.86882717 C0.393927889,5.2037612 0.0585754489,4.39788136 0.0584364139,3.43842547 C0.0582973789,2.47896959 0.392954644,1.67294634 1.06254724,1.02021234 C1.74451396,0.354859584 2.56315209,0.0220398101 3.53069671,0.0217530201 C4.48572818,0.0214662302 5.30464438,0.353855819 5.98688916,1.01892179" id="Fill-2" fill="#000000" mask="url(#mask-2)"></path>
                                        </g>
                                        <path d="M4.52622908,8.04815859 C4.51107426,8.33380141 4.4143059,8.57699931 4.23981696,8.78320131 C4.049339,8.99987114 3.81311852,9.1125796 3.53115552,9.1125796 C3.24891446,9.112723 3.01269398,9.00015793 2.82207698,8.78363149 C2.64730998,8.58517283 2.55054161,8.33523536 2.53538679,8.04815859 L1.39974885,8.04815859 C1.41601594,8.66303631 1.6195632,9.18356012 2.01442262,9.61546584 C2.43361317,10.0571224 2.93678086,10.2821092 3.53143359,10.2819658 C4.11816133,10.281679 4.62132902,10.0564054 5.04038054,9.61460547 C5.44219171,9.18255636 5.64726835,8.66289291 5.66353544,8.04815859 L4.52622908,8.04815859 Z" id="Fill-5" fill="#000000"></path>
                                    </g>
                                </g>
                                <path d="M12.276,9.311 C12.003,9.08 11.639,8.87 11.261,8.87 C10.925,8.87 10.624,9.038 10.624,9.36 C10.624,9.738 11.086,9.843 11.464,9.976 C12.157,10.214 12.99,10.536 12.99,11.565 C12.99,12.629 11.989,13.084 11.135,13.084 C10.379,13.084 9.791,12.797 9.259,12.265 L9.924,11.614 C10.323,11.999 10.631,12.23 11.142,12.23 C11.534,12.23 11.919,12.041 11.919,11.607 C11.919,11.187 11.471,11.026 10.974,10.844 C10.337,10.606 9.623,10.326 9.623,9.388 C9.623,8.457 10.414,8.016 11.226,8.016 C11.856,8.016 12.353,8.219 12.85,8.597 L12.276,9.311 Z M14.775,13 L13.774,13 L13.774,8.1 L14.775,8.1 L14.775,13 Z M20.473,9.423 L19.01,13 L18.296,13 L16.868,9.409 L16.868,13 L15.867,13 L15.867,8.1 L17.344,8.1 L18.66,11.516 L20.025,8.1 L21.474,8.1 L21.474,13 L20.473,13 L20.473,9.423 Z" id="SIM" fill="#000000" fill-rule="nonzero"></path>
                                <polygon id="Rectangle-5" fill="#FFFF30" points="6 14 51 14 51 23 6 23"></polygon>
                            </g>
                        </g>
                    </g>
                </g>
            </g>
        </g>
    </g>
</svg>