<?xml version="1.0" encoding="UTF-8"?>
<svg width="77px" height="51px" viewBox="0 0 77 51" version="1.1" xmlns="http://www.w3.org/2000/svg" xmlns:xlink="http://www.w3.org/1999/xlink">
    <!-- Generator: Sketch 53.2 (72643) - https://sketchapp.com -->
    <title>sim4</title>
    <desc>Created with Sketch.</desc>
    <defs>
        <polygon id="path-1" points="0.0584363706 0.0217960386 7.00462559 0.0217960386 7.00462559 6.85323397 0.0584363706 6.85323397"></polygon>
    </defs>
    <g id="Page-1" stroke="none" stroke-width="1" fill="none" fill-rule="evenodd">
        <g id="sim4" transform="translate(1.000000, 1.000000)">
            <path d="M55.2904683,0.1 L55.2904683,0.28289934 C55.2904683,1.44269732 54.3502663,2.38289934 53.1904683,2.38289934 L44.0340776,2.38289934 C42.8742796,2.38289934 41.9340776,1.44269732 41.9340776,0.28289934 L41.9340776,0.1 L4,0.1 C1.84608948,0.1 0.1,1.84608948 0.1,4 L0.1,12.5510774 C1.215386,12.6010972 2.10431366,13.5212066 2.10431366,14.6489362 L2.10431366,34.3510638 C2.10431366,35.4787934 1.215386,36.3989028 0.1,36.4489226 L0.1,45 C0.1,47.1539105 1.84608948,48.9 4,48.9 L71,48.9 C73.1539105,48.9 74.9,47.1539105 74.9,45 L74.9,12.4352292 L61.8932751,0.1 L55.2904683,0.1 Z" id="Combined-Shape" stroke="#000000" stroke-width="2.2" fill="#FFFFFF" fill-rule="nonzero"></path>
            <g id="Page-1" transform="translate(49.000000, 32.000000)">
                <polygon id="Fill-1" fill="#000000" fill-rule="nonzero" points="11.5387517 0.206431429 6.42712961 5.95398946 1.30841675 0.204567294 -4.17105024e-05 0.205714454 0.00287802467 11.7366793 2.58726076 11.7358189 2.58559234 5.36090778 6.42810286 9.80801663 10.2683888 5.35890025 10.2700572 11.7338114 12.85444 11.7330944 12.8513812 0.202272974"></polygon>
                <g id="Group-7" transform="translate(13.625431, 0.121642)">
                    <g id="Group-4">
                        <g id="Fill-2-Clipped">
                            <mask id="mask-2" fill="white">
                                <use xlink:href="#path-1"></use>
                            </mask>
                            <g id="path-1"></g>
                            <path d="M2.37837456,4.64036229 C2.68842263,4.95998972 3.0731325,5.12632791 3.53208706,5.12618451 C3.99104162,5.12604112 4.37547342,4.95970293 4.68552149,4.63978871 C4.99543052,4.30696893 5.15657209,3.91033839 5.15643306,3.43699152 C5.15629402,2.96378805 4.99501341,2.56715751 4.68482631,2.24738668 C4.37463921,1.91485369 3.99020741,1.7486589 3.53111381,1.74880229 C3.07215925,1.74894569 2.68772745,1.91542727 2.37767939,2.24796026 C2.06777035,2.56787448 1.90648974,2.96450503 1.90662878,3.43799529 C1.90676781,3.91134215 2.06818746,4.32059146 2.37837456,4.64036229 M5.98688916,1.01892179 C6.66927298,1.6712256 7.00434735,2.47710545 7.00462542,3.43656134 C7.00490349,4.39601722 6.67024623,5.20204046 5.98814048,5.86753662 C5.30617376,6.52012722 4.48753563,6.852947 3.53250416,6.85323379 C2.56495954,6.85352058 1.74618238,6.52113099 1.06379856,5.86882717 C0.393927889,5.2037612 0.0585754489,4.39788136 0.0584364139,3.43842547 C0.0582973789,2.47896959 0.392954644,1.67294634 1.06254724,1.02021234 C1.74451396,0.354859584 2.56315209,0.0220398101 3.53069671,0.0217530201 C4.48572818,0.0214662302 5.30464438,0.353855819 5.98688916,1.01892179" id="Fill-2" fill="#000000" fill-rule="nonzero" mask="url(#mask-2)"></path>
                        </g>
                    </g>
                    <path d="M4.52622908,8.04815859 C4.51107426,8.33380141 4.4143059,8.57699931 4.23981696,8.78320131 C4.049339,8.99987114 3.81311852,9.1125796 3.53115552,9.1125796 C3.24891446,9.112723 3.01269398,9.00015793 2.82207698,8.78363149 C2.64730998,8.58517283 2.55054161,8.33523536 2.53538679,8.04815859 L1.39974885,8.04815859 C1.41601594,8.66303631 1.6195632,9.18356012 2.01442262,9.61546584 C2.43361317,10.0571224 2.93678086,10.2821092 3.53143359,10.2819658 C4.11816133,10.281679 4.62132902,10.0564054 5.04038054,9.61460547 C5.44219171,9.18255636 5.64726835,8.66289291 5.66353544,8.04815859 L4.52622908,8.04815859 Z" id="Fill-5" fill="#000000" fill-rule="nonzero"></path>
                </g>
            </g>
            <path d="M11.276,8.311 C11.003,8.08 10.639,7.87 10.261,7.87 C9.925,7.87 9.624,8.038 9.624,8.36 C9.624,8.738 10.086,8.843 10.464,8.976 C11.157,9.214 11.99,9.536 11.99,10.565 C11.99,11.629 10.989,12.084 10.135,12.084 C9.379,12.084 8.791,11.797 8.259,11.265 L8.924,10.614 C9.323,10.999 9.631,11.23 10.142,11.23 C10.534,11.23 10.919,11.041 10.919,10.607 C10.919,10.187 10.471,10.026 9.974,9.844 C9.337,9.606 8.623,9.326 8.623,8.388 C8.623,7.457 9.414,7.016 10.226,7.016 C10.856,7.016 11.353,7.219 11.85,7.597 L11.276,8.311 Z M13.775,12 L12.774,12 L12.774,7.1 L13.775,7.1 L13.775,12 Z M19.473,8.423 L18.01,12 L17.296,12 L15.868,8.409 L15.868,12 L14.867,12 L14.867,7.1 L16.344,7.1 L17.66,10.516 L19.025,7.1 L20.474,7.1 L20.474,12 L19.473,12 L19.473,8.423 Z" id="SIM" fill="#000000" fill-rule="nonzero"></path>
            <polygon id="Rectangle-5" fill="#00C9FF" fill-rule="nonzero" points="5 13 50 13 50 22 5 22"></polygon>
        </g>
    </g>
</svg>