<?xml version="1.0" encoding="UTF-8"?>
<svg width="21px" height="21px" viewBox="0 0 21 21" version="1.1" xmlns="http://www.w3.org/2000/svg" xmlns:xlink="http://www.w3.org/1999/xlink">
    <!-- Generator: Sketch 53.2 (72643) - https://sketchapp.com -->
    <title>Icon/Account Copy 2</title>
    <desc>Created with Sketch.</desc>
    <g id="mock-up" stroke="none" stroke-width="1" fill="none" fill-rule="evenodd">
        <g id="m-menu_login" transform="translate(-60.000000, -260.000000)">
            <g id="Page"></g>
            <g id="Icon/Support" transform="translate(57.000000, 256.629630)">
                <g id="Group-7" transform="translate(3.375000, 3.375000)">
                    <path d="M2.27565752,17.9742581 L4.4985308,17.3590896 L4.87442293,17.5998811 L5.21865711,17.8203936 C6.68239449,18.7559392 8.37783383,19.2500844 10.1248313,19.2500844 C15.1556403,19.2500844 19.2498313,15.1558934 19.2498313,10.1250844 C19.2498313,5.09427537 15.1556403,1.00008437 10.1248313,1.00008437 C5.09402225,1.00008437 0.99983125,5.09427537 0.99983125,10.1250844 C0.99983125,11.8723665 1.49412638,13.5685155 2.42897199,15.0303989 L2.89082602,15.7513848 L2.27565752,17.9742581 Z" id="Path" stroke="#000000" stroke-width="2"></path>
                    <polygon id="Fill-4" fill="#000000" points="9.20784375 16.5796875 11.043 16.5796875 11.043 14.7445313 9.20784375 14.7445313"></polygon>
                    <path d="M10.1248313,3.67090312 C8.100675,3.67090312 6.453675,5.31705937 6.453675,7.34121562 L8.289675,7.34121562 C8.289675,6.32955937 9.113175,5.50605937 10.1248313,5.50605937 C11.1364875,5.50605937 11.9608313,6.32955937 11.9608313,7.34121562 C11.9608313,7.86265312 11.7482063,8.34359062 11.3626125,8.69627812 L9.207675,10.6689656 L9.207675,12.9082781 L11.0428313,12.9082781 L11.0428313,11.4772781 L12.6020813,10.0504969 C13.3606125,9.35609062 13.7959875,8.36890312 13.7959875,7.34121562 C13.7959875,5.31705937 12.1489875,3.67090312 10.1248313,3.67090312" id="Fill-6" fill="#000000"></path>
                </g>
            </g>
        </g>
    </g>
</svg>