<?xml version="1.0" encoding="UTF-8"?>
<svg width="23px" height="14px" viewBox="0 0 23 14" version="1.1" xmlns="http://www.w3.org/2000/svg" xmlns:xlink="http://www.w3.org/1999/xlink">
    <!-- Generator: Sketch 53.2 (72643) - https://sketchapp.com -->
    <title>invite</title>
    <desc>Created with Sketch.</desc>
    <g id="mock-up" stroke="none" stroke-width="1" fill="none" fill-rule="evenodd">
        <g id="m-menu_login" transform="translate(-59.000000, -586.000000)">
            <g id="Page"></g>
            <g id="Icon/Invite_friends" transform="translate(57.000000, 579.518519)" stroke="#000000">
                <g id="Group-15" transform="translate(3.375000, 6.750000)">
                    <path d="M6.15226521,5.15226521 C7.29633505,5.15226521 8.22839782,4.22020245 8.22839782,3.07613261 C8.22839782,1.93206277 7.29633505,1 6.15226521,1 C5.00819537,1 4.07613261,1.93206277 4.07613261,3.07613261 C4.07613261,4.22020245 5.00819537,5.15226521 6.15226521,5.15226521 Z" id="Stroke-1" stroke-width="2"></path>
                    <path d="M14.15021,5.15226521 C15.2937033,5.15226521 16.2263426,4.21982547 16.2263426,3.07613261 C16.2263426,1.93243974 15.2937033,1 14.15021,1 C13.0061402,1 12.0740774,1.93206277 12.0740774,3.07613261 C12.0740774,4.22020245 13.0061402,5.15226521 14.15021,5.15226521 Z" id="Stroke-3" stroke-width="2"></path>
                    <path d="M19.7798654,13.3180497 C19.7798654,10.1909271 17.2362728,7.64733457 14.1091503,7.64733457 C12.5447441,7.64733457 11.1261442,8.28392007 10.0989897,9.31168589" id="Stroke-5-Copy" stroke-width="2"></path>
                    <path d="M11.809844,13.3180497 C11.809844,10.1909271 9.26625148,7.64733457 6.1391289,7.64733457 C3.01200632,7.64733457 0.467478642,10.1909271 0.467478642,13.3180497" id="Stroke-5" stroke-width="2"></path>
                </g>
            </g>
        </g>
    </g>
</svg>