<?xml version="1.0" encoding="UTF-8"?>
<svg width="21px" height="21px" viewBox="0 0 21 21" version="1.1" xmlns="http://www.w3.org/2000/svg" xmlns:xlink="http://www.w3.org/1999/xlink">
    <!-- Generator: Sketch 53.2 (72643) - https://sketchapp.com -->
    <title>Icon/Account Copy 4</title>
    <desc>Created with Sketch.</desc>
    <g id="mock-up" stroke="none" stroke-width="1" fill="none" fill-rule="evenodd">
        <g id="m-menu_login" transform="translate(-60.000000, -152.000000)">
            <g id="Page"></g>
            <g id="Icon/Offer" transform="translate(57.000000, 149.000000)" stroke="#000000" stroke-width="2">
                <path d="M12.6992045,21.8729796 L22.283556,12.2886282 L22.2843009,5.375 C22.2843009,5.37480257 22.2843009,5.37480257 22.2843009,5.37460513 C22.2840828,4.82232043 21.8361908,4.374782 21.2840139,4.37500003 L14.3737286,4.37847363 L4.78921356,13.9629886 L12.6992045,21.8729796 Z" id="Stroke-1"></path>
                <path d="M17.5963867,7.47173178 L17.5959634,7.47215482 C17.2178009,7.84986498 17.2179418,8.46851756 17.5963867,8.84741595 C17.9753624,9.22639165 18.5930951,9.22639165 18.9720708,8.84741595 C19.350976,8.46851079 19.350976,7.85018396 18.9720708,7.47173178 C18.5930951,7.09275607 17.9753624,7.09275607 17.5963867,7.47173178 Z M16.1823847,6.05730665 C16.1824553,6.05723616 16.1825258,6.05716567 16.1825964,6.05709518 L16.1821731,6.05751822 C16.1822436,6.05744769 16.1823142,6.05737717 16.1823847,6.05730664 Z" id="Stroke-3"></path>
            </g>
        </g>
    </g>
</svg>