<?xml version="1.0" encoding="UTF-8"?>
<svg width="23px" height="22px" viewBox="0 0 23 22" version="1.1" xmlns="http://www.w3.org/2000/svg" xmlns:xlink="http://www.w3.org/1999/xlink">
    <!-- Generator: Sketch 53.2 (72643) - https://sketchapp.com -->
    <title>Icon/rewards</title>
    <desc>Created with Sketch.</desc>
    <g id="mock-up" stroke="none" stroke-width="1" fill="none" fill-rule="evenodd">
        <g id="offer-listing-with-login_icons" transform="translate(-1057.000000, -202.000000)" stroke="#000000">
            <g id="Icon/Rewards" transform="translate(1056.000000, 198.000000)">
                <g id="Group" transform="translate(3.375000, 3.937500)">
                    <path d="M13.5,2.19358528 L12.0663375,4.99264986 L8.95664422,5.42759698 L11.2044854,7.5395225 L10.6634856,10.576962 L13.5,9.13962565 L16.3365144,10.576962 L15.7955146,7.5395225 L18.0433558,5.42759698 L14.9336625,4.99264986 L13.5,2.19358528 Z" id="Path" stroke-width="2"></path>
                    <path d="M10.1866646,17.3749527 L14.154466,17.3749527 C15.0701158,17.3749527 15.8192941,18.114521 15.8192941,19.0312528 C15.8192941,19.9485223 15.0701867,20.6875529 14.154466,20.6875529 L8.24291912,20.6875529 C7.70254645,20.6875529 7.17204203,20.5426458 6.70708481,20.2676105 L1.32221253,17.0778906 C0.975115095,16.8720509 0.578860956,16.7591902 0.173450228,16.750738 L-0.805705882,16.7303242 L-0.805705882,10.8125529 L4.29660662,10.8125529 C5.09178384,10.8125529 5.84519612,11.1203925 6.40922808,11.6771894 L10.0088062,15.2305944 C10.3241926,15.5419353 10.5012785,15.9628592 10.5012785,16.4060523 C10.5012785,16.7573 10.3903371,17.0943743 10.1866646,17.3749527 Z" id="Path" stroke-width="2"></path>
                </g>
            </g>
        </g>
    </g>
</svg>