<?xml version="1.0" encoding="UTF-8"?>
<svg width="23px" height="23px" viewBox="0 0 23 23" version="1.1" xmlns="http://www.w3.org/2000/svg" xmlns:xlink="http://www.w3.org/1999/xlink">
    <!-- Generator: Sketch 53.2 (72643) - https://sketchapp.com -->
    <title>Icon/Account Copy</title>
    <desc>Created with Sketch.</desc>
    <g id="mock-up" stroke="none" stroke-width="1" fill="none" fill-rule="evenodd">
        <g id="offer-listing-with-login_icons" transform="translate(-1058.000000, -360.000000)" stroke="#000000">
            <g id="Group-2" transform="translate(1038.000000, 54.000000)">
                <g id="Icon/Settings" transform="translate(18.000000, 304.000000)">
                    <g id="Group-5" transform="translate(2.812500, 2.812500)">
                        <path d="M19.9055115,8.5367475 L18.4639815,8.2922175 C18.3143565,7.8074325 18.1211265,7.3406025 17.8860015,6.8942925 L18.7350165,5.7066975 C19.0949715,5.2005375 19.0385415,4.5105525 18.5982165,4.0727925 L17.3199915,2.7945675 C17.0788815,2.5543125 16.7616765,2.4217875 16.4230965,2.4217875 C16.1571915,2.4217875 15.9041115,2.5030125 15.6895065,2.6577675 L14.4976365,3.5067825 C14.0350815,3.2622525 13.5494415,3.0604725 13.0475565,2.9099925 L12.8081565,1.4864175 C12.7047015,0.8733825 12.1780215,0.4279275 11.5555815,0.4279275 L9.7506765,0.4279275 C9.1290915,0.4279275 8.6015565,0.8733825 8.4981015,1.4864175 L8.2501515,2.9450475 C7.7696415,3.0946725 7.3019565,3.2921775 6.8556465,3.5324325 L5.6766015,2.6834175 C5.4619965,2.5286625 5.2046415,2.4474375 4.9387365,2.4474375 C4.6001565,2.4474375 4.2786765,2.5799625 4.0426965,2.8202175 L2.7601965,4.0984425 C2.3232915,4.5362025 2.2625865,5.2261875 2.6233965,5.7323475 L3.4809615,6.9370425 C3.2449815,7.3876275 3.0560265,7.8553125 2.9106765,8.3400975 L1.4871015,8.5794975 C0.8732115,8.6829525 0.4277565,9.2104875 0.4277565,9.8320725 L0.4277565,11.6378325 C0.4277565,12.2594175 0.8732115,12.7869525 1.4871015,12.8895525 L2.9448765,13.1383575 C3.0953565,13.6180125 3.2920065,14.0856975 3.5322615,14.5320075 L2.6875215,15.7076325 C2.3275665,16.2137925 2.3831415,16.9037775 2.8243215,17.3406825 L4.1025465,18.6189075 C4.3428015,18.8591625 4.6600065,18.9925425 4.9985865,18.9925425 C5.2644915,18.9925425 5.5175715,18.9104625 5.7321765,18.7565625 L6.9377265,17.8981425 C7.3703565,18.1255725 7.8252165,18.3102525 8.2920465,18.4564575 L8.5323015,19.8971325 C8.6357565,20.5101675 9.1632915,20.9556225 9.7848765,20.9556225 L11.5940565,20.9556225 C12.2164965,20.9556225 12.7440315,20.5101675 12.8466315,19.8971325 L13.0911615,18.4564575 C13.5759465,18.3059775 14.0436315,18.1127475 14.4890865,17.8776225 L15.6775365,18.7257825 C15.8921415,18.8805375 16.1486415,18.9617625 16.4145465,18.9617625 C16.7531265,18.9617625 17.0711865,18.8292375 17.3114415,18.5889825 L18.5888115,17.3116125 C19.0265715,16.8738525 19.0864215,16.1830125 18.7256115,15.6777075 L17.8774515,14.4849825 C18.1125765,14.0352525 18.3100815,13.5675675 18.4562865,13.0870575 L19.8969615,12.8468025 C20.5099965,12.7442025 20.9563065,12.2166675 20.9563065,11.5942275 L20.9563065,9.7893225 C20.9648565,9.1668825 20.5185465,8.6402025 19.9055115,8.5367475 Z" id="Stroke-1" stroke-width="2"></path>
                        <path d="M10.694169,6.259797 C8.249724,6.259797 6.263559,8.245107 6.263559,10.689552 C6.263559,13.133997 8.249724,15.119307 10.694169,15.119307 C13.137759,15.119307 15.123924,13.133997 15.123924,10.689552 C15.123924,8.245107 13.137759,6.259797 10.694169,6.259797 Z" id="Stroke-3" stroke-width="2"></path>
                    </g>
                </g>
            </g>
        </g>
    </g>
</svg>