<?xml version="1.0" encoding="UTF-8"?>
<svg width="157px" height="180px" viewBox="0 0 157 180" version="1.1" xmlns="http://www.w3.org/2000/svg" xmlns:xlink="http://www.w3.org/1999/xlink">
    <!-- Generator: Sketch 53.2 (72643) - https://sketchapp.com -->
    <title>activate_icon</title>
    <desc>Created with Sketch.</desc>
    <g id="mock-up" stroke="none" stroke-width="1" fill="none" fill-rule="evenodd">
        <g id="Dashboard_delivery-status_activate-SIM" transform="translate(-286.000000, -361.000000)">
            <g id="Icon/Activate-SIM" transform="translate(284.000000, 361.000000)">
                <circle id="Oval" fill="#FDF401" cx="48.51" cy="45.99" r="45.99"></circle>
                <g id="Group-9" stroke-width="1" transform="translate(32.760000, 12.600000)" stroke="#000000">
                    <path d="M86.1711361,0.145989305 L2.14547834,0.145989305 C1.04090884,0.145989305 0.145478342,1.04141981 0.145478342,2.1459893 L0.145478342,161.654011 C0.145478342,162.75858 1.04090884,163.654011 2.14547834,163.654011 L120.776494,163.654011 C121.881064,163.654011 122.776494,162.75858 122.776494,161.654011 L122.776494,36.7564572 L86.1711361,0.145989305 Z" id="Stroke-1" stroke-width="6"></path>
                    <path d="M23.584492,140.215508 L79.324492,140.215508 L79.324492,84.475508 L23.584492,84.475508 L23.584492,140.215508 Z" id="Stroke-3" stroke-width="6"></path>
                    <path d="M23.104492,102.189144 L79.378201,102.190958" id="Stroke-4" stroke-width="6"></path>
                    <path d="M41.374492,81.475508 L41.374492,101.635508" id="Stroke-5" stroke-width="6"></path>
                    <path d="M61.534492,81.475508 L61.534492,101.635508" id="Stroke-7" stroke-width="6"></path>
                    <polyline id="Stroke-8" stroke-width="6" points="24.364492 123.055508 62.164492 123.055508 62.164492 139.435508"></polyline>
                </g>
                <g id="MO-Logo" stroke-width="1" transform="translate(53.235000, 37.800000)" fill="#000000">
                    <polygon id="Fill-1" points="31.4829681 0.0104480469 17.954816 14.45109 4.40789784 0.00576443969 0.945 0.00864665954 0.952727219 28.98 7.79241961 28.9778383 7.78800406 12.9609824 17.9573918 24.1342679 28.1208921 12.9559385 28.1253076 28.9727945 34.965 28.9709931 34.9569048 0"></polygon>
                    <g id="Group-7" transform="translate(36.225000, 0.000000)">
                        <path d="M6.35701034,12.3144409 C7.18571866,13.1626577 8.21398588,13.6040805 9.44069716,13.6036999 C10.6674084,13.6033194 11.6949324,13.1618966 12.5236407,12.3129187 C13.3519774,11.4296926 13.7826828,10.3771274 13.7823112,9.1209751 C13.7819396,7.86520329 13.3508626,6.81263819 12.5217827,5.96404087 C11.6927027,5.08157577 10.6651787,4.64053349 9.43809583,4.64091403 C8.21138456,4.64129456 7.18386057,5.08309792 6.35515225,5.96556302 C5.52681555,6.81454087 5.09573858,7.86710597 5.0961102,9.12363886 C5.09648182,10.3797912 5.52793041,11.4658436 6.35701034,12.3144409 M16.001986,2.70398114 C17.8258875,4.43504356 18.7214871,6.57366101 18.7222303,9.11983349 C18.7229735,11.666006 17.8284888,13.805004 16.0053305,15.5710758 C14.1825438,17.3028993 11.9944566,18.1861254 9.44181201,18.1868865 C6.8557218,18.1876476 4.66726294,17.305563 2.84336141,15.5745006 C1.0529055,13.8095704 0.156562697,11.670953 0.156191079,9.12478047 C0.15581946,6.57860799 1.05030418,4.43961 2.84001684,2.70740597 C4.66280352,0.941714698 6.85089077,0.0584885235 9.43698098,0.0577274497 C11.9896256,0.0569663758 14.178456,0.93905094 16.001986,2.70398114" id="Fill-2"></path>
                        <path d="M12.0978779,21.3579387 C12.0573715,22.1159682 11.7987254,22.7613588 11.3323447,23.3085709 C10.8232279,23.8835621 10.1918488,24.1826642 9.43820732,24.1826642 C8.68382262,24.1830447 8.0524435,23.8843232 7.54295512,23.3097125 C7.07583119,22.7830494 6.81718501,22.1197736 6.77667864,21.3579387 L3.74130217,21.3579387 C3.78478149,22.9896809 4.32883035,24.3710299 5.3842257,25.5172071 C6.50465421,26.6892608 7.84954003,27.2863232 9.43895056,27.2859427 C11.0071788,27.2851816 12.3520647,26.6873581 13.4721216,25.5149239 C14.5460978,24.3683662 15.0942345,22.9893004 15.1377138,21.3579387 L12.0978779,21.3579387 Z" id="Fill-5"></path>
                    </g>
                </g>
            </g>
        </g>
    </g>
</svg>