<?xml version="1.0" encoding="UTF-8"?>
<svg width="230px" height="68px" viewBox="0 0 230 68" version="1.1" xmlns="http://www.w3.org/2000/svg" xmlns:xlink="http://www.w3.org/1999/xlink">
    <!-- Generator: Sketch 53.2 (72643) - https://sketchapp.com -->
    <title>cvv</title>
    <desc>Created with Sketch.</desc>
    <defs>
        <rect id="path-1" x="0" y="0" width="110" height="66" rx="10"></rect>
        <filter x="-0.9%" y="-1.5%" width="101.8%" height="106.1%" filterUnits="objectBoundingBox" id="filter-2">
            <feOffset dx="0" dy="2" in="SourceAlpha" result="shadowOffsetOuter1"></feOffset>
            <feColorMatrix values="0 0 0 0 0.450980392   0 0 0 0 0.568627451   0 0 0 0 0.603921569  0 0 0 1 0" type="matrix" in="shadowOffsetOuter1"></feColorMatrix>
        </filter>
        <rect id="path-3" x="0" y="0" width="110" height="66" rx="10"></rect>
        <filter x="-0.9%" y="-1.5%" width="101.8%" height="106.1%" filterUnits="objectBoundingBox" id="filter-4">
            <feOffset dx="0" dy="2" in="SourceAlpha" result="shadowOffsetOuter1"></feOffset>
            <feColorMatrix values="0 0 0 0 0.811764706   0 0 0 0 0.71372549   0 0 0 0 0.376470588  0 0 0 1 0" type="matrix" in="shadowOffsetOuter1"></feColorMatrix>
        </filter>
    </defs>
    <g id="MO-Web-Checkout" stroke="none" stroke-width="1" fill="none" fill-rule="evenodd">
        <g id="2-MO_Web_Desktop_payment_1.7" transform="translate(-899.000000, -1523.000000)">
            <g id="Group-17" transform="translate(854.000000, 1339.000000)">
                <g id="cvv" transform="translate(45.000000, 184.000000)">
                    <g id="AE" transform="translate(120.000000, 0.000000)">
                        <g id="Rectangle-Copy">
                            <use fill="black" fill-opacity="1" filter="url(#filter-2)" xlink:href="#path-1"></use>
                            <use fill="#A7D2DF" fill-rule="evenodd" xlink:href="#path-1"></use>
                        </g>
                        <path d="M80,31 L99,31 C100.656854,31 102,32.3431458 102,34 L102,42 C102,43.6568542 100.656854,45 99,45 L80,45 C78.3431458,45 77,43.6568542 77,42 L77,34 C77,32.3431458 78.3431458,31 80,31 Z M80.4423077,32.4 C79.3377382,32.4 78.4423077,33.2954305 78.4423077,34.4 L78.4423077,41.6 C78.4423077,42.7045695 79.3377382,43.6 80.4423077,43.6 L98.5576923,43.6 C99.6622618,43.6 100.557692,42.7045695 100.557692,41.6 L100.557692,34.4 C100.557692,33.2954305 99.6622618,32.4 98.5576923,32.4 L80.4423077,32.4 Z" id="Combined-Shape" fill="#FF0048"></path>
                        <path d="M84.270369,39.9302326 L83.6548294,39.9302326 L83.6548294,36.7325581 C83.4518323,36.8255814 83.1833522,36.9186047 83,36.9883721 L83,36.4767442 C83.2619317,36.3604651 83.5827981,36.2151163 83.8709231,36.0697674 L84.270369,36.0697674 L84.270369,39.9302326 Z M88.3221257,39.9302326 L85.5587457,39.9302326 L85.5587457,39.4360465 C86.0629644,38.9651163 86.678504,38.377907 87.0910465,37.8430233 C87.2678504,37.6162791 87.4904924,37.2965116 87.4904924,37.0232558 C87.4904924,36.6802326 87.1303362,36.4883721 86.7767284,36.4883721 C86.4165722,36.4883721 86.0957058,36.7325581 86.0891575,37.0872093 L85.4801662,36.9767442 C85.5325526,36.3895349 86.1873819,36 86.8029215,36 C87.4839441,36 88.1256769,36.4069767 88.1256769,37.0232558 C88.1256769,37.377907 87.9095832,37.7732558 87.660748,38.0872093 C87.2874953,38.5581395 86.835663,39.0174419 86.3838308,39.4418605 L88.3221257,39.4418605 L88.3221257,39.9302326 Z M89.9051757,38.2325581 L89.9051757,37.6744186 C90.180204,37.6686047 90.3570079,37.6569767 90.5272636,37.6162791 C90.8677748,37.5348837 91.1100617,37.3197674 91.1100617,37.0406977 C91.1100617,36.7209302 90.8088402,36.4883721 90.3832011,36.4883721 C90.0623347,36.4883721 89.7742098,36.6337209 89.6694371,36.9069767 L89.1455736,36.7151163 C89.3158292,36.2965116 89.7807581,36 90.3962977,36 C91.1951895,36 91.7386979,36.4069767 91.7386979,37.0348837 C91.7386979,37.3837209 91.5226042,37.7034884 91.1951895,37.8546512 C91.6404735,37.9883721 91.9613399,38.3604651 91.9613399,38.8081395 C91.9613399,39.5581395 91.2999622,40 90.5076187,40 C89.9641103,40 89.3878605,39.7906977 89.1259287,39.3546512 L89.6105025,39.1162791 C89.7938547,39.3953488 90.1212694,39.5116279 90.4617806,39.5116279 C90.9136129,39.5116279 91.3327037,39.3023256 91.3327037,38.8546512 C91.3327037,38.4651163 90.9201612,38.1918605 90.4093943,38.1918605 C90.2587835,38.1918605 90.1081728,38.1918605 89.9051757,38.2325581 Z M95.3517189,39.9302326 L94.7492759,39.9302326 L94.7492759,38.9593023 L92.7847878,38.9593023 L92.7847878,38.372093 C93.3348445,37.7383721 94.127188,36.7848837 94.7165344,36.0697674 L95.3517189,36.0697674 L95.3517189,38.4709302 L96,38.4709302 L96,38.9593023 L95.3517189,38.9593023 L95.3517189,39.9302326 Z M93.4396172,38.4709302 L94.7492759,38.4709302 L94.7492759,36.8372093 C94.3432817,37.3604651 93.7539353,38.0872093 93.4396172,38.4709302 Z" id="1234" fill="#000000" fill-rule="nonzero"></path>
                        <path d="M13.5833274,51.8974592 C13.5833274,52.5411405 13.4503839,53.0238943 13.1844929,53.345735 C12.9578318,53.6209935 12.6047687,53.8073195 12.1252932,53.9047187 C11.964015,53.9343619 11.7558822,53.956594 11.5008884,53.9714156 C11.2458945,53.9862372 10.941868,53.9936479 10.5887997,53.9936479 C9.52959459,53.9936479 9,53.758623 9,53.2885662 C9,53.1107069 9.05993354,52.9582583 9.17980243,52.831216 C9.29967132,52.7041736 9.45113973,52.6406534 9.63421221,52.6406534 C9.73446619,52.6406534 9.8892037,52.6766482 10.0984294,52.7486388 C10.3076551,52.8206295 10.4623926,52.8566243 10.5626466,52.8566243 C11.2034003,52.8566243 11.6153072,52.8248642 11.7983797,52.761343 C12.1688835,52.6427701 12.3541326,52.344225 12.3541326,51.8656987 C12.3541326,51.6073792 12.334518,51.4210532 12.2952882,51.3067151 C12.2255463,51.124621 12.088244,51.0335753 11.8833772,51.0335753 C11.6523571,51.0335753 11.4703771,51.034634 11.3374316,51.0367514 C11.2044861,51.0388687 11.1205791,51.0420447 11.0857082,51.0462795 C11.059555,51.0505142 11.0192361,51.0568663 10.9647502,51.0653358 C10.9102643,51.0738052 10.8416132,51.0886266 10.7587947,51.1098004 C10.6280286,51.1352088 10.521238,51.1479129 10.4384194,51.1479129 C10.3512421,51.1479129 10.2695145,51.1320328 10.1932343,51.1002722 C10.1169541,51.0685116 10.0493927,51.0251061 9.99054794,50.9700544 C9.93170321,50.9150027 9.88593578,50.8504238 9.85324426,50.7763158 C9.82055275,50.7022077 9.80420724,50.6228074 9.80420724,50.5381125 C9.80420724,50.2416803 9.96112415,50.0511196 10.2749627,49.9664247 C10.4144465,49.9325467 10.6912305,49.915608 11.105323,49.915608 C11.205577,49.915608 11.3515969,49.92196 11.5433871,49.9346642 C11.7308185,49.9473685 11.874659,49.9537205 11.9749129,49.9537205 C12.2190096,49.9537205 12.3410561,49.6869355 12.3410561,49.1533575 C12.3410561,48.7468219 12.2473418,48.4800369 12.0599105,48.3529946 C11.9117089,48.2598301 11.6131309,48.2132486 11.1641674,48.2132486 C11.0813489,48.2132486 10.7958473,48.2323047 10.307654,48.2704174 C10.2727831,48.2746522 10.2270157,48.2820629 10.1703504,48.2926497 C10.1136851,48.3032366 10.0439442,48.3191167 9.96112572,48.3402904 C9.81728306,48.3784031 9.69305717,48.3974592 9.58844432,48.3974592 C9.42716618,48.3974592 9.29531238,48.3424083 9.19287897,48.2323049 C9.09044556,48.1222015 9.03922962,47.988809 9.03922962,47.8321234 C9.03922962,47.4933437 9.30293722,47.2667882 9.83036032,47.1524501 C10.1136868,47.0931636 10.5168761,47.0635209 11.0399403,47.0635209 C11.9422261,47.0635209 12.5589968,47.1609186 12.8902708,47.3557169 C13.3523109,47.6267406 13.5833274,48.1730146 13.5833274,48.9945554 C13.5833274,49.6467062 13.4438457,50.12946 13.1648781,50.4428312 C13.1561604,50.4597702 13.1518016,50.4724742 13.1518016,50.4809437 C13.1518016,50.4894132 13.1626986,50.5042346 13.1844929,50.5254083 C13.3501299,50.6736245 13.4634588,50.8895933 13.524483,51.1733212 C13.5637128,51.3469458 13.5833274,51.5883227 13.5833274,51.8974592 Z M19.2634497,51.8974592 C19.2634497,52.5411405 19.1305062,53.0238943 18.8646152,53.345735 C18.637954,53.6209935 18.2848909,53.8073195 17.8054154,53.9047187 C17.6441373,53.9343619 17.4360044,53.956594 17.1810106,53.9714156 C16.9260168,53.9862372 16.6219903,53.9936479 16.2689219,53.9936479 C15.2097168,53.9936479 14.6801222,53.758623 14.6801222,53.2885662 C14.6801222,53.1107069 14.7400558,52.9582583 14.8599247,52.831216 C14.9797936,52.7041736 15.131262,52.6406534 15.3143344,52.6406534 C15.4145884,52.6406534 15.5693259,52.6766482 15.7785516,52.7486388 C15.9877773,52.8206295 16.1425148,52.8566243 16.2427688,52.8566243 C16.8835225,52.8566243 17.2954294,52.8248642 17.4785019,52.761343 C17.8490057,52.6427701 18.0342549,52.344225 18.0342549,51.8656987 C18.0342549,51.6073792 18.0146402,51.4210532 17.9754104,51.3067151 C17.9056685,51.124621 17.7683662,51.0335753 17.5634994,51.0335753 C17.3324794,51.0335753 17.1504993,51.034634 17.0175538,51.0367514 C16.8846083,51.0388687 16.8007014,51.0420447 16.7658304,51.0462795 C16.7396772,51.0505142 16.6993583,51.0568663 16.6448724,51.0653358 C16.5903866,51.0738052 16.5217354,51.0886266 16.4389169,51.1098004 C16.3081509,51.1352088 16.2013602,51.1479129 16.1185417,51.1479129 C16.0313643,51.1479129 15.9496368,51.1320328 15.8733566,51.1002722 C15.7970764,51.0685116 15.7295149,51.0251061 15.6706702,50.9700544 C15.6118254,50.9150027 15.566058,50.8504238 15.5333665,50.7763158 C15.500675,50.7022077 15.4843295,50.6228074 15.4843295,50.5381125 C15.4843295,50.2416803 15.6412464,50.0511196 15.9550849,49.9664247 C16.0945687,49.9325467 16.3713527,49.915608 16.7854452,49.915608 C16.8856992,49.915608 17.0317191,49.92196 17.2235094,49.9346642 C17.4109407,49.9473685 17.5547812,49.9537205 17.6550352,49.9537205 C17.8991318,49.9537205 18.0211783,49.6869355 18.0211783,49.1533575 C18.0211783,48.7468219 17.927464,48.4800369 17.7400327,48.3529946 C17.5918312,48.2598301 17.2932531,48.2132486 16.8442897,48.2132486 C16.7614712,48.2132486 16.4759696,48.2323047 15.9877763,48.2704174 C15.9529053,48.2746522 15.9071379,48.2820629 15.8504726,48.2926497 C15.7938073,48.3032366 15.7240665,48.3191167 15.641248,48.3402904 C15.4974053,48.3784031 15.3731794,48.3974592 15.2685666,48.3974592 C15.1072884,48.3974592 14.9754346,48.3424083 14.8730012,48.2323049 C14.7705678,48.1222015 14.7193519,47.988809 14.7193519,47.8321234 C14.7193519,47.4933437 14.9830595,47.2667882 15.5104826,47.1524501 C15.793809,47.0931636 16.1969983,47.0635209 16.7200625,47.0635209 C17.6223483,47.0635209 18.239119,47.1609186 18.570393,47.3557169 C19.0324331,47.6267406 19.2634497,48.1730146 19.2634497,48.9945554 C19.2634497,49.6467062 19.123968,50.12946 18.8450004,50.4428312 C18.8362826,50.4597702 18.8319238,50.4724742 18.8319238,50.4809437 C18.8319238,50.4894132 18.8428208,50.5042346 18.8646152,50.5254083 C19.0302522,50.6736245 19.1435811,50.8895933 19.2046052,51.1733212 C19.243835,51.3469458 19.2634497,51.5883227 19.2634497,51.8974592 Z M24.9435719,51.8974592 C24.9435719,52.5411405 24.8106284,53.0238943 24.5447374,53.345735 C24.3180762,53.6209935 23.9650132,53.8073195 23.4855376,53.9047187 C23.3242595,53.9343619 23.1161266,53.956594 22.8611328,53.9714156 C22.606139,53.9862372 22.3021125,53.9936479 21.9490441,53.9936479 C20.8898391,53.9936479 20.3602445,53.758623 20.3602445,53.2885662 C20.3602445,53.1107069 20.420178,52.9582583 20.5400469,52.831216 C20.6599158,52.7041736 20.8113842,52.6406534 20.9944567,52.6406534 C21.0947107,52.6406534 21.2494482,52.6766482 21.4586739,52.7486388 C21.6678996,52.8206295 21.8226371,52.8566243 21.9228911,52.8566243 C22.5636447,52.8566243 22.9755516,52.8248642 23.1586241,52.761343 C23.529128,52.6427701 23.7143771,52.344225 23.7143771,51.8656987 C23.7143771,51.6073792 23.6947625,51.4210532 23.6555327,51.3067151 C23.5857908,51.124621 23.4484885,51.0335753 23.2436216,51.0335753 C23.0126016,51.0335753 22.8306216,51.034634 22.6976761,51.0367514 C22.5647306,51.0388687 22.4808236,51.0420447 22.4459527,51.0462795 C22.4197995,51.0505142 22.3794805,51.0568663 22.3249947,51.0653358 C22.2705088,51.0738052 22.2018577,51.0886266 22.1190392,51.1098004 C21.9882731,51.1352088 21.8814824,51.1479129 21.7986639,51.1479129 C21.7114865,51.1479129 21.629759,51.1320328 21.5534788,51.1002722 C21.4771986,51.0685116 21.4096371,51.0251061 21.3507924,50.9700544 C21.2919477,50.9150027 21.2461803,50.8504238 21.2134887,50.7763158 C21.1807972,50.7022077 21.1644517,50.6228074 21.1644517,50.5381125 C21.1644517,50.2416803 21.3213686,50.0511196 21.6352072,49.9664247 C21.774691,49.9325467 22.051475,49.915608 22.4655675,49.915608 C22.5658215,49.915608 22.7118414,49.92196 22.9036316,49.9346642 C23.0910629,49.9473685 23.2349034,49.9537205 23.3351574,49.9537205 C23.5792541,49.9537205 23.7013006,49.6869355 23.7013006,49.1533575 C23.7013006,48.7468219 23.6075863,48.4800369 23.4201549,48.3529946 C23.2719534,48.2598301 22.9733754,48.2132486 22.5244119,48.2132486 C22.4415934,48.2132486 22.1560918,48.2323047 21.6678985,48.2704174 C21.6330276,48.2746522 21.5872601,48.2820629 21.5305948,48.2926497 C21.4739296,48.3032366 21.4041887,48.3191167 21.3213702,48.3402904 C21.1775275,48.3784031 21.0533016,48.3974592 20.9486888,48.3974592 C20.7874107,48.3974592 20.6555569,48.3424083 20.5531234,48.2323049 C20.45069,48.1222015 20.3994741,47.988809 20.3994741,47.8321234 C20.3994741,47.4933437 20.6631817,47.2667882 21.1906048,47.1524501 C21.4739313,47.0931636 21.8771205,47.0635209 22.4001848,47.0635209 C23.3024706,47.0635209 23.9192412,47.1609186 24.2505153,47.3557169 C24.7125553,47.6267406 24.9435719,48.1730146 24.9435719,48.9945554 C24.9435719,49.6467062 24.8040902,50.12946 24.5251226,50.4428312 C24.5164049,50.4597702 24.5120461,50.4724742 24.5120461,50.4809437 C24.5120461,50.4894132 24.5229431,50.5042346 24.5447374,50.5254083 C24.7103744,50.6736245 24.8237033,50.8895933 24.8847275,51.1733212 C24.9239573,51.3469458 24.9435719,51.5883227 24.9435719,51.8974592 Z M30.6236941,51.8974592 C30.6236941,52.5411405 30.4907506,53.0238943 30.2248597,53.345735 C29.9981985,53.6209935 29.6451354,53.8073195 29.1656599,53.9047187 C29.0043817,53.9343619 28.7962489,53.956594 28.5412551,53.9714156 C28.2862613,53.9862372 27.9822347,53.9936479 27.6291664,53.9936479 C26.5699613,53.9936479 26.0403667,53.758623 26.0403667,53.2885662 C26.0403667,53.1107069 26.1003003,52.9582583 26.2201691,52.831216 C26.340038,52.7041736 26.4915064,52.6406534 26.6745789,52.6406534 C26.7748329,52.6406534 26.9295704,52.6766482 27.1387961,52.7486388 C27.3480218,52.8206295 27.5027593,52.8566243 27.6030133,52.8566243 C28.243767,52.8566243 28.6556739,52.8248642 28.8387464,52.761343 C29.2092502,52.6427701 29.3944993,52.344225 29.3944993,51.8656987 C29.3944993,51.6073792 29.3748847,51.4210532 29.3356549,51.3067151 C29.265913,51.124621 29.1286107,51.0335753 28.9237439,51.0335753 C28.6927238,51.0335753 28.5107438,51.034634 28.3777983,51.0367514 C28.2448528,51.0388687 28.1609459,51.0420447 28.1260749,51.0462795 C28.0999217,51.0505142 28.0596028,51.0568663 28.0051169,51.0653358 C27.9506311,51.0738052 27.8819799,51.0886266 27.7991614,51.1098004 C27.6683953,51.1352088 27.5616047,51.1479129 27.4787862,51.1479129 C27.3916088,51.1479129 27.3098812,51.1320328 27.233601,51.1002722 C27.1573208,51.0685116 27.0897594,51.0251061 27.0309146,50.9700544 C26.9720699,50.9150027 26.9263025,50.8504238 26.893611,50.7763158 C26.8609195,50.7022077 26.8445739,50.6228074 26.8445739,50.5381125 C26.8445739,50.2416803 27.0014909,50.0511196 27.3153294,49.9664247 C27.4548132,49.9325467 27.7315972,49.915608 28.1456897,49.915608 C28.2459437,49.915608 28.3919636,49.92196 28.5837538,49.9346642 C28.7711852,49.9473685 28.9150257,49.9537205 29.0152797,49.9537205 C29.2593763,49.9537205 29.3814228,49.6869355 29.3814228,49.1533575 C29.3814228,48.7468219 29.2877085,48.4800369 29.1002772,48.3529946 C28.9520756,48.2598301 28.6534976,48.2132486 28.2045342,48.2132486 C28.1217156,48.2132486 27.836214,48.2323047 27.3480208,48.2704174 C27.3131498,48.2746522 27.2673824,48.2820629 27.2107171,48.2926497 C27.1540518,48.3032366 27.0843109,48.3191167 27.0014924,48.3402904 C26.8576498,48.3784031 26.7334239,48.3974592 26.628811,48.3974592 C26.4675329,48.3974592 26.3356791,48.3424083 26.2332457,48.2323049 C26.1308123,48.1222015 26.0795963,47.988809 26.0795963,47.8321234 C26.0795963,47.4933437 26.3433039,47.2667882 26.870727,47.1524501 C27.1540535,47.0931636 27.5572428,47.0635209 28.080307,47.0635209 C28.9825928,47.0635209 29.5993635,47.1609186 29.9306375,47.3557169 C30.3926776,47.6267406 30.6236941,48.1730146 30.6236941,48.9945554 C30.6236941,49.6467062 30.4842124,50.12946 30.2052448,50.4428312 C30.1965271,50.4597702 30.1921683,50.4724742 30.1921683,50.4809437 C30.1921683,50.4894132 30.2030653,50.5042346 30.2248597,50.5254083 C30.3904967,50.6736245 30.5038255,50.8895933 30.5648497,51.1733212 C30.6040795,51.3469458 30.6236941,51.5883227 30.6236941,51.8974592 Z M40.251297,53.3393829 C40.251297,53.4156084 40.2371309,53.4886566 40.2087982,53.5585299 C40.1804656,53.6284033 40.1423261,53.6898061 40.0943785,53.7427405 C40.046431,53.7956748 39.9897665,53.8390803 39.9243835,53.8729583 C39.8590005,53.9068362 39.7870802,53.923775 39.7086206,53.923775 L36.2302608,53.930127 C36.0559061,53.930127 35.9186038,53.8761348 35.8183498,53.7681488 C35.7180958,53.6601628 35.6679696,53.521477 35.6679696,53.3520871 C35.6679696,52.954021 35.8445011,52.7444042 36.1975695,52.7232305 C36.3850008,52.7359347 36.6705024,52.7422868 37.0540829,52.7422868 C37.215361,52.738052 37.3025371,52.6935878 37.3156137,52.6088929 C37.3461258,52.3844514 37.3690095,52.112373 37.3842655,51.7926497 C37.3995215,51.4729264 37.4071495,51.101333 37.4071495,50.6778584 C37.4071495,50.2543838 37.3809966,49.6318855 37.3286902,48.8103448 C37.3243313,48.6833025 37.2371553,48.5583793 37.0671594,48.4355717 C36.9058813,48.3169988 36.8252434,48.1624329 36.8252434,47.9718693 C36.8252434,47.7262541 36.9494693,47.5081679 37.1979248,47.3176044 C37.424586,47.1355103 37.6664996,47.0444646 37.9236728,47.0444646 C38.3769951,47.0444646 38.6036529,47.2223213 38.6036529,47.5780399 C38.599294,47.6246221 38.5971146,47.6976704 38.5971146,47.7971869 C38.5971146,47.8967035 38.5949352,48.0269199 38.5905764,48.1878403 C38.5862175,48.3148827 38.5840381,48.4292191 38.5840381,48.530853 L38.5840381,52.6088929 C38.5840381,52.7274658 38.7474932,52.7825167 39.0744084,52.7740472 C39.1790212,52.7740472 39.3076059,52.7676952 39.4601663,52.7549909 C39.5386259,52.7465214 39.5996492,52.7401694 39.6432379,52.7359347 C39.6868266,52.7316999 39.7129794,52.7295826 39.7216971,52.7295826 C39.8481043,52.7295826 39.9679714,52.7994548 40.081302,52.9392015 C40.1946326,53.0831828 40.251297,53.2165753 40.251297,53.3393829 Z M45.9379575,53.4346642 C45.9379575,53.5998193 45.8834725,53.7321532 45.7745008,53.8316697 C45.665529,53.9311862 45.5260473,53.9809437 45.3560515,53.9809437 C45.3298982,53.9809437 45.2972072,53.9777677 45.2579774,53.9714156 L45.1206737,53.9491833 C45.011702,53.9280096 44.9376024,53.9174229 44.8983725,53.9174229 L42.0934546,53.9174229 C41.8667935,53.9174229 41.7000692,53.8708414 41.5932769,53.777677 C41.4864847,53.6845125 41.4265511,53.5299466 41.4134745,53.3139746 C41.3916802,52.907439 41.374245,52.5877205 41.3611684,52.3548094 C41.3480917,52.1218984 41.3415535,51.9694498 41.3415535,51.8974592 C41.3415535,51.4782193 41.398218,51.1585008 41.5115486,50.938294 C41.6553912,50.6672703 41.9169194,50.4745922 42.296141,50.3602541 C42.4443425,50.3179066 42.6263226,50.2766185 42.8420866,50.2363884 C43.0578506,50.1961583 43.3117508,50.1569875 43.603795,50.1188748 C44.3448027,50.0214756 44.715301,49.7081091 44.715301,49.1787659 C44.715301,48.7256481 44.6063309,48.4376897 44.3883875,48.314882 C44.2489037,48.2344219 43.9154552,48.1941924 43.3880321,48.1941924 C43.0654758,48.1941924 42.7974094,48.2323045 42.5838249,48.3085299 C42.2874218,48.4101638 42.0912757,48.46098 41.9953806,48.46098 C41.8253847,48.46098 41.6946206,48.3889904 41.6030844,48.2450091 C41.5289836,48.1222014 41.4919338,47.9803396 41.4919338,47.8194192 C41.4919338,47.307015 42.1719071,47.0508167 43.5318741,47.0508167 C44.3731357,47.0508167 44.9659329,47.1736225 45.3102836,47.4192377 C45.7243761,47.7199047 45.9314192,48.2640614 45.9314192,49.0517241 C45.9314192,50.2078098 45.3887482,50.8768896 44.30339,51.0589837 C44.1900594,51.0716879 44.0756408,51.084392 43.9601308,51.0970962 C43.8446207,51.1098004 43.7302022,51.1203871 43.6168716,51.1288566 C43.3117508,51.1669693 43.0785548,51.2283722 42.9172767,51.3130672 C42.6993332,51.4358748 42.5903632,51.6137314 42.5903632,51.8466425 C42.5903632,52.3844552 42.6317718,52.6745309 42.7145903,52.7168784 C42.7625378,52.7422869 42.8497139,52.7571083 42.9761211,52.761343 C43.111246,52.7698125 43.2452792,52.7761645 43.3782247,52.7803993 C43.5111702,52.784634 43.6452034,52.7867514 43.7803283,52.7867514 C44.3295458,52.7867514 44.667353,52.7803993 44.7937602,52.7676951 C44.8111957,52.7634604 44.8417073,52.758167 44.885296,52.7518149 C44.9288847,52.7454628 44.9855491,52.7338174 45.055291,52.7168784 C45.1075975,52.7084089 45.1555443,52.7020569 45.199133,52.6978221 C45.2427217,52.6935874 45.2819509,52.6914701 45.3168218,52.6914701 C45.5129709,52.6914701 45.6698878,52.7698117 45.7875773,52.9264973 C45.8878313,53.0704786 45.9379575,53.2398659 45.9379575,53.4346642 Z M51.6115415,51.8974592 C51.6115415,52.5411405 51.478598,53.0238943 51.212707,53.345735 C50.9860458,53.6209935 50.6329828,53.8073195 50.1535072,53.9047187 C49.9922291,53.9343619 49.7840962,53.956594 49.5291024,53.9714156 C49.2741086,53.9862372 48.9700821,53.9936479 48.6170137,53.9936479 C47.5578086,53.9936479 47.0282141,53.758623 47.0282141,53.2885662 C47.0282141,53.1107069 47.0881476,52.9582583 47.2080165,52.831216 C47.3278854,52.7041736 47.4793538,52.6406534 47.6624263,52.6406534 C47.7626802,52.6406534 47.9174178,52.6766482 48.1266434,52.7486388 C48.3358691,52.8206295 48.4906067,52.8566243 48.5908606,52.8566243 C49.2316143,52.8566243 49.6435212,52.8248642 49.8265937,52.761343 C50.1970975,52.6427701 50.3823467,52.344225 50.3823467,51.8656987 C50.3823467,51.6073792 50.3627321,51.4210532 50.3235022,51.3067151 C50.2537603,51.124621 50.116458,51.0335753 49.9115912,51.0335753 C49.6805712,51.0335753 49.4985911,51.034634 49.3656457,51.0367514 C49.2327002,51.0388687 49.1487932,51.0420447 49.1139223,51.0462795 C49.087769,51.0505142 49.0474501,51.0568663 48.9929643,51.0653358 C48.9384784,51.0738052 48.8698272,51.0886266 48.7870087,51.1098004 C48.6562427,51.1352088 48.549452,51.1479129 48.4666335,51.1479129 C48.3794561,51.1479129 48.2977286,51.1320328 48.2214484,51.1002722 C48.1451682,51.0685116 48.0776067,51.0251061 48.018762,50.9700544 C47.9599173,50.9150027 47.9141498,50.8504238 47.8814583,50.7763158 C47.8487668,50.7022077 47.8324213,50.6228074 47.8324213,50.5381125 C47.8324213,50.2416803 47.9893382,50.0511196 48.3031767,49.9664247 C48.4426605,49.9325467 48.7194445,49.915608 49.1335371,49.915608 C49.233791,49.915608 49.3798109,49.92196 49.5716012,49.9346642 C49.7590325,49.9473685 49.902873,49.9537205 50.003127,49.9537205 C50.2472236,49.9537205 50.3692701,49.6869355 50.3692701,49.1533575 C50.3692701,48.7468219 50.2755559,48.4800369 50.0881245,48.3529946 C49.939923,48.2598301 49.641345,48.2132486 49.1923815,48.2132486 C49.109563,48.2132486 48.8240614,48.2323047 48.3358681,48.2704174 C48.3009971,48.2746522 48.2552297,48.2820629 48.1985644,48.2926497 C48.1418991,48.3032366 48.0721583,48.3191167 47.9893398,48.3402904 C47.8454971,48.3784031 47.7212712,48.3974592 47.6166584,48.3974592 C47.4553802,48.3974592 47.3235264,48.3424083 47.221093,48.2323049 C47.1186596,48.1222015 47.0674437,47.988809 47.0674437,47.8321234 C47.0674437,47.4933437 47.3311513,47.2667882 47.8585744,47.1524501 C48.1419008,47.0931636 48.5450901,47.0635209 49.0681544,47.0635209 C49.9704402,47.0635209 50.5872108,47.1609186 50.9184848,47.3557169 C51.3805249,47.6267406 51.6115415,48.1730146 51.6115415,48.9945554 C51.6115415,49.6467062 51.4720598,50.12946 51.1930922,50.4428312 C51.1843744,50.4597702 51.1800156,50.4724742 51.1800156,50.4809437 C51.1800156,50.4894132 51.1909126,50.5042346 51.212707,50.5254083 C51.378344,50.6736245 51.4916729,50.8895933 51.552697,51.1733212 C51.5919269,51.3469458 51.6115415,51.5883227 51.6115415,51.8974592 Z M57.3505081,50.6079855 C57.3505081,50.8747745 57.1565414,51.0314577 56.7686021,51.0780399 L56.3828442,51.1161525 C56.2695136,51.1373262 56.2106697,51.1690863 56.2063109,51.2114338 C56.1888754,51.2918939 56.1801578,51.5078627 56.1801578,51.8593466 C56.1801578,51.9440416 56.1812475,52.0499086 56.1834269,52.176951 C56.1856063,52.3039934 56.1888754,52.4543246 56.1932343,52.6279492 C56.1975932,52.797339 56.2008623,52.9455529 56.2030417,53.0725953 C56.2052212,53.1996377 56.2063109,53.3055047 56.2063109,53.3901996 C56.2063109,53.5595895 56.1550949,53.7014513 56.0526615,53.8157895 C55.9502281,53.9301276 55.8161949,53.9872958 55.6505579,53.9872958 C55.5720983,53.9872958 55.4947295,53.9735331 55.4184493,53.9460073 C55.3421691,53.9184814 55.2756973,53.8803693 55.2190321,53.8316697 C55.1623668,53.7829701 55.1165993,53.7247432 55.0817284,53.6569873 C55.0468574,53.5892314 55.0294222,53.5172418 55.0294222,53.4410163 C55.0294222,53.3774951 55.0326913,53.2980949 55.0392296,53.2028131 C55.0457679,53.1075313 55.0533958,52.9942535 55.0621136,52.8629764 C55.0708313,52.7316993 55.0784592,52.6173629 55.0849975,52.5199637 C55.0915358,52.4225645 55.0948049,52.3421056 55.0948049,52.2785844 C55.0948049,51.7280674 55.0860873,51.4041142 55.0686518,51.3067151 C55.064293,51.2897761 55.0599342,51.27072 55.0555753,51.2495463 C55.0512164,51.2283725 55.0446782,51.2050818 55.0359605,51.1796733 C55.018525,51.1627343 54.9444254,51.1415609 54.8136593,51.1161525 C54.5608449,51.0695702 54.2012437,51.0462795 53.7348447,51.0462795 C53.6999738,51.0462795 53.6454887,51.0536902 53.571388,51.0685118 C53.4972872,51.0833334 53.4406227,51.0907441 53.4013929,51.0907441 C53.0221714,51.0907441 52.8238458,50.8472499 52.8064103,50.3602541 C52.784616,49.911371 52.7682705,49.4656707 52.7573733,49.0231397 C52.7464761,48.5806088 52.7410276,48.1349085 52.7410276,47.6860254 C52.7410276,47.5081661 52.7900642,47.3578349 52.8881387,47.2350272 C52.9862133,47.1122196 53.1267847,47.0508167 53.3098571,47.0508167 C53.5888247,47.0508167 53.7697151,47.1545664 53.8525336,47.362069 C53.9004811,47.4806419 53.9244545,47.692376 53.9244545,47.9972777 C53.9244545,48.0904421 53.9222751,48.2026612 53.9179163,48.3339383 C53.9135574,48.4652154 53.9070192,48.6197813 53.8983015,48.7976407 C53.8895837,48.9755 53.8830455,49.1300659 53.8786867,49.261343 C53.8743278,49.3926201 53.8721484,49.5048392 53.8721484,49.5980036 C53.8721484,49.7462197 53.8972115,49.8478521 53.9473385,49.9029038 C53.9974655,49.9579555 54.0922695,49.9897156 54.2317532,49.9981851 C54.2579065,50.0024199 54.2971357,50.0045372 54.3494421,50.0045372 L54.5521285,50.0045372 C54.8528904,50.0045372 55.0272426,49.9748944 55.0751901,49.915608 C55.1057022,49.8859648 55.120958,49.7673937 55.120958,49.5598911 C55.120958,49.3396843 55.1078816,49.0220831 55.0817284,48.607078 L55.0588444,48.0512704 C55.0523061,47.8924674 55.049037,47.7580163 55.049037,47.6479129 C55.049037,47.2498468 55.249542,47.0508167 55.6505579,47.0508167 C55.8685013,47.0508167 56.01888,47.1164543 56.1016985,47.2477314 C56.1714404,47.3536 56.2063109,47.5166353 56.2063109,47.7368421 C56.2063109,47.9316404 56.1997727,48.2153641 56.186696,48.5880218 C56.1823372,48.7743506 56.1790681,48.9373859 56.1768886,49.0771325 C56.1747092,49.2168791 56.1736195,49.3354502 56.1736195,49.4328494 C56.1736195,49.822446 56.2498986,50.0172414 56.402459,50.0172414 C56.4983541,50.0172414 56.5855301,50.0034787 56.6639898,49.9759528 C56.7424494,49.948427 56.8056521,49.9346642 56.8535996,49.9346642 C57.0148777,49.9346642 57.141283,50.0108885 57.2328193,50.1633394 C57.3112789,50.2903818 57.3505081,50.4385956 57.3505081,50.6079855 Z M62.9260181,51.9101633 C62.9260181,52.6554786 62.7691011,53.1869313 62.4552626,53.5045372 C62.1327063,53.8348474 61.5922147,54 60.8337716,54 C60.6855701,54 60.5046797,53.993648 60.2910952,53.9809437 C60.2867363,53.9809437 60.2409689,53.9798851 60.1537915,53.9777677 C60.0666141,53.9756503 59.9314912,53.9724743 59.7484187,53.9682396 C59.3691972,53.9640048 59.0815161,53.921658 58.8853671,53.8411978 C58.5802463,53.7226249 58.4276881,53.5003041 58.4276881,53.1742287 C58.4276881,53.0217778 58.4810835,52.8883853 58.5878758,52.7740472 C58.694668,52.659709 58.8287012,52.6025408 58.9899794,52.6025408 C59.0902334,52.6025408 59.3234293,52.647005 59.6895743,52.7359347 C60.064437,52.8206296 60.330324,52.8629764 60.4872433,52.8629764 C61.0015898,52.8629764 61.3328588,52.7973388 61.4810603,52.6660617 C61.6292619,52.5347846 61.7033615,52.2214181 61.7033615,51.7259528 C61.7033615,51.5777367 61.6532353,51.4464616 61.5529813,51.3321234 C61.4527273,51.2177853 61.326322,51.1563824 61.1737616,51.1479129 C60.8773586,51.1309739 60.6365347,51.1193285 60.4512828,51.1129764 C60.2660309,51.1066243 60.1319977,51.1034483 60.0491792,51.1034483 C59.9968727,51.1034483 59.9369392,51.1066243 59.8693767,51.1129764 C59.8018143,51.1193285 59.7244455,51.1309739 59.6372681,51.1479129 C59.5500908,51.1648519 59.4749014,51.1764972 59.4116978,51.1828494 C59.3484942,51.1892015 59.2950989,51.1923775 59.2515102,51.1923775 C58.9420305,51.1923775 58.7262698,51.1140359 58.6042214,50.9573503 C58.4908909,50.8218384 58.4342264,50.6016349 58.4342264,50.2967332 C58.4342264,50.1612213 58.4364058,49.988658 58.4407647,49.7790381 C58.4451236,49.5694182 58.4516618,49.3248653 58.4603795,49.0453721 C58.4690972,48.7658788 58.4756354,48.5213259 58.4799943,48.311706 C58.4843532,48.1020861 58.4865326,47.9274054 58.4865326,47.7876588 C58.4865326,47.60133 58.5344794,47.4467641 58.6303745,47.3239564 C58.7349874,47.1799751 58.8810073,47.1079855 59.0684386,47.1079855 C59.1251039,47.1079855 59.1937551,47.1111615 59.2743941,47.1175136 C59.3550332,47.1238657 59.4498372,47.1355111 59.5588089,47.1524501 C59.6721395,47.1693891 59.7702126,47.1810345 59.8530311,47.1873866 C59.9358496,47.1937387 60.0055904,47.1969147 60.0622557,47.1969147 C60.2584048,47.1969147 60.7683848,47.1588026 61.5922109,47.0825771 C61.6140053,47.0783424 61.6510551,47.073049 61.7033615,47.0666969 C61.7556679,47.0603448 61.82105,47.0486994 61.8995096,47.0317604 C61.9605338,47.0232909 62.0171982,47.0158802 62.0695047,47.0095281 C62.1218111,47.003176 62.1675785,47 62.2068083,47 C62.2939857,47 62.3757133,47.0169387 62.4519935,47.0508167 C62.5282737,47.0846947 62.5936557,47.1302175 62.6481416,47.1873866 C62.7026274,47.2445556 62.7462155,47.3112519 62.778907,47.3874773 C62.8115985,47.4637027 62.827944,47.5441617 62.827944,47.6288566 C62.827944,47.8914109 62.7211533,48.0629155 62.5075688,48.1433757 C62.3898793,48.1984274 62.1828362,48.2259528 61.8864331,48.2259528 C61.0015828,48.2259528 60.3543005,48.2577129 59.9445668,48.3212341 C59.8138008,48.3381731 59.7440599,48.399576 59.7353422,48.5054446 L59.6961126,49.0707804 C59.6873948,49.1893533 59.6797669,49.296279 59.6732286,49.3915608 C59.6666903,49.4868426 59.6634212,49.5704776 59.6634212,49.6424682 C59.6634212,49.8499708 59.7091887,49.9748939 59.8007249,50.0172414 C59.8399547,50.0341804 59.9816158,50.0426497 60.2257125,50.0426497 L60.9906901,50.0426497 C61.0429965,50.0426497 61.1040197,50.0405324 61.1737616,50.0362976 C61.2435035,50.0320629 61.3045268,50.0288869 61.3568332,50.0267695 C61.4091396,50.0246521 61.4527277,50.0235935 61.4875986,50.0235935 C62.0455338,50.0235935 62.4400055,50.2120368 62.6710255,50.5889292 C62.8410214,50.8811267 62.9260181,51.3215337 62.9260181,51.9101633 Z M68.6061403,51.9673321 C68.6061403,52.7253516 68.414353,53.2589216 68.0307725,53.5680581 C67.6864219,53.8517861 67.1175981,53.9936479 66.324284,53.9936479 C64.929446,53.9936479 64.2189611,53.3499762 64.1928079,52.0626134 L64.1078104,47.654265 C64.1034515,47.4721709 64.160116,47.3260744 64.2778054,47.215971 C64.3954949,47.1058676 64.5458736,47.0508167 64.7289461,47.0508167 C64.9163774,47.0508167 65.0645767,47.1048089 65.1735484,47.2127949 C65.2825201,47.3207809 65.3370052,47.4658188 65.3370052,47.6479129 L65.3696965,49.76951 C65.3696965,49.8965524 65.4328992,49.9600726 65.5593064,49.9600726 C65.5941773,49.9600726 65.6388551,49.9568966 65.6933409,49.9505445 C65.7478268,49.9441923 65.8099397,49.9367817 65.8796816,49.9283122 C65.9537824,49.9198427 66.0180747,49.912432 66.0725606,49.9060799 C66.1270464,49.8997277 66.1717242,49.8965517 66.2065951,49.8965517 C67.0783688,49.8965517 67.6820631,50.0257095 68.017696,50.284029 C68.4099941,50.584696 68.6061403,51.1457914 68.6061403,51.9673321 Z M67.4030986,51.9292196 C67.4030986,51.7640645 67.3878428,51.6232613 67.3573307,51.5068058 C67.3268186,51.3903503 67.2756027,51.2971873 67.2036813,51.227314 C67.13176,51.1574407 67.0380457,51.1066245 66.9225357,51.0748639 C66.8070257,51.0431033 66.6642749,51.0272232 66.494279,51.0272232 C66.4332549,51.0272232 66.1477532,51.0399273 65.6377656,51.0653358 C65.5680237,51.0695705 65.5113593,51.1045066 65.4677706,51.1701452 C65.4241819,51.2357838 65.4023879,51.3067147 65.4023879,51.3829401 L65.4023879,51.9228675 C65.4111056,52.1557785 65.4394378,52.3294005 65.4873854,52.4437387 C65.5963571,52.7020582 65.8840381,52.831216 66.3504371,52.831216 C66.7645296,52.831216 67.0391342,52.7825171 67.1742591,52.685118 C67.3268195,52.5623103 67.4030986,52.3103467 67.4030986,51.9292196 Z M78.2402814,53.3901996 C78.2446403,53.568059 78.1879759,53.7130968 78.0702864,53.8253176 C77.952597,53.9375384 77.8022182,53.9936479 77.6191458,53.9936479 C77.4317144,53.9936479 77.2846048,53.9407144 77.1778125,53.8348457 C77.0710202,53.7289771 77.0176249,53.5849979 77.0176249,53.4029038 L76.9980101,51.2813067 C76.9980101,51.1669686 76.921731,51.1098004 76.7691706,51.1098004 C76.7299408,51.1098004 76.6809043,51.1119177 76.6220596,51.1161525 C76.5632148,51.1203872 76.4945637,51.1267392 76.416104,51.1352087 C76.2635436,51.1479129 76.1480354,51.154265 76.0695757,51.154265 C75.2108786,51.154265 74.615902,51.0229898 74.2846279,50.7604356 C73.918483,50.4640034 73.7354133,49.9029079 73.7354133,49.0771325 C73.7354133,48.285235 73.9163036,47.745313 74.2780897,47.4573503 C74.5962871,47.1990308 75.1781873,47.069873 76.0238078,47.069873 C76.847634,47.069873 77.412099,47.1884441 77.7172198,47.4255898 C78.0572116,47.6923788 78.2228461,48.2132448 78.2141283,48.9882033 C78.2054106,49.6064762 78.2032312,50.2797907 78.2075901,51.008167 C78.2119489,51.7365433 78.222846,52.5305462 78.2402814,53.3901996 Z M76.9914718,49.6297641 L76.9914718,49.1215971 C76.9914718,48.7277657 76.9348074,48.4758021 76.8214768,48.3656987 C76.7081462,48.2555953 76.4444386,48.2005445 76.0303461,48.2005445 C75.5813826,48.2005445 75.2937016,48.2428913 75.1672944,48.3275862 C75.014734,48.4376896 74.938455,48.6960052 74.938455,49.1025408 C74.938455,49.483668 75.0103752,49.7271622 75.1542179,49.8330309 C75.2762662,49.9261953 75.5421532,49.9727768 75.9518869,49.9727768 L76.1938029,49.9727768 C76.2766214,49.9727768 76.3648871,49.9696008 76.4586028,49.9632486 C76.5523185,49.9568965 76.6536606,49.9452511 76.7626324,49.9283122 C76.8628863,49.9156079 76.926089,49.8912585 76.9522422,49.8552632 C76.9783954,49.8192678 76.9914718,49.7441022 76.9914718,49.6297641 Z M83.9596333,49.407441 C83.9596333,49.5260139 83.9585436,49.6742278 83.9563642,49.8520871 C83.9541847,50.0299464 83.9509156,50.2395632 83.9465567,50.4809437 C83.9421979,50.7223243 83.9400185,50.9308824 83.9400185,51.1066243 L83.9400185,51.5480944 C83.9400185,52.1917758 83.8898922,52.6702949 83.7896383,52.9836661 C83.6719488,53.3478542 83.4496498,53.6061698 83.1227347,53.7586207 C82.8001784,53.9110715 82.3032749,53.9872958 81.6320091,53.9872958 C80.7035701,53.9872958 80.0867994,53.8157912 79.7816786,53.4727768 C79.5070699,53.1636403 79.3697676,52.5432593 79.3697676,51.6116152 L79.3697676,49.4328494 C79.3697676,48.5012053 79.5136081,47.8765896 79.8012934,47.5589837 C80.1107731,47.220204 80.7362614,47.0508167 81.677777,47.0508167 C82.5887805,47.0508167 83.2033718,47.2307907 83.5215692,47.5907441 C83.8136134,47.9125848 83.9596333,48.5181444 83.9596333,49.407441 Z M82.7304385,49.1533575 C82.7304385,48.7595262 82.65198,48.4990932 82.4950608,48.3720508 C82.3512181,48.2577127 82.0657165,48.2005445 81.6385474,48.2005445 C81.3377854,48.2005445 81.1176659,48.2280699 80.9781821,48.2831216 C80.7645975,48.3635818 80.6381922,48.520265 80.5989624,48.753176 C80.5858858,48.837871 80.5793476,48.9458554 80.5793476,49.0771325 L80.5793476,49.2073503 C80.5793476,49.2602846 80.581527,49.3227462 80.5858859,49.3947368 C80.5902447,49.4667275 80.5924241,49.5323651 80.5924241,49.5916515 L80.5924241,50.1887477 C80.5924241,50.3623723 80.5902447,50.5677544 80.5858859,50.8049002 L80.5858859,51.8529946 C80.5858859,52.2552954 80.6578061,52.5157284 80.8016488,52.6343013 C80.9411326,52.7528742 81.2266342,52.8121597 81.6581622,52.8121597 C82.0722547,52.8121597 82.3490387,52.7486395 82.4885225,52.6215971 C82.6280063,52.4945547 82.6977471,52.2320044 82.6977471,51.8339383 C82.6977471,51.6857222 82.6988368,51.5004548 82.7010163,51.2781307 C82.7031957,51.0558065 82.7064648,50.7943149 82.7108237,50.4936479 C82.7239003,49.8965487 82.7304385,49.4497897 82.7304385,49.1533575 Z M89.6397555,49.407441 C89.6397555,49.5260139 89.6386658,49.6742278 89.6364864,49.8520871 C89.634307,50.0299464 89.6310379,50.2395632 89.626679,50.4809437 C89.6223201,50.7223243 89.6201407,50.9308824 89.6201407,51.1066243 L89.6201407,51.5480944 C89.6201407,52.1917758 89.5700145,52.6702949 89.4697605,52.9836661 C89.352071,53.3478542 89.1297721,53.6061698 88.8028569,53.7586207 C88.4803007,53.9110715 87.9833971,53.9872958 87.3121313,53.9872958 C86.3836923,53.9872958 85.7669217,53.8157912 85.4618009,53.4727768 C85.1871921,53.1636403 85.0498898,52.5432593 85.0498898,51.6116152 L85.0498898,49.4328494 C85.0498898,48.5012053 85.1937303,47.8765896 85.4814157,47.5589837 C85.7908953,47.220204 86.4163836,47.0508167 87.3578992,47.0508167 C88.2689028,47.0508167 88.883494,47.2307907 89.2016914,47.5907441 C89.4937356,47.9125848 89.6397555,48.5181444 89.6397555,49.407441 Z M88.4105607,49.1533575 C88.4105607,48.7595262 88.3321023,48.4990932 88.175183,48.3720508 C88.0313403,48.2577127 87.7458387,48.2005445 87.3186696,48.2005445 C87.0179077,48.2005445 86.7977881,48.2280699 86.6583043,48.2831216 C86.4447197,48.3635818 86.3183145,48.520265 86.2790846,48.753176 C86.266008,48.837871 86.2594698,48.9458554 86.2594698,49.0771325 L86.2594698,49.2073503 C86.2594698,49.2602846 86.2616492,49.3227462 86.2660081,49.3947368 C86.270367,49.4667275 86.2725464,49.5323651 86.2725464,49.5916515 L86.2725464,50.1887477 C86.2725464,50.3623723 86.270367,50.5677544 86.2660081,50.8049002 L86.2660081,51.8529946 C86.2660081,52.2552954 86.3379283,52.5157284 86.481771,52.6343013 C86.6212548,52.7528742 86.9067564,52.8121597 87.3382844,52.8121597 C87.7523769,52.8121597 88.0291609,52.7486395 88.1686447,52.6215971 C88.3081285,52.4945547 88.3778694,52.2320044 88.3778694,51.8339383 C88.3778694,51.6857222 88.3789591,51.5004548 88.3811385,51.2781307 C88.3833179,51.0558065 88.386587,50.7943149 88.3909459,50.4936479 C88.4040225,49.8965487 88.4105607,49.4497897 88.4105607,49.1533575 Z M95.3198778,49.407441 C95.3198778,49.5260139 95.3187881,49.6742278 95.3166086,49.8520871 C95.3144292,50.0299464 95.3111601,50.2395632 95.3068012,50.4809437 C95.3024424,50.7223243 95.300263,50.9308824 95.300263,51.1066243 L95.300263,51.5480944 C95.300263,52.1917758 95.2501367,52.6702949 95.1498827,52.9836661 C95.0321933,53.3478542 94.8098943,53.6061698 94.4829792,53.7586207 C94.1604229,53.9110715 93.6635193,53.9872958 92.9922536,53.9872958 C92.0638146,53.9872958 91.4470439,53.8157912 91.1419231,53.4727768 C90.8673144,53.1636403 90.7300121,52.5432593 90.7300121,51.6116152 L90.7300121,49.4328494 C90.7300121,48.5012053 90.8738526,47.8765896 91.1615379,47.5589837 C91.4710176,47.220204 92.0965058,47.0508167 93.0380215,47.0508167 C93.949025,47.0508167 94.5636163,47.2307907 94.8818137,47.5907441 C95.1738579,47.9125848 95.3198778,48.5181444 95.3198778,49.407441 Z M94.090683,49.1533575 C94.090683,48.7595262 94.0122245,48.4990932 93.8553052,48.3720508 C93.7114626,48.2577127 93.425961,48.2005445 92.9987918,48.2005445 C92.6980299,48.2005445 92.4779103,48.2280699 92.3384265,48.2831216 C92.124842,48.3635818 91.9984367,48.520265 91.9592069,48.753176 C91.9461303,48.837871 91.9395921,48.9458554 91.9395921,49.0771325 L91.9395921,49.2073503 C91.9395921,49.2602846 91.9417715,49.3227462 91.9461303,49.3947368 C91.9504892,49.4667275 91.9526686,49.5323651 91.9526686,49.5916515 L91.9526686,50.1887477 C91.9526686,50.3623723 91.9504892,50.5677544 91.9461303,50.8049002 L91.9461303,51.8529946 C91.9461303,52.2552954 92.0180506,52.5157284 92.1618932,52.6343013 C92.301377,52.7528742 92.5868787,52.8121597 93.0184066,52.8121597 C93.4324992,52.8121597 93.7092832,52.7486395 93.848767,52.6215971 C93.9882508,52.4945547 94.0579916,52.2320044 94.0579916,51.8339383 C94.0579916,51.6857222 94.0590813,51.5004548 94.0612607,51.2781307 C94.0634402,51.0558065 94.0667093,50.7943149 94.0710682,50.4936479 C94.0841448,49.8965487 94.090683,49.4497897 94.090683,49.1533575 Z M101,49.407441 C101,49.5260139 100.99891,49.6742278 100.996731,49.8520871 C100.994551,50.0299464 100.991282,50.2395632 100.986923,50.4809437 C100.982565,50.7223243 100.980385,50.9308824 100.980385,51.1066243 L100.980385,51.5480944 C100.980385,52.1917758 100.930259,52.6702949 100.830005,52.9836661 C100.712316,53.3478542 100.490017,53.6061698 100.163101,53.7586207 C99.8405451,53.9110715 99.3436416,53.9872958 98.6723758,53.9872958 C97.7439368,53.9872958 97.1271661,53.8157912 96.8220453,53.4727768 C96.5474366,53.1636403 96.4101343,52.5432593 96.4101343,51.6116152 L96.4101343,49.4328494 C96.4101343,48.5012053 96.5539748,47.8765896 96.8416601,47.5589837 C97.1511398,47.220204 97.7766281,47.0508167 98.7181437,47.0508167 C99.6291472,47.0508167 100.243738,47.2307907 100.561936,47.5907441 C100.85398,47.9125848 101,48.5181444 101,49.407441 Z M99.7708052,49.1533575 C99.7708052,48.7595262 99.6923467,48.4990932 99.5354275,48.3720508 C99.3915848,48.2577127 99.1060832,48.2005445 98.6789141,48.2005445 C98.3781521,48.2005445 98.1580326,48.2280699 98.0185488,48.2831216 C97.8049642,48.3635818 97.6785589,48.520265 97.6393291,48.753176 C97.6262525,48.837871 97.6197143,48.9458554 97.6197143,49.0771325 C97.6197143,49.1110105 97.6197143,49.1544159 97.6197143,49.2073503 C97.6197143,49.2602846 97.6218937,49.3227462 97.6262526,49.3947368 C97.6306114,49.4667275 97.6327908,49.5323651 97.6327908,49.5916515 C97.6327908,49.650938 97.6327908,49.7038715 97.6327908,49.7504537 C97.6327908,49.8690266 97.6327908,50.0151231 97.6327908,50.1887477 C97.6327908,50.3623723 97.6306114,50.5677544 97.6262526,50.8049002 L97.6262526,51.8529946 C97.6262526,52.2552954 97.6981728,52.5157284 97.8420155,52.6343013 C97.9814993,52.7528742 98.2670009,52.8121597 98.6985289,52.8121597 C99.1126214,52.8121597 99.3894054,52.7486395 99.5288892,52.6215971 C99.668373,52.4945547 99.7381138,52.2320044 99.7381138,51.8339383 C99.7381138,51.6857222 99.7392035,51.5004548 99.741383,51.2781307 C99.7435624,51.0558065 99.7468315,50.7943149 99.7511904,50.4936479 C99.764267,49.8965487 99.7708052,49.4497897 99.7708052,49.1533575 Z" id="333312345690000" fill="#000000" fill-rule="nonzero"></path>
                        <path d="M17.0534929,18.9005525 L15.5514984,18.9005525 L15.1418636,17.8232044 L12.8752173,17.8232044 L12.4473765,18.9005525 L11,18.9005525 L13.6034571,13.0994475 L14.6594047,13.0994475 L17.0534929,18.9005525 Z M14.0312979,14.9060773 L13.2575432,16.8535912 L14.7777437,16.8535912 L14.0404009,14.9060773 L14.0312979,14.9060773 Z M23.8625345,14.6657459 L21.9600082,18.9005525 L21.0315025,18.9005525 L19.1744912,14.6491713 L19.1744912,18.9005525 L17.8727626,18.9005525 L17.8727626,13.0994475 L19.7934949,13.0994475 L21.5048583,17.1436464 L23.2799427,13.0994475 L25.1642631,13.0994475 L25.1642631,18.9005525 L23.8625345,18.9005525 L23.8625345,14.6657459 Z M30.6624732,18.9005525 L26.5752276,18.9005525 L26.5752276,13.0994475 L30.6624732,13.0994475 L30.6624732,14.1022099 L27.8769561,14.1022099 L27.8769561,15.4116022 L30.6624732,15.4116022 L30.6624732,16.4143646 L27.8769561,16.4143646 L27.8769561,17.8977901 L30.6624732,17.8977901 L30.6624732,18.9005525 Z M31.8549657,13.0994475 L33.875831,13.0994475 C34.9044697,13.0994475 36.2061982,13.5801105 36.2061982,14.839779 C36.2061982,15.7430939 35.5325765,16.2403315 34.8225427,16.4558011 C35.3869285,17.1767956 36.3336402,18.3618785 36.770584,18.9005525 L35.1320446,18.9005525 L33.3842692,16.5883978 L33.1566943,16.5883978 L33.1566943,18.9005525 L31.8549657,18.9005525 L31.8549657,13.0994475 Z M33.1566943,14.1022099 L33.1566943,15.5856354 L33.6664621,15.5856354 C34.3218779,15.5856354 34.8134397,15.3701657 34.8134397,14.8646409 C34.8134397,14.4088398 34.4220108,14.1022099 33.839419,14.1022099 L33.1566943,14.1022099 Z M38.9279943,18.9005525 L37.6262657,18.9005525 L37.6262657,13.0994475 L38.9279943,13.0994475 L38.9279943,18.9005525 Z M41.4768334,16 C41.4768334,17.160221 42.2323821,17.9640884 43.4794927,17.9640884 C43.9619515,17.9640884 44.4444104,17.7900552 44.8358392,17.4834254 L45.564079,18.3453039 C44.9450752,18.7762431 44.2077324,19 43.4248747,19 C41.5132454,19 40.0840749,17.7734807 40.0840749,16 C40.0840749,14.301105 41.6042753,13 43.4794927,13 C44.2077324,13 44.8085302,13.2071823 45.436637,13.5635359 L44.8085302,14.4834254 C44.4262044,14.218232 43.9710545,14.0359116 43.4794927,14.0359116 C42.3234121,14.0359116 41.4768334,14.8977901 41.4768334,16 Z M51.9452797,18.9005525 L50.4432853,18.9005525 L50.0336504,17.8232044 L47.7670042,17.8232044 L47.3391633,18.9005525 L45.8917868,18.9005525 L48.4952439,13.0994475 L49.5511916,13.0994475 L51.9452797,18.9005525 Z M48.9230848,14.9060773 L48.1493301,16.8535912 L49.6695305,16.8535912 L48.9321878,14.9060773 L48.9230848,14.9060773 Z M58.1626266,18.9005525 L56.98834,18.9005525 L54.066278,15.2707182 L54.066278,18.9005525 L52.7645495,18.9005525 L52.7645495,13.0994475 L53.9115271,13.0994475 L56.860898,16.7375691 L56.860898,13.0994475 L58.1626266,13.0994475 L58.1626266,18.9005525 Z M65.9365859,18.9005525 L61.8493403,18.9005525 L61.8493403,13.0994475 L65.9365859,13.0994475 L65.9365859,14.1022099 L63.1510688,14.1022099 L63.1510688,15.4116022 L65.9365859,15.4116022 L65.9365859,16.4143646 L63.1510688,16.4143646 L63.1510688,17.8977901 L65.9365859,17.8977901 L65.9365859,18.9005525 Z M72.7911425,13.0994475 L70.4971873,15.9337017 L72.8548635,18.9005525 L71.1435001,18.9005525 L69.6050936,16.9198895 L68.0666871,18.9005525 L66.4281477,18.9005525 L68.7767209,15.9834254 L66.5009717,13.0994475 L68.2123351,13.0994475 L69.6779176,15.0055249 L71.161706,13.0994475 L72.7911425,13.0994475 Z M73.5740002,13.0994475 L75.6039685,13.0994475 C76.6872251,13.0994475 77.9889537,13.5801105 77.9889537,14.8977901 C77.9889537,16.2320442 76.6963281,16.7127072 75.6039685,16.7127072 L74.8757288,16.7127072 L74.8757288,18.9005525 L73.5740002,18.9005525 L73.5740002,13.0994475 Z M74.8757288,14.1022099 L74.8757288,15.7099448 L75.3945996,15.7099448 C76.0864273,15.7099448 76.6052981,15.5027624 76.6052981,14.9226519 C76.6052981,14.4088398 76.1865603,14.1022099 75.5675565,14.1022099 L74.8757288,14.1022099 Z M78.9265623,13.0994475 L80.9474276,13.0994475 C81.9760663,13.0994475 83.2777948,13.5801105 83.2777948,14.839779 C83.2777948,15.7430939 82.6041731,16.2403315 81.8941393,16.4558011 C82.4585251,17.1767956 83.4052368,18.3618785 83.8421806,18.9005525 L82.2036412,18.9005525 L80.4558658,16.5883978 L80.2282909,16.5883978 L80.2282909,18.9005525 L78.9265623,18.9005525 L78.9265623,13.0994475 Z M80.2282909,14.1022099 L80.2282909,15.5856354 L80.7380587,15.5856354 C81.3934745,15.5856354 81.8850363,15.3701657 81.8850363,14.8646409 C81.8850363,14.4088398 81.4936074,14.1022099 80.9110156,14.1022099 L80.2282909,14.1022099 Z M88.7851079,18.9005525 L84.6978623,18.9005525 L84.6978623,13.0994475 L88.7851079,13.0994475 L88.7851079,14.1022099 L85.9995909,14.1022099 L85.9995909,15.4116022 L88.7851079,15.4116022 L88.7851079,16.4143646 L85.9995909,16.4143646 L85.9995909,17.8977901 L88.7851079,17.8977901 L88.7851079,18.9005525 Z M93.5277693,14.5331492 C93.1727524,14.2596685 92.6993965,14.0110497 92.2078347,14.0110497 C91.7708909,14.0110497 91.379462,14.2099448 91.379462,14.5911602 C91.379462,15.038674 91.9802598,15.1629834 92.4718216,15.320442 C93.3730183,15.6022099 94.4562749,15.9834254 94.4562749,17.2016575 C94.4562749,18.461326 93.1545464,19 92.0439808,19 C91.0608571,19 90.2962054,18.660221 89.6043776,18.0303867 L90.4691623,17.2596685 C90.9880331,17.7154696 91.388565,17.9889503 92.0530838,17.9889503 C92.5628516,17.9889503 93.0635164,17.7651934 93.0635164,17.2513812 C93.0635164,16.7541436 92.4809246,16.5635359 91.8346118,16.3480663 C91.0062391,16.0662983 90.0777335,15.7348066 90.0777335,14.6243094 C90.0777335,13.5220994 91.1063721,13 92.1623197,13 C92.9815894,13 93.6279022,13.2403315 94.274215,13.6878453 L93.5277693,14.5331492 Z M99.0714943,14.5331492 C98.7164774,14.2596685 98.2431216,14.0110497 97.7515598,14.0110497 C97.3146159,14.0110497 96.9231871,14.2099448 96.9231871,14.5911602 C96.9231871,15.038674 97.5239849,15.1629834 98.0155467,15.320442 C98.9167434,15.6022099 100,15.9834254 100,17.2016575 C100,18.461326 98.6982715,19 97.5877058,19 C96.6045822,19 95.8399304,18.660221 95.1481027,18.0303867 L96.0128874,17.2596685 C96.5317582,17.7154696 96.9322901,17.9889503 97.5968088,17.9889503 C98.1065767,17.9889503 98.6072415,17.7651934 98.6072415,17.2513812 C98.6072415,16.7541436 98.0246497,16.5635359 97.3783369,16.3480663 C96.5499642,16.0662983 95.6214585,15.7348066 95.6214585,14.6243094 C95.6214585,13.5220994 96.6500972,13 97.7060448,13 C98.5253145,13 99.1716273,13.2403315 99.8179401,13.6878453 L99.0714943,14.5331492 Z" id="AMERICANEXPRESS" fill="#000000" fill-rule="nonzero"></path>
                    </g>
                    <g id="Credit-card">
                        <g id="Rectangle">
                            <use fill="black" fill-opacity="1" filter="url(#filter-4)" xlink:href="#path-3"></use>
                            <use fill="#FFE17C" fill-rule="evenodd" xlink:href="#path-3"></use>
                        </g>
                        <path d="M86.2899889,46.9127907 L85.6649427,46.9127907 L85.6649427,42.9156977 C85.4588105,43.0319767 85.186184,43.1482558 85,43.2354651 L85,42.5959302 C85.2659771,42.4505814 85.591799,42.2688953 85.8843738,42.0872093 L86.2899889,42.0872093 L86.2899889,46.9127907 Z M90.4043221,46.9127907 L87.5982638,46.9127907 L87.5982638,46.2950581 C88.1102697,45.7063953 88.7353158,44.9723837 89.1542298,44.3037791 C89.3337643,44.0203488 89.5598448,43.6206395 89.5598448,43.2790698 C89.5598448,42.8502907 89.1941263,42.6104651 88.8350573,42.6104651 C88.4693388,42.6104651 88.1435168,42.9156977 88.1368674,43.3590116 L87.5184706,43.2209302 C87.571666,42.4869186 88.2366088,42 88.861655,42 C89.5531954,42 90.2048393,42.5087209 90.2048393,43.2790698 C90.2048393,43.7223837 89.9854082,44.2165698 89.73273,44.6090116 C89.3537126,45.1976744 88.8949021,45.7718023 88.4360916,46.3023256 L90.4043221,46.3023256 L90.4043221,46.9127907 Z M91.9120798,44.7906977 L91.9120798,44.0930233 C92.1913557,44.0857558 92.3708903,44.0712209 92.5437754,44.0203488 C92.8895456,43.9186047 93.1355744,43.6497093 93.1355744,43.3008721 C93.1355744,42.9011628 92.8297008,42.6104651 92.397488,42.6104651 C92.071666,42.6104651 91.7790912,42.7921512 91.6727004,43.1337209 L91.1407462,42.8938953 C91.3136313,42.3706395 91.7857407,42 92.4107868,42 C93.222017,42 93.7739195,42.5087209 93.7739195,43.2936047 C93.7739195,43.7296512 93.5544884,44.1293605 93.222017,44.318314 C93.6741781,44.4854651 94,44.9505814 94,45.5101744 C94,46.4476744 93.3284078,47 92.5238271,47 C91.9719246,47 91.386775,46.7383721 91.1207979,46.193314 L91.6128556,45.8953488 C91.7990395,46.244186 92.1315109,46.3895349 92.4772811,46.3895349 C92.9360916,46.3895349 93.361655,46.127907 93.361655,45.568314 C93.361655,45.0813953 92.942741,44.7398256 92.4240857,44.7398256 C92.2711489,44.7398256 92.118212,44.7398256 91.9120798,44.7906977 Z" id="123" fill="#000000" fill-rule="nonzero"></path>
                        <path d="M80,37 L99,37 C100.656854,37 102,38.3431458 102,40 L102,48 C102,49.6568542 100.656854,51 99,51 L80,51 C78.3431458,51 77,49.6568542 77,48 L77,40 C77,38.3431458 78.3431458,37 80,37 Z M80.4423077,38.4 C79.3377382,38.4 78.4423077,39.2954305 78.4423077,40.4 L78.4423077,47.6 C78.4423077,48.7045695 79.3377382,49.6 80.4423077,49.6 L98.5576923,49.6 C99.6622618,49.6 100.557692,48.7045695 100.557692,47.6 L100.557692,40.4 C100.557692,39.2954305 99.6622618,38.4 98.5576923,38.4 L80.4423077,38.4 Z" id="Combined-Shape" fill="#FF0048"></path>
                        <rect id="Rectangle" fill="#FFFFFF" x="10" y="37" width="62" height="14"></rect>
                        <rect id="Rectangle" fill="#000000" x="0" y="12" width="110" height="14"></rect>
                    </g>
                </g>
            </g>
        </g>
    </g>
</svg>