<?xml version="1.0" encoding="UTF-8"?>
<svg width="393px" height="56px" viewBox="0 0 393 56" version="1.1" xmlns="http://www.w3.org/2000/svg" xmlns:xlink="http://www.w3.org/1999/xlink">
    <!-- Generator: Sketch 53.2 (72643) - https://sketchapp.com -->
    <title>data-slide_sp</title>
    <desc>Created with Sketch.</desc>
    <g id="Page-6" stroke="none" stroke-width="1" fill="none" fill-rule="evenodd">
        <g id="data-slide_sp" transform="translate(0.000000, 2.000000)">
            <g id="Line" transform="translate(4.000000, 12.000000)" stroke-linecap="round" stroke-linejoin="round" stroke-width="4">
                <path d="M0,0.5 L383.471074,0.5" id="Line-2-Copy-2" stroke="#F3F3F4"></path>
                <path d="M0,0.5 L229.682812,0.5" id="Line-2-Copy-3" stroke="#00C9FF"></path>
            </g>
            <g id="Tick-marks" transform="translate(0.000000, 10.000000)">
                <circle id="Oval" fill="#FFFFFF" opacity="0.7" cx="2.5" cy="2.5" r="2.5"></circle>
                <circle id="Oval" fill="#FFFFFF" opacity="0.7" cx="79.3" cy="2.5" r="2.5"></circle>
                <circle id="Oval" fill="#FFFFFF" opacity="0.7" cx="156.1" cy="2.5" r="2.5"></circle>
                <circle id="Oval" fill="#B4B4B4" cx="232.9" cy="2.5" r="2.5"></circle>
                <circle id="Oval-Copy" fill="#B4B4B4" cx="309.7" cy="2.5" r="2.5"></circle>
                <circle id="Oval" fill="#B4B4B4" cx="386.5" cy="2.5" r="2.5"></circle>
            </g>
            <g id="Selected" transform="translate(208.000000, 0.000000)">
                <g id="Base" transform="translate(19.000000, 6.000000)" fill="#D8D8D8">
                    <circle id="Oval" cx="6" cy="6" r="6"></circle>
                </g>
                <g>
                    <circle id="Oval" stroke="#FFFFFF" stroke-width="4" fill="#00C9FF" cx="25" cy="12" r="12"></circle>
                    <rect id="Rectangle" fill="#00C9FF" x="0" y="32" width="50" height="22" rx="2"></rect>
                    <path d="M7.752,44.536 L7.752,42.68 C8.248,42.68 8.712,42.632 9,42.552 C9.672,42.392 10.104,41.928 10.104,41.288 C10.104,40.632 9.608,40.104 8.76,40.104 C8.12,40.104 7.608,40.488 7.48,41.176 L5.56,40.344 C6.008,38.936 7.336,38.184 8.776,38.184 C10.648,38.184 12.376,39.272 12.376,41.032 C12.376,41.944 11.848,42.856 11.064,43.304 C12.152,43.704 12.856,44.76 12.856,45.928 C12.856,47.992 11.112,49.192 9.016,49.192 C7.512,49.192 6.024,48.424 5.384,46.936 L7.288,46.056 C7.608,46.824 8.216,47.272 9.032,47.272 C9.832,47.272 10.552,46.808 10.552,45.944 C10.552,44.968 9.736,44.456 8.6,44.456 C8.408,44.456 8.056,44.472 7.752,44.536 Z M18.008,38.184 C20.552,38.184 21.976,40.264 21.976,43.688 C21.976,47.112 20.552,49.192 18.008,49.192 C15.464,49.192 14.04,47.112 14.04,43.688 C14.04,40.264 15.464,38.184 18.008,38.184 Z M18.008,40.12 C16.952,40.12 16.344,41.288 16.344,43.688 C16.344,46.088 16.952,47.256 18.008,47.256 C19.064,47.256 19.672,46.088 19.672,43.688 C19.672,41.288 19.064,40.12 18.008,40.12 Z M31.848,44.472 L29.16,44.472 L29.16,42.536 L34.136,42.536 L34.136,46.904 C32.968,48.472 31.192,49.192 29.256,49.192 C25.864,49.192 23.288,46.84 23.288,43.4 C23.288,40.12 25.96,37.608 29.256,37.608 C31.144,37.608 32.728,38.392 33.96,39.816 L32.376,41.192 C31.592,40.28 30.536,39.608 29.256,39.608 C27.224,39.608 25.736,41.272 25.736,43.4 C25.736,45.64 27.128,47.192 29.256,47.192 C30.168,47.192 31.144,46.824 31.848,46.152 L31.848,44.472 Z M36.44,37.8 L39.384,37.8 C40.456,37.8 41.592,37.976 42.424,38.52 C43.288,39.08 43.736,39.96 43.736,40.968 C43.736,41.896 43.256,42.712 42.328,43.128 C43.464,43.512 44.2,44.488 44.2,45.672 C44.2,47 43.416,48.04 42.2,48.552 C41.352,48.904 40.264,49 39.256,49 L36.44,49 L36.44,37.8 Z M38.728,44.216 L38.728,47.08 L39.256,47.08 C39.928,47.08 40.632,47.08 41.112,46.84 C41.512,46.632 41.752,46.296 41.752,45.72 C41.752,44.792 41.144,44.216 40.008,44.216 L38.728,44.216 Z M38.728,39.72 L38.728,42.36 L39.368,42.36 C40.68,42.36 41.448,41.928 41.448,41.048 C41.448,40.536 41.24,40.216 40.968,40.008 C40.536,39.72 39.896,39.72 39.176,39.72 L38.728,39.72 Z" id="30GB" fill="#FFFFFF" fill-rule="nonzero"></path>
                </g>
            </g>
            <path d="M6.5,27.888 C8.3,27.888 9.32,29.46 9.32,32.016 C9.32,34.572 8.3,36.144 6.5,36.144 C4.7,36.144 3.68,34.572 3.68,32.016 C3.68,29.46 4.7,27.888 6.5,27.888 Z M6.5,28.92 C5.444,28.92 4.832,29.94 4.832,32.016 C4.832,34.092 5.444,35.112 6.5,35.112 C7.556,35.112 8.168,34.092 8.168,32.016 C8.168,29.94 7.556,28.92 6.5,28.92 Z" id="0" fill="#999999" fill-rule="nonzero"></path>
            <path d="M80.124,36 L78.996,36 L78.996,29.4 C78.624,29.592 78.132,29.784 77.796,29.928 L77.796,28.872 C78.276,28.632 78.864,28.332 79.392,28.032 L80.124,28.032 L80.124,36 Z M84.564,27.888 C86.364,27.888 87.384,29.46 87.384,32.016 C87.384,34.572 86.364,36.144 84.564,36.144 C82.764,36.144 81.744,34.572 81.744,32.016 C81.744,29.46 82.764,27.888 84.564,27.888 Z M84.564,28.92 C83.508,28.92 82.896,29.94 82.896,32.016 C82.896,34.092 83.508,35.112 84.564,35.112 C85.62,35.112 86.232,34.092 86.232,32.016 C86.232,29.94 85.62,28.92 84.564,28.92 Z" id="10" fill="#999999" fill-rule="nonzero"></path>
            <path d="M157.906,36 L152.842,36 L152.842,34.98 C153.766,34.008 154.894,32.796 155.65,31.692 C155.974,31.224 156.382,30.564 156.382,30 C156.382,29.292 155.722,28.896 155.074,28.896 C154.414,28.896 153.826,29.4 153.814,30.132 L152.698,29.904 C152.794,28.692 153.994,27.888 155.122,27.888 C156.37,27.888 157.546,28.728 157.546,30 C157.546,30.732 157.15,31.548 156.694,32.196 C156.01,33.168 155.182,34.116 154.354,34.992 L157.906,34.992 L157.906,36 Z M161.554,27.888 C163.354,27.888 164.374,29.46 164.374,32.016 C164.374,34.572 163.354,36.144 161.554,36.144 C159.754,36.144 158.734,34.572 158.734,32.016 C158.734,29.46 159.754,27.888 161.554,27.888 Z M161.554,28.92 C160.498,28.92 159.886,29.94 159.886,32.016 C159.886,34.092 160.498,35.112 161.554,35.112 C162.61,35.112 163.222,34.092 163.222,32.016 C163.222,29.94 162.61,28.92 161.554,28.92 Z" id="20" fill="#999999" fill-rule="nonzero"></path>
            <path d="M308.988,36 L307.884,36 L307.884,33.996 L304.284,33.996 L304.284,32.784 C305.292,31.476 306.744,29.508 307.824,28.032 L308.988,28.032 L308.988,32.988 L310.176,32.988 L310.176,33.996 L308.988,33.996 L308.988,36 Z M305.484,32.988 L307.884,32.988 L307.884,29.616 C307.14,30.696 306.06,32.196 305.484,32.988 Z M313.728,27.888 C315.528,27.888 316.548,29.46 316.548,32.016 C316.548,34.572 315.528,36.144 313.728,36.144 C311.928,36.144 310.908,34.572 310.908,32.016 C310.908,29.46 311.928,27.888 313.728,27.888 Z M313.728,28.92 C312.672,28.92 312.06,29.94 312.06,32.016 C312.06,34.092 312.672,35.112 313.728,35.112 C314.784,35.112 315.396,34.092 315.396,32.016 C315.396,29.94 314.784,28.92 313.728,28.92 Z" id="40" fill="#999999" fill-rule="nonzero"></path>
            <path d="M385.402,28.032 L385.402,29.04 L382.366,29.04 C382.33,29.748 382.294,30.612 382.222,31.272 C382.582,31.104 383.002,31.044 383.398,31.044 C384.718,31.044 385.834,32.1 385.834,33.492 C385.834,35.004 384.73,36.144 383.182,36.144 C382.198,36.144 381.094,35.628 380.65,34.812 L381.55,34.308 C381.85,34.848 382.414,35.136 383.038,35.136 C384.07,35.136 384.682,34.416 384.682,33.528 C384.682,32.64 383.998,32.052 383.074,32.052 C382.606,32.052 382.174,32.208 381.838,32.556 L381.022,32.112 C381.142,30.936 381.238,29.184 381.298,28.032 L385.402,28.032 Z M389.494,27.888 C391.294,27.888 392.314,29.46 392.314,32.016 C392.314,34.572 391.294,36.144 389.494,36.144 C387.694,36.144 386.674,34.572 386.674,32.016 C386.674,29.46 387.694,27.888 389.494,27.888 Z M389.494,28.92 C388.438,28.92 387.826,29.94 387.826,32.016 C387.826,34.092 388.438,35.112 389.494,35.112 C390.55,35.112 391.162,34.092 391.162,32.016 C391.162,29.94 390.55,28.92 389.494,28.92 Z" id="50" fill="#999999" fill-rule="nonzero"></path>
        </g>
    </g>
</svg>