<?xml version="1.0" encoding="UTF-8"?>
<svg width="16px" height="15px" viewBox="0 0 16 15" version="1.1" xmlns="http://www.w3.org/2000/svg" xmlns:xlink="http://www.w3.org/1999/xlink">
    <!-- Generator: Sketch 53.2 (72643) - https://sketchapp.com -->
    <title>Group 7</title>
    <desc>Created with Sketch.</desc>
    <defs>
        <polygon id="path-1" points="6.84891288e-06 0.0308292683 14.9234087 0.0308292683 14.9234087 14.71777 6.84891288e-06 14.71777"></polygon>
        <polygon id="path-3" points="0.012382968 0.0538442339 9.04150523 0.0538442339 9.04150523 8.94933954 0.012382968 8.94933954"></polygon>
    </defs>
    <g id="mock-up" stroke="none" stroke-width="1" fill="none" fill-rule="evenodd">
        <g id="MO_Web_Desktop_Offer_Details-Copy-3" transform="translate(-380.000000, -230.000000)">
            <g id="Group-11" transform="translate(128.000000, 207.000000)">
                <g id="Group-7" transform="translate(252.000000, 23.000000)">
                    <g id="Group-3" transform="translate(0.000000, 0.024920)">
                        <mask id="mask-2" fill="white">
                            <use xlink:href="#path-1"></use>
                        </mask>
                        <g id="Clip-2"></g>
                        <path d="M7.52553589,14.7158132 C6.03915261,14.7157017 4.55271359,14.7212767 3.06638606,14.7141408 C1.67773101,14.7075066 0.608072474,13.9830467 0.173340767,12.7358829 C0.0684766551,12.4350606 0.0109993031,12.1017923 0.00966132404,11.7831861 C-0.0023804878,8.85685854 -0.00221324042,5.93047526 0.00497839721,3.00420348 C0.00876933798,1.45242648 1.19421882,0.187478746 2.74805854,0.0549073171 C2.9328669,0.0391303136 3.11912474,0.0341686411 3.30471359,0.0340571429 C6.09166829,0.032830662 8.878623,0.0328864111 11.6656334,0.0339456446 C11.8592502,0.0340013937 12.0578286,0.0187261324 12.2454244,0.055297561 C12.6474871,0.133736585 12.8817449,0.453123345 12.8487415,0.832719164 C12.8159052,1.21086551 12.528184,1.48476098 12.1246718,1.51118606 C11.9767693,1.52083066 11.8275289,1.50929059 11.6789575,1.50929059 C8.94775192,1.5090676 6.21649059,1.5086216 3.48522927,1.50923484 C2.36182857,1.50945784 1.50290174,2.35165993 1.50039303,3.47416864 C1.49470662,6.01961812 1.52297143,8.56540209 1.48718049,11.1102941 C1.47118049,12.2520362 2.23310383,13.2527889 3.56857422,13.2558551 C6.21621185,13.261876 8.86390523,13.2673394 11.5114314,13.2524544 C12.4922258,13.2469352 13.3173129,12.5133324 13.3885045,11.5395624 C13.4574662,10.5968446 13.4279192,9.6466007 13.4344418,8.69964599 C13.4367275,8.36386899 13.549285,8.10597352 13.8634871,7.95188293 C14.2730202,7.75101882 14.737522,7.94101185 14.875947,8.37524181 C14.9010899,8.45418258 14.9212711,8.53914425 14.9206021,8.62109547 C14.911069,9.80938815 14.9542188,11.0016948 14.8702606,12.18497 C14.7711387,13.5813742 13.4477101,14.713862 12.0404348,14.7155345 C10.5354871,14.7173185 9.03053937,14.7159247 7.52553589,14.7158132" id="Fill-1" fill="#000000" mask="url(#mask-2)"></path>
                    </g>
                    <g id="Group-6" transform="translate(6.912892, 1.920390)">
                        <mask id="mask-4" fill="white">
                            <use xlink:href="#path-3"></use>
                        </mask>
                        <g id="Clip-5"></g>
                        <path d="M1.05860906,8.94670383 C0.590539373,8.94330314 0.242386063,8.71278049 0.0905254355,8.33324042 C-0.0730982578,7.92426481 0.0270829268,7.56211847 0.32701324,7.26101742 C1.02142439,6.56393031 1.7250899,5.87609756 2.42563345,5.18519861 C4.02513171,3.6078885 5.62602369,2.03202787 7.22384948,0.453045296 C7.50159164,0.178592334 7.80821185,-0.00933797909 8.21590523,0.0736167247 C8.61283902,0.154397213 8.886623,0.390383275 9.00023972,0.780069686 C9.10499233,1.13926132 9.00698537,1.46266202 8.74429547,1.72540767 C8.12068571,2.34896167 7.49183554,2.96727526 6.8639331,3.58664808 C5.17874843,5.24875261 3.49278328,6.91007666 1.80765436,8.57223693 C1.58326411,8.79356098 1.34125714,8.97340767 1.05860906,8.94670383" id="Fill-4" fill="#000000" mask="url(#mask-4)"></path>
                    </g>
                </g>
            </g>
        </g>
    </g>
</svg>