<?xml version="1.0" encoding="UTF-8"?>
<svg width="52px" height="56px" viewBox="0 0 52 56" version="1.1" xmlns="http://www.w3.org/2000/svg" xmlns:xlink="http://www.w3.org/1999/xlink">
    <!-- Generator: Sketch 53.2 (72643) - https://sketchapp.com -->
    <title>Group 3</title>
    <desc>Created with Sketch.</desc>
    <defs>
        <path d="M21.6885564,2.26308954e-13 C33.666822,2.26308954e-13 43.3770687,10.568976 43.3770687,23.606544 C43.3770687,36.644064 33.666822,47.213088 21.6885564,47.213088 C9.7102908,47.213088 -1.74760195e-13,36.644064 -1.74760195e-13,23.606544 C-1.74760195e-13,10.568976 9.7102908,2.26308954e-13 21.6885564,2.26308954e-13 Z" id="path-1"></path>
        <filter x="-18.4%" y="-8.5%" width="136.9%" height="133.9%" filterUnits="objectBoundingBox" id="filter-2">
            <feOffset dx="0" dy="4" in="SourceAlpha" result="shadowOffsetOuter1"></feOffset>
            <feGaussianBlur stdDeviation="2" in="shadowOffsetOuter1" result="shadowBlurOuter1"></feGaussianBlur>
            <feColorMatrix values="0 0 0 0 0.5625   0 0 0 0 0.5625   0 0 0 0 0.5625  0 0 0 0.35 0" type="matrix" in="shadowBlurOuter1"></feColorMatrix>
        </filter>
    </defs>
    <g id="mock-up" stroke="none" stroke-width="1" fill="none" fill-rule="evenodd">
        <g id="Dashboard_contactus" transform="translate(-145.000000, -373.000000)">
            <g id="Group-26" transform="translate(149.000000, 357.000000)">
                <g id="Q1">
                    <g id="Group-3" transform="translate(0.361444, 16.393408)">
                        <g id="bg_question">
                            <use fill="black" fill-opacity="1" filter="url(#filter-2)" xlink:href="#path-1"></use>
                            <use fill="#212121" fill-rule="evenodd" xlink:href="#path-1"></use>
                        </g>
                        <path d="M27.1293064,32.582592 C27.5133064,33.190592 27.4493064,33.478592 26.8733064,33.894592 C26.4253064,34.214592 25.8173064,34.470592 25.2733064,34.598592 C24.6973064,34.726592 24.0893064,34.566592 23.6733064,34.054592 C23.5453064,33.894592 23.4493064,33.798592 23.3533064,33.670592 C22.4893064,34.118592 21.5293064,34.182592 20.5053064,34.086592 C19.4493064,33.990592 18.2653064,33.574592 17.4333064,32.998592 C16.7933064,32.550592 16.0893064,31.686592 15.8013064,30.694592 C14.4253064,26.118592 17.2093064,17.990592 21.6573064,14.310592 C22.5853064,13.542592 24.0253064,13.158592 25.0493064,13.318592 C26.3933064,13.510592 27.7693064,14.086592 28.5053064,14.822592 C29.3693064,15.686592 29.6893064,16.678592 29.7533064,17.894592 C29.9773064,21.574592 28.7293064,27.110592 26.1693064,30.886592 C26.4893064,31.462592 26.8093064,32.070592 27.1293064,32.582592 Z M21.3053064,30.470592 C21.1453064,30.214592 20.9853064,29.958592 20.8893064,29.702592 C20.6973064,29.190592 20.6973064,28.838592 21.2733064,28.550592 C21.7533064,28.294592 22.4893064,28.038592 23.2253064,27.878592 C23.7053064,26.950592 24.1533064,25.830592 24.5693064,24.582592 C25.8493064,20.742592 26.1693064,17.254592 25.2733064,16.934592 C24.3453064,16.614592 22.2973064,19.462592 20.8893064,23.174592 C19.7693064,26.150592 19.1613064,30.214592 20.3453064,30.694592 C20.6653064,30.822592 21.0173064,30.726592 21.3053064,30.470592 Z" id="Q" fill="#00FF6C" fill-rule="nonzero"></path>
                    </g>
                </g>
            </g>
        </g>
    </g>
</svg>