<?xml version="1.0" encoding="UTF-8"?>
<svg width="24px" height="24px" viewBox="0 0 24 24" version="1.1" xmlns="http://www.w3.org/2000/svg" xmlns:xlink="http://www.w3.org/1999/xlink">
    <!-- Generator: Sketch 53.2 (72643) - https://sketchapp.com -->
    <title>icon_bio</title>
    <desc>Created with Sketch.</desc>
    <defs>
        <path d="M5.97922245,8.74931355 C5.97922245,8.26371245 6.36947392,7.87066258 6.85161769,7.87066258 C7.33376145,7.87066258 7.72401292,8.26371245 7.72401292,8.74931355 L7.72401292,10.6454424 C7.72401292,11.1310435 7.33376145,11.5240933 6.85161769,11.5240933 C6.36947392,11.5240933 5.97922245,11.1310435 5.97922245,10.6454424 L5.97922245,8.74931355 Z M17.1485568,11.5242691 C16.666413,11.5242691 16.2761616,11.1312192 16.2761616,10.6456181 L16.2761616,8.74948928 C16.2761616,8.26388818 16.666413,7.87083831 17.1485568,7.87083831 C17.6307006,7.87083831 18.020952,8.26388818 18.020952,8.74948928 L18.020952,10.6456181 C18.020952,11.1312192 17.6307006,11.5242691 17.1485568,11.5242691 Z M10.6905057,15.1161357 C10.3206101,15.1161357 10.0216693,14.8144655 10.0216693,14.4425033 C10.0216693,14.070541 10.3206101,13.7688709 10.6905057,13.7688709 L11.1139082,13.7688709 C11.4605399,13.7688709 11.7431959,13.4841879 11.7431959,13.1350706 L11.7431959,8.5936166 C11.7431959,8.22165435 12.0421367,7.91998418 12.4120323,7.91998418 C12.7813463,7.91998418 13.080287,8.22165435 13.080287,8.5936166 L13.080287,13.1350706 C13.080287,14.2275267 12.1985862,15.1161357 11.1139082,15.1161357 L10.6905057,15.1161357 Z M15.3932394,16.7710455 C15.6369285,16.4910487 16.0597494,16.4623461 16.3371711,16.7066111 C16.6157559,16.9514619 16.6436726,17.3773147 16.4005651,17.6573115 C15.4252272,18.7831563 13.7827978,19.4550314 12.0089275,19.4550314 C10.2193541,19.4550314 8.5705271,18.773784 7.59635242,17.6338808 C7.35498974,17.3515409 7.38639597,16.9262739 7.66672563,16.6837662 C7.94589211,16.4412585 8.368713,16.47289 8.61007568,16.7552298 C9.32253179,17.5893625 10.6253087,18.1077665 12.0089275,18.1077665 C13.381496,18.1077665 14.6784569,17.5952201 15.3932394,16.7710455 Z M20.7389285,0 C22.5372258,0 23.9999418,1.47320481 23.9999418,3.28439736 L23.9999418,6.50377454 C23.9999418,6.87573679 23.7010011,7.17682119 23.3311055,7.17682119 C22.9617915,7.17682119 22.6628507,6.87573679 22.6628507,6.50377454 L22.6628507,3.28439736 C22.6628507,2.21595777 21.7997611,1.34726483 20.7389285,1.34726483 L17.6047032,1.34726483 C17.2353892,1.34726483 16.9358668,1.04559466 16.9358668,0.673632416 C16.9358668,0.301670169 17.2353892,0 17.6047032,0 L20.7389285,0 Z M0.668778186,7.11472985 C0.299464204,7.11472985 0.00052343714,6.81305968 0.00052343714,6.44109744 L0.00052343714,3.28439736 C0.00052343714,1.47320481 1.46265785,0 3.26095522,0 L6.45682976,0 C6.82672534,0 7.12624771,0.301670169 7.12624771,0.673632416 C7.12624771,1.04559466 6.82672534,1.34726483 6.45682976,1.34726483 L3.26095522,1.34726483 C2.20070422,1.34726483 1.33761453,2.21595777 1.33761453,3.28439736 L1.33761453,6.44109744 C1.33761453,6.81305968 1.03867377,7.11472985 0.668778186,7.11472985 Z M23.3311637,16.8230617 C23.7010592,16.8230617 24,17.1247318 24,17.4966941 L24,20.7154855 C24,22.526678 22.537284,23.9998828 20.7389866,23.9998828 L17.6047613,23.9998828 C17.2354474,23.9998828 16.935925,23.6982127 16.935925,23.3262504 C16.935925,22.9542882 17.2354474,22.652618 17.6047613,22.652618 L20.7389866,22.652618 C21.7998192,22.652618 22.6629089,21.7839251 22.6629089,20.7154855 L22.6629089,17.4966941 C22.6629089,17.1247318 22.9618497,16.8230617 23.3311637,16.8230617 Z M6.45688792,22.6527352 C6.8267835,22.6527352 7.12572427,22.9544053 7.12572427,23.3263676 C7.12572427,23.6983298 6.8267835,24 6.45688792,24 L3.26101338,24 C1.46271601,24 0,22.5267952 0,20.7156026 L0,17.5589026 C0,17.1869403 0.299522364,16.8852701 0.668836346,16.8852701 C1.03873193,16.8852701 1.33767269,17.1869403 1.33767269,17.5589026 L1.33767269,20.7156026 C1.33767269,21.7840422 2.20076238,22.6527352 3.26101338,22.6527352 L6.45688792,22.6527352 Z" id="path-1"></path>
    </defs>
    <g id="mock-up" stroke="none" stroke-width="1" fill="none" fill-rule="evenodd">
        <g id="m-sign-in_register_1.1" transform="translate(-103.000000, -750.000000)">
            <g id="Page"></g>
            <g id="Group-5" transform="translate(15.000000, 742.000000)">
                <g id="Group-11" transform="translate(88.000000, 8.000000)">
                    <mask id="mask-2" fill="white">
                        <use xlink:href="#path-1"></use>
                    </mask>
                    <use id="icon_bio" fill="#00C9FF" xlink:href="#path-1"></use>
                </g>
            </g>
        </g>
    </g>
</svg>