<svg height="35" viewBox="0 0 40 35" width="40" xmlns="http://www.w3.org/2000/svg" xmlns:xlink="http://www.w3.org/1999/xlink"><mask id="a" fill="#fff"><path d="m0 .09809443h33.9393509v29.89629917h-33.9393509z" fill="#fff" fill-rule="evenodd"/></mask><g fill="none" fill-rule="evenodd"><circle cx="11" cy="11" fill="#ffff30" r="11"/><path d="m20.1113813 8.08896809c-.006567.0180851-.0133458.03606382-.0199128.05414893.5612648.42287234 1.1227415.8456383 1.6842181 1.26851064.0184299-.01457447.0368598-.02904255.0551838-.04361702-.1349408-.39010638-.2651153-.78212766-.4105421-1.16819149-.019489-.05202128-.1155576-.1043617-.1775202-.10595745-.3769657-.00978723-.7541433-.00489361-1.1314268-.00489361zm-11.52621183 7.66308511c.43882243.435.8221433.8217021 1.2173271 1.1960638.04162617.0395745.16120873.0287234.22973833.0022341.4183801-.1621277.833053-.3343617 1.2479377-.5056383.5240872-.2162766 1.0473271-.4347873 1.5708847-.6523405-.0040249-.0134042-.0079439-.0268085-.0119688-.0403191zm9.81742053-2.277766c-.9320872-1.1347872-1.8325046-2.2309574-2.7639564-3.365v4.2561702c.2586543-.0131914.5150842.0311703.7261807-.0473404.6750218-.2511702 1.3330966-.5478723 2.0377757-.8438298zm-9.97471025 8.1659575c.02828037.2998936.17593146.3637234.43183178.3620213 1.67690967-.0119149 3.35381927-.0061703 5.03072897-.0061703h.3241121v-1.9312766c-1.9404361.5282979-3.8597943 1.0508511-5.78667285 1.5754256zm12.40491585-3.3805319v4.3913829c.5175203.1060639.562324.0837234.7583801-.353617.6759751-1.5077659 1.3525857-3.0152127 2.0284548-4.5229787.036648-.0815957.0685296-.1653191.1209595-.2928723-1.0084548.2697872-1.9583364.5239361-2.9077944.7780851zm6.6574331-8.28042557c-.234187-.4837234-.4816137-.95180851-.6888972-1.43723404-.1511465-.35382979-.3625608-.50297872-.7589097-.46255319-.4101184.04180851-.8276511.0093617-1.2420062.0093617h-1.9712586c.024891.08851064.0436386.15510639.0622804.22170213.1998691.71425532.4316199 1.42148936.5864735 2.14542557.0808162.3778723.3730467.4865957.6060685.6831915.0267975.0225531.0999876.0032978.1460623-.012766 1.0705234-.3752128 2.1403053-.7525532 3.260187-1.14712767zm-8.0738879 8.67308507c-1.2814081.3487234-2.5360187.6901064-3.7776012 1.0279788v2.2975532h3.7776012zm6.129109 4.7668086c-.074461-.0190426-.1054953-.0337235-.1365296-.0337235-.8823052-.0018085-1.7647165-.0063829-2.6469158.005-.0783801.0009575-.1583489.1032979-.2324923.1647873-.1860996.1543617-.3685981.3128723-.5536386.4684042-.0956448.0804256-.2257134.1387234-.2854517.2398937-.7413271 1.2531914-1.6678006 2.3479787-2.7651215 3.2988297-.2135327.1851064-.4314081.3652128-.6471651.5475532 2.9450779-.738617 5.3502866-2.3001064 7.2673146-4.6907446zm-21.28717753-16.71457452c1.09827415 0 2.1213458-.00478723 3.14441745.00446809.17646106.00159574.25907788-.05659575.3394704-.21255319.82902804-1.60882979 1.92158256-3.0069149 3.32680998-4.15117022.1581371-.1287234.3137321-.26074468.4704922-.39127659-2.93882866.75723404-5.33439875 2.34180851-7.28119003 4.75053191zm21.29310903-.00010638c-1.2195514-1.96234043-5.2209595-4.58042553-7.2209221-4.7512766.4049283.3569149.8287103.70414894 1.222623 1.08276596 1.060567 1.01925532 1.9128972 2.19617021 2.587919 3.50510638.0383427.07436171.1512524.1556383.230162.15638298 1.0489159.01042554 2.0981496.00702128 3.1802181.00702128zm-21.24332709 16.6778723c1.29793146 2.0073405 5.27773208 4.5937234 7.25407479 4.7462766-.0056137-.0162766-.0066729-.0367021-.0175826-.0477659-.0306106-.0314894-.0638691-.0608511-.0985047-.0881915-1.53211834-1.2107447-2.76257939-2.6739362-3.65304045-4.4188298-.07626169-.1492553-.16819938-.1958511-.32856075-.1945745-.88188162.0067022-1.76376324.0030851-2.64564486.0030851zm11.38872899-15.37340421c1.353433 1.65234042 2.6856822 3.27914891 4.0249221 4.91446811.9494579-.3879788 1.8893832-.7719149 2.8340748-1.1578724-.0221371-.0363829-.0249969-.0462766-.0315639-.0511702-1.834729-1.380851-3.6691402-2.76223403-5.5078941-4.13765956-.0551838-.04138298-.167352-.05095744-.2333395-.02510638-.3524985.13808511-.6987477.29212766-1.0861994.45734043zm5.0101807-1.30457447c-1.2231527-2.13776596-2.9404175-3.66468085-5.0748972-4.78787234v4.60457446c.3483676-.14723404.6703613-.28297872.9920373-.4193617.326972-.13861702.6306418-.12638298.9121745.11787234.1597259.13861702.3309969.26489362.5043863.3862766.0682118.04765957.1560187.09361702.2352461.0943617.7933333.00691489 1.5868785.00414894 2.431053.00414894zm-5.0765919 21.42553188c1.367838-.5084042 4.1595451-3.0105319 4.5248598-4.0527659-.2922306-.0440426-.5128598-.2004256-.6177197-.4742553-.075838-.1980852-.201352-.2254256-.3869221-.224149-1.0752897.0073404-2.1504735.0032979-3.2256573.004149-.0940561.0001063-.1882181.0082978-.2945607.0132978zm-1.4088287-4.7275532h-4.98942056c1.20758256 2.0939362 2.87845486 3.6317022 4.98942056 4.7502128zm-.0013769-21.48925528c-2.1410468 1.13744681-3.8631838 2.65968085-5.06801251 4.77734043h5.06801251zm14.2221682 14.28680848c-.9836698.2704256-1.8647041.5190426-2.7502929.7504256-.1677757.0438298-.2482741.1317021-.313732.2780851-.6714206 1.5006383-1.3473957 2.9992553-2.0212524 4.4987234-.0341059.075851-.0607975.155-.0939501.2405319.058785.0143617.083676.0257447.1086729.0258511.9969096.0012765 1.9938193.0068085 2.9905171-.0061703.0919377-.0012766.2168162-.1009574.2681869-.1891489.5955826-1.0203191 1.0594019-2.1010638 1.3452773-3.247766.1874766-.7512765.3045171-1.5202127.4665732-2.3505319zm-21.36799379 5.7812766c-.0345296-.1107447-.06418692-.200851-.0908785-.2920212-.18408723-.6276596-.42399377-1.2454256-.53700935-1.8858511-.14945171-.8471277-.46890343-1.603617-.93198131-2.3130851-.07234268-.1108511-.13642367-.2278724-.19626791-.3460638-.17476636-.345532-.08346418-.7146809.2313271-.9387235.07160125-.0510638.1471215-.0987234.22613707-.1370212.14341433-.0694681.18546418-.1684043.12064175-.3120213h-4.45039876c-.00667289.0409574-.01578193.0661702-.01419314.0907447.1332461 2.1306383.72798131 4.1217021 1.78399377 5.9753191.08568847.1503192.19160747.1764894.343919.1759575 1.08566978-.0042553 2.17123364-.0020213 3.25690343-.0029788.07774454 0 .15548909-.0082978.25780685-.0142553zm-.03474143-13.89223401c-1.22495327 0-2.40669159-.00382979-3.58821807.00819148-.08251091.00085107-.19309034.10223405-.24138941.18553192-.76452336 1.31957447-1.292 2.73095741-1.5634704 4.23276591-.10793147.5965958-.16417446 1.2025532-.24573209 1.8186171h4.51839875c.07043614-2.1364894.374-4.2123405 1.12041122-6.24510641zm7.15747662 6.25042551c.0135576-.0264893.0278567-.0415957.0279626-.0565957.0030717-1.9224468.0073084-3.8448936.0048723-5.76734045-.0003178-.24031915-.2176635-.42638298-.4614891-.42648936-1.6936449-.00031915-3.3873956-.00010639-5.08104049-.00010639h-.21300312c-.80477258 2.0103192-1.10357009 4.0980851-1.159919 6.2505319zm-7.34082242 2.7120213c.56804362.9760638 1.12337695 1.9210638 1.6665296 2.8729787.09808099.1717021.1911838.1968085.37760124.1460638 6.84512148-1.8629787 13.69214958-3.7193617 20.53864798-5.5768085.8675826-.2354255 1.7360125-.4676595 2.6017944-.7093617.4810841-.1343617.6867788-.5645744.4168972-.8678723-.9198006-1.0339362-2.0786604-1.5780851-3.4497819-1.6941489-.7113521-.0602128-1.3641309.1639361-2.0044113.4091489-2.468866.9455319-4.9401682 1.8859574-7.3913458 2.8765957-3.1381682 1.2682979-6.259813 2.5778724-9.3829408 3.8836171-.49390027.2065957-.86620557.1355319-1.22664794-.2637234-.46657321-.5168086-.97011215-.9997873-1.45882243-1.4985107-.24573209.1508511-.45502804.2793617-.68752025.4220213zm8.42479752 12.9429787c-7.13745795-.0071276-13.13236761-4.5974468-14.78014954-11.2220213-1.23872274-4.9804255-.17307165-9.50691485 3.11931464-13.45053187 2.00854206-2.40574469 4.56500311-4.0325532 7.6019128-4.7475532 5.5424236-1.30478723 10.3864174.07319149 14.4365483 4.11680851 1.3929408 1.39074469 2.4158006 3.04117022 3.1316012 4.87829788.0788037.20212766.1842991.25276595.3850156.26659574 1.7059314.11755319 3.1368972.81500004 4.2933209 2.08159574.4841557.5301064.577894 1.1490426.3587476 1.8051064-.2411776.7225532-.7254392 1.2217021-1.4805358 1.4224468-.7580623.2014894-1.5139003.4112766-2.2732337.6073404-.183028.0472341-.2650093.1156383-.2816386.327766-.3235825 4.1182979-2.0285607 7.5606383-5.1289159 10.2645744-2.7691464 2.4148937-6.0265794 3.606383-9.3819875 3.6495745z" fill="#000" mask="url(#a)" transform="translate(6 5)"/></g></svg>