<?xml version="1.0" encoding="UTF-8"?>
<svg width="99px" height="99px" viewBox="0 0 99 99" version="1.1" xmlns="http://www.w3.org/2000/svg" xmlns:xlink="http://www.w3.org/1999/xlink">
    <!-- Generator: Sketch 53.2 (72643) - https://sketchapp.com -->
    <title>icon_touch_pop</title>
    <desc>Created with Sketch.</desc>
    <g id="Page-1" stroke="none" stroke-width="1" fill="none" fill-rule="evenodd">
        <g id="icon_touch_pop" transform="translate(1.450011, 1.450011)" fill="#FFFFFF" fill-rule="nonzero">
            <path d="M4.04585801,25.5273203 C4.40655388,24.8229716 5.26994303,24.544386 5.97429167,24.9050819 C6.6786403,25.2657778 6.95722592,26.1291669 6.59653005,26.8335155 C1.83907333,36.1236363 0.311730452,46.7417139 2.41901065,57.1917509 C2.57543656,57.9674696 2.07340059,58.723122 1.29768193,58.879548 C0.521963268,59.0359739 -0.233689211,58.5339379 -0.390115123,57.7582192 C-2.62670281,46.6669443 -1.00450055,35.3894049 4.04585801,25.5273203 Z" id="Path"></path>
            <path d="M69.7209122,3.66958487 C70.4312807,4.01827535 70.7244787,4.87681231 70.3757883,5.58718085 C70.0270978,6.29754939 69.1685608,6.59074739 68.4581923,6.24205692 C59.3324184,1.76259275 48.9899845,0.367138624 38.809976,2.41974 C27.2580568,4.74866864 17.2537667,11.2526614 10.4479193,20.5787294 C9.98143759,21.2179502 9.08508855,21.357983 8.44586766,20.8915014 C7.80664677,20.4250197 7.66661397,19.5286706 8.13309565,18.8894497 C15.3572589,8.99016276 25.9824513,2.0825087 38.2436019,-0.389404768 C49.0481665,-2.56793579 60.0330108,-1.08580438 69.7209122,3.66958487 Z" id="Path"></path>
            <path d="M96.388686,38.2439482 C96.5451018,39.0196689 96.043056,39.7753149 95.2673353,39.9317307 C94.4916147,40.0881466 93.7359687,39.5861008 93.5795528,38.8103801 C91.190525,26.9623587 84.409534,16.7460386 74.7157098,9.94361862 C74.0679503,9.48906815 73.9113235,8.59546936 74.3658739,7.94770985 C74.8204244,7.29995034 75.7140232,7.14332346 76.3617827,7.59787392 C86.6512704,14.8182873 93.8529707,25.6684529 96.388686,38.2439482 Z" id="Path"></path>
            <path d="M97.3885127,48.9928479 C97.3733388,49.7840358 96.7196534,50.4131194 95.9284655,50.3979455 C95.1372776,50.3827716 94.508194,49.7290862 94.5233679,48.9378983 C94.5880959,45.5628953 94.2838305,42.1710022 93.6053311,38.8053017 C93.4489503,38.0295739 93.9510303,37.2739506 94.726758,37.1175699 C95.5024858,36.9611891 96.2581091,37.4632691 96.4144898,38.2389968 C97.1342792,41.8095164 97.457232,45.4097329 97.3885127,48.9928479 Z" id="Path"></path>
            <path d="M-0.364235495,57.7540015 C-0.520903823,56.9783317 -0.0191040336,56.2225224 0.756565704,56.0658541 C1.53223544,55.9091857 2.28804478,56.4109855 2.44471311,57.1866553 C2.5801057,57.8569882 2.7283355,58.5187625 2.8895215,59.1721724 C3.07904953,59.9404742 2.6098607,60.7169487 1.84155891,60.9064767 C1.07325712,61.0960048 0.296782643,60.6268159 0.107254616,59.8585141 C-0.0637203555,59.165422 -0.220836161,58.463976 -0.364235495,57.7540015 Z" id="Path"></path>
            <path d="M36.7017089,95.2585584 C36.1794008,95.8530352 35.2740677,95.9115395 34.6795909,95.3892313 C34.085114,94.8669232 34.0266098,93.9615901 34.5489179,93.3671132 C45.3095202,81.1196906 49.8909107,64.5655946 46.6072577,48.2817996 C46.4508327,47.5060807 46.9528696,46.7504289 47.7285885,46.5940039 C48.5043074,46.437579 49.2599592,46.9396159 49.4163841,47.7153348 C52.8787838,64.8855429 48.0464888,82.3462408 36.7017089,95.2585584 Z" id="Path"></path>
            <path d="M38.4894325,75.5404983 C38.7771037,74.8033051 39.6079205,74.4388956 40.3451136,74.7265668 C41.0823068,75.014238 41.4467163,75.8450548 41.1590451,76.582248 C38.7422886,82.7754861 35.0962608,88.4316645 30.4547516,93.1905308 C29.9022231,93.7570296 28.9950724,93.7683547 28.4285736,93.2158262 C27.8620749,92.6632978 27.8507498,91.756147 28.4032782,91.1896483 C32.7765925,86.7057581 36.2123767,81.3757359 38.4894325,75.5404983 Z" id="Path"></path>
            <path d="M43.464633,96.4868056 C42.9773697,97.1103302 42.0768981,97.2207918 41.4533735,96.7335285 C40.8298489,96.2462652 40.7193873,95.3457937 41.2066506,94.722269 C51.6676254,81.335923 55.9046695,64.0730602 52.4815276,47.0979253 L52.3969534,46.6785274 C51.7247152,44.431021 49.4375729,43.026282 47.0929583,43.4991195 C44.8180297,43.9579538 43.2779793,46.0252418 43.4179865,48.2785355 L43.5432031,48.8996381 C44.8983692,55.6215656 44.8442159,62.4303163 43.4379247,68.992883 C43.2721143,69.76665 42.5104363,70.2594963 41.7366692,70.0936859 C40.9629022,69.9278755 40.470056,69.1661975 40.6358664,68.3924304 C41.8652665,62.6553396 41.9973243,56.718642 40.988198,50.8290866 L40.9654683,50.8329067 L40.6914057,49.4730487 C39.8777879,45.4359969 42.4898819,41.5041442 46.5264149,40.6900088 C50.5632073,39.8759105 54.495153,42.4884317 55.3092748,46.5253403 L55.5611959,47.7745179 L55.5300438,47.7847023 C58.6688541,65.1830976 54.178112,82.7773436 43.464633,96.4868056 Z" id="Path"></path>
            <path d="M35.3001443,53.2589351 C35.1938695,52.4747705 35.7434077,51.7529267 36.5275723,51.6466518 C37.311737,51.5403769 38.0335808,52.0899152 38.1398557,52.8740798 C40.0420957,66.9100365 34.955373,80.844614 24.7453519,90.3968775 C24.1674906,90.9375113 23.2607713,90.9073325 22.7201375,90.3294713 C22.1795037,89.75161 22.2096824,88.8448907 22.7875437,88.3042569 C32.3258252,79.3804577 37.076541,66.366338 35.3001443,53.2589351 Z" id="Path"></path>
            <path d="M62.5053079,58.5395457 C62.5075042,59.330876 61.8677847,59.9741564 61.0764543,59.9763527 C60.285124,59.978549 59.6418436,59.3388294 59.6396473,58.5474991 C59.6279634,54.3377547 59.2011037,50.1122832 58.3547027,45.9135929 L58.2458039,45.3733848 C56.8619772,39.9532448 51.4552707,36.5120662 45.9093624,37.630597 C41.7215603,38.475014 38.5001798,41.7315547 37.6426329,45.8417763 C37.4810112,46.6164291 36.7220108,47.113389 35.947358,46.9517673 C35.1727052,46.7901456 34.6757454,46.0311451 34.8373671,45.2564923 C35.9270992,40.0334068 40.0213201,35.8944989 45.3428707,34.8214759 C52.620722,33.3536369 59.7100286,38.0641763 61.1771212,45.342303 L61.4175352,46.5349769 L61.3940712,46.5438552 C62.1248506,50.5324957 62.494214,54.5423787 62.5053079,58.5395457 Z" id="Path"></path>
            <path d="M50.7131104,96.7188982 C50.2662199,97.3719659 49.3745276,97.5391055 48.72146,97.0922149 C48.0683923,96.6453244 47.9012527,95.7536321 48.3481433,95.1005644 C54.2815503,86.429725 58.0354598,76.4357819 59.2276135,65.9809507 C59.3172674,65.1947124 60.0273184,64.6300192 60.8135567,64.7196732 C61.599795,64.8093271 62.1644882,65.5193781 62.0748343,66.3056164 C60.8294816,77.2269862 56.9089274,87.6645836 50.7131104,96.7188982 Z" id="Path"></path>
            <path d="M29.2287326,53.2027712 L28.9539986,51.8402211 C26.8328587,41.3203727 33.6405398,31.0741692 44.1600304,28.9529455 C45.9407052,28.5937634 47.7403104,28.4858688 49.5191018,28.6245116 C50.3080424,28.6860033 50.8977562,29.3754149 50.8362645,30.1643555 C50.7747728,30.9532961 50.0853612,31.54301 49.2964206,31.4815183 C47.7809691,31.3634007 46.2469991,31.4553693 44.7265695,31.762057 C36.1115665,33.4992465 30.4168139,41.6281818 31.5846427,50.2157775 L31.7968107,51.2680939 C34.4930417,64.6409348 29.7157609,78.2074259 19.5885292,86.9780383 C18.9903425,87.4960934 18.0854496,87.4311339 17.5673945,86.8329471 C17.0493394,86.2347604 17.1142989,85.3298676 17.7124857,84.8118124 C26.721656,77.0094886 31.1455167,65.1025844 29.2351512,53.2016803 L29.2287326,53.2027712 Z" id="Path"></path>
            <path d="M58.4089086,95.7664055 C58.0085173,96.4489707 57.1306075,96.6777178 56.4480423,96.2773265 C55.7654771,95.8769352 55.5367299,94.9990254 55.9371212,94.3164602 C64.6499361,79.4633299 67.7013231,61.9521181 64.2282726,44.729083 L64.1184922,44.1846768 C63.0381809,39.6113473 60.1041211,35.7825449 56.0576011,33.526454 C55.3664339,33.1411016 55.118522,32.2684101 55.5038744,31.5772429 C55.8892268,30.8860757 56.7619183,30.6381638 57.4530854,31.0235162 C62.3821448,33.7716569 65.9081081,38.5174006 67.0459843,44.1589781 L67.2786131,45.312349 L67.2612079,45.3196012 C70.5117379,62.8662828 67.2797962,80.6438013 58.4089086,95.7664055 Z" id="Path"></path>
            <path d="M21.753436,68.9709347 C22.0399266,68.2332818 22.8701588,67.8675425 23.6078116,68.1540331 C24.3454644,68.4405236 24.7112037,69.2707558 24.4247132,70.0084086 C22.4590983,75.0694534 19.209652,79.5541978 15.0077761,82.9960803 C14.3956024,83.4975301 13.4928322,83.4077706 12.9913824,82.795597 C12.4899326,82.1834233 12.579692,81.2806531 13.1918657,80.7792033 C17.0114252,77.6504877 19.9664137,73.5721411 21.753436,68.9709347 Z" id="Path"></path>
            <path d="M73.4438722,71.5379632 C73.3152514,72.3187738 72.5780115,72.8474781 71.797201,72.7188573 C71.0163904,72.5902365 70.4876861,71.8529966 70.6163069,71.072186 C72.1072392,62.0212742 71.9543959,52.7319848 70.1021737,43.5451561 L70.0171215,43.1233063 C67.3702017,31.1529948 55.6116468,23.4604533 43.5434163,25.8938757 C31.710141,28.2801169 23.9237222,39.5240621 25.696295,51.3298623 L25.9225403,52.4519663 C26.5639141,55.6329734 26.7098373,58.8478173 26.371454,62.0111481 C26.2872848,62.7979924 25.5811888,63.3676232 24.7943445,63.283454 C24.0075001,63.1992848 23.4378693,62.4931888 23.5220385,61.7063445 C23.7845582,59.2522142 23.7261428,56.7633153 23.3400156,54.2864609 L23.0854661,53.0241253 C20.3105795,39.2631932 29.2159349,25.8597294 42.9769641,23.0847467 C56.7370409,20.3101825 70.1399586,29.2154477 72.9148906,42.9762254 L73.1002679,43.895504 L73.0917738,43.9014499 C74.8408388,53.128823 74.9410575,62.4490914 73.4438722,71.5379632 Z" id="Path"></path>
            <path d="M66.4842965,93.371035 C66.1377309,94.0824426 65.2800741,94.3782054 64.5686665,94.0316398 C63.8572589,93.6850742 63.5614961,92.8274174 63.9080617,92.1160098 C66.0514796,87.7161394 67.7700906,83.1212082 69.0355028,78.3952525 C69.2401786,77.6308466 70.0257744,77.1770957 70.7901803,77.3817715 C71.5545862,77.5864472 72.0083371,78.3720431 71.8036614,79.136449 C70.4907402,84.0398372 68.7077853,88.8068003 66.4842965,93.371035 Z" id="Path"></path>
            <path d="M75.9743255,42.3596454 C75.1506024,38.2764804 73.4782484,34.4957541 71.0805078,31.2048264 C70.6145166,30.5652478 70.7552369,29.6690065 71.3948154,29.2030153 C72.034394,28.737024 72.9306353,28.8777444 73.3966265,29.5173229 C75.9352063,33.001554 77.735387,36.9848923 78.6752084,41.2784476 L78.6823056,41.2841253 L78.7852217,41.7945077 C82.019748,57.8351973 80.5936516,74.1248663 74.8703314,89.0873086 C74.5876138,89.8264156 73.7592612,90.1963923 73.0201541,89.9136747 C72.2810471,89.6309571 71.9110703,88.8026045 72.193788,88.0634974 C77.6675157,73.7535632 79.0736011,58.1908232 76.0715953,42.8418082 L75.9743255,42.3596454 Z" id="Path"></path>
            <path d="M36.084759,22.061466 C35.3653857,22.3911788 34.5149333,22.0752965 34.1852206,21.3559232 C33.8555078,20.6365498 34.1713901,19.7860975 34.8907634,19.4563847 C37.080692,18.4526675 39.3919263,17.7001463 41.7931238,17.2162012 C51.15013,15.3297464 60.668912,17.7832011 67.9112132,23.7146558 C68.5234254,24.2160585 68.6132543,25.1188218 68.1118516,25.7310341 C67.6104489,26.3432463 66.7076857,26.4330752 66.0954734,25.9316725 C59.5113197,20.5392415 50.8647801,18.3106062 42.3593846,20.0253688 C40.1749602,20.4656248 38.0743642,21.1495636 36.084759,22.061466 Z" id="Path"></path>
            <path d="M20.0478868,53.6364311 C21.947493,63.0532887 18.3856923,72.5954125 11.0257263,78.5080716 C10.4088095,79.0036743 9.50693411,78.9053298 9.01133138,78.2884129 C8.51572865,77.671496 8.6140732,76.7696207 9.23099008,76.2740179 C15.5007347,71.2371926 18.6639527,63.2374028 17.4192822,55.2149657 L17.2162169,54.2080284 C14.8827843,42.6372673 19.2199299,30.9100618 28.218428,23.6027039 C28.8327239,23.1038562 29.7351051,23.1974455 30.2339528,23.8117414 C30.7328005,24.4260373 30.6392112,25.3284185 30.0249153,25.8272662 C22.1397957,32.2304894 18.1935899,42.3640696 19.8199351,52.5064133 L20.0478868,53.6364311 Z" id="Path"></path>
            <path d="M11.3476869,55.391229 C10.9524537,53.4316537 10.7151537,51.4578212 10.6342746,49.4828677 C10.6018948,48.6921971 11.2166109,48.0249828 12.0072816,47.992603 C12.7979522,47.9602231 13.4651664,48.5749393 13.4975463,49.3656099 C13.5567101,50.8103069 13.7065123,52.2545578 13.9477145,53.6925415 L14.1750726,54.8200607 C15.591076,61.8423353 13.0392826,68.9645416 7.67140059,73.5133116 C7.06768017,74.0249073 6.16353781,73.9502255 5.65194211,73.3465051 C5.14034641,72.7427846 5.21502825,71.8386423 5.81874867,71.3270466 C10.1990056,67.615195 12.379735,61.8988932 11.5043699,56.1680668 L11.3476869,55.391229 Z" id="Path"></path>
            <path d="M84.4388794,39.5184585 L84.6588576,40.6110421 C84.9759497,42.1859695 85.251458,43.7618875 85.485373,45.3380815 C85.6015386,46.1208421 85.0611566,46.8495657 84.2783961,46.9657312 C83.4956355,47.0818968 82.7669119,46.5415148 82.6507464,45.7587543 C82.477599,44.5920325 82.2809116,43.4253204 82.06068,42.2589163 L81.8424747,41.1766912 C78.0736541,22.4846066 59.8679624,10.3882852 41.1763674,14.1568019 C27.0983399,16.9956657 16.3927324,28.1813786 13.9747807,42.0945278 C13.8392866,42.874175 13.097418,43.3963644 12.3177707,43.2608703 C11.5381235,43.1253762 11.0159341,42.3835076 11.1514282,41.6038603 C13.7700796,26.5358642 25.3639493,14.422054 40.6099505,11.3476658 C60.4863301,7.34027809 79.8554592,19.8977858 84.4144932,39.5172392 L84.4388794,39.5184585 Z" id="Path"></path>
            <path d="M83.408237,82.1331739 C83.2043808,82.8977988 82.4192718,83.3523916 81.654647,83.1485355 C80.8900221,82.9446793 80.4354293,82.1595703 80.6392854,81.3949455 C83.0804672,72.2385467 84.0371242,62.7341611 83.4347245,53.1871856 C83.3848916,52.3974228 83.9847233,51.7167961 84.7744861,51.6669633 C85.5642488,51.6171304 86.2448755,52.2169621 86.2947084,53.0067249 C86.9167095,62.864348 85.9288317,72.6789129 83.408237,82.1331739 Z" id="Path"></path>
            <path d="M5.47841795,56.5743176 C0.743034068,33.0896586 15.941947,10.214534 39.4270679,5.47950212 C44.2187155,4.5131592 49.0638189,4.36177597 53.8113956,5.00310602 C54.5956061,5.1090417 55.1454565,5.83064777 55.0395208,6.61485829 C54.9335852,7.39906881 54.2119791,7.94891921 53.4277686,7.84298353 C48.9953338,7.24422467 44.4713614,7.38557429 39.9935159,8.28863198 C18.4161951,12.6390163 4.32837842,33.3848611 8.08665461,54.9391695 L8.30149786,56.0041878 C9.16757024,60.2974714 7.89349151,64.6639301 4.97001262,67.8179711 C4.43207025,68.3983387 3.52550092,68.4327311 2.94513335,67.8947887 C2.36476579,67.3568464 2.33037337,66.450277 2.86831574,65.8699095 C5.04785536,63.518479 6.06215876,60.3187832 5.58822026,57.1188711 L5.47841795,56.5743176 Z" id="Path"></path>
            <path d="M90.2858262,38.2036031 L90.5323254,39.4260261 C92.6320163,49.8386768 93.0150264,60.3670619 91.72777,70.7069242 C91.630008,71.4921956 90.914168,72.049532 90.1288967,71.95177 C89.3436253,71.854008 88.7862889,71.138168 88.8840509,70.3528967 C90.0829139,60.723053 89.788899,50.9244567 87.9615711,41.2153968 L87.9578627,41.2156216 L87.7113733,39.9931837 C84.7758366,25.4347048 74.2210151,13.8563808 60.333782,9.40406955 C59.5802294,9.16247708 59.1652037,8.35575257 59.4067961,7.60219993 C59.6483886,6.84864729 60.4551131,6.43362156 61.2086657,6.67521403 C75.6847464,11.3163126 86.7815042,23.1939707 90.2560898,38.2054005 L90.2858262,38.2036031 Z" id="Path"></path>
        </g>
    </g>
</svg>