<?xml version="1.0" encoding="UTF-8"?>
<svg width="80px" height="80px" viewBox="0 0 80 80" version="1.1" xmlns="http://www.w3.org/2000/svg" xmlns:xlink="http://www.w3.org/1999/xlink">
    <!-- Generator: Sketch 53.2 (72643) - https://sketchapp.com -->
    <title>icon_bio_pop</title>
    <desc>Created with Sketch.</desc>
    <g id="mock-up" stroke="none" stroke-width="1" fill="none" fill-rule="evenodd">
        <g id="m-sign-in_register_1.1_faceID" transform="translate(-167.000000, -391.000000)">
            <g id="Page"></g>
            <g id="Group-31" transform="translate(121.000000, 362.000000)" fill="#FFFFFF" fill-rule="nonzero">
                <g id="Icon" transform="translate(46.000000, 29.000000)">
                    <path d="M3.63636364,22.1818182 C3.63636364,23.1859723 2.82233591,24 1.81818182,24 C0.814027728,24 -7.10542736e-15,23.1859723 -7.10542736e-15,22.1818182 L-7.10542736e-15,13.655328 C-7.10542736e-15,6.11384753 6.11160993,0 13.6509957,0 L22.1818182,0 C23.1859723,0 24,0.814027728 24,1.81818182 C24,2.82233591 23.1859723,3.63636364 22.1818182,3.63636364 L13.6509957,3.63636364 C8.12021615,3.63636364 3.63636364,8.12185779 3.63636364,13.655328 L3.63636364,22.1818182 Z M22.1818182,76.3636364 C23.1859723,76.3636364 24,77.1776641 24,78.1818182 C24,79.1859723 23.1859723,80 22.1818182,80 L13.655328,80 C6.11384753,80 -6.73119918e-15,73.8883901 -6.26954495e-15,66.3490043 L-5.74718273e-15,57.8181818 C-5.68569602e-15,56.8140277 0.814027728,56 1.81818182,56 C2.82233591,56 3.63636364,56.8140277 3.63636364,57.8181818 L3.63636364,66.3490043 C3.63636364,71.8797838 8.12185779,76.3636364 13.655328,76.3636364 L22.1818182,76.3636364 Z M76.3636364,57.8181818 C76.3636364,56.8140277 77.1776641,56 78.1818182,56 C79.1859723,56 80,56.8140277 80,57.8181818 L80,66.344672 C80,73.8861525 73.8883901,80 66.3490043,80 L57.8181818,80 C56.8140277,80 56,79.1859723 56,78.1818182 C56,77.1776641 56.8140277,76.3636364 57.8181818,76.3636364 L66.3490043,76.3636364 C71.8797838,76.3636364 76.3636364,71.8781422 76.3636364,66.344672 L76.3636364,57.8181818 Z M57.8181818,3.63636364 C56.8140277,3.63636364 56,2.82233591 56,1.81818182 C56,0.814027728 56.8140277,-2.05482977e-15 57.8181818,-1.87036966e-15 L66.344672,-3.04078811e-16 C73.8861525,1.08126867e-15 80,6.11160993 80,13.6509957 L80,22.1818182 C80,23.1859723 79.1859723,24 78.1818182,24 C77.1776641,24 76.3636364,23.1859723 76.3636364,22.1818182 L76.3636364,13.6509957 C76.3636364,8.12021615 71.8781422,3.63636364 66.344672,3.63636364 L57.8181818,3.63636364 Z M40,24 C40,25.6568542 38.6568542,27 37,27 L30,27 C28.3431458,27 27,25.6568542 27,24 C27,22.3431458 28.3431458,21 30,21 L37,21 C38.6568542,21 40,22.3431458 40,24 Z M40,57 C40,58.6568542 38.6568542,60 37,60 L30,60 C28.3431458,60 27,58.6568542 27,57 C27,55.3431458 28.3431458,54 30,54 L37,54 C38.6568542,54 40,55.3431458 40,57 Z M28.8132856,40.7112257 C27.8118356,40.7112257 27,39.8804396 27,38.8556129 C27,37.8307862 27.8118356,37 28.8132856,37 L41.9322273,37 C45.0526291,37 47.9537525,38.6420985 49.6121661,41.347011 L50.7224624,43.1579311 C51.2547074,44.0260356 50.9984921,45.1713148 50.1501895,45.7159839 C49.3018869,46.260653 48.1827319,45.9984569 47.650487,45.1303525 L46.5401906,43.3194323 C45.5451425,41.6964848 43.8044684,40.7112257 41.9322273,40.7112257 L28.8132856,40.7112257 Z M59.3804883,53.1491217 C58.8501449,53.9917485 57.7245933,54.2526541 56.8664984,53.7318707 C56.0084035,53.2110872 55.7427085,52.1058248 56.2730519,51.263198 L57.7826644,48.8646767 C61.2007237,43.4339536 61.20181,36.5732212 57.7854708,31.1414545 L56.2727534,28.736328 C55.7426768,27.8935393 56.0087218,26.7883581 56.8669816,26.2678367 C57.7252414,25.7473153 58.8507103,26.0085646 59.3807869,26.8513533 L60.8935043,29.2564798 C65.0367242,35.8439415 65.0354067,44.1644043 60.8901009,50.7506004 L59.3804883,53.1491217 Z" id="icon_bio_pop" transform="translate(40.000000, 40.000000) rotate(-270.000000) translate(-40.000000, -40.000000) "></path>
                </g>
            </g>
        </g>
    </g>
</svg>