<?xml version="1.0" encoding="UTF-8"?>
<svg width="72px" height="72px" viewBox="0 0 72 72" version="1.1" xmlns="http://www.w3.org/2000/svg" xmlns:xlink="http://www.w3.org/1999/xlink">
    <!-- Generator: Sketch 53.1 (72631) - https://sketchapp.com -->
    <title>Group 21</title>
    <desc>Created with Sketch.</desc>
    <defs>
        <polygon id="path-1" points="0.0647997257 0.0224373903 7.76738548 0.0224373903 7.76738548 7.0548914 0.0647997257 7.0548914"></polygon>
    </defs>
    <g id="MO-Web-UX-Flow-Final" stroke="none" stroke-width="1" fill="none" fill-rule="evenodd">
        <g id="MO_Web_Desktop_Offer_01-Copy-5a" transform="translate(-1217.000000, -840.000000)">
            <g id="Group-20" transform="translate(520.000000, 820.000000)">
                <g id="Group-21" transform="translate(697.000000, 20.000000)">
                    <circle id="Oval" fill="#FFFFFF" cx="36" cy="36" r="36"></circle>
                    <g id="Group-19" transform="translate(10.000000, 12.000000)">
                        <g id="Group-18" transform="translate(4.000000, 10.000000)" stroke="#000000" stroke-linecap="round">
                            <path d="M18,0 C8.0588745,0 0,8.0588745 0,18 C0,27.9411255 8.0588745,36 18,36 L18,36 C27.9411255,36 36,27.9411255 36,18" id="Path"></path>
                            <path d="M18,6 C11.372583,6 6,11.372583 6,18 C6,24.627417 11.372583,30 18,30 L18,30 C24.627417,30 30,24.627417 30,18" id="Path"></path>
                        </g>
                        <path d="M1.0065918,27.5 L6.41666667,27.5" id="Line-4" stroke="#000000" stroke-linecap="round"></path>
                        <path d="M20,39.5 L25,39.5" id="Line-4-Copy" stroke="#000000" stroke-linecap="round" transform="translate(22.500000, 39.500000) scale(-1, -1) rotate(90.000000) translate(-22.500000, -39.500000) "></path>
                        <g id="Group-10" transform="translate(14.000000, 0.000000)">
                            <ellipse id="Oval-2" fill="#FFED00" cx="16.9435737" cy="17.3524548" rx="16.9278997" ry="17.3524548"></ellipse>
                            <g id="Group-6" transform="translate(2.413793, 11.255646)">
                                <g id="Page-1" transform="translate(0.544544, 1.062622)">
                                    <polygon id="Fill-1" fill="#000000" points="11.7486756 0.679378257 6.46949034 6.09191273 1.1829819 0.677622782 -0.168368895 0.678703074 -0.165353448 11.5375312 2.50374746 11.5367209 2.50202434 5.53340162 6.47049549 9.72128974 10.4366692 5.53151111 10.4383923 11.5348304 13.1074932 11.5341552 13.1043341 0.675462197"></polygon>
                                    <g id="Group-7" transform="translate(14.314390, -0.531434)">
                                        <g id="Group-4">
                                            <mask id="mask-2" fill="white">
                                                <use xlink:href="#path-1"></use>
                                            </mask>
                                            <g id="Clip-3"></g>
                                            <path d="M2.63736466,4.77690564 C2.98117503,5.10593816 3.40777739,5.27717087 3.91670923,5.27702326 C4.42564107,5.27687564 4.85193509,5.10564293 5.19574545,4.77631518 C5.53940164,4.43370213 5.71809052,4.02540067 5.71793635,3.53812551 C5.71778217,3.05099795 5.53893911,2.6426965 5.19497458,2.31351636 C4.85101004,1.97119855 4.42471602,1.80011344 3.91563001,1.80026106 C3.40669817,1.80040867 2.98040415,1.971789 2.63659379,2.31410682 C2.2929376,2.64343457 2.11409454,3.05173603 2.11424872,3.53915881 C2.11440289,4.02643398 2.29340013,4.4477255 2.63736466,4.77690564 M6.63882392,1.04890371 C7.39551507,1.72040166 7.76707694,2.54999465 7.76738529,3.53768266 C7.76769364,4.52537068 7.39659429,5.35511128 6.6402115,6.04018976 C5.88398288,6.71198294 4.97620018,7.05459598 3.91717176,7.05489121 C2.84426758,7.05518644 1.93633071,6.71301624 1.17963956,6.04151829 C0.43682417,5.35688265 0.0649539487,4.52728967 0.0647997737,3.53960165 C0.0646455986,2.55191363 0.435744945,1.72217304 1.17825199,1.05023224 C1.93448061,0.36530138 2.84226331,0.0226883348 3.91516748,0.022393106 C4.9741959,0.0220978772 5.88228695,0.364268079 6.63882392,1.04890371" id="Fill-2" fill="#000000" mask="url(#mask-2)"></path>
                                        </g>
                                        <path d="M5.0191071,8.28497685 C5.00230201,8.57902475 4.89499618,8.82937879 4.70150649,9.04164831 C4.49028667,9.26469369 4.22834326,9.38071861 3.91567626,9.38071861 C3.60270091,9.38086623 3.3407575,9.26498892 3.1293835,9.04209116 C2.93558546,8.83779281 2.82827963,8.5805009 2.81147455,8.28497685 L1.55217274,8.28497685 C1.57021122,8.91794744 1.79592349,9.45378775 2.23378063,9.89840235 C2.69861841,10.3530547 3.25657792,10.5846617 3.91598461,10.5845141 C4.56660332,10.5842189 5.12456283,10.3523167 5.58924643,9.89751666 C6.03481233,9.45275445 6.26222053,8.91779982 6.28025901,8.28497685 L5.0191071,8.28497685 Z" id="Fill-5" fill="#000000"></path>
                                    </g>
                                </g>
                            </g>
                        </g>
                    </g>
                </g>
            </g>
        </g>
    </g>
</svg>