<?xml version="1.0" encoding="UTF-8"?>
<svg width="33px" height="31px" viewBox="0 0 33 31" version="1.1" xmlns="http://www.w3.org/2000/svg" xmlns:xlink="http://www.w3.org/1999/xlink">
    <!-- Generator: Sketch 53.2 (72643) - https://sketchapp.com -->
    <title>icon_back</title>
    <desc>Created with Sketch.</desc>
    <g id="Symbols" stroke="none" stroke-width="1" fill="none" fill-rule="evenodd">
        <g id="Mobile/Header/back_without_login" transform="translate(-15.000000, -63.000000)" fill="#FFFFFF">
            <g id="icon_back" transform="translate(15.000000, 61.000000)">
                <path d="M1.49392361,16.0004343 L14.5330262,2.5042631 C15.1671047,1.84795783 16.2131674,1.82993945 16.8694727,2.46401794 C16.8818418,2.47596815 16.8940236,2.48811075 16.9060136,2.5004413 L16.9060136,2.5004413 C17.5683027,3.18154199 17.5700484,4.2654771 16.9099566,4.94870755 L3.87085401,18.4448788 C3.23677552,19.1011841 2.1907128,19.1192024 1.53440752,18.4851239 C1.52203842,18.4731737 1.50985664,18.4610311 1.49786665,18.4487006 L1.49786665,18.4487006 C0.835577545,17.7675999 0.833831818,16.6836648 1.49392361,16.0004343 Z" id="Rectangle-6"></path>
                <path d="M1.49392361,30.0004343 L14.5330262,16.5042631 C15.1671047,15.8479578 16.2131674,15.8299395 16.8694727,16.4640179 C16.8818418,16.4759681 16.8940236,16.4881107 16.9060136,16.5004413 L16.9060136,16.5004413 C17.5683027,17.181542 17.5700484,18.2654771 16.9099566,18.9487075 L3.87085401,32.4448788 C3.23677552,33.1011841 2.1907128,33.1192024 1.53440752,32.4851239 C1.52203842,32.4731737 1.50985664,32.4610311 1.49786665,32.4487006 L1.49786665,32.4487006 C0.835577545,31.7675999 0.833831818,30.6836648 1.49392361,30.0004343 Z" id="Rectangle-6-Copy" transform="translate(9.201940, 24.474571) scale(1, -1) translate(-9.201940, -24.474571) "></path>
                <path d="M5.51522964,26.3143375 L25.4199986,5.92718079 C26.060873,5.27077492 27.1125265,5.25818419 27.7689323,5.8990586 C27.7792227,5.9091055 27.7893822,5.91928562 27.7994081,5.92959637 L27.7994081,5.92959637 C28.4607138,6.60968569 28.4596141,7.69288004 27.796929,8.37162523 L7.89216004,28.758782 C7.25128563,29.4151878 6.19963218,29.4277786 5.54322632,28.7869042 C5.53293593,28.7768573 5.52277647,28.7666772 5.51275049,28.7563664 L5.51275049,28.7563664 C4.85144482,28.0762771 4.85254448,26.9930827 5.51522964,26.3143375 Z" id="Rectangle-6" transform="translate(16.656079, 17.342981) rotate(45.000000) translate(-16.656079, -17.342981) "></path>
            </g>
        </g>
    </g>
</svg>