<?xml version="1.0" encoding="UTF-8"?>
<svg width="40px" height="26px" viewBox="0 0 40 26" version="1.1" xmlns="http://www.w3.org/2000/svg" xmlns:xlink="http://www.w3.org/1999/xlink">
    <!-- Generator: Sketch 53.1 (72631) - https://sketchapp.com -->
    <title>Group 7</title>
    <desc>Created with Sketch.</desc>
    <defs>
        <polygon id="path-1" points="0.0525714286 0.0006875 31.9996847 0.0006875 31.9996847 21.9992437 0.0525714286 21.9992437"></polygon>
        <polygon id="path-3" points="0 0.0222876254 34.9221269 0.0222876254 34.9221269 20 0 20"></polygon>
    </defs>
    <g id="MO-Web-UX-Flow-Final" stroke="none" stroke-width="1" fill="none" fill-rule="evenodd">
        <g id="MO_Web_Desktop_Offer_02_Details-Copy-2" transform="translate(-150.000000, -633.000000)">
            <g id="Group-2" transform="translate(150.000000, 633.000000)">
                <g id="Group-7">
                    <g id="Group-3" transform="translate(8.000000, 0.000000)">
                        <mask id="mask-2" fill="white">
                            <use xlink:href="#path-1"></use>
                        </mask>
                        <g id="Clip-2"></g>
                        <path d="M20.2299113,16.7391812 L20.2299113,12.4666437 C20.2299113,12.2661 20.1362759,12.0749062 19.9696552,11.9367188 C19.8136749,11.8056812 19.6051232,11.7333562 19.3891626,11.7333562 C19.376867,11.7333562 19.3637044,11.7333562 19.3505419,11.7340437 C18.7586207,11.7576937 8.14447291,12.2346125 2.91538916,16.15625 C4.64528079,12.1766562 8.9030936,7.33335625 19.3849852,7.33335625 L19.3891626,7.33335625 C19.6124532,7.33335625 19.8259704,7.2560125 19.9836059,7.1185125 C20.1412414,6.9810125 20.2299113,6.7948375 20.2299113,6.6 L20.2299113,2.3274625 L29.8678227,9.5332875 L20.2299113,16.7391812 Z M31.7060887,8.97689375 L19.936,0.17689375 C19.6880394,-0.00928125 19.3383251,-0.0515625 19.0377931,0.06730625 C18.7397833,0.18693125 18.5484926,0.446875 18.5484926,0.73335625 L18.5484926,5.87675 C9.15436453,6.10451875 4.62234483,10.1607 2.4680197,13.5788812 C0.59444335,16.5501875 0.174108374,19.4920687 0.0796847291,20.699525 C0.061635468,20.884325 0.0525714286,21.0726312 0.0525714286,21.2645812 L0.0525714286,21.2667125 L0.0525714286,21.2681562 L0.0525714286,21.2688437 L0.0525714286,21.2695312 L0.0525714286,21.2716625 L0.0525714286,21.2724187 L0.0525714286,21.2737937 L0.0525714286,21.2744812 L0.0525714286,21.275925 L0.0525714286,21.2766125 L0.0525714286,21.2787437 L0.0525714286,21.280875 L0.0525714286,21.2830062 L0.0525714286,21.2836937 L0.0525714286,21.2851375 L0.0525714286,21.285825 L0.0525714286,21.2879562 L0.0533596059,21.2900875 L0.0533596059,21.290775 L0.0533596059,21.2929062 L0.0533596059,21.2951062 L0.0533596059,21.2971687 L0.0533596059,21.2993 L0.0533596059,21.2999875 L0.0533596059,21.3021187 L0.0533596059,21.30425 C0.0533596059,21.30425 0.0533596059,21.3056937 0.0541477833,21.3063812 L0.0541477833,21.3085125 L0.0541477833,21.3092 L0.0541477833,21.3113312 L0.0541477833,21.3134625 L0.0541477833,21.3155937 C0.0533596059,21.3177937 0.0558029557,21.3184812 0.0549359606,21.3184812 L0.0549359606,21.3206125 L0.0549359606,21.3227437 L0.0549359606,21.324875 C0.0549359606,21.3263875 0.0557241379,21.3277625 0.0557241379,21.3277625 L0.0557241379,21.3298937 L0.0557241379,21.332025 L0.0557241379,21.3327125 L0.0557241379,21.3341562 L0.0557241379,21.3348437 L0.0565123153,21.3362875 L0.0565123153,21.336975 L0.0565123153,21.3384187 L0.0565123153,21.3391062 L0.0565123153,21.3412375 L0.0565123153,21.341925 C0.0573004926,21.3426125 0.0573004926,21.3426125 0.0573004926,21.3434375 L0.0573004926,21.3448125 L0.0573004926,21.3455 L0.0573004926,21.3462562 L0.0573004926,21.3476312 L0.05808867,21.3497625 L0.05808867,21.3518937 L0.05808867,21.3525812 L0.05808867,21.354025 L0.05808867,21.3547125 C0.0588768473,21.3554687 0.0588768473,21.3561562 0.0588768473,21.3561562 L0.0588768473,21.3583562 C0.111448276,21.7199125 0.465261084,21.9992437 0.893004926,21.9992437 C1.35684729,21.9992437 1.7328867,21.6719937 1.73375369,21.2673312 L1.73375369,21.2666437 C1.73375369,21.22945 1.73454187,21.138425 1.74195074,20.99955 C2.10892611,14.9015625 15.0243941,13.5179687 18.5481773,13.2536937 L18.5481773,18.3326687 C18.5481773,18.6190812 18.739468,18.879025 19.0374778,18.99865 C19.3371429,19.1175187 19.686069,19.0759937 19.9356847,18.8890625 L31.7057734,10.0890625 C31.8921773,9.95011875 31.9996847,9.74675625 31.9996847,9.5326 C32,9.3192 31.8924138,9.1158375 31.7060887,8.97689375 L31.7060887,8.97689375 Z" id="Fill-1" fill="#000000" mask="url(#mask-2)"></path>
                    </g>
                    <g id="Group-6" transform="translate(0.000000, 6.000000)">
                        <mask id="mask-4" fill="white">
                            <use xlink:href="#path-3"></use>
                        </mask>
                        <g id="Clip-5"></g>
                        <path d="M34.0905457,10.304495 C33.6309465,10.304495 33.2590423,10.6236254 33.2590423,11.0180067 L33.2590423,17.1461003 C33.2590423,17.9327224 32.5128174,18.57299 31.5961136,18.57299 L3.32593541,18.57299 C2.40923163,18.57299 1.66300668,17.9327224 1.66300668,17.1461003 L1.66300668,2.87626756 C1.66300668,2.08964548 2.40923163,1.44931104 3.32593541,1.44931104 L14.841559,1.44931104 C15.3011581,1.44931104 15.6730624,1.1301806 15.6730624,0.735799331 C15.6730624,0.34141806 15.3011581,0.0222876254 14.841559,0.0222876254 L3.32593541,0.0222876254 C1.49159243,0.0223545151 0,1.30228763 0,2.87626756 L0,17.1459666 C0,18.7200134 1.49159243,20.0000134 3.32593541,20.0000134 L31.5961915,20.0000134 C33.4304566,20.0000134 34.9221269,18.7200803 34.9221269,17.1459666 L34.9221269,11.0179398 C34.922049,10.6236254 34.5501448,10.304495 34.0905457,10.304495" id="Fill-4" fill="#000000" mask="url(#mask-4)"></path>
                    </g>
                </g>
            </g>
        </g>
    </g>
</svg>