<?xml version="1.0" encoding="UTF-8"?>
<svg width="40px" height="34px" viewBox="0 0 40 34" version="1.1" xmlns="http://www.w3.org/2000/svg" xmlns:xlink="http://www.w3.org/1999/xlink">
    <!-- Generator: Sketch 53.1 (72631) - https://sketchapp.com -->
    <title>Group 18</title>
    <desc>Created with Sketch.</desc>
    <defs>
        <polygon id="path-1" points="0 0.0563263186 38.8910318 0.0563263186 38.8910318 17.8125 0 17.8125"></polygon>
        <polygon id="path-3" points="0.0315529296 0.0132222222 9.86956661 0.0132222222 9.86956661 1.99646057 0.0315529296 1.99646057"></polygon>
    </defs>
    <g id="mock-up" stroke="none" stroke-width="1" fill="none" fill-rule="evenodd">
        <g id="MO_Web_Desktop_Offer_Details-Copy-16" transform="translate(-837.000000, -918.000000)">
            <g id="Group-18" transform="translate(837.000000, 918.000000)">
                <circle id="Oval-Copy-3" fill="#FFFF30" cx="14" cy="11" r="11"></circle>
                <g id="Group-21" transform="translate(0.000000, 7.000000)">
                    <g id="Group-3" transform="translate(0.557377, 9.000000)">
                        <mask id="mask-2" fill="white">
                            <use xlink:href="#path-1"></use>
                        </mask>
                        <g id="Clip-2"></g>
                        <path d="M19.4609853,1.5156317 C16.052974,1.5156317 12.6451098,1.51478348 9.23695132,1.51591443 C7.39320792,1.51662128 5.73254377,2.04703795 4.31809472,3.18689658 C1.12274377,5.76221652 0.562321132,10.048526 2.96825321,13.3236228 C5.17918528,16.3335112 9.58427208,17.2644263 12.8955928,15.4260632 C14.4941513,14.5385484 15.6316268,13.2713162 16.294774,11.6192775 C16.4537174,11.2233028 16.6579891,10.927276 17.1461513,10.9274174 C18.6786306,10.9275588 20.2109626,10.9252969 21.7434419,10.928407 C22.1229928,10.9292552 22.4012909,11.0863162 22.5330079,11.4466659 C22.5855475,11.590721 22.6479475,11.7315246 22.7079928,11.8728936 C24.0289891,14.9832954 27.5585626,16.8570007 30.9939475,16.2711674 C35.2239023,15.5500439 37.638223,11.8755796 37.3746419,8.47268527 C37.0683815,4.5181689 33.7722192,1.50983557 29.6482268,1.51478348 C26.2522834,1.51874182 22.8566343,1.5156317 19.4609853,1.5156317 M19.4603966,0.0634888393 C22.6235174,0.0634888393 25.7867853,0.080311756 28.949906,0.056844494 C30.6784155,0.0439799107 32.3362834,0.267908482 33.8952532,1.03624926 C39.1712909,3.63645015 40.5499777,10.4138237 36.6708758,14.7231763 C34.8409664,16.7562046 32.5095023,17.8274993 29.7291702,17.8113832 C26.6330117,17.7934293 24.1661513,16.4854829 22.3606721,14.0656689 C22.0346909,13.6288385 21.7769966,13.1415394 21.5222457,12.6607433 C21.4101023,12.4493966 21.2864796,12.3811153 21.0460042,12.3840841 C20.0040419,12.3968073 18.9614909,12.4020379 17.919823,12.3816808 C17.616506,12.3757433 17.4786079,12.4789427 17.3473325,12.7321347 C15.9133098,15.496465 13.6507211,17.2385558 10.4440381,17.7138385 C5.82982302,18.397782 1.34629472,15.4550439 0.269747547,11.0875885 C-0.943078868,6.16822842 2.0351966,1.46742485 7.16259283,0.299009673 C8.06724566,0.0928936012 9.03282679,0.0811599702 9.97118151,0.0733846726 C13.1340079,0.0473727679 16.2972758,0.0634888393 19.4603966,0.0634888393" id="Fill-1" fill="#000000" mask="url(#mask-2)"></path>
                    </g>
                    <g id="Group-6" transform="translate(15.557377, 0.000000)">
                        <mask id="mask-4" fill="white">
                            <use xlink:href="#path-3"></use>
                        </mask>
                        <g id="Clip-5"></g>
                        <path d="M4.81608696,0.0155555556 C6.54753623,0.00455555556 8.02681159,0.324333333 9.4126087,0.913222222 C9.71898551,1.04333333 9.91434783,1.23544444 9.86072464,1.52033333 C9.81275362,1.77422222 9.6157971,1.96155556 9.28550725,1.98822222 C9.07594203,2.00511111 8.83115942,1.95522222 8.63913043,1.87988889 C7.70695652,1.51455556 6.73724638,1.26311111 5.68869565,1.18455556 C4.1284058,1.06744444 2.67449275,1.31755556 1.29173913,1.86777778 C1.09782609,1.945 0.858695652,2.006 0.647391304,1.99522222 C0.335797101,1.97944444 0.125362319,1.80722222 0.0543478261,1.57055556 C-0.0252173913,1.30588889 0.105942029,1.07844444 0.409710145,0.958333333 C0.953768116,0.743 1.50507246,0.528777778 2.08057971,0.372444444 C3.00536232,0.121444444 3.96768116,-0.00611111111 4.81608696,0.0155555556" id="Fill-4" fill="#000000" mask="url(#mask-4)"></path>
                    </g>
                    <path d="M20.127133,3.00008861 C21.1920497,2.9962247 22.237012,3.25871245 23.1999845,3.80648495 C23.4701163,3.96013946 23.5960873,4.18128345 23.5469478,4.48009187 C23.4997086,4.76885414 23.2973134,4.96076127 23.0178152,4.99437722 C22.8139267,5.0188486 22.5736587,4.95058633 22.382666,4.86042862 C21.3918658,4.39354046 20.3527406,4.17819232 19.2642043,4.38748702 C18.7189181,4.49232756 18.1914144,4.70381179 17.6740916,4.90808341 C17.2413377,5.07899668 16.8522935,5.01717424 16.6459617,4.67534771 C16.4513039,4.35284069 16.5810757,3.9977481 16.9995765,3.76462601 C17.9468026,3.236817 18.9761542,2.99467914 20.127133,3.00008861" id="Fill-7" fill="#000000"></path>
                    <path d="M22.5570035,6.09866248 C22.5740733,6.83959141 22.0032302,7.18716574 21.4427711,6.88937188 C20.7831649,6.53898257 20.1036439,6.40504941 19.3845779,6.60135631 C19.1244054,6.67232311 18.8790268,6.80403393 18.6295229,6.91485473 C18.2216965,7.09590155 17.8534152,6.98493259 17.6491464,6.61335696 C17.4625164,6.27348674 17.5665,5.86946491 17.9069006,5.61226583 C18.9885581,4.79459202 21.1635374,4.79177705 22.2146114,5.62871116 C22.387301,5.76605192 22.4881552,6.00117573 22.5570035,6.09866248" id="Fill-9" fill="#000000"></path>
                    <path d="M10.2326779,16.7572681 C11.1275089,16.7572681 11.9681752,16.7505361 12.8089726,16.7597559 C13.3503565,16.7656098 13.6572456,17.1775735 13.5279325,17.6975405 C13.4417675,18.0436485 13.2245844,18.2305322 12.8763833,18.2324347 C12.0143397,18.2372641 11.1521649,18.2340445 10.2516946,18.2340445 C10.2447436,18.3815612 10.2338583,18.5093212 10.233596,18.6370811 C10.231891,19.4296905 10.2360878,20.2224463 10.2299238,21.0149093 C10.2287434,21.1833535 10.2161531,21.3602856 10.1677591,21.5174611 C10.0686103,21.8405929 9.8385746,22.0102078 9.53981674,21.9995245 C9.22689477,21.9882559 9.00000667,21.7963964 8.92813691,21.446337 C8.88708722,21.247453 8.88498883,21.0358368 8.88380849,20.8299281 C8.87934942,19.9795121 8.88184125,19.1289497 8.88184125,18.2347763 C8.49849216,18.2347763 8.15212715,18.2352153 7.80549984,18.2346299 C7.25913231,18.2338982 6.71263363,18.2401911 6.16639724,18.2286297 C5.83786852,18.2216051 5.60678364,17.9615485 5.56376671,17.587342 C5.52284816,17.2304043 5.68022719,16.9255658 5.98501791,16.818587 C6.11734745,16.772049 6.26370994,16.7604877 6.40403958,16.7597559 C7.21152515,16.7543411 8.01901072,16.7571217 8.86466071,16.7571217 C8.87082472,16.6120929 8.88052976,16.4844793 8.88079206,16.3567193 C8.88289044,15.50323 8.87239851,14.6493017 8.88761181,13.7961051 C8.89652996,13.3062854 9.16158248,13.0074471 9.53968559,13.0001298 C9.92972329,12.9926661 10.2050054,13.3077488 10.2301861,13.7991784 C10.2383173,13.9570856 10.2326779,14.1161636 10.2326779,14.2746562 C10.2328091,15.0887784 10.2326779,15.9027543 10.2326779,16.7572681" id="Fill-11" fill="#000000"></path>
                    <path d="M27.0553144,16.67542 C26.588621,16.6741256 26.2230771,17.0267057 26.219809,17.4813868 C26.216214,17.9491744 26.6033277,18.3383232 27.0639751,18.330071 C27.5192299,18.3219806 27.8777472,17.9516015 27.8739889,17.4935224 C27.8697402,17.0223369 27.5241322,16.6767145 27.0553144,16.67542 M24.5574587,17.4619698 C24.5461835,16.1289936 25.7042565,14.9906727 27.062341,15.0000576 C28.4129087,15.0096043 29.5348685,16.1298027 29.557092,17.4909335 C29.578335,18.7996385 28.4093137,19.9818094 27.0759039,19.9997701 C25.6939618,20.0185399 24.5695509,18.8855586 24.5574587,17.4619698" id="Fill-13" fill="#000000"></path>
                    <path d="M31.8745039,13.5179044 C31.8805364,13.0426534 31.5427166,12.687353 31.0762578,12.6784136 C30.6049078,12.6696367 30.2413276,13.0109592 30.2312191,13.4723947 C30.2204584,13.9616236 30.5762127,14.337566 31.0511496,14.3387037 C31.512228,14.3398415 31.8684714,13.9848661 31.8745039,13.5179044 M31.0301174,15.9999691 C29.6408496,15.9929801 28.5390222,14.8420731 28.5576088,13.4172955 C28.574728,12.0954022 29.7262828,10.9890298 31.0738122,11.0000821 C32.4453086,11.011297 33.571429,12.164642 33.5572445,13.5440724 C33.5433861,14.8820566 32.3861249,16.0067955 31.0301174,15.9999691" id="Fill-15" fill="#000000"></path>
                    <path d="M34.2408049,17.4930741 C34.2442282,17.96548 34.5872052,18.3216861 35.0454317,18.3284833 C35.5165361,18.3354423 35.8913005,17.9559316 35.8824979,17.4814218 C35.8740212,17.0151657 35.5211005,16.6727159 35.0526042,16.675629 C34.5803587,16.6785421 34.2373817,17.023905 34.2408049,17.4930741 M35.0641781,19.9999489 C33.6921068,20.00885 32.5598261,18.8538103 32.5573809,17.4424187 C32.5549357,16.1465797 33.7108532,15.0132263 35.0482029,15.0001174 C36.4038099,14.9866848 37.5444043,16.1274828 37.5572822,17.5099053 C37.5695081,18.8211189 36.3977785,19.9913715 35.0641781,19.9999489" id="Fill-17" fill="#000000"></path>
                    <path d="M30.2306994,21.4799214 C30.2246663,21.9749105 30.5744223,22.3452189 31.0494055,22.3463553 C31.5139531,22.347654 31.8650135,21.9997492 31.8746338,21.5291118 C31.8845803,21.0354214 31.5330307,20.6623532 31.0572322,20.6617038 C30.5961088,20.6612168 30.2364064,21.0170765 30.2306994,21.4799214 M31.053645,23.9999989 C29.6508709,24.0012976 28.5657307,22.8942688 28.5574149,21.4532968 C28.5497512,20.1181736 29.7079407,18.9874424 31.0699506,19.0001053 C32.4467987,19.0127682 33.5562342,20.1420383 33.5573756,21.532521 C33.5588431,22.8695924 32.413209,23.9985378 31.053645,23.9999989" id="Fill-19" fill="#000000"></path>
                </g>
            </g>
        </g>
    </g>
</svg>