<?xml version="1.0" encoding="UTF-8"?>
<svg width="60px" height="60px" viewBox="0 0 60 60" version="1.1" xmlns="http://www.w3.org/2000/svg" xmlns:xlink="http://www.w3.org/1999/xlink">
    <!-- Generator: Sketch 53.1 (72631) - https://sketchapp.com -->
    <title>Group</title>
    <desc>Created with Sketch.</desc>
    <defs>
        <polygon id="path-1" points="0.0642153902 0.0235788046 7.69734261 0.0235788046 7.69734261 7.41378135 0.0642153902 7.41378135"></polygon>
    </defs>
    <g id="MO-Web-UX-Flow-Final" stroke="none" stroke-width="1" fill="none" fill-rule="evenodd">
        <g id="MO_Web_Desktop_Offer_01-Copy-5a" transform="translate(-822.000000, -1536.000000)">
            <g id="Group-8-Copy" transform="translate(520.000000, 1510.000000)">
                <g id="Offer-Card-01-Copy-5">
                    <g id="Group" transform="translate(302.000000, 26.000000)">
                        <g id="Group-17" fill="#FFFFFF">
                            <circle id="Oval" cx="30" cy="30" r="30"></circle>
                        </g>
                        <g id="Group-15" transform="translate(12.000000, 5.000000)">
                            <ellipse id="Oval-2" fill="#FFED00" cx="23.255814" cy="17.597561" rx="16.744186" ry="17.597561"></ellipse>
                            <g id="Page-1" transform="translate(9.302326, 11.414634)">
                                <polygon id="Fill-1" fill="#000000" points="12.6798676 0.223316099 7.06273561 6.44098482 1.43781161 0.221299491 -4.58354303e-05 0.222540481 0.00316264469 12.6966589 2.8431259 12.6957281 2.84129249 5.79939314 7.06380511 10.6102449 11.2838732 5.79722141 11.2857066 12.6935564 14.1256698 12.6927808 14.1223086 0.218817512"></polygon>
                                <g id="Group-7" transform="translate(14.972907, 0.131591)">
                                    <g id="Group-4">
                                        <mask id="mask-2" fill="white">
                                            <use xlink:href="#path-1"></use>
                                        </mask>
                                        <g id="Clip-3"></g>
                                        <path d="M2.61358207,5.01991199 C2.9542921,5.36568274 3.37704755,5.54562625 3.88139007,5.54547113 C4.38573259,5.54531601 4.80818247,5.3653725 5.1488925,5.01929149 C5.48944975,4.65924935 5.66652729,4.23017716 5.66637451,3.71811377 C5.66622172,3.20620552 5.48899139,2.77713332 5.14812858,2.43120744 C4.80726576,2.07147555 4.38481588,1.89168716 3.88032058,1.89184228 C3.37597806,1.89199741 2.95352818,2.07209604 2.61281815,2.43182793 C2.2722609,2.77790894 2.09503057,3.20698113 2.09518335,3.71919964 C2.09533614,4.23126302 2.27271925,4.6739861 2.61358207,5.01991199 M6.57895793,1.10226258 C7.32882556,1.80792035 7.69703685,2.67971563 7.69734242,3.7176484 C7.69764799,4.75558118 7.32989506,5.62753157 6.58033299,6.34746073 C5.8309237,7.05342876 4.93132699,7.4134709 3.88184842,7.41378115 C2.81861923,7.41409139 1.91886973,7.05451462 1.16900209,6.34885685 C0.432885082,5.62939306 0.0643682226,4.75759778 0.0642154378,3.71966501 C0.064062653,2.68173224 0.431815588,1.80978184 1.16762703,1.10365869 C1.91703631,0.383884656 2.81663302,0.0238425149 3.87986222,0.0235322675 C4.92934079,0.02322202 5.82924307,0.38279879 6.57895793,1.10226258" id="Fill-2" fill="#000000" mask="url(#mask-2)"></path>
                                    </g>
                                    <path d="M4.97384699,8.70644257 C4.95719345,9.01544901 4.85085526,9.27853883 4.65911037,9.50160673 C4.44979524,9.73599866 4.19021392,9.8579259 3.88036641,9.8579259 C3.57021333,9.85808103 3.31063201,9.73630891 3.1011641,9.5020721 C2.90911364,9.28738088 2.80277545,9.01700025 2.78612191,8.70644257 L1.53817593,8.70644257 C1.55605174,9.37161306 1.77972864,9.93471214 2.21363738,10.4019448 C2.67428346,10.8797258 3.22721153,11.1231149 3.88067198,11.1229598 C4.5254237,11.1226495 5.07835177,10.8789502 5.53884506,10.401014 C5.98039304,9.93362628 6.20575057,9.37145793 6.22362639,8.70644257 L4.97384699,8.70644257 Z" id="Fill-5" fill="#000000"></path>
                                </g>
                            </g>
                            <path d="M35.3488372,19.0243902 L35.3488372,36.1463415 C35.3488372,37.7223736 34.0121383,39 32.3632367,39 L20.9479484,39 L2.98560053,39 C1.33669889,39 0,37.7223736 0,36.1463415 L0,32.5195655 C1.06203715,32.30449 2.07334142,31.6344678 2.07334142,30.2654533 L2.07334142,24.0415888 C2.07334142,23.1597687 1.06437346,22.3700744 0,22.0825188 L0,19.0243902 C0,17.4483582 1.33669889,16.1707317 2.98560053,16.1707317 L5.44422238,16.1707317" id="Combined-Shape" stroke="#000000" stroke-width="2" stroke-linecap="round"></path>
                        </g>
                    </g>
                </g>
            </g>
        </g>
    </g>
</svg>