<?xml version="1.0" encoding="UTF-8"?>
<svg width="133px" height="138px" viewBox="0 0 133 138" version="1.1" xmlns="http://www.w3.org/2000/svg" xmlns:xlink="http://www.w3.org/1999/xlink">
    <!-- Generator: Sketch 53.2 (72643) - https://sketchapp.com -->
    <title>icon_update</title>
    <desc>Created with Sketch.</desc>
    <g id="mock-up" stroke="none" stroke-width="1" fill="none" fill-rule="evenodd">
        <g id="m-dashboard_update-plan_plan-details_prompt" transform="translate(-136.000000, -108.000000)">
            <g id="Page"></g>
            <g id="Icon/update-plan" transform="translate(135.000000, 108.000000)">
                <circle id="Oval" fill="#FDF401" cx="36.96" cy="35.04" r="35.04"></circle>
                <g id="Group-9" stroke-width="1" transform="translate(13.440000, 17.280000)" stroke="#000000">
                    <path d="M66.2976,32.64 L41.36,32.64 C40.2554305,32.64 39.36,33.5354305 39.36,34.64 L39.36,82.2813793 C39.36,83.3859488 40.2554305,84.2813793 41.36,84.2813793 L75.76,84.2813793 C76.8645695,84.2813793 77.76,83.3859488 77.76,82.2813793 L77.76,44.2028276 L66.2976,32.64 Z" id="Stroke-1" stroke-width="6"></path>
                    <polyline id="Stroke-1" stroke-width="6" stroke-linecap="round" stroke-linejoin="round" points="107.702857 7.68 107.702857 26.5661181 89.28 32.64"></polyline>
                    <polyline id="Stroke-3" stroke-width="6" stroke-linecap="round" stroke-linejoin="round" points="6.72 109.44 6.72 90.5538819 25.1428571 84.48"></polyline>
                    <path d="M0,58.56 C0,26.22024 26.3191326,0 58.7808656,0 C79.0749595,0 96.9590378,10.24312 107.52,25.82008" id="Stroke-5" stroke-width="6" stroke-linecap="round" stroke-linejoin="round"></path>
                    <path d="M117.12,58.56 C117.12,90.89976 90.8008886,117.12 58.3391818,117.12 C37.4181089,117.12 19.0540016,106.2376 8.64,89.8408" id="Stroke-7" stroke-width="6" stroke-linecap="round" stroke-linejoin="round"></path>
                </g>
                <g id="MO-Logo" stroke-width="1" transform="translate(59.520000, 68.160000)" fill="#000000">
                    <polygon id="Fill-1" points="14.6496073 0.790646122 8.15991174 7.9661204 1.66121378 0.788318863 0 0.789751022 0.00370688443 15.1854545 3.28482916 15.1843804 3.28271094 7.22569423 8.16114737 12.7776373 13.0367595 7.22318796 13.0388777 15.1818741 16.32 15.180979 16.3161166 0.785454545"></polygon>
                    <g id="Group-7" transform="translate(16.320000, 0.785455)">
                        <path d="M3.22895763,5.970638 C3.64988884,6.38189462 4.17218331,6.5959178 4.79527475,6.5957333 C5.41836619,6.5955488 5.94028314,6.38152561 6.36121435,5.96989999 C6.7819568,5.54166912 7.00072777,5.03133452 7.00053901,4.42229096 C7.00035025,3.8134319 6.78139052,3.3030973 6.36027055,2.89165618 C5.93915059,2.46379431 5.41723364,2.24995563 4.79395344,2.25014013 C4.170862,2.25032464 3.64894505,2.46453232 3.22801384,2.89239419 C2.80727139,3.30401982 2.58831166,3.81435441 2.58850042,4.42358248 C2.58868918,5.03262604 2.80783767,5.55919688 3.22895763,5.970638 M8.12799287,1.31102116 C9.05441904,2.15032415 9.50932676,3.18722958 9.50970428,4.42173745 C9.5100818,5.65624532 9.05574035,6.69333525 8.12969169,7.5496125 C7.2038318,8.38928449 6.0924224,8.81751536 4.79584102,8.81788437 C3.48227139,8.81825337 2.37067324,8.39057601 1.44424706,7.55127302 C0.534809144,6.69554929 0.0795239094,5.65864386 0.079335151,4.42413599 C0.0791463926,3.18962811 0.533487836,2.15253818 1.44254824,1.31268168 C2.36840814,0.456588944 3.47981753,0.028358072 4.79338716,0.0279890665 C6.08996854,0.027620061 7.20175545,0.455297425 8.12799287,1.31102116" id="Fill-2"></path>
                        <path d="M6.14495386,10.3553642 C6.12437919,10.7228937 5.99300336,11.0358103 5.75611158,11.3011253 C5.49751258,11.5799089 5.17681208,11.7249281 4.79401007,11.7249281 C4.41083054,11.7251126 4.09013003,11.5802779 3.83134228,11.3016788 C3.59407299,11.046327 3.46269715,10.7247387 3.44212248,10.3553642 L1.90034396,10.3553642 C1.92242869,11.146512 2.19877097,11.8162569 2.7348448,12.3719792 C3.30395134,12.9402477 3.98706795,13.2297325 4.79438758,13.229548 C5.59094799,13.229179 6.2740646,12.9393251 6.84298238,12.3708722 C7.38849413,11.8149654 7.66691275,11.1463275 7.68899748,10.3553642 L6.14495386,10.3553642 Z" id="Fill-5"></path>
                    </g>
                </g>
            </g>
        </g>
    </g>
</svg>