<?xml version="1.0" encoding="UTF-8"?>
<svg width="123px" height="141px" viewBox="0 0 123 141" version="1.1" xmlns="http://www.w3.org/2000/svg" xmlns:xlink="http://www.w3.org/1999/xlink">
    <!-- Generator: Sketch 53.2 (72643) - https://sketchapp.com -->
    <title>suitcase</title>
    <desc>Created with Sketch.</desc>
    <g id="Symbols" stroke="none" stroke-width="1" fill="none" fill-rule="evenodd">
        <g id="suitcase" fill="#000000" fill-rule="nonzero">
            <g>
                <path d="M30.9127846,137.289474 L9.2218746,137.289474 C4.13669827,137.289474 0,133.121081 0,127.996944 L0,36.1938456 C0,31.0697082 4.13669827,26.9013158 9.2218746,26.9013158 L78.6337172,26.9013158 C83.7196691,26.9013158 87.8571429,31.0697082 87.8571429,36.1938456 L87.8571429,62.4233022 L82.428405,62.4233022 L82.428405,36.1938456 C82.428405,34.0862051 80.7268834,32.371647 78.6337172,32.371647 L9.2218746,32.371647 C7.13025944,32.371647 5.42873788,34.0862051 5.42873788,36.1938456 L5.42873788,127.996944 C5.42873788,130.103803 7.13025944,131.819142 9.2218746,131.819142 L30.9127846,131.819142 L30.9127846,137.289474 Z" id="Shape"></path>
                <polygon id="Rectangle-path" points="6.47368421 134.506579 12.0225564 134.506579 12.0225564 141 6.47368421 141"></polygon>
                <polygon id="Rectangle-path" points="33.2932331 39.8881579 37.9172932 39.8881579 37.9172932 45.4539474 33.2932331 45.4539474"></polygon>
                <polygon id="Rectangle-path" points="42.5413534 39.8881579 47.1654135 39.8881579 47.1654135 45.4539474 42.5413534 45.4539474"></polygon>
                <polygon id="Rectangle-path" points="50.8646617 39.8881579 55.4887218 39.8881579 55.4887218 45.4539474 50.8646617 45.4539474"></polygon>
                <polygon id="Rectangle-path" points="56.4135338 12.0592105 61.962406 12.0592105 61.962406 29.6842105 56.4135338 29.6842105"></polygon>
                <polygon id="Rectangle-path" points="25.8947368 12.0592105 31.443609 12.0592105 31.443609 29.6842105 25.8947368 29.6842105"></polygon>
                <path d="M61.962406,13.9144737 L25.8947368,13.9144737 L25.8947368,0 L61.962406,0 L61.962406,13.9144737 Z M31.3646262,8.5592221 L56.4925166,8.5592221 L56.4925166,5.35525158 L31.3646262,5.35525158 L31.3646262,8.5592221 Z" id="Shape"></path>
                <path d="M115.946518,141 L42.1955632,141 C38.3070358,141 35.1428571,137.820009 35.1428571,133.910313 L35.1428571,85.9383717 C35.1428571,82.0286749 38.3070358,78.8486842 42.1955632,78.8486842 L115.946518,78.8486842 C119.835821,78.8486842 123,82.0286749 123,85.9383717 L123,133.910313 C122.999224,137.820009 119.835046,141 115.946518,141 Z M42.1955632,84.3066677 C41.300597,84.3066677 40.571595,85.0387127 40.571595,85.9391513 L40.571595,133.911092 C40.571595,134.810751 41.2998214,135.543576 42.1955632,135.543576 L115.946518,135.543576 C116.84226,135.543576 117.571262,134.811531 117.571262,133.911092 L117.571262,85.9391513 C117.571262,85.0394923 116.843036,84.3066677 115.946518,84.3066677 L42.1955632,84.3066677 Z" id="Shape"></path>
                <path d="M95.2556391,81.6315789 L89.8296496,81.6315789 L89.8296496,72.9326432 C89.8296496,72.0353807 89.1017919,71.3045084 88.2065036,71.3045084 L70.8611655,71.3045084 C69.9666524,71.3045084 69.2380196,72.0346032 69.2380196,72.9326432 L69.2380196,81.6315789 L63.8120301,81.6315789 L63.8120301,72.9326432 C63.8120301,69.0333615 66.9738317,65.8618421 70.8611655,65.8618421 L88.2065036,65.8618421 C92.0938375,65.8618421 95.2556391,69.034139 95.2556391,72.9326432 L95.2556391,81.6315789 Z" id="Shape"></path>
                <path d="M121.150376,95.5460526 L114.492745,95.5460526 C110.514191,95.5460526 107.278195,92.3000053 107.278195,88.3090939 L107.278195,81.6315789 L112.83151,81.6315789 L112.83151,88.3090939 C112.83151,89.2274412 113.576448,89.9754884 114.492745,89.9754884 L121.150376,89.9754884 L121.150376,95.5460526 Z" id="Shape"></path>
                <path d="M44.5745118,95.5460526 L37.9172932,95.5460526 L37.9172932,89.9754884 L44.5745118,89.9754884 C45.4900677,89.9754884 46.2358412,89.228237 46.2358412,88.3090939 L46.2358412,81.6315789 L51.7894737,81.6315789 L51.7894737,88.3090939 C51.7894737,92.3000053 48.5524993,95.5460526 44.5745118,95.5460526 Z" id="Shape"></path>
                <path d="M112.83151,139.144737 L107.278195,139.144737 L107.278195,132.467222 C107.278195,128.476311 110.514191,125.230263 114.492745,125.230263 L121.150376,125.230263 L121.150376,130.800827 L114.492745,130.800827 C113.577241,130.800827 112.83151,131.548079 112.83151,132.467222 L112.83151,139.144737 Z" id="Shape"></path>
                <path d="M51.7894737,139.144737 L46.2358412,139.144737 L46.2358412,132.467222 C46.2358412,131.548875 45.4908611,130.800827 44.5745118,130.800827 L37.9172932,130.800827 L37.9172932,125.230263 L44.5745118,125.230263 C48.5524993,125.230263 51.7894737,128.476311 51.7894737,132.467222 L51.7894737,139.144737 Z" id="Shape"></path>
                <polygon id="Rectangle-path" points="55.4887218 125.230263 103.578947 125.230263 103.578947 130.796053 55.4887218 130.796053"></polygon>
                <path d="M75.71157,62.1513158 L70.2857143,62.1513158 L70.2857143,53.4643904 C70.2857143,45.9786336 76.3665483,39.8881579 83.8395019,39.8881579 L86.0075188,39.8881579 L86.0075188,45.3233096 L83.8395019,45.3233096 C79.3577451,45.3233096 75.71157,48.9757316 75.71157,53.4643904 L75.71157,62.1513158 Z" id="Shape"></path>
                <path d="M4.94266681,124.302632 L2.77443609,124.302632 L2.77443609,118.815624 L4.94266681,118.815624 C9.4240904,118.815624 13.0698498,115.129139 13.0698498,110.597655 L13.0698498,53.5939186 C13.0698498,49.0624343 9.4240904,45.3751653 4.94266681,45.3751653 L2.77443609,45.3751653 L2.77443609,39.8881579 L4.94266681,39.8881579 C12.4163573,39.8881579 18.4962406,46.0367416 18.4962406,53.5939186 L18.4962406,110.597655 C18.4970158,118.154832 12.4163573,124.302632 4.94266681,124.302632 Z" id="Shape"></path>
            </g>
        </g>
    </g>
</svg>