<?xml version="1.0" encoding="UTF-8"?>
<svg width="39px" height="30px" viewBox="0 0 39 30" version="1.1" xmlns="http://www.w3.org/2000/svg" xmlns:xlink="http://www.w3.org/1999/xlink">
    <!-- Generator: Sketch 53.2 (72643) - https://sketchapp.com -->
    <title>Group 9</title>
    <desc>Created with Sketch.</desc>
    <defs>
        <polygon id="path-1" points="0.0694496211 0.0350246305 17.4521373 0.0350246305 17.4521373 26.4512785 0.0694496211 26.4512785"></polygon>
        <polygon id="path-3" points="0 0.075931056 15.3360164 0.075931056 15.3360164 5.61575766 0 5.61575766"></polygon>
    </defs>
    <g id="mock-up" stroke="none" stroke-width="1" fill="none" fill-rule="evenodd">
        <g id="payment-copy-10" transform="translate(-155.000000, -831.000000)">
            <g id="Group-9" transform="translate(155.000000, 831.000000)">
                <g id="Group-3" transform="translate(21.517241, 0.112759)">
                    <mask id="mask-2" fill="white">
                        <use xlink:href="#path-1"></use>
                    </mask>
                    <g id="Clip-2"></g>
                    <path d="M15.1274874,8.50893103 C11.4211425,6.40361084 7.76111954,4.32459606 4.07375172,2.23006404 C3.74008506,3.34361084 3.4135908,4.43218227 3.08336092,5.53434975 C6.30018851,7.36242857 9.49684368,9.17927586 12.6994759,10.9993744 C13.5138437,10.1641034 14.2987747,9.3589803 15.1274874,8.50893103 M12.3229241,12.8528719 C12.1023724,13.9392266 11.8879471,14.9954335 11.6733724,16.0514926 C11.4480391,17.1604581 11.2215103,18.2692759 10.9970736,19.3785369 C10.9277402,19.7218374 10.7461885,19.9828227 10.4527172,20.18233 C7.49947586,22.1893744 4.54862529,24.1998177 1.59747586,26.2101133 C1.25887816,26.4406552 0.907728736,26.5483892 0.516383908,26.3400148 C0.196613793,26.1696207 0.0687057471,25.8906059 0.0694528736,25.5471576 C0.0702,25.1567143 0.324372414,24.9258768 0.620383908,24.7244483 C2.60848736,23.3707537 4.59584368,22.0163202 6.5837977,20.6627734 C7.40369425,20.1045961 8.23031494,19.5560246 9.03945287,18.9832167 C9.1826023,18.8819852 9.31529195,18.6951872 9.35085517,18.5268621 C9.79390115,16.4335123 10.2102,14.3345468 10.6563839,12.2420837 C10.7155563,11.9648424 10.6421885,11.8556305 10.4141655,11.7267635 C7.55252184,10.109867 4.6964069,8.48292118 1.83894713,6.85863547 C1.17505057,6.48104926 1.05341839,6.18607389 1.27023448,5.46060591 C1.72418851,3.93947291 2.17888966,2.41848768 2.63538391,0.898093596 C2.90076322,0.0144975369 3.3964069,-0.185157635 4.2042,0.27370936 C8.41171724,2.66336453 12.6180391,5.05464532 16.8236138,7.44755172 C17.5807517,7.8783399 17.6536713,8.42070443 17.043269,9.0572069 C15.9385678,10.2094729 14.8313264,11.3595222 13.7233379,12.5088325 C13.2250046,13.0260739 13.0542115,13.0692266 12.3229241,12.8528719" id="Fill-1" fill="#000000" mask="url(#mask-2)"></path>
                </g>
                <path d="M25.4013575,16.3886158 C26.0869207,16.3945271 26.6227598,15.8874828 26.6281391,15.2279261 C26.6336678,14.5541823 26.1148632,14.0221626 25.4481276,14.0177291 C24.7704839,14.0132956 24.2198517,14.5334926 24.2156678,15.1819655 C24.2116333,15.848468 24.7367138,16.3827044 25.4013575,16.3886158 M18.4101966,25.419798 C18.7626908,24.8152167 19.1147368,24.2100443 19.4678287,23.6057586 C20.6559092,21.5724089 21.8420471,19.5378768 23.0367023,17.5083695 C23.1619207,17.2955616 23.1850816,17.1510296 23.0228057,16.9252167 C22.1807943,15.7534433 22.2507253,14.3274828 23.1695414,13.2792562 C24.0466678,12.2789113 25.5352425,11.994133 26.7848862,12.587335 C27.8414724,13.0889113 28.5564724,14.4071379 28.3946448,15.555266 C28.2163805,16.820734 27.2567713,17.8617192 26.0477713,18.0714236 C25.7454839,18.1238867 25.4255644,18.1484187 25.1235759,18.1101429 C24.8601391,18.0768916 24.7295414,18.1317192 24.5956563,18.3606355 C22.8476793,21.3536897 21.0881966,24.3400936 19.3321506,27.3285665 C18.8689322,28.1169901 18.4959667,28.2179261 17.6874264,27.7685172 C17.6333345,27.7385172 17.5823805,27.6993547 17.5247023,27.6788128 C16.6371161,27.36167 16.444208,26.7427537 16.5262425,25.8467438 C16.9374609,21.3615222 17.2969782,16.8717192 17.661277,12.3825074 C17.7038632,11.8578768 17.8939322,11.4615222 18.3055989,11.1160049 C19.4343575,10.1684187 20.534277,9.18684236 21.6486908,8.22226108 C22.0091046,7.91014286 22.3847598,7.85620197 22.7451736,8.04713793 C23.0728632,8.22063547 23.2748862,8.57117734 23.169392,8.9465468 C23.1042425,9.17841872 22.9431621,9.41472414 22.7605644,9.57861576 C21.7473115,10.4889606 20.7095529,11.3722611 19.6939092,12.2799458 C19.5640586,12.3959557 19.4518402,12.5945764 19.4368977,12.763936 C19.1048747,16.5400936 18.7877943,20.3175813 18.4680241,24.0949212 C18.4315644,24.523936 18.395254,24.9529507 18.3587943,25.3819655 C18.3759782,25.3946749 18.3931621,25.4072365 18.4101966,25.419798" id="Fill-4" fill="#000000"></path>
                <g id="Group-8" transform="translate(0.000000, 24.349212)">
                    <mask id="mask-4" fill="white">
                        <use xlink:href="#path-3"></use>
                    </mask>
                    <g id="Clip-7"></g>
                    <path d="M10.0620598,1.72641872 C9.86646207,1.91838916 9.68984138,2.03203448 9.59764598,2.19326601 C9.29207126,2.72765025 9.01653103,3.27917734 8.73023218,3.82434975 C8.45274943,4.35267488 8.13163448,4.84375862 7.62269195,5.19075369 C6.63170345,5.8665665 5.57123218,5.74464532 4.87774943,4.76587685 C4.48177241,4.20725616 4.03155402,4.0172069 3.37497931,4.05193596 C2.58108276,4.09405419 1.78285287,4.06952217 0.986565517,4.05902956 C0.421588506,4.05164039 0.0725310345,3.78267488 0.0115655172,3.34109852 C-0.0649402299,2.78705911 0.24168046,2.33617241 0.815324138,2.32006404 C1.93332414,2.28873399 3.05565747,2.28178818 4.17126667,2.34740394 C5.02523218,2.39765025 5.66447356,2.9072069 6.18178391,3.5601133 C6.2431977,3.63769951 6.29833563,3.719867 6.35870345,3.79804433 C6.37304828,3.81651724 6.39755402,3.82715764 6.47405977,3.88228079 C6.61407126,3.73198522 6.79607126,3.59558128 6.89902529,3.41528571 C7.25346207,2.79474384 7.54245057,2.13489163 7.93050805,1.53725616 C8.19977241,1.12287192 8.53762299,0.7118867 8.93823218,0.42917734 C10.0241057,-0.336931034 11.4884736,0.204251232 11.8760828,1.46336453 C12.1330943,2.29878325 12.1330943,2.29863547 13.0103701,2.29878325 C13.4707494,2.29893103 13.931577,2.28784729 14.391508,2.30395567 C14.7759793,2.31740394 15.0911172,2.47582759 15.253692,2.84351232 C15.3974391,3.1683399 15.3564966,3.50853695 15.1027724,3.73124631 C14.9079218,3.90252709 14.6117609,4.02962069 14.3519103,4.04661576 C13.6953356,4.08962069 13.0332322,4.08016256 12.3748644,4.05400493 C11.280623,4.01040887 10.6464621,3.50646798 10.3077149,2.45957143 C10.2403241,2.25164039 10.1688989,2.04489163 10.0620598,1.72641872" id="Fill-6" fill="#000000" mask="url(#mask-4)"></path>
                </g>
            </g>
        </g>
    </g>
</svg>