<?xml version="1.0" encoding="UTF-8"?>
<svg width="12px" height="14px" viewBox="0 0 12 14" version="1.1" xmlns="http://www.w3.org/2000/svg" xmlns:xlink="http://www.w3.org/1999/xlink">
    <!-- Generator: Sketch 53.1 (72631) - https://sketchapp.com -->
    <title>Line</title>
    <desc>Created with Sketch.</desc>
    <g id="mock-up" stroke="none" stroke-width="1" fill="none" fill-rule="evenodd">
        <g id="MO_Web_Desktop_Offer_Details-Copy-16" transform="translate(-290.000000, -544.000000)" fill="#000000" fill-rule="nonzero">
            <g id="Group-8" transform="translate(290.000000, 541.000000)">
                <path d="M1.89050398,10.8571211 L6.29415674,14.395681 C6.58297147,14.6277584 6.68540361,15.1503581 6.52294532,15.5629401 C6.36048704,15.9755221 5.99465798,16.12185 5.70584326,15.8897727 L-0.694156744,10.7470458 C-1.10194775,10.4193649 -1.10194775,9.58063508 -0.694156744,9.25295418 L5.70584326,4.11022733 C5.99465798,3.87814995 6.36048704,4.02447787 6.52294532,4.43705988 C6.68540361,4.84964189 6.58297147,5.37224159 6.29415674,5.60431897 L1.89050398,9.14287886 L6,9.14287886 L12.4,9.14287886 C12.7313708,9.14287886 13,9.52662507 13,10 C13,10.4733749 12.7313708,10.8571211 12.4,10.8571211 L6,10.8571211 L1.89050398,10.8571211 L1.89050398,10.8571211 Z" id="Line" transform="translate(6.000000, 10.000000) rotate(90.000000) translate(-6.000000, -10.000000) "></path>
            </g>
        </g>
    </g>
</svg>