<?xml version="1.0" encoding="UTF-8"?>
<svg width="15px" height="15px" viewBox="0 0 15 15" version="1.1" xmlns="http://www.w3.org/2000/svg" xmlns:xlink="http://www.w3.org/1999/xlink">
    <!-- Generator: Sketch 53.2 (72643) - https://sketchapp.com -->
    <title>icon_open_new</title>
    <desc>Created with Sketch.</desc>
    <g id="mock-up" stroke="none" stroke-width="1" fill="none" fill-rule="evenodd">
        <g id="dashboard_delivery-status" transform="translate(-702.000000, -376.000000)" fill="#FFFFFF" fill-rule="nonzero">
            <g id="Group-11" transform="translate(498.061254, 271.000000)">
                <g id="icon_open_new" transform="translate(203.938746, 105.000000)">
                    <path d="M2.74193548,0 L2.74193548,12.2580645 L15,12.2580645 L15,0 L2.74193548,0 Z M13.82134,11.0794045 L3.92059553,11.0794045 L3.92059553,1.17866005 L13.82134,1.17866005 L13.82134,11.0794045 Z" id="Shape"></path>
                    <polygon id="Path" points="1.17866005 13.82134 1.17866005 8.63523573 1.17866005 3.92059553 1.17866005 2.74193548 0 2.74193548 0 15 12.2580645 15 12.2580645 13.82134 11.0794045 13.82134"></polygon>
                    <polygon id="Path" points="6.80092854 9.19354839 10.2731728 5.72129331 10.2731728 8.2194845 11.4516129 8.2194845 11.4516129 3.70967742 6.94181105 3.70967742 6.94181105 4.88811118 9.43998621 4.88811118 5.96774194 8.3603368"></polygon>
                </g>
            </g>
        </g>
    </g>
</svg>