<?xml version="1.0" encoding="UTF-8"?>
<svg width="20px" height="20px" viewBox="0 0 20 20" version="1.1" xmlns="http://www.w3.org/2000/svg" xmlns:xlink="http://www.w3.org/1999/xlink">
    <!-- Generator: Sketch 53.2 (72643) - https://sketchapp.com -->
    <title>icon/QR</title>
    <desc>Created with Sketch.</desc>
    <g id="MO-Web-Checkout" stroke="none" stroke-width="1" fill="none" fill-rule="evenodd">
        <g id="1-MO_Web_Desktop_cart_1.1" transform="translate(-1183.000000, -357.000000)" fill="#000000" fill-rule="nonzero">
            <g id="icon/QR" transform="translate(1183.000000, 357.000000)">
                <path d="M0,3.75 L0,0.78125 C0,0.349731445 0.349731445,0 0.78125,0 L3.75,0 C4.18151855,0 4.53125,0.349731445 4.53125,0.78125 C4.53125,1.21276855 4.18151855,1.5625 3.75,1.5625 L1.5625,1.5625 L1.5625,3.75 C1.5625,4.18151855 1.21276855,4.53125 0.78125,4.53125 C0.349731445,4.53125 0,4.18151855 0,3.75 Z M19.21875,0 L16.25,0 C15.8184814,0 15.46875,0.349731445 15.46875,0.78125 C15.46875,1.21276855 15.8184814,1.5625 16.25,1.5625 L18.4375,1.5625 L18.4375,3.75 C18.4375,4.18151855 18.7872314,4.53125 19.21875,4.53125 C19.6502686,4.53125 20,4.18151855 20,3.75 L20,0.78125 C20,0.349731445 19.6502686,0 19.21875,0 Z M3.75,18.4375 L1.5625,18.4375 L1.5625,16.25 C1.5625,15.8184814 1.21276855,15.46875 0.78125,15.46875 C0.349731445,15.46875 0,15.8184814 0,16.25 L0,19.21875 C0,19.6502686 0.349731445,20 0.78125,20 L3.75,20 C4.18151855,20 4.53125,19.6502686 4.53125,19.21875 C4.53125,18.7872314 4.18151855,18.4375 3.75,18.4375 Z M19.21875,15.46875 C18.7872314,15.46875 18.4375,15.8184814 18.4375,16.25 L18.4375,18.4375 L16.25,18.4375 C15.8184814,18.4375 15.46875,18.7872314 15.46875,19.21875 C15.46875,19.6502686 15.8184814,20 16.25,20 L19.21875,20 C19.6502686,20 20,19.6502686 20,19.21875 L20,16.25 C20,15.8184814 19.6502686,15.46875 19.21875,15.46875 Z M9.31640625,3.84765625 L9.31640625,8.53515625 C9.31640625,8.9666748 8.9666748,9.31640625 8.53515625,9.31640625 L3.84765625,9.31640625 C3.4161377,9.31640625 3.06640625,8.9666748 3.06640625,8.53515625 L3.06640625,3.84765625 C3.06640625,3.4161377 3.4161377,3.06640625 3.84765625,3.06640625 L8.53515625,3.06640625 C8.9666748,3.06640625 9.31640625,3.4161377 9.31640625,3.84765625 Z M7.75390625,4.62890625 L4.62890625,4.62890625 L4.62890625,7.75390625 L7.75390625,7.75390625 L7.75390625,4.62890625 Z M16.5429688,9.31640625 L11.8554688,9.31640625 C11.4239502,9.31640625 11.0742188,8.9666748 11.0742188,8.53515625 L11.0742188,3.84765625 C11.0742188,3.4161377 11.4239502,3.06640625 11.8554688,3.06640625 L16.5429688,3.06640625 C16.9744873,3.06640625 17.3242188,3.4161377 17.3242188,3.84765625 L17.3242188,8.53515625 C17.3242188,8.9666748 16.9744873,9.31640625 16.5429688,9.31640625 Z M15.7617188,4.62890625 L12.6367188,4.62890625 L12.6367188,7.75390625 L15.7617188,7.75390625 L15.7617188,4.62890625 Z M9.31640625,11.8554688 L9.31640625,16.5429688 C9.31640625,16.9744873 8.9666748,17.3242188 8.53515625,17.3242188 L3.84765625,17.3242188 C3.4161377,17.3242188 3.06640625,16.9744873 3.06640625,16.5429688 L3.06640625,11.8554688 C3.06640625,11.4239502 3.4161377,11.0742188 3.84765625,11.0742188 L8.53515625,11.0742188 C8.9666748,11.0742188 9.31640625,11.4239502 9.31640625,11.8554688 Z M7.75390625,12.6367188 L4.62890625,12.6367188 L4.62890625,15.7617188 L7.75390625,15.7617188 L7.75390625,12.6367188 Z M15.5371094,16.3183594 L12.8613281,16.3183594 C12.4298096,16.3183594 12.0800781,15.9686279 12.0800781,15.5371094 L12.0800781,12.8613281 C12.0800781,12.4298096 12.4298096,12.0800781 12.8613281,12.0800781 L15.5371094,12.0800781 C15.9686279,12.0800781 16.3183594,12.4298096 16.3183594,12.8613281 L16.3183594,15.5371094 C16.3183594,15.9686279 15.9686279,16.3183594 15.5371094,16.3183594 Z M14.7558594,13.6425781 L13.6425781,13.6425781 L13.6425781,14.7558594 L14.7558594,14.7558594 L14.7558594,13.6425781 Z" id="Shape"></path>
            </g>
        </g>
    </g>
</svg>