<?xml version="1.0" encoding="UTF-8"?>
<svg width="72px" height="72px" viewBox="0 0 72 72" version="1.1" xmlns="http://www.w3.org/2000/svg" xmlns:xlink="http://www.w3.org/1999/xlink">
    <!-- Generator: Sketch 53.1 (72631) - https://sketchapp.com -->
    <title>Group 17</title>
    <desc>Created with Sketch.</desc>
    <defs>
        <polygon id="path-1" points="0.0644294415 0.0223091767 7.72300042 0.0223091767 7.72300042 7.01457774 0.0644294415 7.01457774"></polygon>
    </defs>
    <g id="MO-Web-UX-Flow-Final" stroke="none" stroke-width="1" fill="none" fill-rule="evenodd">
        <g id="MO_Web_Desktop_Offer_01-Copy-5a" transform="translate(-1222.000000, -1181.000000)">
            <g id="Group-20-Copy" transform="translate(520.000000, 1154.000000)">
                <g id="Group-17" transform="translate(702.000000, 27.000000)">
                    <circle id="Oval" fill="#FFFFFF" cx="36" cy="36" r="36"></circle>
                    <g id="Group-10" transform="translate(14.025974, 7.480519)">
                        <ellipse id="Oval-2" fill="#FFED00" cx="25.2467532" cy="17.2532979" rx="16.8311688" ry="17.2532979"></ellipse>
                        <g id="Group-6" transform="translate(0.000000, 11.191328)">
                            <g id="Page-1" transform="translate(0.000000, 10.559346)" stroke="#222829" stroke-linejoin="round" stroke-width="0.935064935">
                                <g id="Group-9" transform="translate(0.000000, 2.038977)">
                                    <polyline id="Stroke-1" points="21.974026 25.6057616 4.96187683 19.2043212 4.96187683 14.9366943"></polyline>
                                    <polyline id="Stroke-3" points="38.9861751 14.9366943 38.9861751 19.2043212 21.974026 25.6057616 21.974026 7.11271155"></polyline>
                                    <polyline id="Stroke-5" points="21.974026 7.11271155 16.3033096 16.3592366 0 9.95779617 4.96187683 0"></polyline>
                                    <polyline id="Stroke-7" points="21.974026 7.11271155 27.6447424 16.3592366 43.9480519 9.95779617 38.9861751 0"></polyline>
                                </g>
                                <polyline id="Stroke-10" points="33.4822636 0.49791283 38.9861751 2.03897731 21.974026 9.15168886 4.96187683 2.03897731 9.71458642 0.743237229"></polyline>
                            </g>
                            <g id="Page-1" transform="translate(11.341433, 1.056550)">
                                <polygon id="Fill-1" fill="#000000" points="11.6815403 0.675496095 6.43252183 6.0571018 1.17622201 0.673750652 -0.167406787 0.674824771 -0.164408571 11.4716024 2.48944033 11.4707968 2.48772706 5.50178218 6.43352123 9.66573951 10.377031 5.49990247 10.3787443 11.4689171 13.0325932 11.4682458 13.0294522 0.671602413"></polygon>
                                <g id="Group-7" transform="translate(14.232593, -0.528398)">
                                    <g id="Group-4">
                                        <mask id="mask-2" fill="white">
                                            <use xlink:href="#path-1"></use>
                                        </mask>
                                        <g id="Clip-3"></g>
                                        <path d="M2.62229401,4.74960903 C2.96413974,5.07676137 3.38830438,5.24701561 3.89432804,5.24686884 C4.4003517,5.24672207 4.82420974,5.07646782 5.16605548,4.74902195 C5.50774791,4.40836669 5.68541572,4.00239839 5.68526242,3.51790765 C5.68510913,3.03356368 5.50728803,2.62759537 5.16528901,2.30029627 C4.82328998,1.95993455 4.39943193,1.78982708 3.89325498,1.78997385 C3.38723132,1.79012062 2.96337327,1.96052164 2.62152754,2.30088335 C2.2798351,2.62832923 2.102014,3.03429754 2.1021673,3.51893504 C2.10232059,4.00342578 2.28029498,4.42230993 2.62229401,4.74960903 M6.60088779,1.04290998 C7.35325498,1.7105708 7.72269364,2.53542325 7.72300023,3.51746733 C7.72330682,4.49951142 7.35432804,5.32451064 6.60226743,6.00567439 C5.85036012,6.67362875 4.94776475,7.014284 3.89478792,7.01457755 C2.82801462,7.01487109 1.92526596,6.67465614 1.17289877,6.00699532 C0.434328032,5.32627189 0.0645827833,4.50141944 0.0644294893,3.51937536 C0.0642761952,2.53733127 0.433254974,1.71233205 1.17151912,1.04423092 C1.92342643,0.363213944 2.8260218,0.0225586872 3.8927951,0.0222651454 C4.94577193,0.0219716036 5.84867388,0.362186548 6.60088779,1.04290998" id="Fill-2" fill="#000000" mask="url(#mask-2)"></path>
                                    </g>
                                    <path d="M4.99042648,8.23763412 C4.97371743,8.53000176 4.86702477,8.7789252 4.67464074,8.98998175 C4.46462789,9.21175258 4.2041813,9.32711451 3.89330097,9.32711451 C3.58211405,9.32726128 3.32166745,9.21204612 3.11150131,8.99042207 C2.91881069,8.78729114 2.81211803,8.53146946 2.79540898,8.23763412 L1.54330318,8.23763412 C1.56123858,8.86698774 1.78566107,9.3997661 2.22101617,9.84184005 C2.68319774,10.2938944 3.2379689,10.524178 3.89360755,10.5240312 C4.54050845,10.5237376 5.09527961,10.2931606 5.55730788,9.84095943 C6.00032769,9.39873871 6.22643641,8.86684097 6.24437181,8.23763412 L4.99042648,8.23763412 Z" id="Fill-5" fill="#000000"></path>
                                </g>
                            </g>
                        </g>
                    </g>
                </g>
            </g>
        </g>
    </g>
</svg>