<?xml version="1.0" encoding="UTF-8"?>
<svg width="36px" height="30px" viewBox="0 0 36 30" version="1.1" xmlns="http://www.w3.org/2000/svg" xmlns:xlink="http://www.w3.org/1999/xlink">
    <!-- Generator: Sketch 53.2 (72643) - https://sketchapp.com -->
    <title>Group 8</title>
    <desc>Created with Sketch.</desc>
    <defs>
        <polygon id="path-1" points="0 0.0509974796 35.9695413 0.0509974796 35.9695413 29.8245614 0 29.8245614"></polygon>
    </defs>
    <g id="mock-up" stroke="none" stroke-width="1" fill="none" fill-rule="evenodd">
        <g id="payment-copy-3" transform="translate(-153.000000, -1387.000000)">
            <g id="Group-8" transform="translate(153.000000, 1387.000000)">
                <g id="Group-3" transform="translate(0.000000, 0.124561)">
                    <mask id="mask-2" fill="white">
                        <use xlink:href="#path-1"></use>
                    </mask>
                    <g id="Clip-2"></g>
                    <path d="M1.8966087,14.0437368 L27.6684348,14.0437368 C27.9613043,11.6468947 26.5493043,10.0132105 24.2115652,10.0126842 C17.9374783,10.0112807 11.6633913,10.0097018 5.38930435,10.0186491 C5.00408696,10.0191754 4.60373913,10.0584737 4.23608696,10.1675965 C2.50652174,10.6807544 1.64634783,12.1130351 1.8966087,14.0437368 L1.8966087,14.0437368 Z M29.5216522,24.5072456 C29.5623478,24.5235614 29.6030435,24.5400526 29.644087,24.5565439 C29.812087,24.2086491 30.012087,23.8725088 30.1428696,23.5111053 C31.3948696,20.0542632 32.6378261,16.5939123 33.8743478,13.1314561 C33.9910435,12.8047895 34.1013043,12.4597018 34.122,12.1174211 C34.2218261,10.4779474 33.4094783,9.26759649 31.8402609,8.69057895 C25.8826957,6.49952632 19.9244348,4.31022807 13.963913,2.12724561 C12.1253043,1.45391228 10.419913,2.15514035 9.66356522,3.97145614 C9.10426087,5.31514035 8.66930435,6.71145614 8.18147826,8.08514035 C8.17504348,8.10321053 8.20043478,8.13285965 8.22217391,8.18250877 L8.73017391,8.18250877 C13.9025217,8.18250877 19.0750435,8.16461404 24.2473913,8.20233333 C25.01,8.20777193 25.8350435,8.33584211 26.5207826,8.6512807 C28.4726087,9.54882456 29.4997391,11.1465439 29.5162609,13.3321579 C29.5376522,16.109 29.5216522,18.886193 29.5216522,21.6630351 L29.5216522,24.5072456 Z M27.7077391,17.7567193 L1.87452174,17.7567193 C1.86669565,17.8560175 1.85643478,17.9272456 1.85643478,17.9982982 C1.85608696,20.2351404 1.85452174,22.4719825 1.86008696,24.7086491 C1.8606087,24.9400526 1.88217391,25.1765439 1.93295652,25.4016316 C2.22426087,26.694614 3.35678261,27.974614 5.4086087,27.9665439 C11.6546957,27.9421579 17.9009565,27.9593509 24.1472174,27.9535614 C24.5066957,27.9532105 24.8769565,27.9375965 25.2233913,27.8519825 C26.7357391,27.4781228 27.686,26.2391754 27.704087,24.6205789 C27.720087,23.1735614 27.7077391,21.7260175 27.7077391,20.2786491 C27.707913,19.4475965 27.7077391,18.6165439 27.7077391,17.7567193 L27.7077391,17.7567193 Z M14.7809565,29.8223333 C11.6369565,29.8223333 8.49313043,29.8295263 5.34930435,29.8181228 C4.35591304,29.8144386 3.3873913,29.6491754 2.5206087,29.1151404 C0.816086957,28.0649649 0.0150434783,26.5002281 0.00965217391,24.5119825 C-8.69565217e-05,20.829 -0.00686956522,17.1458421 0.0117391304,13.4628596 C0.0239130435,11.0577719 1.25921739,9.19426316 3.39417391,8.47987719 C4.12913043,8.23391228 4.95347826,8.23724561 5.74078261,8.18426316 C6.08530435,8.16110526 6.26982609,8.10057895 6.39226087,7.73531579 C6.86495652,6.32619298 7.37052174,4.92794737 7.88217391,3.53233333 C8.93069565,0.673385965 11.7338261,-0.635210526 14.5733043,0.40654386 C20.5051304,2.58285965 26.4333043,4.76952632 32.3670435,6.94057895 C34.2971304,7.6467193 35.5089565,8.96601754 35.8929565,11.0167193 C36.0498261,11.8532105 35.9602609,12.6781228 35.6741739,13.4765439 C34.3891304,17.0609298 33.1035652,20.6453158 31.8084348,24.2260175 C31.3141739,25.5925088 30.426,26.6051404 29.0962609,27.2098772 C28.9353913,27.2832105 28.7783478,27.4154912 28.6755652,27.5607544 C27.5905217,29.0926842 26.1018261,29.8168947 24.256087,29.8205789 C21.0976522,29.8267193 17.9392174,29.8223333 14.7809565,29.8223333 L14.7809565,29.8223333 Z" id="Fill-1" fill="#000000" mask="url(#mask-2)"></path>
                </g>
                <path d="M16.0253391,25.1572807 C15.3011652,25.1572807 14.5769913,25.1628947 13.8529913,25.1555263 C13.2439478,25.149386 12.8482957,24.7823684 12.8507304,24.2444737 C12.8529913,23.7318421 13.245513,23.3546491 13.8267304,23.3507895 C15.3041217,23.3411404 16.781513,23.3413158 18.2585565,23.3507895 C18.8413391,23.3544737 19.2309043,23.7246491 19.2399478,24.240614 C19.249513,24.7723684 18.8467304,25.1492105 18.2411652,25.1555263 C17.5025565,25.1630702 16.7639478,25.1572807 16.0253391,25.1572807" id="Fill-4" fill="#000000"></path>
                <path d="M7.40102609,25.1565965 C6.82172174,25.1565965 6.24206957,25.1655439 5.66293913,25.1539649 C5.09963478,25.1427368 4.73893913,24.7937895 4.72711304,24.2748421 C4.71493913,23.7367719 5.07650435,23.3592281 5.66276522,23.3522105 C6.82137391,23.3387018 7.98033043,23.3388772 9.13893913,23.352386 C9.72311304,23.3592281 10.0900696,23.7415088 10.0756348,24.2753684 C10.0615478,24.7983509 9.70485217,25.1432632 9.13928696,25.1541404 C8.55998261,25.165193 7.98050435,25.1565965 7.40102609,25.1565965" id="Fill-6" fill="#000000"></path>
            </g>
        </g>
    </g>
</svg>