<?xml version="1.0" encoding="UTF-8"?>
<svg width="50px" height="37px" viewBox="0 0 50 37" version="1.1" xmlns="http://www.w3.org/2000/svg" xmlns:xlink="http://www.w3.org/1999/xlink">
    <!-- Generator: Sketch 53.2 (72643) - https://sketchapp.com -->
    <title>icon_email</title>
    <desc>Created with Sketch.</desc>
    <g id="MO-Web-Login-Sign-up" stroke="none" stroke-width="1" fill="none" fill-rule="evenodd">
        <g id="MO_Web_Desktop_signup_email" transform="translate(-451.000000, -279.000000)" fill="#000000" fill-rule="nonzero">
            <g id="icon_email" transform="translate(451.000000, 279.000000)">
                <path d="M44.7916667,37 L5.20833333,37 C2.3375,37 0,34.6936667 0,31.8611111 L0,5.13888889 C0,2.30633333 2.3375,0 5.20833333,0 L44.7916667,0 C47.6625,0 50,2.30633333 50,5.13888889 L50,31.8611111 C50,34.6936667 47.6625,37 44.7916667,37 Z M5.20833333,2.05555556 C3.48541667,2.05555556 2.08333333,3.43894444 2.08333333,5.13888889 L2.08333333,31.8611111 C2.08333333,33.5610556 3.48541667,34.9444444 5.20833333,34.9444444 L44.7916667,34.9444444 C46.5145833,34.9444444 47.9166667,33.5610556 47.9166667,31.8611111 L47.9166667,5.13888889 C47.9166667,3.43894444 46.5145833,2.05555556 44.7916667,2.05555556 L5.20833333,2.05555556 Z" id="Shape"></path>
                <path d="M25.0103832,24.9438202 C22.9046799,24.9438202 20.9360342,24.0623723 19.4657798,22.4674702 L6.57405788,8.38919212 C6.18780461,7.96609714 6.21687744,7.30864073 6.64051006,6.92287766 C7.06206604,6.53711459 7.7203579,6.56615052 8.10868779,6.9892455 L20.9983331,21.0654496 C23.1372625,23.388324 26.8835038,23.390398 29.0265865,21.0633756 L41.8913122,7.00791145 C42.2817187,6.58274248 42.9337807,6.55578054 43.3594899,6.94154361 C43.7831226,7.33145467 43.8121954,7.9826891 43.4259421,8.40785808 L30.5591398,22.4653962 C29.0847321,24.0623723 27.1160864,24.9438202 25.0103832,24.9438202 Z" id="Shape"></path>
                <path d="M7.34292097,31.5955056 C7.06187718,31.5955056 6.77875158,31.4808579 6.57473461,31.2557314 C6.18751872,30.8304926 6.216664,30.1697048 6.6413524,29.781987 L18.0038488,19.3969872 C18.430619,19.0071849 19.0884697,19.0384525 19.4756856,19.4636913 C19.8629015,19.8889302 19.8337562,20.5476335 19.4090678,20.9353513 L8.04657136,31.3224356 C7.84463619,31.5037874 7.59273768,31.5955056 7.34292097,31.5955056 Z" id="Shape"></path>
                <path d="M42.6565436,31.5955056 C42.4067962,31.5955056 42.1549676,31.5058863 41.9551696,31.3224792 L30.5916622,20.9349702 C30.1670916,20.5473144 30.1358732,19.8887163 30.5250629,19.4635454 C30.9163339,19.0362903 31.574002,19.0091961 31.9944102,19.3968519 L43.3579176,29.7801926 C43.7824882,30.1720167 43.8137067,30.8264465 43.4245169,31.2516174 C43.2205565,31.4808762 42.9375095,31.5955056 42.6565436,31.5955056 Z" id="Shape"></path>
            </g>
        </g>
    </g>
</svg>