<?xml version="1.0" encoding="utf-8"?>
<!-- Generator: Adobe Illustrator 23.0.1, SVG Export Plug-In . SVG Version: 6.00 Build 0)  -->
<svg version="1.1" id="Layer_1" xmlns="http://www.w3.org/2000/svg" xmlns:xlink="http://www.w3.org/1999/xlink" x="0px" y="0px"
	 viewBox="0 0 60 60" style="enable-background:new 0 0 60 60;" xml:space="preserve">
<style type="text/css">
	.st0{fill-rule:evenodd;clip-rule:evenodd;fill:#FFED00;}
	.st1{fill-rule:evenodd;clip-rule:evenodd;}
	.st2{fill-rule:evenodd;clip-rule:evenodd;fill:#FFFFFF;filter:url(#Adobe_OpacityMaskFilter);}
	.st3{mask:url(#a_1_);fill-rule:evenodd;clip-rule:evenodd;}
	.st4{fill:none;stroke:#000000;stroke-width:2;stroke-linecap:round;}
</style>
<g>
	<g transform="translate(12 5)">
		<ellipse class="st0" cx="23.3" cy="17.6" rx="16.7" ry="17.6"/>
		<g transform="translate(9.302326 11.414634)">
			<path class="st1" d="M12.7,0.2L7.1,6.4L1.4,0.2L0,0.2l0,12.5l2.8,0l0-6.9l4.2,4.8l4.2-4.8l0,6.9l2.8,0l0-12.5L12.7,0.2z"/>
			<g transform="translate(14.972907 .131591)">
				<defs>
					<filter id="Adobe_OpacityMaskFilter" filterUnits="userSpaceOnUse" x="0.1" y="0" width="7.6" height="7.4">
						<feColorMatrix  type="matrix" values="1 0 0 0 0  0 1 0 0 0  0 0 1 0 0  0 0 0 1 0"/>
					</filter>
				</defs>
				<mask maskUnits="userSpaceOnUse" x="0.1" y="0" width="7.6" height="7.4" id="a_1_">
					<path class="st2" d="M-36.2-16.5h7.6v7.4h-7.6V-16.5z"/>
				</mask>
				<path class="st3" d="M2.6,5C3,5.4,3.4,5.5,3.9,5.5S4.8,5.4,5.1,5c0.3-0.4,0.5-0.8,0.5-1.3c0-0.5-0.2-0.9-0.5-1.3
					C4.8,2.1,4.4,1.9,3.9,1.9C3.4,1.9,3,2.1,2.6,2.4C2.3,2.8,2.1,3.2,2.1,3.7C2.1,4.2,2.3,4.7,2.6,5 M6.6,1.1
					c0.7,0.7,1.1,1.6,1.1,2.6S7.3,5.6,6.6,6.3C5.8,7.1,4.9,7.4,3.9,7.4c-1.1,0-2-0.4-2.7-1.1C0.4,5.6,0.1,4.8,0.1,3.7
					c0-1,0.4-1.9,1.1-2.6C1.9,0.4,2.8,0,3.9,0C4.9,0,5.8,0.4,6.6,1.1"/>
				<path class="st1" d="M5,8.7C5,9,4.9,9.3,4.7,9.5C4.4,9.7,4.2,9.9,3.9,9.9c-0.3,0-0.6-0.1-0.8-0.4C2.9,9.3,2.8,9,2.8,8.7H1.5
					c0,0.7,0.2,1.2,0.7,1.7c0.5,0.5,1,0.7,1.7,0.7c0.6,0,1.2-0.2,1.7-0.7c0.4-0.5,0.7-1,0.7-1.7H5z"/>
			</g>
		</g>
		<path class="st4" d="M35.3,19v17.1c0,1.6-1.3,2.9-3,2.9H20.9H3c-1.6,0-3-1.3-3-2.9v-3.6c1.1-0.2,2.1-0.9,2.1-2.3V24
			c0-0.9-1-1.7-2.1-2V19c0-1.6,1.3-2.9,3-2.9h2.5"/>
	</g>
</g>
</svg>
