<?xml version="1.0" encoding="UTF-8"?>
<svg width="33px" height="40px" viewBox="0 0 33 40" version="1.1" xmlns="http://www.w3.org/2000/svg" xmlns:xlink="http://www.w3.org/1999/xlink">
    <!-- Generator: Sketch 53.1 (72631) - https://sketchapp.com -->
    <title>Group 15</title>
    <desc>Created with Sketch.</desc>
    <g id="mock-up" stroke="none" stroke-width="1" fill="none" fill-rule="evenodd">
        <g id="MO_Web_Desktop_Offer_Details-Copy-16" transform="translate(-839.000000, -836.000000)">
            <g id="Group-15" transform="translate(839.000000, 836.000000)">
                <circle id="Oval-Copy" fill="#FFFF30" cx="11" cy="11" r="11"></circle>
                <g id="Group-10" transform="translate(2.312500, 5.000000)" fill="#000000">
                    <g id="Group-9" transform="translate(0.687500, 0.000000)">
                        <path d="M13.3960675,30.270394 C13.3960675,31.2221995 13.3958206,32.1419217 13.3963144,33.0617655 C13.3964378,33.2909669 13.5358206,33.3431023 13.7411292,33.3424947 C15.0871786,33.3384842 16.4334749,33.3373905 17.7795243,33.3431023 C18.0306354,33.3440745 18.1306354,33.2428419 18.1279193,32.9989356 C18.1210057,32.3718523 18.1258206,31.744769 18.1258206,31.1175641 L18.1258206,30.270394 L13.3960675,30.270394 Z M8.30866006,4.63933493 L23.2128576,4.63933493 C23.3255736,3.61303285 23.4366847,2.59973424 23.5494008,1.57331063 L7.97100574,1.57331063 C8.0848329,2.60751202 8.19631438,3.61995993 8.30866006,4.63933493 L8.30866006,4.63933493 Z M8.49866006,6.22673077 C8.50631438,6.37730368 8.50619092,6.49761618 8.51952425,6.61634882 C8.65545018,7.83284188 8.79705512,9.04872729 8.93038845,10.2654634 C9.20804277,12.8000467 9.47964771,15.3353592 9.75742549,17.8700641 C10.0806354,20.8175988 10.4142156,23.7641613 10.7292773,26.7126683 C10.8458206,27.8027724 11.7023638,28.6816613 12.8176724,28.6809322 C14.8438452,28.6795953 16.8700181,28.677894 18.8960675,28.6622169 C19.4037218,28.6582065 19.8182897,28.4051856 20.1712526,28.0615051 C20.8691539,27.3820433 20.7906354,26.4833453 20.9027341,25.6038488 L20.5349564,25.6038488 C18.930265,25.6038488 17.3256971,25.6039703 15.7210057,25.6038488 C14.9700181,25.6038488 14.2191539,25.6071301 13.4682897,25.6023905 C13.030265,25.5994738 12.7277959,25.3804808 12.6369317,25.0171127 C12.501623,24.4775294 12.8813761,24.0428245 13.4991539,24.0422169 C15.9061909,24.0400294 18.313228,24.0413662 20.7201415,24.0413662 L21.0807588,24.0413662 C21.7364378,18.0760537 22.3866847,12.1594738 23.0386601,6.22673077 L8.49866006,6.22673077 Z M15.7850798,0.000619654452 C18.5726107,0.000619654452 21.360265,0.000376598896 24.1479193,0.000862710007 C24.9739687,0.000984237785 25.2605119,0.289855766 25.1758206,1.09011618 C24.9449564,3.27397035 24.6995243,5.45648771 24.4600181,7.63949118 C24.2448329,9.60143563 24.0306354,11.5632585 23.8150798,13.5250815 C23.5785366,15.677946 23.3405119,17.8306891 23.1038452,19.9835537 C22.8881662,21.9452551 22.677302,23.9075641 22.4556971,25.8685363 C22.3908823,26.4406891 22.3490304,27.0226856 22.2049564,27.5772169 C21.8953267,28.7687967 21.0947094,29.5605502 19.9465613,30.0114183 C19.7514996,30.0879808 19.6827341,30.1717134 19.685944,30.3796474 C19.6990304,31.2401856 19.6614996,32.1021822 19.6986601,32.9613835 C19.7492773,34.1289009 18.8339687,34.9281891 17.7065613,34.9074078 C16.4007588,34.8833453 15.0935983,34.8843176 13.7876724,34.9069217 C12.6095243,34.9274599 11.7761909,34.0607238 11.8221168,32.9690398 C11.8586601,32.0997516 11.827302,31.2276683 11.8313761,30.3569217 C11.8321168,30.2042828 11.8153267,30.1053592 11.6371786,30.0368176 C10.0634749,29.4325815 9.29273413,28.2569217 9.12495635,26.6324599 C8.87779586,24.2365398 8.60433907,21.8431717 8.34347487,19.4487099 C8.10779586,17.285394 7.87532672,15.1219565 7.63878351,12.9588835 C7.38137611,10.6046474 7.1194008,8.25089743 6.86199339,5.89666132 C6.68051191,4.23659188 6.49952425,2.5764009 6.32606746,0.915480766 C6.26545018,0.334213404 6.5976724,0.00341479334 7.23693166,0.00232104334 C9.28384524,-0.00168937333 11.3308823,0.00074118223 13.3780428,0.000619654452 L15.7850798,0.000619654452 Z" id="Fill-4"></path>
                        <path d="M3.19086993,28.7077412 C2.31148722,28.6931578 1.60445018,29.3566995 1.58827734,30.2118905 C1.57161067,31.0850676 2.26136376,31.787012 3.14568475,31.7968558 C3.99605512,31.8062134 4.72222796,31.0988002 4.72691932,30.2561266 C4.73148722,29.422203 4.03679586,28.7218384 3.19086993,28.7077412 M3.13988228,33.3407447 C1.40309216,33.3346683 0.00358598264,31.9577585 5.73572977e-06,30.2517516 C-0.0033275976,28.5553453 1.4466724,27.1328627 3.16778351,27.1444078 C4.89901808,27.1558315 6.29531438,28.5413697 6.29482055,30.2474981 C6.29432672,31.9851023 4.90556129,33.346821 3.13988228,33.3407447" id="Fill-6"></path>
                        <path d="M27.5821539,26.3650016 C28.0106724,26.362328 28.3685736,26.0078315 28.3633885,25.5914773 C28.3579564,25.1733002 27.9948699,24.8235433 27.5696847,24.8274322 C27.1470922,24.8311995 26.7852403,25.1916509 26.788944,25.6052099 C26.7927712,26.0266683 27.148944,26.3676752 27.5821539,26.3650016 M25.2201786,25.5675363 C25.2352403,24.2831092 26.2970922,23.2620328 27.5993144,23.2794113 C28.920302,23.2971544 29.9490675,24.3399842 29.9337588,25.6460433 C29.918944,26.9178315 28.8406724,27.9423106 27.5379564,27.9225016 C26.2407959,27.9029356 25.2052403,26.8506266 25.2201786,25.5675363" id="Fill-8"></path>
                        <path d="M3.94499339,11.9990936 C3.93919092,12.213104 4.10733907,12.4034165 4.29264771,12.4148401 C4.51301808,12.4283297 4.72486993,12.245795 4.72943783,12.0385901 C4.73375882,11.8448749 4.53993166,11.6409513 4.34104277,11.6452047 C4.09795635,11.6505519 3.97412919,11.7905519 3.94499339,11.9990936 M6.29906746,12.0242499 C6.30388228,13.0731561 5.44314154,13.9571492 4.41548722,13.958486 C3.25622796,13.9600658 2.38598104,13.1476526 2.37128969,12.0503783 C2.35709216,10.9792325 3.25178351,10.0903783 4.34091932,10.0934165 C5.43363537,10.0965763 6.29400574,10.9448401 6.29906746,12.0242499" id="Fill-10"></path>
                    </g>
                    <path d="M14.2823303,15.1255075 C14.3134093,15.4207464 14.3354654,15.8722468 14.4126618,16.3151639 C14.5794612,17.273544 14.8956405,18.1786611 15.5851446,18.9348066 C16.1965751,19.6053552 16.9537514,19.6908345 17.6180664,19.0759004 C17.9725933,18.7477396 18.2693482,18.3275151 18.4721141,17.8988249 C19.1347999,16.4963519 19.2187635,15.0205101 18.9430622,13.5227988 C18.7870402,12.6748247 18.4930423,11.8737643 17.9203353,11.182522 C17.321938,10.460239 16.6346897,10.3003326 15.9454362,10.7524209 C15.7362791,10.8895171 15.5510579,11.0763488 15.4002994,11.2714111 C14.5473796,12.3745299 14.3343376,13.6511942 14.2823303,15.1255075 M20.6875,14.8313268 C20.6687022,16.4897676 20.3827247,17.8975316 19.5700322,19.1798396 C19.1409406,19.8570901 18.5983101,20.4365156 17.8134384,20.7576217 C16.6632624,21.2284049 15.6224896,20.993366 14.7183144,20.2260506 C13.7204007,19.3790171 13.2003277,18.269549 12.9349024,17.0610801 C12.5012993,15.087177 12.6013037,13.1463134 13.5260312,11.2925752 C13.8928394,10.5574762 14.3896032,9.90338854 15.1269791,9.44894873 C16.3886888,8.67116882 17.9669539,8.92678387 18.9816603,10.0390738 C19.9697992,11.1223219 20.4178139,12.4058057 20.6050402,13.7885256 C20.6603058,14.1952286 20.6707073,14.6072227 20.6875,14.8313268" id="Fill-12"></path>
                    <path d="M18.6874344,14.5084014 C18.6834369,14.8329847 18.4854432,15.1094511 18.1601175,15.206979 C18.0170306,15.2499195 17.9402552,15.2989776 17.9011032,15.4630928 C17.8227993,15.7910878 17.5046456,16.0050845 17.1772035,15.9999081 C16.8467046,15.9947317 16.5713476,15.7722645 16.4540093,15.4482694 C16.4219117,15.3598002 16.3336141,15.2608605 16.2477854,15.2280375 C15.8880107,15.0913337 15.6839032,14.8380434 15.687548,14.4885193 C15.6910752,14.1505244 15.8944773,13.9012341 16.2372038,13.7717067 C16.3249136,13.7385307 16.4202657,13.6446498 16.4516578,13.557004 C16.5755802,13.2126563 16.8494088,12.9954831 17.1969559,13.0000713 C17.5328632,13.0045418 17.8277374,13.2123034 17.9067467,13.5518276 C17.9436648,13.7106488 18.0238499,13.7461776 18.152828,13.7854711 C18.4908516,13.8885284 18.691667,14.1701712 18.6874344,14.5084014" id="Fill-14"></path>
                </g>
            </g>
        </g>
    </g>
</svg>