<?xml version="1.0" encoding="UTF-8"?>
<svg width="65px" height="67px" viewBox="0 0 65 67" version="1.1" xmlns="http://www.w3.org/2000/svg" xmlns:xlink="http://www.w3.org/1999/xlink">
    <!-- Generator: Sketch 53.1 (72631) - https://sketchapp.com -->
    <title>Group</title>
    <desc>Created with Sketch.</desc>
    <defs>
        <polygon id="path-1" points="0 0.0319126638 57.9321223 0.0319126638 57.9321223 57.9998969 0 57.9998969"></polygon>
    </defs>
    <g id="mock-up" stroke="none" stroke-width="1" fill="none" fill-rule="evenodd">
        <g id="MO_Web_Desktop_Offer_Details-Copy-16" transform="translate(-300.000000, -422.000000)">
            <g id="Group" transform="translate(300.000000, 422.000000)">
                <g id="Group-6" transform="translate(0.000000, 9.000000)">
                    <g id="Group-3">
                        <mask id="mask-2" fill="white">
                            <use xlink:href="#path-1"></use>
                        </mask>
                        <g id="Clip-2"></g>
                        <path d="M28.8013817,39.6630087 C26.3770323,39.8405546 23.7857747,39.9727642 21.2084472,40.2381965 C19.3575127,40.4284061 17.7388314,41.2315415 16.4223074,42.5812445 C14.6509013,44.3972271 13.9761764,46.5986943 14.0557048,49.1002926 C14.0744472,49.6825721 14.2570585,50.0057511 14.7278969,50.3147467 C18.4672507,52.7707555 22.5477659,54.2098646 27.0183249,54.5203799 C32.688648,54.9142227 37.9073817,53.6349301 42.6641415,50.4535415 C43.5936611,49.8320044 43.8980978,49.1932445 43.8507354,48.1061878 C43.6721764,44.0259258 40.71291,40.6659782 36.663041,40.2295852 C34.1087616,39.9545284 31.5357397,39.8539782 28.8013817,39.6630087 M47.2205607,46.8861616 C53.0620978,41.4063013 56.6479668,31.3143013 53.4037659,21.2326856 C49.7925694,10.0125983 39.5516437,3.15314847 28.5151808,3.37932314 C16.8982114,3.61740175 7.16459563,11.2830262 4.17366987,22.4570175 C1.52238603,32.3618472 5.31543406,41.9176638 10.7803511,46.9299782 C10.9893031,46.1255764 11.1240454,45.2885022 11.4218969,44.5139869 C13.0474166,40.2880917 16.1016611,37.7487555 20.5782987,37.0208428 C21.9885345,36.7916288 23.4309362,36.7417336 24.8614341,36.6652445 C26.6498096,36.5695066 28.4427441,36.4527467 30.2308664,36.4897249 C32.1889362,36.5299956 34.1439668,36.7354017 36.1000105,36.8686245 C40.6224908,37.1758472 43.96091,39.3319782 46.0038271,43.3699432 C46.5648314,44.4787817 46.8317834,45.7362926 47.2205607,46.8861616 M57.9323249,28.9968341 C57.9487878,44.9483537 44.8942288,58.0201354 28.8659668,57.9998734 C12.7852769,57.9798646 0.039460262,44.855655 -5.06550218e-05,29.0365983 C-0.0398148472,13.0405022 12.9714341,0.0292532751 28.9733555,0.0317860262 C44.9438707,0.0343187773 57.9153555,13.0085895 57.9323249,28.9968341" id="Fill-1" fill="#000000" mask="url(#mask-2)"></path>
                    </g>
                    <path d="M28.4883314,31.6576209 C32.9987596,31.6608889 36.7056679,28.0203704 36.7177433,23.5759314 C36.7303219,19.0020304 33.0825329,15.3089731 28.5477023,15.3044482 C24.0065824,15.3001747 20.2418126,18.9952431 20.2797999,23.4195716 C20.3195483,28.040481 23.9207965,31.654353 28.4883314,31.6576209 M28.559023,12.0000278 C34.9252953,11.9980168 39.9964767,17.155376 39.9999987,23.6350062 C40.0030176,29.8481711 34.7713335,35.0002514 28.4594007,35 C22.0136318,34.9997486 16.8971675,29.7853256 17.0015697,23.1214322 C17.0956575,17.1247074 22.0463361,11.9862018 28.559023,12.0000278" id="Fill-4" fill="#000000"></path>
                </g>
                <g id="Group-2" transform="translate(34.000000, 0.000000)">
                    <ellipse id="Oval-2" fill="#FFED00" cx="15.0697674" cy="15.3414634" rx="15.0697674" ry="15.3414634"></ellipse>
                    <path d="M11.39077,15.8571211 L15.7944228,19.395681 C16.0832375,19.6277584 16.1856696,20.1503581 16.0232114,20.5629401 C15.8607531,20.9755221 15.494924,21.12185 15.2061093,20.8897727 L8.80610929,15.7470458 C8.39831828,15.4193649 8.39831828,14.5806351 8.80610929,14.2529542 L15.2061093,9.11022733 C15.494924,8.87814995 15.8607531,9.02447787 16.0232114,9.43705988 C16.1856696,9.84964189 16.0832375,10.3722416 15.7944228,10.604319 L11.39077,14.1428789 L15.500266,14.1428789 L21.900266,14.1428789 C22.2316369,14.1428789 22.500266,14.5266251 22.500266,15 C22.500266,15.4733749 22.2316369,15.8571211 21.900266,15.8571211 L15.500266,15.8571211 L11.39077,15.8571211 L11.39077,15.8571211 Z" id="Line" fill="#000000" fill-rule="nonzero" transform="translate(15.500266, 15.000000) rotate(90.000000) translate(-15.500266, -15.000000) "></path>
                </g>
            </g>
        </g>
    </g>
</svg>