<?xml version="1.0" encoding="UTF-8"?>
<svg width="37px" height="34px" viewBox="0 0 37 34" version="1.1" xmlns="http://www.w3.org/2000/svg" xmlns:xlink="http://www.w3.org/1999/xlink">
    <!-- Generator: Sketch 53.1 (72631) - https://sketchapp.com -->
    <title>Group 14</title>
    <desc>Created with Sketch.</desc>
    <defs>
        <polygon id="path-1" points="2.94588969e-05 0.113397129 30.9244019 0.113397129 30.9244019 29.8564507 2.94588969e-05 29.8564507"></polygon>
    </defs>
    <g id="mock-up" stroke="none" stroke-width="1" fill="none" fill-rule="evenodd">
        <g id="MO_Web_Desktop_Offer_Details-Copy-16" transform="translate(-455.000000, -918.000000)">
            <g id="Group-14" transform="translate(455.000000, 918.000000)">
                <circle id="Oval-Copy-2" fill="#FFFF30" cx="11" cy="11" r="11"></circle>
                <g id="Group-6" transform="translate(6.000000, 4.000000)">
                    <g id="Group-3" transform="translate(0.000000, 0.030144)">
                        <mask id="mask-2" fill="white">
                            <use xlink:href="#path-1"></use>
                        </mask>
                        <g id="Clip-2"></g>
                        <path d="M17.2334641,27.7746172 C17.2585837,27.7461962 17.2732249,27.7371531 17.2733684,27.7282536 C17.2783923,27.1065789 17.2760957,26.4849043 17.2884402,25.8633732 C17.3003541,25.2679665 17.6955215,24.8742344 18.2791579,24.8565789 C18.8482967,24.8394976 19.2879617,25.2303589 19.3215502,25.8108373 C19.3436555,26.1923684 19.3317416,26.5757656 19.3336077,26.9583014 C19.3350431,27.2280144 19.3338947,27.4975837 19.3338947,27.7728947 L22.9564306,27.7728947 C22.9564306,27.120933 22.9482488,26.4897847 22.9590144,25.8587799 C22.9687751,25.2735646 23.3818852,24.8687799 23.9573397,24.8562919 C24.5343732,24.8438038 24.9596842,25.2259091 24.9916938,25.8161483 C25.0142297,26.2337081 25.0015981,26.653134 25.0036077,27.071555 C25.004756,27.3046651 25.0038947,27.5377751 25.0038947,27.7846651 C25.673512,27.7846651 26.2880096,27.8380622 26.8875789,27.7658612 C27.2833206,27.7182057 27.6984402,27.5524163 28.0323158,27.3302153 C28.7112632,26.8783493 28.878488,26.1636603 28.8779139,25.382512 C28.87289,18.470311 28.8751866,11.557823 28.8740383,4.64562201 C28.8740383,4.46648325 28.8651388,4.28705742 28.8509282,4.10849282 C28.7811675,3.23188995 28.121311,2.39691388 27.2548995,2.2604067 C26.5315981,2.14643541 25.7853301,2.17901914 25.0037512,2.14456938 C25.0037512,2.78490431 25.0123636,3.35619617 24.9991579,3.92662679 C24.994134,4.13777512 24.9757608,4.36399522 24.8958086,4.55476077 C24.7179617,4.97921053 24.2360957,5.19107656 23.7583923,5.0987799 C23.2881531,5.0080622 22.9667656,4.63356459 22.9590144,4.1341866 C22.9486794,3.49241627 22.9564306,2.85050239 22.9564306,2.19423445 L19.3338947,2.19423445 C19.3338947,2.77169856 19.3415024,3.33035885 19.3300191,3.8888756 C19.3257129,4.10088517 19.3156651,4.32638756 19.2424593,4.52102871 C19.077244,4.96098086 18.5797321,5.19322967 18.0893971,5.09892344 C17.6254737,5.00978469 17.3022201,4.65394737 17.291311,4.17308612 C17.2768134,3.51925837 17.287866,2.865 17.287866,2.19322967 L13.6640383,2.19322967 C13.6640383,2.76911483 13.6715024,3.32748804 13.6601627,3.88543062 C13.656,4.09772727 13.6466699,4.32294258 13.5741818,4.51801435 C13.4105455,4.95825359 12.9137512,5.19179426 12.4228421,5.09935407 C11.9590622,5.01208134 11.6327943,4.65595694 11.6217416,4.1765311 C11.6068134,3.52227273 11.6181531,2.86758373 11.6181531,2.20514354 L7.99432536,2.20514354 C7.99432536,2.48547847 7.99805742,2.73566986 7.99346411,2.98543062 C7.98513876,3.4272488 7.98887081,3.87035885 7.95485167,4.310311 C7.92786603,4.66169856 7.71255502,4.89882775 7.3867177,5.03102871 C6.64934928,5.330311 5.95662201,4.8704067 5.94743541,4.06873206 C5.94025837,3.45021531 5.94585646,2.83155502 5.94585646,2.23643541 C5.18336842,2.23643541 4.45863158,2.22667464 3.7344689,2.2441866 C3.57628708,2.2480622 3.41092823,2.33145933 3.26537799,2.40911483 C2.40499522,2.86729665 2.05633493,3.60753589 2.05705263,4.56251196 C2.06265072,11.5107416 2.05992344,18.4589713 2.06078469,25.407201 C2.06078469,25.5623684 2.05791388,25.7198325 2.08088038,25.8725598 C2.20848804,26.7187321 2.64643062,27.3497368 3.45571292,27.6491627 C4.25968421,27.9467225 5.10111962,27.7387321 5.94657416,27.8007416 C5.94657416,27.1167703 5.93939713,26.4961005 5.94858373,25.8755742 C5.95733971,25.2751435 6.34619139,24.8791148 6.92724402,24.8571531 C7.48949282,24.8359091 7.91494737,25.1917464 7.96777033,25.7670574 C8.00250718,26.1467225 7.98915789,26.5311244 7.99346411,26.9133732 C7.99676555,27.1960048 7.99418182,27.4784928 7.99418182,27.7764833 L11.6155694,27.7764833 C11.6155694,27.6429904 11.6152823,27.5267225 11.6155694,27.4105981 C11.6165742,26.8724641 11.6055215,26.3340431 11.6224593,25.7963397 C11.6379617,25.308445 11.9495885,24.9712679 12.4271483,24.8809809 C12.9057129,24.7905502 13.3911675,25.0039952 13.5608325,25.4275837 C13.641933,25.6304067 13.6539904,25.8695455 13.6593014,26.0928947 C13.6722201,26.6495455 13.6634641,27.2067703 13.6634641,27.7746172 L17.2334641,27.7746172 Z M15.4651866,29.8536603 C11.7576746,29.8536603 8.05001914,29.8582536 4.34265072,29.8519378 C2.24150239,29.8483493 0.589492823,28.5573445 0.124277512,26.5517943 C0.0385837321,26.1828947 0.006,25.7938995 0.00556937799,25.4142344 C-0.00117703349,18.4655742 -0.000746411483,11.5170574 0.00155023923,4.56854067 C0.00226794258,2.29514354 1.44255502,0.516961722 3.55389474,0.183373206 C3.87126316,0.133277512 4.19695694,0.116626794 4.51877512,0.116483254 C11.8261435,0.113038278 19.1333684,0.112607656 26.4408804,0.114473684 C28.6364785,0.115047847 30.286622,1.32796651 30.8032249,3.33897129 C30.8940861,3.6926555 30.9183445,4.07160287 30.9187751,4.43906699 C30.9252344,11.4712679 30.9258086,18.5036124 30.9222201,25.5358134 C30.9209282,28.0150478 29.1045646,29.8440431 26.6234641,29.8510766 C22.9040383,29.8614115 19.1846124,29.8536603 15.4651866,29.8536603 L15.4651866,29.8536603 Z" id="Fill-1" fill="#000000" mask="url(#mask-2)"></path>
                    </g>
                    <path d="M11.5337512,15.0859952 L11.5380574,15.0859952 C11.5380574,16.4490574 11.5297321,17.8122632 11.5417895,19.1753254 C11.5476746,19.8574306 12.0332727,20.1648947 12.6634163,19.9086746 C12.7954737,19.8549904 12.9215024,19.7839378 13.045378,19.712311 C15.2722679,18.4304928 17.4987273,17.1478134 19.7234641,15.8622632 C19.8674354,15.7791531 20.00911,15.6839856 20.1301148,15.5711627 C20.4390144,15.2835072 20.478201,14.933555 20.2030335,14.6174785 C20.0346603,14.4238421 19.8179139,14.2580526 19.5947081,14.1278612 C17.4161914,12.8581005 15.2218852,11.6147512 13.0529856,10.3286268 C11.933799,9.66489474 11.5090622,10.3197273 11.5271483,11.2119761 C11.5532727,12.5028373 11.5337512,13.7945598 11.5337512,15.0859952 L11.5337512,15.0859952 Z M9.47451675,15.1102536 C9.47451675,13.7944163 9.46805742,12.4787225 9.47695694,11.1630287 C9.48269856,10.3014976 9.68480383,9.49149761 10.3053301,8.85948804 C11.2242775,7.92374641 12.3512153,7.72307656 13.5555215,8.31633014 C14.3902105,8.72757416 15.1851388,9.22063636 15.9934163,9.68513397 C17.5481053,10.5786746 19.0990622,11.4788182 20.6527464,12.3742249 C21.2112632,12.6961866 21.6912632,13.1048469 22.022555,13.6619282 C22.7894928,14.9513541 22.433799,16.530445 21.1429378,17.3796316 C20.3253301,17.917622 19.4590622,18.3821196 18.6110239,18.8734593 C17.1316938,19.7303971 15.6499234,20.5827416 14.1690144,21.4368086 C13.5826507,21.775134 12.971311,22.0432679 12.2775789,22.0273349 C10.6518373,21.990445 9.53552153,20.9118804 9.49001914,19.2723589 C9.45155024,17.8860431 9.4821244,16.4977177 9.4821244,15.1102536 L9.47451675,15.1102536 Z" id="Fill-4" fill="#000000"></path>
                </g>
            </g>
        </g>
    </g>
</svg>