<?xml version="1.0" encoding="UTF-8"?>
<svg width="24px" height="24px" viewBox="0 0 24 24" version="1.1" xmlns="http://www.w3.org/2000/svg" xmlns:xlink="http://www.w3.org/1999/xlink">
    <!-- Generator: Sketch 53.2 (72643) - https://sketchapp.com -->
    <title>icon_touch</title>
    <desc>Created with Sketch.</desc>
    <g id="Page-1" stroke="none" stroke-width="1" fill="none" fill-rule="evenodd">
        <g id="icon_touch" fill="#00C9FF" fill-rule="nonzero">
            <path d="M12,0 C7.03812415,0 2.76580957,3.01879385 0.942908677,7.32692308 C0.807375365,7.63191896 0.847017902,7.98632025 1.04659063,8.25383192 C1.24616336,8.5213436 1.57458611,8.66030511 1.90555465,8.61727489 C2.23652318,8.57424466 2.51849458,8.35592395 2.6430288,8.04627415 C4.18382031,4.40486474 7.78649169,1.84615385 12,1.84615385 C14.485872,1.84615385 16.7522557,2.73432138 18.517428,4.21334132 C18.7702298,4.42535179 19.1169463,4.48636164 19.4269348,4.37338234 C19.7369233,4.26040304 19.9630725,3.99060481 20.0201695,3.66564774 C20.0772666,3.34069066 19.9566338,3.00996066 19.7037258,2.79807692 C17.6196674,1.05186609 14.9270511,0 12,0 Z M12,3.69230769 C11.0316166,3.69230769 10.0978606,3.85795828 9.23076923,4.16466351 C8.91960781,4.27476349 8.69083324,4.54252014 8.63064071,4.86705102 C8.57044818,5.19158191 8.68798466,5.52357078 8.93896602,5.73793446 C9.18994739,5.95229815 9.53623412,6.0164616 9.847356,5.90625 C10.519956,5.66833975 11.2422295,5.53846154 12,5.53846154 C15.579216,5.53846154 18.4615385,8.420784 18.4615385,12 C18.4615385,14.7241505 17.5492791,20.9260818 17.5492791,20.9260818 C17.4862639,21.2584143 17.6100468,21.598598 17.8719006,21.8127202 C18.1337543,22.0268425 18.4917432,22.0806116 18.8049454,21.9528614 C19.1181476,21.8251112 19.3364038,21.536301 19.3737978,21.2001203 C19.3737978,21.2001203 20.3076923,15.113388 20.3076923,12 C20.3076923,7.42290831 16.5770917,3.69230769 12,3.69230769 Z M21.6959132,5.74579329 C21.3704385,5.75134722 21.0719457,5.92790531 20.9103222,6.21046937 C20.7486987,6.49303343 20.7478365,6.83983301 20.9080532,7.12319714 C21.7017517,8.57097785 22.1538462,10.2289994 22.1538462,12 C22.1538462,13.0119277 22.0049862,13.985028 21.7283649,14.9062505 C21.6194253,15.2259496 21.6937692,15.5796201 21.9222071,15.8284002 C22.1506449,16.0771803 22.4967059,16.1813515 22.824516,16.1000131 C23.152326,16.0186746 23.4095494,15.7648125 23.4951923,15.4381006 C23.8222643,14.3488615 24,13.1942262 24,12 C24,9.91438523 23.4650372,7.94716615 22.5270434,6.23617791 C22.3642887,5.92940107 22.0431402,5.73991657 21.6959132,5.74579329 Z M6.13701923,6.52644231 C5.86560662,6.54080208 5.61431301,6.67403388 5.45012022,6.89062505 C4.34991905,8.29909015 3.69230769,10.0780302 3.69230769,12 C3.69230769,16.3419092 2.97295671,19.1610572 2.97295671,19.1610572 C2.88158358,19.4839325 2.97260244,19.8309627 3.21067956,20.06743 C3.44875669,20.3038973 3.79639647,20.3925594 4.11864435,20.2989978 C4.44089222,20.2054361 4.68699624,19.9443858 4.76141825,19.6171874 C4.76141825,19.6171874 5.53846154,16.5491677 5.53846154,12 C5.53846154,10.4973545 6.04832603,9.12320862 6.90504812,8.02644185 C7.13294258,7.7427012 7.17287226,7.35154848 7.0070107,7.0276124 C6.84114914,6.70367633 6.50045081,6.50741254 6.13701923,6.52644231 L6.13701923,6.52644231 Z M12,7.38461538 C9.46198523,7.38461538 7.38461538,9.46198523 7.38461538,12 C7.38461538,18.4783957 6.49218748,21.8653846 6.49218748,21.8653846 C6.39378889,22.1891989 6.48046463,22.5408971 6.71806326,22.7819052 C6.95566188,23.0229132 7.30608953,23.1145907 7.63127283,23.0208153 C7.95645613,22.92704 8.20425889,22.6628467 8.27704338,22.3323314 C8.27704338,22.3323314 9.23076923,18.6514505 9.23076923,12 C9.23076923,10.4598609 10.4598609,9.23076923 12,9.23076923 C13.5401391,9.23076923 14.7692308,10.4598609 14.7692308,12 C14.7692308,13.1055914 14.7222277,14.2595945 14.6502406,15.3822111 C14.6263624,15.7130445 14.7818047,16.031258 15.0574302,16.2157885 C15.3330558,16.400319 15.6864916,16.422798 15.9832744,16.2746733 C16.2800572,16.1265486 16.4745615,15.8305923 16.4927889,15.4993994 C16.566648,14.3475545 16.6153846,13.1577932 16.6153846,12 C16.6153846,9.46198523 14.5380148,7.38461538 12,7.38461538 Z M0.905048123,10.3161055 C0.43183701,10.3386003 0.0524614314,10.7156391 0.0270432923,11.1887022 C0.00902861538,11.4569197 0,11.7277126 0,12 C0,13.0105338 0.126458677,13.9911978 0.362379785,14.9278846 C0.438846226,15.2521126 0.684059718,15.5099973 1.00402726,15.6026886 C1.3239948,15.69538 1.66908318,15.6084998 1.90701627,15.3753501 C2.14494936,15.1422005 2.23881909,14.7989475 2.15264418,14.4771637 C1.95287308,13.6840043 1.84615385,12.8559277 1.84615385,12 C1.84615385,11.7682874 1.85437809,11.5396523 1.86959132,11.3131006 C1.89113876,11.0483785 1.79762677,10.7872007 1.61295322,10.5963138 C1.42827967,10.405427 1.17033817,10.3033266 0.905048123,10.3161055 L0.905048123,10.3161055 Z M11.9855769,11.0643028 C11.476485,11.0722607 11.0699514,11.4908936 11.0769231,12 C11.0769231,14.5100178 10.9414606,16.5804775 10.7650237,18.2127406 C10.7230001,18.5439853 10.8631185,18.8721056 11.1314515,19.0708176 C11.3997846,19.2695295 11.7545056,19.3078588 12.0590928,19.1710535 C12.36368,19.0342482 12.5706557,18.743633 12.6003609,18.4110572 C12.783924,16.7128597 12.9230769,14.576136 12.9230769,12 C12.9264937,11.750492 12.82876,11.5102277 12.6521449,11.3339523 C12.4755298,11.1576768 12.2350779,11.0604058 11.9855769,11.0643028 Z M15.1911055,18.6778846 C14.7171748,18.6773285 14.3198112,19.035735 14.2716351,19.5072111 C14.0577535,21.3553514 13.8569714,22.6063698 13.8569714,22.6063698 C13.8047078,22.9323302 13.9303421,23.2614082 14.1865351,23.4696071 C14.4427282,23.677806 14.7905446,23.7334842 15.0989269,23.6156623 C15.4073092,23.4978403 15.6293904,23.2244245 15.6814902,22.8984378 C15.6814902,22.8984378 15.8888511,21.6047345 16.1069714,19.7199517 C16.1411831,19.456531 16.0602669,19.1911387 15.8849069,18.991615 C15.7095467,18.7920912 15.4567386,18.6777738 15.1911055,18.6778846 Z M11.1003609,21.1189902 C10.6618332,21.1186255 10.283567,21.4268144 10.1953126,21.8563698 C10.0545166,22.5001338 9.96454338,22.7830532 9.96454338,22.7830532 C9.86462215,23.0980055 9.94064889,23.4423452 10.163893,23.6859459 C10.3871371,23.9295465 10.7235522,24.0352573 11.0460066,23.9631299 C11.368461,23.8910024 11.6277781,23.6520368 11.7259615,23.3365385 C11.7259615,23.3365385 11.8454548,22.949592 11.9981972,22.2512022 C12.0619081,21.9771534 11.9971662,21.6890094 11.8223473,21.468555 C11.6475284,21.2481005 11.3817177,21.1194027 11.1003609,21.1189902 L11.1003609,21.1189902 Z" id="Shape"></path>
        </g>
    </g>
</svg>