<?xml version="1.0" encoding="utf-8"?>
<!-- Generator: Adobe Illustrator 23.0.1, SVG Export Plug-In . SVG Version: 6.00 Build 0)  -->
<svg version="1.1" id="Layer_1" xmlns="http://www.w3.org/2000/svg" xmlns:xlink="http://www.w3.org/1999/xlink" x="0px" y="0px"
	 viewBox="0 0 30 22.2" style="enable-background:new 0 0 30 22.2;" xml:space="preserve">
<title>icon_email</title>
<desc>Created with Sketch.</desc>
<g id="MO-Web-Login-Sign-up">
	<g id="MO_Web_Desktop_signup_email" transform="translate(-451.000000, -279.000000)">
		<g id="icon_email" transform="translate(451.000000, 279.000000)">
			<path id="Shape" d="M26.9,22.2H3.1c-1.7,0-3.1-1.4-3.1-3.1v-16C0,1.4,1.4,0,3.1,0h23.8C28.6,0,30,1.4,30,3.1v16
				C30,20.8,28.6,22.2,26.9,22.2z M3.1,1.2c-1,0-1.9,0.8-1.9,1.8v16c0,1,0.8,1.8,1.9,1.8h23.8c1,0,1.9-0.8,1.9-1.8v-16
				c0-1-0.8-1.8-1.9-1.8H3.1z"/>
			<path d="M15,15c-1.3,0-2.4-0.5-3.3-1.5L3.9,5C3.7,4.8,3.7,4.4,4,4.2c0.3-0.2,0.6-0.2,0.9,0l7.7,8.4c1.3,1.4,3.5,1.4,4.8,0
				l7.7-8.4c0.2-0.3,0.6-0.3,0.9,0c0.3,0.2,0.3,0.6,0,0.9l-7.7,8.4C17.5,14.4,16.3,15,15,15z"/>
			<path d="M4.4,19c-0.2,0-0.3-0.1-0.5-0.2c-0.2-0.3-0.2-0.7,0-0.9l6.8-6.2c0.3-0.2,0.7-0.2,0.9,0c0.2,0.3,0.2,0.7,0,0.9l-6.8,6.2
				C4.7,18.9,4.6,19,4.4,19z"/>
			<path d="M25.6,19c-0.1,0-0.3-0.1-0.4-0.2l-6.8-6.2c-0.3-0.2-0.3-0.6,0-0.9c0.2-0.3,0.6-0.3,0.9,0l6.8,6.2c0.3,0.2,0.3,0.6,0,0.9
				C25.9,18.9,25.8,19,25.6,19z"/>
		</g>
	</g>
</g>
</svg>
