<?xml version="1.0" encoding="UTF-8"?>
<svg width="20px" height="20px" viewBox="0 0 20 20" version="1.1" xmlns="http://www.w3.org/2000/svg" xmlns:xlink="http://www.w3.org/1999/xlink">
    <!-- Generator: Sketch 53.1 (72631) - https://sketchapp.com -->
    <title>Fill 1</title>
    <desc>Created with Sketch.</desc>
    <g id="mock-up" stroke="none" stroke-width="1" fill="none" fill-rule="evenodd">
        <g id="MO_Web_Desktop_Offer_Details-Copy-11" transform="translate(-728.000000, -598.000000)" fill="#000000">
            <g id="Group-2" transform="translate(728.000000, 294.000000)">
                <g id="Group-3" transform="translate(0.000000, 304.000000)">
                    <path d="M10.9979678,5.02236754 C11.0006664,4.48214529 10.7507899,4.09447721 10.3105754,3.95592193 C9.90046747,3.82698034 9.49322686,3.95381366 9.21805062,4.29619617 C8.97517364,4.59835295 8.93030886,5.22324319 9.12621276,5.57582971 C9.34176608,5.9640881 9.81115958,6.18174555 10.2126656,6.07978978 C10.7060938,5.95447441 10.9951849,5.56520405 10.9979678,5.02236754 M9.01093053,11.6861769 C9.01093053,12.8171354 9.00350929,13.948094 9.01362916,15.0789683 C9.01995408,15.7912251 9.64856693,16.2523452 10.3087201,16.0494456 C10.7062624,15.9273348 10.9944259,15.5420279 10.9953535,15.0877386 C10.9997388,12.8259058 10.9972932,10.5639887 10.9965342,8.30215585 C10.9965342,8.25315973 10.9919802,8.20374196 10.9842217,8.15525182 C10.8928055,7.58079132 10.3336824,7.19835175 9.77708933,7.32889562 C9.30929815,7.43852548 9.01354483,7.8271212 9.01152085,8.35654913 C9.00755724,9.46642504 9.01042453,10.5763009 9.01093053,11.6861769 M9.98783571,20 C4.43236214,19.9592683 -0.0339599865,15.476503 0.000194588693,9.97578227 C0.0346021608,4.44664208 4.55523427,-0.0427853146 10.0450973,0.000307656308 C15.5581518,0.0434849579 20.0299555,4.54168274 19.9998489,10.0200559 C19.9692362,15.5884098 15.4801444,19.9921572 9.98783571,20" id="Fill-1"></path>
                </g>
            </g>
        </g>
    </g>
</svg>