<?xml version="1.0" encoding="UTF-8"?>
<svg width="177px" height="144px" viewBox="0 0 177 144" version="1.1" xmlns="http://www.w3.org/2000/svg" xmlns:xlink="http://www.w3.org/1999/xlink">
    <!-- Generator: Sketch 53.2 (72643) - https://sketchapp.com -->
    <title>invite_icon</title>
    <desc>Created with Sketch.</desc>
    <g id="mock-up" stroke="none" stroke-width="1" fill="none" fill-rule="evenodd">
        <g id="Payment_1.1" transform="translate(-182.000000, -1039.000000)">
            <g id="invite_icon" transform="translate(182.000000, 1039.000000)">
                <circle id="Oval" fill="#FDF401" fill-rule="nonzero" cx="46.51" cy="46.93" r="45.99"></circle>
                <g id="Group-33" transform="translate(10.600000, 47.560000)" stroke="#000000" stroke-width="4">
                    <path d="M144.847934,31.9477686 C144.847934,49.1511426 130.90499,63.0833058 113.712397,63.0833058 C96.519803,63.0833058 82.5768595,49.1511426 82.5768595,31.9477686 C82.5768595,14.7513398 96.519803,0.812231405 113.712397,0.812231405 C130.90499,0.812231405 144.847934,14.7513398 144.847934,31.9477686 Z" id="Stroke-1"></path>
                    <path d="M137.393884,50.8998347 C137.393884,50.8998347 149.200192,57.8968911 157.059663,70.0087549 C164.925974,82.1069792 163.735767,94.218843 163.735767,94.218843 L113.719707,94.218843 L113.699186,94.218843 L63.689966,94.218843" id="Stroke-3"></path>
                    <path d="M142.314445,79.3279339 C142.314445,79.3279339 147.079536,88.5337213 145.813809,94.218843" id="Stroke-7"></path>
                    <path d="M81.2231405,31.9477686 C81.2231405,49.1511426 67.2855865,63.0833058 50.0910755,63.0833058 C32.8896201,63.0833058 18.9520661,49.1511426 18.9520661,31.9477686 C18.9520661,14.7513398 32.8896201,0.812231405 50.0910755,0.812231405 C67.2855865,0.812231405 81.2231405,14.7513398 81.2231405,31.9477686 Z" id="Stroke-9"></path>
                    <path d="M73.7684627,50.8998347 C73.7684627,50.8998347 85.5746696,57.8968911 93.4340739,70.0087549 C101.307159,82.1069792 100.110121,94.218843 100.110121,94.218843 L50.0944869,94.218843 L50.0808065,94.218843 L0.0651720255,94.218843 C0.0651720255,94.218843 -1.13186518,82.1069792 6.7343793,70.0087549 C14.6006238,57.8968911 26.4068307,50.8998347 26.4068307,50.8998347" id="Stroke-11"></path>
                    <path d="M21.4832287,79.3279339 C21.4832287,79.3279339 16.7181378,88.5337213 17.9906337,94.218843" id="Stroke-13"></path>
                    <path d="M77.3382589,79.3279339 C77.3382589,79.3279339 82.1033498,88.5337213 80.8308539,94.218843" id="Stroke-15"></path>
                    <path d="M23.0132231,45.4849587 C23.0132231,45.4849587 13.1279593,46.1597313 12.3161607,51.6622582 C11.4684419,57.4917367 14.9598941,59.0221488 14.9598941,59.0221488" id="Stroke-17"></path>
                    <path d="M77.1619835,47.7253636 L88.4319586,49.4939915" id="Stroke-31"></path>
                </g>
            </g>
        </g>
    </g>
</svg>