<?xml version="1.0" encoding="UTF-8"?>
<svg width="137px" height="111px" viewBox="0 0 137 111" version="1.1" xmlns="http://www.w3.org/2000/svg" xmlns:xlink="http://www.w3.org/1999/xlink">
    <!-- Generator: Sketch 53.2 (72643) - https://sketchapp.com -->
    <title>invite_icon_sp</title>
    <desc>Created with Sketch.</desc>
    <g id="mock-up" stroke="none" stroke-width="1" fill="none" fill-rule="evenodd">
        <g id="m-dashboard_invite_friends_1.1" transform="translate(-135.000000, -473.000000)">
            <g id="Page"></g>
            <g id="Icon/Friends" transform="translate(134.000000, 455.000000)">
                <circle id="Oval" fill="#FDF401" cx="36.96" cy="53.28" r="35.04"></circle>
                <g id="Group-33" stroke-width="1" transform="translate(9.600000, 53.760000)" stroke="#000000">
                    <path d="M110.360331,24.341157 C110.360331,37.4484896 99.7371355,48.0634711 86.6380165,48.0634711 C73.5388975,48.0634711 62.9157025,37.4484896 62.9157025,24.341157 C62.9157025,11.2391161 73.5388975,0.618842975 86.6380165,0.618842975 C99.7371355,0.618842975 110.360331,11.2391161 110.360331,24.341157 Z" id="Stroke-1" stroke-width="6"></path>
                    <path d="M104.681055,38.7808264 C104.681055,38.7808264 113.676336,44.1119171 119.664505,53.3400037 C125.657885,62.5576984 124.751061,71.7857851 124.751061,71.7857851 L86.6435861,71.7857851 L86.6279512,71.7857851 L48.5256884,71.7857851" id="Stroke-3" stroke-width="6"></path>
                    <path d="M108.430054,60.4403306 C108.430054,60.4403306 112.060599,67.4542638 111.096235,71.7857851" id="Stroke-7" stroke-width="6"></path>
                    <path d="M61.8842975,24.341157 C61.8842975,37.4484896 51.2652088,48.0634711 38.164629,48.0634711 C25.0587581,48.0634711 14.4396694,37.4484896 14.4396694,24.341157 C14.4396694,11.2391161 25.0587581,0.618842975 38.164629,0.618842975 C51.2652088,0.618842975 61.8842975,11.2391161 61.8842975,24.341157 Z" id="Stroke-9" stroke-width="6"></path>
                    <path d="M56.204543,38.7808264 C56.204543,38.7808264 65.1997483,44.1119171 71.1878658,53.3400037 C77.1864066,62.5576984 76.2743782,71.7857851 76.2743782,71.7857851 L38.1672281,71.7857851 L38.156805,71.7857851 L0.0496548766,71.7857851 C0.0496548766,71.7857851 -0.862373469,62.5576984 5.13095566,53.3400037 C11.1242848,44.1119171 20.1194901,38.7808264 20.1194901,38.7808264" id="Stroke-11" stroke-width="6"></path>
                    <path d="M16.3681743,60.4403306 C16.3681743,60.4403306 12.7376288,67.4542638 13.7071495,71.7857851" id="Stroke-13" stroke-width="6"></path>
                    <path d="M58.9243877,60.4403306 C58.9243877,60.4403306 62.5549332,67.4542638 61.5854125,71.7857851" id="Stroke-15" stroke-width="6"></path>
                    <path d="M17.5338843,34.6552066 C17.5338843,34.6552066 10.0022547,35.1693191 9.38374151,39.3617205 C8.73786048,43.803228 11.3980145,44.9692562 11.3980145,44.9692562" id="Stroke-17" stroke-width="6"></path>
                    <path d="M58.7900826,36.3621818 L67.3767304,37.7097078" id="Stroke-31" stroke-width="6"></path>
                </g>
            </g>
        </g>
    </g>
</svg>