<?xml version="1.0" encoding="utf-8"?>
<!-- Generator: Adobe Illustrator 23.0.1, SVG Export Plug-In . SVG Version: 6.00 Build 0)  -->
<svg version="1.1" id="Layer_1" xmlns="http://www.w3.org/2000/svg" xmlns:xlink="http://www.w3.org/1999/xlink" x="0px" y="0px"
	 viewBox="0 0 23 31" style="enable-background:new 0 0 23 31;" xml:space="preserve">
<style type="text/css">
	.st0{fill:none;stroke:#FFFFFF;stroke-width:2;stroke-miterlimit:10;}
</style>
<title>Group 5</title>
<desc>Created with Sketch.</desc>
<g>
	<path class="st0" d="M11.5,6.9c-5,0-9,4.1-9,9c0,5,4.1,9,9,9c5,0,9-4.1,9-9S16.5,6.9,11.5,6.9L11.5,6.9z"/>
	<g>
		<line class="st0" x1="3" y1="12.9" x2="20.1" y2="12.9"/>
		<line class="st0" x1="3" y1="19" x2="20.1" y2="19"/>
	</g>
	<path class="st0" d="M11.6,6.9c0,0,3.5,3.1,3.5,9.1s-3.5,9-3.5,9h-0.2c0,0-3.5-3.1-3.5-9s3.5-9.1,3.5-9.1S11.6,6.9,11.6,6.9z"/>
</g>
</svg>
