<?xml version="1.0" encoding="utf-8"?>
<!-- Generator: Adobe Illustrator 23.0.1, SVG Export Plug-In . SVG Version: 6.00 Build 0)  -->
<svg version="1.1" id="Layer_1" xmlns="http://www.w3.org/2000/svg" xmlns:xlink="http://www.w3.org/1999/xlink" x="0px" y="0px"
	 viewBox="0 0 23 31" style="enable-background:new 0 0 23 31;" xml:space="preserve">
<style type="text/css">
	.st0{fill:#FFFFFF;}
	.st1{fill:none;stroke:#FFFFFF;stroke-width:2;stroke-linecap:round;stroke-linejoin:round;stroke-miterlimit:10;}
</style>
<title>Group 5</title>
<desc>Created with Sketch.</desc>
<g>
	<g>
		<path class="st0" d="M16.1,17.4c-0.1-0.2-0.3-0.3-0.5-0.3c-0.2,0-0.5,0.1-0.5,0.3l-1.2,4c0,0,0,0.1,0,0.1c0,0.2,0.3,0.3,0.5,0.3
			c0.1,0,0.2,0,0.3-0.2l0.2-0.8h1.4l0.2,0.8c0,0.1,0.1,0.2,0.3,0.2c0.2,0,0.5-0.1,0.5-0.3c0,0,0,0,0-0.1L16.1,17.4z M15.1,20.1
			l0.5-1.9l0.5,1.9H15.1z M15.1,20.1"/>
		<path class="st0" d="M9.2,10.7c0.2,0,0.3-0.1,0.3-0.3c0-0.2-0.1-0.3-0.3-0.3H7.7V9.2c0-0.2-0.1-0.3-0.3-0.3C7.2,8.9,7.1,9,7.1,9.2
			V10H5.6c-0.2,0-0.3,0.1-0.3,0.3c0,0.2,0.1,0.3,0.3,0.3h0.5c0.1,0.7,0.4,1.3,0.8,1.8c-0.4,0.2-0.8,0.4-1.3,0.4
			c-0.2,0-0.3,0.1-0.3,0.3c0,0.2,0.1,0.3,0.3,0.3c0.7,0,1.3-0.2,1.8-0.6c0.5,0.4,1.1,0.6,1.8,0.6c0.2,0,0.3-0.1,0.3-0.3
			c0-0.2-0.1-0.3-0.3-0.3c-0.5,0-0.9-0.1-1.3-0.4c0.5-0.5,0.8-1.1,0.8-1.8H9.2z M7.4,12.1c-0.4-0.4-0.6-0.9-0.7-1.4h1.4
			C8,11.2,7.8,11.7,7.4,12.1L7.4,12.1z M7.4,12.1"/>
	</g>
	<path class="st1" d="M21.1,23.6c0,0.6-0.5,1.1-1.1,1.1h-8.5c-0.6,0-1.1-0.5-1.1-1.1c0-0.2-0.1-0.4-0.3-0.5l-1.7-1.2l1.7-1.2
		c0.2-0.1,0.3-0.3,0.3-0.5v-5c0-0.6,0.5-1.1,1.1-1.1H20c0.6,0,1.1,0.5,1.1,1.1V23.6z"/>
	<path class="st1" d="M10.4,15.2c0-0.6,0.5-1.1,1.1-1.1h1.2v-3.5c0-0.2,0.1-0.4,0.3-0.5l1.7-1.2l-1.7-1.2c-0.2-0.1-0.3-0.3-0.3-0.5
		c0-0.6-0.5-1.1-1.1-1.1H3C2.4,5.9,1.9,6.4,1.9,7v8.5c0,0.6,0.5,1.1,1.1,1.1h7.3V15.2z"/>
</g>
</svg>
