<?xml version="1.0" encoding="UTF-8"?>
<svg width="75px" height="75px" viewBox="0 0 75 75" version="1.1" xmlns="http://www.w3.org/2000/svg" xmlns:xlink="http://www.w3.org/1999/xlink">
    <!-- Generator: Sketch 53.2 (72643) - https://sketchapp.com -->
    <title>livechat</title>
    <desc>Created with Sketch.</desc>
    <defs>
        <path d="M33.442672,-1.16027341e-14 C51.91256,-1.16027341e-14 66.885276,14.972716 66.885276,33.442604 C66.885276,51.912424 51.91256,66.885208 33.442672,66.885208 C14.972784,66.885208 1.37511586e-13,51.912424 1.37511586e-13,33.442604 C1.37511586e-13,14.972716 14.972784,-1.16027341e-14 33.442672,-1.16027341e-14 Z" id="path-1"></path>
        <filter x="-12.0%" y="-6.0%" width="123.9%" height="123.9%" filterUnits="objectBoundingBox" id="filter-2">
            <feOffset dx="0" dy="4" in="SourceAlpha" result="shadowOffsetOuter1"></feOffset>
            <feGaussianBlur stdDeviation="2" in="shadowOffsetOuter1" result="shadowBlurOuter1"></feGaussianBlur>
            <feColorMatrix values="0 0 0 0 0.5625   0 0 0 0 0.5625   0 0 0 0 0.5625  0 0 0 0.35 0" type="matrix" in="shadowBlurOuter1"></feColorMatrix>
        </filter>
    </defs>
    <g id="mock-up" stroke="none" stroke-width="1" fill="none" fill-rule="evenodd">
        <g id="Contactus" transform="translate(-1240.000000, -1173.000000)">
            <g id="Group-2" transform="translate(1064.000000, 958.000000)">
                <g id="livechat" transform="translate(180.000000, 215.000000)">
                    <g id="bg_question">
                        <use fill="black" fill-opacity="1" filter="url(#filter-2)" xlink:href="#path-1"></use>
                        <use fill="#00BEF2" fill-rule="evenodd" xlink:href="#path-1"></use>
                    </g>
                    <g id="资源-14" transform="translate(17.833333, 17.416667)" fill="#FFFFFF" fill-rule="nonzero">
                        <path d="M0.583333333,14.6 C0.583333333,7.00693809 7.6627881,0.886666667 16.1666667,0.886666667 C24.768139,0.886666667 31.7358333,6.94111951 31.7358333,14.5716667 C31.7358333,22.1846174 24.7036501,28.285 16.1525,28.285 L15.792763,28.285 L5.88166667,33.2405482 L5.88166667,24.9138653 C2.63451991,22.4964888 0.667674828,18.703641 0.583333333,14.6 Z M8.715,28.6561185 L15.1239037,25.4516667 L16.1525,25.4516667 C23.2212664,25.4516667 28.9025,20.5232259 28.9025,14.5716667 C28.9025,8.60131981 23.2848917,3.72 16.1666667,3.72 C9.14338268,3.72 3.41666667,8.67081295 3.41636554,14.570792 C3.4865516,17.9742769 5.22946057,21.1245615 8.07557543,22.9922515 L8.715,23.4118576 L8.715,28.6561185 Z" id="_路径_"></path>
                        <path d="M10.5708333,13.1125 C9.78842994,13.1125 9.15416667,12.4782367 9.15416667,11.6958333 C9.15416667,10.9134299 9.78842994,10.2791667 10.5708333,10.2791667 L21.9041667,10.2791667 C22.6865701,10.2791667 23.3208333,10.9134299 23.3208333,11.6958333 C23.3208333,12.4782367 22.6865701,13.1125 21.9041667,13.1125 L10.5708333,13.1125 Z" id="_路径_2"></path>
                        <path d="M11.9875,18.7791667 C11.2050966,18.7791667 10.5708333,18.1449034 10.5708333,17.3625 C10.5708333,16.5800966 11.2050966,15.9458333 11.9875,15.9458333 L20.4875,15.9458333 C21.2699034,15.9458333 21.9041667,16.5800966 21.9041667,17.3625 C21.9041667,18.1449034 21.2699034,18.7791667 20.4875,18.7791667 L11.9875,18.7791667 Z" id="_路径_3"></path>
                    </g>
                </g>
            </g>
        </g>
    </g>
</svg>