<svg xmlns="http://www.w3.org/2000/svg" xmlns:xlink="http://www.w3.org/1999/xlink" width="45" height="25" viewBox="0 0 45 25">
  <defs>
    <polygon id="logo-a" points=".127 .046 15.216 .046 15.216 14.434 .127 14.434"/>
  </defs>
  <g fill="none" fill-rule="evenodd">
    <polygon fill="#FFFF30" points="25.065 .435 13.961 12.54 2.842 .431 0 .433 .006 24.719 5.62 24.718 5.616 11.291 13.963 20.657 22.305 11.287 22.309 24.713 27.923 24.712 27.916 .426"/>
    <g transform="translate(29.597 .256)">
      <!-- <mask id="logo-b" fill="#fff">
        <use xlink:href="#logo-a"/>
      </mask> -->
      <path fill="#FFFF30" d="M5.16633221,9.77336577 C5.83982215,10.4465537 6.67549329,10.7968893 7.6724396,10.7965872 C8.66938591,10.7962852 9.50445302,10.4459497 10.177943,9.77215772 C10.8511309,9.07118456 11.2011644,8.23581544 11.2008624,7.23886913 C11.2005604,6.24222483 10.8502248,5.4068557 10.1764329,4.73336577 C9.50264094,4.03299664 8.66757383,3.68296309 7.6703255,3.6832651 C6.67337919,3.68356711 5.83831208,4.0342047 5.16482215,4.73457383 C4.49163423,5.40836577 4.14129866,6.2437349 4.14160067,7.24098322 C4.14190268,8.23792953 4.49254027,9.09987584 5.16633221,9.77336577 M13.0047886,2.14601678 C14.4870705,3.51987584 15.2149228,5.21719128 15.2155268,7.23796309 C15.2161309,9.2587349 14.4891846,10.9563523 13.0075067,12.3579966 C11.5261309,13.7324597 9.74787584,14.4334329 7.67334564,14.4340369 C5.57163423,14.4346409 3.79307718,13.7345738 2.3107953,12.3607148 C0.855694631,10.9599765 0.127238255,9.26266107 0.126936242,7.24188926 C0.126634228,5.22111745 0.853580537,3.5235 2.30807718,2.1487349 C3.78945302,0.747392617 5.56770805,0.0464194631 7.66941946,0.0458154362 C9.74394966,0.0452114094 11.5228087,0.745278523 13.0047886,2.14601678"/>
      <path fill="#FFFF30" d="M9.83192617,16.950745 C9.79900671,17.5523557 9.58880537,18.0645705 9.20977852,18.4988658 C8.79602013,18.9552081 8.28289933,19.1925906 7.67041611,19.1925906 C7.05732886,19.1928926 6.54420805,18.9558121 6.13014765,18.4997718 C5.75051678,18.0817852 5.54031544,17.5553758 5.50739597,16.950745 L3.04055034,16.950745 C3.07588591,18.2457785 3.51803356,19.3420872 4.37575168,20.2517517 C5.28632215,21.181953 6.37930872,21.6558121 7.67102013,21.6555101 C8.94551678,21.654906 10.0385034,21.180443 10.9487718,20.2499396 C11.8215906,19.3399732 12.2670604,18.2454765 12.302396,16.950745 L9.83192617,16.950745 Z"/>
    </g>
  </g>
</svg>
