<?xml version="1.0" encoding="UTF-8"?>
<svg width="393px" height="56px" viewBox="0 0 393 56" version="1.1" xmlns="http://www.w3.org/2000/svg" xmlns:xlink="http://www.w3.org/1999/xlink">
    <!-- Generator: Sketch 53.2 (72643) - https://sketchapp.com -->
    <title>sms-voice-slide_sp</title>
    <desc>Created with Sketch.</desc>
    <g id="Page-6" stroke="none" stroke-width="1" fill="none" fill-rule="evenodd">
        <g id="sms-voice-slide_sp" transform="translate(0.000000, 2.000000)">
            <g id="Line" transform="translate(4.000000, 12.000000)" stroke-linecap="round" stroke-linejoin="round" stroke-width="4">
                <path d="M0,0.5 L384,0.5" id="Line-2-Copy-2" stroke="#F3F3F4"></path>
                <path d="M0,0.5 L384,0.5" id="Line-2-Copy-3" stroke="#A1A1A1"></path>
            </g>
            <g id="Tick-marks" transform="translate(0.000000, 10.000000)">
                <circle id="Oval" fill="#FFFFFF" opacity="0.7" cx="2.5" cy="2.5" r="2.5"></circle>
                <circle id="Oval" fill="#B4B4B4" cx="388.5" cy="2.5" r="2.5"></circle>
            </g>
            <g id="Selected" transform="translate(301.000000, 0.000000)">
                <g id="Base" transform="translate(72.000000, 6.000000)" fill="#D8D8D8">
                    <circle id="Oval" cx="6" cy="6" r="6"></circle>
                </g>
                <g>
                    <circle id="Oval" stroke="#FFFFFF" stroke-width="4" fill="#B4B4B4" cx="78" cy="12" r="12"></circle>
                    <rect id="Rectangle" fill="#00C9FF" x="0" y="32" width="90" height="22" rx="2"></rect>
                    <path d="M17.544,37.8 L17.544,43.72 C17.544,47.24 16.2,49.192 13,49.192 C9.864,49.192 8.52,47.24 8.52,43.72 L8.52,37.8 L10.808,37.8 L10.808,44.024 C10.808,46.168 11.672,47.192 13.032,47.192 C14.392,47.192 15.256,46.168 15.256,44.024 L15.256,37.8 L17.544,37.8 Z M19.864,40.584 L21.832,40.584 L22.008,41.736 C22.68,40.792 23.688,40.392 24.616,40.392 C25.528,40.392 26.328,40.824 26.856,41.496 C27.512,42.344 27.608,43.432 27.608,44.632 L27.608,49 L25.336,49 L25.336,44.744 C25.336,44.12 25.32,43.416 25.08,42.936 C24.872,42.52 24.456,42.344 23.96,42.344 C23.288,42.344 22.552,42.728 22.136,43.416 L22.136,49 L19.864,49 L19.864,40.584 Z M32.024,37 L32.024,49 L29.752,49 L29.752,37 L32.024,37 Z M36.504,49 L34.232,49 L34.232,40.584 L36.504,40.584 L36.504,49 Z M36.504,39.416 L34.232,39.416 L34.232,37.48 L36.504,37.48 L36.504,39.416 Z M51.416,49 L49.144,49 L49.144,44.744 C49.144,44.12 49.128,43.416 48.888,42.936 C48.68,42.52 48.28,42.344 47.768,42.344 C47.176,42.344 46.536,42.696 46.12,43.304 C46.168,43.72 46.2,44.168 46.2,44.632 L46.2,49 L43.928,49 L43.928,44.744 C43.928,44.12 43.928,43.4 43.672,42.92 C43.464,42.52 43.08,42.344 42.6,42.344 C42.04,42.344 41.4,42.696 40.984,43.176 L40.984,49 L38.712,49 L38.712,40.584 L40.68,40.584 L40.84,41.608 C41.512,40.76 42.44,40.392 43.272,40.392 C44.232,40.392 45.224,40.952 45.656,41.8 C46.44,40.68 47.544,40.392 48.456,40.392 C49.352,40.392 50.136,40.808 50.664,41.48 C51.32,42.328 51.416,43.416 51.416,44.632 L51.416,49 Z M55.832,49 L53.56,49 L53.56,40.584 L55.832,40.584 L55.832,49 Z M55.832,39.416 L53.56,39.416 L53.56,37.48 L55.832,37.48 L55.832,39.416 Z M62.552,42.472 L60.408,42.472 L60.408,45.736 C60.408,45.992 60.408,46.216 60.44,46.456 C60.504,46.952 60.696,47.256 61.176,47.256 C61.528,47.256 61.8,47.16 62.088,47.016 L62.792,48.696 C62.248,49.016 61.448,49.192 60.792,49.192 C59.48,49.192 58.6,48.472 58.296,47.384 C58.168,46.968 58.136,46.472 58.136,45.976 L58.136,42.472 L57.128,42.472 L57.128,40.584 L58.136,40.584 L58.488,38.728 L60.408,38.728 L60.408,40.584 L62.552,40.584 L62.552,42.472 Z M71.736,45.352 L65.816,45.352 C65.976,46.504 66.728,47.368 67.928,47.368 C69.016,47.368 69.576,46.92 70.12,46.12 L71.608,47.128 C70.648,48.52 69.576,49.192 67.768,49.192 C65.224,49.192 63.512,47.416 63.512,44.888 C63.512,42.344 65.368,40.392 67.784,40.392 C70.12,40.392 71.848,42.04 71.848,44.28 C71.848,44.616 71.8,45.016 71.736,45.352 Z M65.928,43.8 L69.528,43.8 C69.48,42.792 68.776,42.168 67.848,42.168 C66.76,42.168 66.168,42.856 65.928,43.8 Z M81.592,49 L79.624,49 L79.432,47.96 C78.84,48.888 77.704,49.192 76.84,49.192 C74.616,49.192 72.92,47.208 72.92,44.76 C72.92,42.392 74.584,40.392 76.872,40.392 C77.672,40.392 78.68,40.68 79.32,41.4 L79.32,37 L81.592,37 L81.592,49 Z M79.32,46.136 L79.32,43.256 C78.744,42.584 78.072,42.344 77.368,42.344 C75.912,42.344 75.24,43.64 75.24,44.824 C75.24,46.056 76.04,47.24 77.336,47.24 C78.056,47.24 78.824,46.968 79.32,46.136 Z" id="Unlimited" fill="#FFFFFF" fill-rule="nonzero"></path>
                </g>
            </g>
            <path d="M6.5,27.888 C8.3,27.888 9.32,29.46 9.32,32.016 C9.32,34.572 8.3,36.144 6.5,36.144 C4.7,36.144 3.68,34.572 3.68,32.016 C3.68,29.46 4.7,27.888 6.5,27.888 Z M6.5,28.92 C5.444,28.92 4.832,29.94 4.832,32.016 C4.832,34.092 5.444,35.112 6.5,35.112 C7.556,35.112 8.168,34.092 8.168,32.016 C8.168,29.94 7.556,28.92 6.5,28.92 Z" id="0" fill="#999999" fill-rule="nonzero"></path>
        </g>
    </g>
</svg>