<?xml version="1.0" encoding="UTF-8"?>
<svg width="311px" height="323px" viewBox="0 0 311 323" version="1.1" xmlns="http://www.w3.org/2000/svg" xmlns:xlink="http://www.w3.org/1999/xlink">
    <!-- Generator: Sketch 53.2 (72643) - https://sketchapp.com -->
    <title>Group 5</title>
    <desc>Created with Sketch.</desc>
    <g id="mock-up" stroke="none" stroke-width="1" fill="none" fill-rule="evenodd">
        <g id="_m-checkout_select-number_new" transform="translate(-52.000000, -495.000000)">
            <g id="Page"></g>
            <g id="Group-5" transform="translate(52.000000, 495.000000)">
                <g id="sim1" transform="translate(0.000000, 65.000000)">
                    <path d="M227.684102,1.5 C226.696225,3.87306616 224.356684,5.5 221.68211,5.5 L191.68211,5.5 C189.007536,5.5 186.667995,3.87306616 185.680118,1.5 L12,1.5 C6.20101013,1.5 1.5,6.20101013 1.5,12 L1.5,52.5189448 C4.85622386,52.7742573 7.5,55.5783851 7.5,59 L7.5,129 C7.5,132.421615 4.85622386,135.225743 1.5,135.481055 L1.5,176 C1.5,181.79899 6.20101013,186.5 12,186.5 L299,186.5 C304.79899,186.5 309.5,181.79899 309.5,176 L309.5,48.773372 L260.013172,1.5 L227.684102,1.5 Z" id="Combined-Shape" stroke="#00C9FF" stroke-width="3"></path>
                    <rect id="Rectangle-5" fill="#00C9FF" x="30" y="83" width="251" height="32"></rect>
                </g>
                <g id="67896445-67896445-61" transform="translate(65.894000, 0.784000)" fill-rule="nonzero">
                    <path d="M61.95,8.52651283e-14 L62.558,1.344 C60.606,2.224 59.022,3.408 58.462,5.472 C59.102,4.832 59.902,4.496 60.862,4.496 C62.734,4.496 63.982,6.032 63.982,7.92 C63.982,9.888 62.558,11.408 60.606,11.408 C58.158,11.408 56.718,9.392 56.718,7.168 C56.718,3.776 59.07,1.168 61.95,8.52651283e-14 Z M60.542,5.84 C59.598,5.84 58.686,6.352 58.238,7.184 C58.238,8.656 58.862,10.064 60.478,10.064 C61.694,10.064 62.446,9.104 62.446,7.888 C62.446,6.704 61.726,5.84 60.542,5.84 Z M71.534,0.592 L71.534,1.696 C70.222,4.432 68.27,8.8 67.118,11.568 L65.726,10.944 C67.15,7.584 69.006,3.808 69.87,1.968 L64.782,1.968 L64.782,0.592 L71.534,0.592 Z M76.35,11.408 C74.206,11.408 72.75,10.032 72.75,8.288 C72.75,7.024 73.39,6.16 74.398,5.616 C73.582,5.136 73.07,4.448 73.07,3.312 C73.07,1.696 74.382,0.4 76.35,0.4 C78.318,0.4 79.63,1.696 79.63,3.312 C79.63,4.448 79.118,5.136 78.302,5.616 C79.31,6.16 79.95,7.024 79.95,8.288 C79.95,10.032 78.494,11.408 76.35,11.408 Z M76.35,6.368 C75.214,6.368 74.286,7.2 74.286,8.224 C74.286,9.296 75.214,10.064 76.35,10.064 C77.486,10.064 78.414,9.296 78.414,8.224 C78.414,7.2 77.486,6.368 76.35,6.368 Z M76.35,1.744 C75.374,1.744 74.574,2.416 74.574,3.376 C74.574,4.288 75.374,5.024 76.35,5.024 C77.326,5.024 78.126,4.288 78.126,3.376 C78.126,2.416 77.326,1.744 76.35,1.744 Z M83.518,11.808 L82.91,10.464 C84.862,9.584 86.446,8.4 87.006,6.336 C86.366,6.976 85.566,7.312 84.606,7.312 C82.734,7.312 81.486,5.776 81.486,3.888 C81.486,1.92 82.91,0.4 84.862,0.4 C87.31,0.4 88.75,2.416 88.75,4.64 C88.75,8.032 86.398,10.64 83.518,11.808 Z M84.926,5.968 C85.87,5.968 86.782,5.456 87.23,4.624 C87.23,3.152 86.606,1.744 84.99,1.744 C83.774,1.744 83.022,2.704 83.022,3.92 C83.022,5.104 83.742,5.968 84.926,5.968 Z M95.262,8.52651283e-14 L95.87,1.344 C93.918,2.224 92.334,3.408 91.774,5.472 C92.414,4.832 93.214,4.496 94.174,4.496 C96.046,4.496 97.294,6.032 97.294,7.92 C97.294,9.888 95.87,11.408 93.918,11.408 C91.47,11.408 90.03,9.392 90.03,7.168 C90.03,3.776 92.382,1.168 95.262,8.52651283e-14 Z M93.854,5.84 C92.91,5.84 91.998,6.352 91.55,7.184 C91.55,8.656 92.174,10.064 93.79,10.064 C95.006,10.064 95.758,9.104 95.758,7.888 C95.758,6.704 95.038,5.84 93.854,5.84 Z M104.622,11.216 L103.15,11.216 L103.15,8.544 L98.35,8.544 L98.35,6.928 C99.694,5.184 101.63,2.56 103.07,0.592 L104.622,0.592 L104.622,7.2 L106.206,7.2 L106.206,8.544 L104.622,8.544 L104.622,11.216 Z M99.95,7.2 L103.15,7.2 L103.15,2.704 C102.158,4.144 100.718,6.144 99.95,7.2 Z M113.23,11.216 L111.758,11.216 L111.758,8.544 L106.958,8.544 L106.958,6.928 C108.302,5.184 110.238,2.56 111.678,0.592 L113.23,0.592 L113.23,7.2 L114.814,7.2 L114.814,8.544 L113.23,8.544 L113.23,11.216 Z M108.558,7.2 L111.758,7.2 L111.758,2.704 C110.766,4.144 109.326,6.144 108.558,7.2 Z M122.078,0.592 L122.078,1.936 L118.03,1.936 C117.982,2.88 117.934,4.032 117.838,4.912 C118.318,4.688 118.878,4.608 119.406,4.608 C121.166,4.608 122.654,6.016 122.654,7.872 C122.654,9.888 121.182,11.408 119.118,11.408 C117.806,11.408 116.334,10.72 115.742,9.632 L116.942,8.96 C117.342,9.68 118.094,10.064 118.926,10.064 C120.302,10.064 121.118,9.104 121.118,7.92 C121.118,6.736 120.206,5.952 118.974,5.952 C118.35,5.952 117.774,6.16 117.326,6.624 L116.238,6.032 C116.398,4.464 116.526,2.128 116.606,0.592 L122.078,0.592 Z M55.036,22.196 L55.796,23.876 C53.356,24.976 51.376,26.456 50.676,29.036 C51.476,28.236 52.476,27.816 53.676,27.816 C56.016,27.816 57.576,29.736 57.576,32.096 C57.576,34.556 55.796,36.456 53.356,36.456 C50.296,36.456 48.496,33.936 48.496,31.156 C48.496,26.916 51.436,23.656 55.036,22.196 Z M53.276,29.496 C52.096,29.496 50.956,30.136 50.396,31.176 C50.396,33.016 51.176,34.776 53.196,34.776 C54.716,34.776 55.656,33.576 55.656,32.056 C55.656,30.576 54.756,29.496 53.276,29.496 Z M67.016,22.936 L67.016,24.316 C65.376,27.736 62.936,33.196 61.496,36.656 L59.756,35.876 C61.536,31.676 63.856,26.956 64.936,24.656 L58.576,24.656 L58.576,22.936 L67.016,22.936 Z M73.036,36.456 C70.356,36.456 68.536,34.736 68.536,32.556 C68.536,30.976 69.336,29.896 70.596,29.216 C69.576,28.616 68.936,27.756 68.936,26.336 C68.936,24.316 70.576,22.696 73.036,22.696 C75.496,22.696 77.136,24.316 77.136,26.336 C77.136,27.756 76.496,28.616 75.476,29.216 C76.736,29.896 77.536,30.976 77.536,32.556 C77.536,34.736 75.716,36.456 73.036,36.456 Z M73.036,30.156 C71.616,30.156 70.456,31.196 70.456,32.476 C70.456,33.816 71.616,34.776 73.036,34.776 C74.456,34.776 75.616,33.816 75.616,32.476 C75.616,31.196 74.456,30.156 73.036,30.156 Z M73.036,24.376 C71.816,24.376 70.816,25.216 70.816,26.416 C70.816,27.556 71.816,28.476 73.036,28.476 C74.256,28.476 75.256,27.556 75.256,26.416 C75.256,25.216 74.256,24.376 73.036,24.376 Z M81.996,36.956 L81.236,35.276 C83.676,34.176 85.656,32.696 86.356,30.116 C85.556,30.916 84.556,31.336 83.356,31.336 C81.016,31.336 79.456,29.416 79.456,27.056 C79.456,24.596 81.236,22.696 83.676,22.696 C86.736,22.696 88.536,25.216 88.536,27.996 C88.536,32.236 85.596,35.496 81.996,36.956 Z M83.756,29.656 C84.936,29.656 86.076,29.016 86.636,27.976 C86.636,26.136 85.856,24.376 83.836,24.376 C82.316,24.376 81.376,25.576 81.376,27.096 C81.376,28.576 82.276,29.656 83.756,29.656 Z M96.676,22.196 L97.436,23.876 C94.996,24.976 93.016,26.456 92.316,29.036 C93.116,28.236 94.116,27.816 95.316,27.816 C97.656,27.816 99.216,29.736 99.216,32.096 C99.216,34.556 97.436,36.456 94.996,36.456 C91.936,36.456 90.136,33.936 90.136,31.156 C90.136,26.916 93.076,23.656 96.676,22.196 Z M94.916,29.496 C93.736,29.496 92.596,30.136 92.036,31.176 C92.036,33.016 92.816,34.776 94.836,34.776 C96.356,34.776 97.296,33.576 97.296,32.056 C97.296,30.576 96.396,29.496 94.916,29.496 Z M108.376,36.216 L106.536,36.216 L106.536,32.876 L100.536,32.876 L100.536,30.856 C102.216,28.676 104.636,25.396 106.436,22.936 L108.376,22.936 L108.376,31.196 L110.356,31.196 L110.356,32.876 L108.376,32.876 L108.376,36.216 Z M102.536,31.196 L106.536,31.196 L106.536,25.576 C105.296,27.376 103.496,29.876 102.536,31.196 Z M119.136,36.216 L117.296,36.216 L117.296,32.876 L111.296,32.876 L111.296,30.856 C112.976,28.676 115.396,25.396 117.196,22.936 L119.136,22.936 L119.136,31.196 L121.116,31.196 L121.116,32.876 L119.136,32.876 L119.136,36.216 Z M113.296,31.196 L117.296,31.196 L117.296,25.576 C116.056,27.376 114.256,29.876 113.296,31.196 Z M130.196,22.936 L130.196,24.616 L125.136,24.616 C125.076,25.796 125.016,27.236 124.896,28.336 C125.496,28.056 126.196,27.956 126.856,27.956 C129.056,27.956 130.916,29.716 130.916,32.036 C130.916,34.556 129.076,36.456 126.496,36.456 C124.856,36.456 123.016,35.596 122.276,34.236 L123.776,33.396 C124.276,34.296 125.216,34.776 126.256,34.776 C127.976,34.776 128.996,33.576 128.996,32.096 C128.996,30.616 127.856,29.636 126.316,29.636 C125.536,29.636 124.816,29.896 124.256,30.476 L122.896,29.736 C123.096,27.776 123.256,24.856 123.356,22.936 L130.196,22.936 Z M35.276,52.186 L36.416,54.706 C32.756,56.356 29.786,58.576 28.736,62.446 C29.936,61.246 31.436,60.616 33.236,60.616 C36.746,60.616 39.086,63.496 39.086,67.036 C39.086,70.726 36.416,73.576 32.756,73.576 C28.166,73.576 25.466,69.796 25.466,65.626 C25.466,59.266 29.876,54.376 35.276,52.186 Z M32.636,63.136 C30.866,63.136 29.156,64.096 28.316,65.656 C28.316,68.416 29.486,71.056 32.516,71.056 C34.796,71.056 36.206,69.256 36.206,66.976 C36.206,64.756 34.856,63.136 32.636,63.136 Z M47.756,73.216 L44.936,73.216 L44.936,56.716 C44.006,57.196 42.776,57.676 41.936,58.036 L41.936,55.396 C43.136,54.796 44.606,54.046 45.926,53.296 L47.756,53.296 L47.756,73.216 Z M65.006,73.216 L52.346,73.216 L52.346,70.666 C54.656,68.236 57.476,65.206 59.366,62.446 C60.176,61.276 61.196,59.626 61.196,58.216 C61.196,56.446 59.546,55.456 57.926,55.456 C56.276,55.456 54.806,56.716 54.776,58.546 L51.986,57.976 C52.226,54.946 55.226,52.936 58.046,52.936 C61.166,52.936 64.106,55.036 64.106,58.216 C64.106,60.046 63.116,62.086 61.976,63.706 C60.266,66.136 58.196,68.506 56.126,70.696 L65.006,70.696 L65.006,73.216 Z M80.276,73.216 L67.616,73.216 L67.616,70.666 C69.926,68.236 72.746,65.206 74.636,62.446 C75.446,61.276 76.466,59.626 76.466,58.216 C76.466,56.446 74.816,55.456 73.196,55.456 C71.546,55.456 70.076,56.716 70.046,58.546 L67.256,57.976 C67.496,54.946 70.496,52.936 73.316,52.936 C76.436,52.936 79.376,55.036 79.376,58.216 C79.376,60.046 78.386,62.086 77.246,63.706 C75.536,66.136 73.466,68.506 71.396,70.696 L80.276,70.696 L80.276,73.216 Z M85.766,64.456 L85.766,61.576 C87.026,61.546 87.836,61.486 88.616,61.276 C90.176,60.856 91.286,59.746 91.286,58.306 C91.286,56.656 89.906,55.456 87.956,55.456 C86.486,55.456 85.166,56.206 84.686,57.616 L82.286,56.626 C83.066,54.466 85.196,52.936 88.016,52.936 C91.676,52.936 94.166,55.036 94.166,58.276 C94.166,60.076 93.176,61.726 91.676,62.506 C93.716,63.196 95.186,65.116 95.186,67.426 C95.186,71.296 92.156,73.576 88.526,73.576 C86.036,73.576 83.396,72.496 82.196,70.246 L84.416,69.016 C85.256,70.456 86.756,71.056 88.316,71.056 C90.386,71.056 92.306,69.976 92.306,67.666 C92.306,65.656 90.416,64.246 88.076,64.246 C87.386,64.246 86.696,64.246 85.766,64.456 Z M109.256,73.216 L106.496,73.216 L106.496,68.206 L97.496,68.206 L97.496,65.176 C100.016,61.906 103.646,56.986 106.346,53.296 L109.256,53.296 L109.256,65.686 L112.226,65.686 L112.226,68.206 L109.256,68.206 L109.256,73.216 Z M100.496,65.686 L106.496,65.686 L106.496,57.256 C104.636,59.956 101.936,63.706 100.496,65.686 Z M125.846,53.296 L125.846,55.816 L118.256,55.816 C118.166,57.586 118.076,59.746 117.896,61.396 C118.796,60.976 119.846,60.826 120.836,60.826 C124.136,60.826 126.926,63.466 126.926,66.946 C126.926,70.726 124.166,73.576 120.296,73.576 C117.836,73.576 115.076,72.286 113.966,70.246 L116.216,68.986 C116.966,70.336 118.376,71.056 119.936,71.056 C122.516,71.056 124.046,69.256 124.046,67.036 C124.046,64.816 122.336,63.346 120.026,63.346 C118.856,63.346 117.776,63.736 116.936,64.606 L114.896,63.496 C115.196,60.556 115.436,56.176 115.586,53.296 L125.846,53.296 Z M140.786,53.296 L140.786,55.366 C138.326,60.496 134.666,68.686 132.506,73.876 L129.896,72.706 C132.566,66.406 136.046,59.326 137.666,55.876 L128.126,55.876 L128.126,53.296 L140.786,53.296 Z M154.346,53.296 L154.346,55.366 C151.886,60.496 148.226,68.686 146.066,73.876 L143.456,72.706 C146.126,66.406 149.606,59.326 151.226,55.876 L141.686,55.876 L141.686,53.296 L154.346,53.296 Z" id="6789644567896445612234577" fill="#DADADA"></path>
                    <path d="M26.408,93.98 L27.776,97.004 C23.384,98.984 19.82,101.648 18.56,106.292 C20,104.852 21.8,104.096 23.96,104.096 C28.172,104.096 30.98,107.552 30.98,111.8 C30.98,116.228 27.776,119.648 23.384,119.648 C17.876,119.648 14.636,115.112 14.636,110.108 C14.636,102.476 19.928,96.608 26.408,93.98 Z M23.24,107.12 C21.116,107.12 19.064,108.272 18.056,110.144 C18.056,113.456 19.46,116.624 23.096,116.624 C25.832,116.624 27.524,114.464 27.524,111.728 C27.524,109.064 25.904,107.12 23.24,107.12 Z M38.432,120.548 L37.064,117.524 C41.456,115.544 45.02,112.88 46.28,108.236 C44.84,109.676 43.04,110.432 40.88,110.432 C36.668,110.432 33.86,106.976 33.86,102.728 C33.86,98.3 37.064,94.88 41.456,94.88 C46.964,94.88 50.204,99.416 50.204,104.42 C50.204,112.052 44.912,117.92 38.432,120.548 Z M41.6,107.408 C43.724,107.408 45.776,106.256 46.784,104.384 C46.784,101.072 45.38,97.904 41.744,97.904 C39.008,97.904 37.316,100.064 37.316,102.8 C37.316,105.464 38.936,107.408 41.6,107.408 Z M61.76,119.648 C56.936,119.648 53.66,116.552 53.66,112.628 C53.66,109.784 55.1,107.84 57.368,106.616 C55.532,105.536 54.38,103.988 54.38,101.432 C54.38,97.796 57.332,94.88 61.76,94.88 C66.188,94.88 69.14,97.796 69.14,101.432 C69.14,103.988 67.988,105.536 66.152,106.616 C68.42,107.84 69.86,109.784 69.86,112.628 C69.86,116.552 66.584,119.648 61.76,119.648 Z M61.76,108.308 C59.204,108.308 57.116,110.18 57.116,112.484 C57.116,114.896 59.204,116.624 61.76,116.624 C64.316,116.624 66.404,114.896 66.404,112.484 C66.404,110.18 64.316,108.308 61.76,108.308 Z M61.76,97.904 C59.564,97.904 57.764,99.416 57.764,101.576 C57.764,103.628 59.564,105.284 61.76,105.284 C63.956,105.284 65.756,103.628 65.756,101.576 C65.756,99.416 63.956,97.904 61.76,97.904 Z M77.42,108.704 L77.42,105.248 C78.932,105.212 79.904,105.14 80.84,104.888 C82.712,104.384 84.044,103.052 84.044,101.324 C84.044,99.344 82.388,97.904 80.048,97.904 C78.284,97.904 76.7,98.804 76.124,100.496 L73.244,99.308 C74.18,96.716 76.736,94.88 80.12,94.88 C84.512,94.88 87.5,97.4 87.5,101.288 C87.5,103.448 86.312,105.428 84.512,106.364 C86.96,107.192 88.724,109.496 88.724,112.268 C88.724,116.912 85.088,119.648 80.732,119.648 C77.744,119.648 74.576,118.352 73.136,115.652 L75.8,114.176 C76.808,115.904 78.608,116.624 80.48,116.624 C82.964,116.624 85.268,115.328 85.268,112.556 C85.268,110.144 83,108.452 80.192,108.452 C79.364,108.452 78.536,108.452 77.42,108.704 Z M107.84,119.216 L92.648,119.216 L92.648,116.156 C95.42,113.24 98.804,109.604 101.072,106.292 C102.044,104.888 103.268,102.908 103.268,101.216 C103.268,99.092 101.288,97.904 99.344,97.904 C97.364,97.904 95.6,99.416 95.564,101.612 L92.216,100.928 C92.504,97.292 96.104,94.88 99.488,94.88 C103.232,94.88 106.76,97.4 106.76,101.216 C106.76,103.412 105.572,105.86 104.204,107.804 C102.152,110.72 99.668,113.564 97.184,116.192 L107.84,116.192 L107.84,119.216 Z M114.428,108.704 L114.428,105.248 C115.94,105.212 116.912,105.14 117.848,104.888 C119.72,104.384 121.052,103.052 121.052,101.324 C121.052,99.344 119.396,97.904 117.056,97.904 C115.292,97.904 113.708,98.804 113.132,100.496 L110.252,99.308 C111.188,96.716 113.744,94.88 117.128,94.88 C121.52,94.88 124.508,97.4 124.508,101.288 C124.508,103.448 123.32,105.428 121.52,106.364 C123.968,107.192 125.732,109.496 125.732,112.268 C125.732,116.912 122.096,119.648 117.74,119.648 C114.752,119.648 111.584,118.352 110.144,115.652 L112.808,114.176 C113.816,115.904 115.616,116.624 117.488,116.624 C119.972,116.624 122.276,115.328 122.276,112.556 C122.276,110.144 120.008,108.452 117.2,108.452 C116.372,108.452 115.544,108.452 114.428,108.704 Z M133.58,120.548 L132.212,117.524 C136.604,115.544 140.168,112.88 141.428,108.236 C139.988,109.676 138.188,110.432 136.028,110.432 C131.816,110.432 129.008,106.976 129.008,102.728 C129.008,98.3 132.212,94.88 136.604,94.88 C142.112,94.88 145.352,99.416 145.352,104.42 C145.352,112.052 140.06,117.92 133.58,120.548 Z M136.748,107.408 C138.872,107.408 140.924,106.256 141.932,104.384 C141.932,101.072 140.528,97.904 136.892,97.904 C134.156,97.904 132.464,100.064 132.464,102.8 C132.464,105.464 134.084,107.408 136.748,107.408 Z M152.804,120.548 L151.436,117.524 C155.828,115.544 159.392,112.88 160.652,108.236 C159.212,109.676 157.412,110.432 155.252,110.432 C151.04,110.432 148.232,106.976 148.232,102.728 C148.232,98.3 151.436,94.88 155.828,94.88 C161.336,94.88 164.576,99.416 164.576,104.42 C164.576,112.052 159.284,117.92 152.804,120.548 Z M155.972,107.408 C158.096,107.408 160.148,106.256 161.156,104.384 C161.156,101.072 159.752,97.904 156.116,97.904 C153.38,97.904 151.688,100.064 151.688,102.8 C151.688,105.464 153.308,107.408 155.972,107.408 Z" id="69832399" fill="#B4B4B4"></path>
                    <path d="M14.388,145.372 L16.06,149.068 C10.692,151.488 6.336,154.744 4.796,160.42 C6.556,158.66 8.756,157.736 11.396,157.736 C16.544,157.736 19.976,161.96 19.976,167.152 C19.976,172.564 16.06,176.744 10.692,176.744 C3.96,176.744 1.26476607e-12,171.2 1.26476607e-12,165.084 C1.26476607e-12,155.756 6.468,148.584 14.388,145.372 Z M10.516,161.432 C7.92,161.432 5.412,162.84 4.18,165.128 C4.18,169.176 5.896,173.048 10.34,173.048 C13.684,173.048 15.752,170.408 15.752,167.064 C15.752,163.808 13.772,161.432 10.516,161.432 Z M40.744,147 L40.744,150.036 C37.136,157.56 31.768,169.572 28.6,177.184 L24.772,175.468 C28.688,166.228 33.792,155.844 36.168,150.784 L22.176,150.784 L22.176,147 L40.744,147 Z M53.988,176.744 C48.092,176.744 44.088,172.96 44.088,168.164 C44.088,164.688 45.848,162.312 48.62,160.816 C46.376,159.496 44.968,157.604 44.968,154.48 C44.968,150.036 48.576,146.472 53.988,146.472 C59.4,146.472 63.008,150.036 63.008,154.48 C63.008,157.604 61.6,159.496 59.356,160.816 C62.128,162.312 63.888,164.688 63.888,168.164 C63.888,172.96 59.884,176.744 53.988,176.744 Z M53.988,162.884 C50.864,162.884 48.312,165.172 48.312,167.988 C48.312,170.936 50.864,173.048 53.988,173.048 C57.112,173.048 59.664,170.936 59.664,167.988 C59.664,165.172 57.112,162.884 53.988,162.884 Z M53.988,150.168 C51.304,150.168 49.104,152.016 49.104,154.656 C49.104,157.164 51.304,159.188 53.988,159.188 C56.672,159.188 58.872,157.164 58.872,154.656 C58.872,152.016 56.672,150.168 53.988,150.168 Z M73.128,163.368 L73.128,159.144 C74.976,159.1 76.164,159.012 77.308,158.704 C79.596,158.088 81.224,156.46 81.224,154.348 C81.224,151.928 79.2,150.168 76.34,150.168 C74.184,150.168 72.248,151.268 71.544,153.336 L68.024,151.884 C69.168,148.716 72.292,146.472 76.428,146.472 C81.796,146.472 85.448,149.552 85.448,154.304 C85.448,156.944 83.996,159.364 81.796,160.508 C84.788,161.52 86.944,164.336 86.944,167.724 C86.944,173.4 82.5,176.744 77.176,176.744 C73.524,176.744 69.652,175.16 67.892,171.86 L71.148,170.056 C72.38,172.168 74.58,173.048 76.868,173.048 C79.904,173.048 82.72,171.464 82.72,168.076 C82.72,165.128 79.948,163.06 76.516,163.06 C75.504,163.06 74.492,163.06 73.128,163.368 Z M96.536,177.844 L94.864,174.148 C100.232,171.728 104.588,168.472 106.128,162.796 C104.368,164.556 102.168,165.48 99.528,165.48 C94.38,165.48 90.948,161.256 90.948,156.064 C90.948,150.652 94.864,146.472 100.232,146.472 C106.964,146.472 110.924,152.016 110.924,158.132 C110.924,167.46 104.456,174.632 96.536,177.844 Z M100.408,161.784 C103.004,161.784 105.512,160.376 106.744,158.088 C106.744,154.04 105.028,150.168 100.584,150.168 C97.24,150.168 95.172,152.808 95.172,156.152 C95.172,159.408 97.152,161.784 100.408,161.784 Z M125.048,176.744 C119.152,176.744 115.148,172.96 115.148,168.164 C115.148,164.688 116.908,162.312 119.68,160.816 C117.436,159.496 116.028,157.604 116.028,154.48 C116.028,150.036 119.636,146.472 125.048,146.472 C130.46,146.472 134.068,150.036 134.068,154.48 C134.068,157.604 132.66,159.496 130.416,160.816 C133.188,162.312 134.948,164.688 134.948,168.164 C134.948,172.96 130.944,176.744 125.048,176.744 Z M125.048,162.884 C121.924,162.884 119.372,165.172 119.372,167.988 C119.372,170.936 121.924,173.048 125.048,173.048 C128.172,173.048 130.724,170.936 130.724,167.988 C130.724,165.172 128.172,162.884 125.048,162.884 Z M125.048,150.168 C122.364,150.168 120.164,152.016 120.164,154.656 C120.164,157.164 122.364,159.188 125.048,159.188 C127.732,159.188 129.932,157.164 129.932,154.656 C129.932,152.016 127.732,150.168 125.048,150.168 Z M156.42,147 L156.42,150.036 C152.812,157.56 147.444,169.572 144.276,177.184 L140.448,175.468 C144.364,166.228 149.468,155.844 151.844,150.784 L137.852,150.784 L137.852,147 L156.42,147 Z M175.692,176.216 L171.644,176.216 L171.644,168.868 L158.444,168.868 L158.444,164.424 C162.14,159.628 167.464,152.412 171.424,147 L175.692,147 L175.692,165.172 L180.048,165.172 L180.048,168.868 L175.692,168.868 L175.692,176.216 Z M162.844,165.172 L171.644,165.172 L171.644,152.808 C168.916,156.768 164.956,162.268 162.844,165.172 Z" id="67839874" fill="#000000"></path>
                    <path d="M25.742,201.98 L27.11,205.004 C22.718,206.984 19.154,209.648 17.894,214.292 C19.334,212.852 21.134,212.096 23.294,212.096 C27.506,212.096 30.314,215.552 30.314,219.8 C30.314,224.228 27.11,227.648 22.718,227.648 C17.21,227.648 13.97,223.112 13.97,218.108 C13.97,210.476 19.262,204.608 25.742,201.98 Z M22.574,215.12 C20.45,215.12 18.398,216.272 17.39,218.144 C17.39,221.456 18.794,224.624 22.43,224.624 C25.166,224.624 26.858,222.464 26.858,219.728 C26.858,217.064 25.238,215.12 22.574,215.12 Z M37.766,228.548 L36.398,225.524 C40.79,223.544 44.354,220.88 45.614,216.236 C44.174,217.676 42.374,218.432 40.214,218.432 C36.002,218.432 33.194,214.976 33.194,210.728 C33.194,206.3 36.398,202.88 40.79,202.88 C46.298,202.88 49.538,207.416 49.538,212.42 C49.538,220.052 44.246,225.92 37.766,228.548 Z M40.934,215.408 C43.058,215.408 45.11,214.256 46.118,212.384 C46.118,209.072 44.714,205.904 41.078,205.904 C38.342,205.904 36.65,208.064 36.65,210.8 C36.65,213.464 38.27,215.408 40.934,215.408 Z M61.094,227.648 C56.27,227.648 52.994,224.552 52.994,220.628 C52.994,217.784 54.434,215.84 56.702,214.616 C54.866,213.536 53.714,211.988 53.714,209.432 C53.714,205.796 56.666,202.88 61.094,202.88 C65.522,202.88 68.474,205.796 68.474,209.432 C68.474,211.988 67.322,213.536 65.486,214.616 C67.754,215.84 69.194,217.784 69.194,220.628 C69.194,224.552 65.918,227.648 61.094,227.648 Z M61.094,216.308 C58.538,216.308 56.45,218.18 56.45,220.484 C56.45,222.896 58.538,224.624 61.094,224.624 C63.65,224.624 65.738,222.896 65.738,220.484 C65.738,218.18 63.65,216.308 61.094,216.308 Z M61.094,205.904 C58.898,205.904 57.098,207.416 57.098,209.576 C57.098,211.628 58.898,213.284 61.094,213.284 C63.29,213.284 65.09,211.628 65.09,209.576 C65.09,207.416 63.29,205.904 61.094,205.904 Z M76.754,216.704 L76.754,213.248 C78.266,213.212 79.238,213.14 80.174,212.888 C82.046,212.384 83.378,211.052 83.378,209.324 C83.378,207.344 81.722,205.904 79.382,205.904 C77.618,205.904 76.034,206.804 75.458,208.496 L72.578,207.308 C73.514,204.716 76.07,202.88 79.454,202.88 C83.846,202.88 86.834,205.4 86.834,209.288 C86.834,211.448 85.646,213.428 83.846,214.364 C86.294,215.192 88.058,217.496 88.058,220.268 C88.058,224.912 84.422,227.648 80.066,227.648 C77.078,227.648 73.91,226.352 72.47,223.652 L75.134,222.176 C76.142,223.904 77.942,224.624 79.814,224.624 C82.298,224.624 84.602,223.328 84.602,220.556 C84.602,218.144 82.334,216.452 79.526,216.452 C78.698,216.452 77.87,216.452 76.754,216.704 Z M105.482,203.312 L105.482,206.336 L96.374,206.336 C96.266,208.46 96.158,211.052 95.942,213.032 C97.022,212.528 98.282,212.348 99.47,212.348 C103.43,212.348 106.778,215.516 106.778,219.692 C106.778,224.228 103.466,227.648 98.822,227.648 C95.87,227.648 92.558,226.1 91.226,223.652 L93.926,222.14 C94.826,223.76 96.518,224.624 98.39,224.624 C101.486,224.624 103.322,222.464 103.322,219.8 C103.322,217.136 101.27,215.372 98.498,215.372 C97.094,215.372 95.798,215.84 94.79,216.884 L92.342,215.552 C92.702,212.024 92.99,206.768 93.17,203.312 L105.482,203.312 Z M113.87,228.548 L112.502,225.524 C116.894,223.544 120.458,220.88 121.718,216.236 C120.278,217.676 118.478,218.432 116.318,218.432 C112.106,218.432 109.298,214.976 109.298,210.728 C109.298,206.3 112.502,202.88 116.894,202.88 C122.402,202.88 125.642,207.416 125.642,212.42 C125.642,220.052 120.35,225.92 113.87,228.548 Z M117.038,215.408 C119.162,215.408 121.214,214.256 122.222,212.384 C122.222,209.072 120.818,205.904 117.182,205.904 C114.446,205.904 112.754,208.064 112.754,210.8 C112.754,213.464 114.374,215.408 117.038,215.408 Z M137.198,227.648 C132.374,227.648 129.098,224.552 129.098,220.628 C129.098,217.784 130.538,215.84 132.806,214.616 C130.97,213.536 129.818,211.988 129.818,209.432 C129.818,205.796 132.77,202.88 137.198,202.88 C141.626,202.88 144.578,205.796 144.578,209.432 C144.578,211.988 143.426,213.536 141.59,214.616 C143.858,215.84 145.298,217.784 145.298,220.628 C145.298,224.552 142.022,227.648 137.198,227.648 Z M137.198,216.308 C134.642,216.308 132.554,218.18 132.554,220.484 C132.554,222.896 134.642,224.624 137.198,224.624 C139.754,224.624 141.842,222.896 141.842,220.484 C141.842,218.18 139.754,216.308 137.198,216.308 Z M137.198,205.904 C135.002,205.904 133.202,207.416 133.202,209.576 C133.202,211.628 135.002,213.284 137.198,213.284 C139.394,213.284 141.194,211.628 141.194,209.576 C141.194,207.416 139.394,205.904 137.198,205.904 Z M162.362,227.216 L159.05,227.216 L159.05,221.204 L148.25,221.204 L148.25,217.568 C151.274,213.644 155.63,207.74 158.87,203.312 L162.362,203.312 L162.362,218.18 L165.926,218.18 L165.926,221.204 L162.362,221.204 L162.362,227.216 Z M151.85,218.18 L159.05,218.18 L159.05,208.064 C156.818,211.304 153.578,215.804 151.85,218.18 Z" id="69835984" fill="#B4B4B4"></path>
                    <path d="M34.061,270.326 L32.921,267.806 C36.581,266.156 39.551,263.936 40.601,260.066 C39.401,261.266 37.901,261.896 36.101,261.896 C32.591,261.896 30.251,259.016 30.251,255.476 C30.251,251.786 32.921,248.936 36.581,248.936 C41.171,248.936 43.871,252.716 43.871,256.886 C43.871,263.246 39.461,268.136 34.061,270.326 Z M36.701,259.376 C38.471,259.376 40.181,258.416 41.021,256.856 C41.021,254.096 39.851,251.456 36.821,251.456 C34.541,251.456 33.131,253.256 33.131,255.536 C33.131,257.756 34.481,259.376 36.701,259.376 Z M57.611,269.216 L54.851,269.216 L54.851,264.206 L45.851,264.206 L45.851,261.176 C48.371,257.906 52.001,252.986 54.701,249.296 L57.611,249.296 L57.611,261.686 L60.581,261.686 L60.581,264.206 L57.611,264.206 L57.611,269.216 Z M48.851,261.686 L54.851,261.686 L54.851,253.256 C52.991,255.956 50.291,259.706 48.851,261.686 Z M72.221,248.186 L73.361,250.706 C69.701,252.356 66.731,254.576 65.681,258.446 C66.881,257.246 68.381,256.616 70.181,256.616 C73.691,256.616 76.031,259.496 76.031,263.036 C76.031,266.726 73.361,269.576 69.701,269.576 C65.111,269.576 62.411,265.796 62.411,261.626 C62.411,255.266 66.821,250.376 72.221,248.186 Z M69.581,259.136 C67.811,259.136 66.101,260.096 65.261,261.656 C65.261,264.416 66.431,267.056 69.461,267.056 C71.741,267.056 73.151,265.256 73.151,262.976 C73.151,260.756 71.801,259.136 69.581,259.136 Z M90.221,249.296 L90.221,251.816 L82.631,251.816 C82.541,253.586 82.451,255.746 82.271,257.396 C83.171,256.976 84.221,256.826 85.211,256.826 C88.511,256.826 91.301,259.466 91.301,262.946 C91.301,266.726 88.541,269.576 84.671,269.576 C82.211,269.576 79.451,268.286 78.341,266.246 L80.591,264.986 C81.341,266.336 82.751,267.056 84.311,267.056 C86.891,267.056 88.421,265.256 88.421,263.036 C88.421,260.816 86.711,259.346 84.401,259.346 C83.231,259.346 82.151,259.736 81.311,260.606 L79.271,259.496 C79.571,256.556 79.811,252.176 79.961,249.296 L90.221,249.296 Z M105.161,249.296 L105.161,251.366 C102.701,256.496 99.041,264.686 96.881,269.876 L94.271,268.706 C96.941,262.406 100.421,255.326 102.041,251.876 L92.501,251.876 L92.501,249.296 L105.161,249.296 Z M110.381,260.456 L110.381,257.576 C111.641,257.546 112.451,257.486 113.231,257.276 C114.791,256.856 115.901,255.746 115.901,254.306 C115.901,252.656 114.521,251.456 112.571,251.456 C111.101,251.456 109.781,252.206 109.301,253.616 L106.901,252.626 C107.681,250.466 109.811,248.936 112.631,248.936 C116.291,248.936 118.781,251.036 118.781,254.276 C118.781,256.076 117.791,257.726 116.291,258.506 C118.331,259.196 119.801,261.116 119.801,263.426 C119.801,267.296 116.771,269.576 113.141,269.576 C110.651,269.576 108.011,268.496 106.811,266.246 L109.031,265.016 C109.871,266.456 111.371,267.056 112.931,267.056 C115.001,267.056 116.921,265.976 116.921,263.666 C116.921,261.656 115.031,260.246 112.691,260.246 C112.001,260.246 111.311,260.246 110.381,260.456 Z M134.291,249.296 L134.291,251.366 C131.831,256.496 128.171,264.686 126.011,269.876 L123.401,268.706 C126.071,262.406 129.551,255.326 131.171,251.876 L121.631,251.876 L121.631,249.296 L134.291,249.296 Z M149.291,269.216 L136.631,269.216 L136.631,266.666 C138.941,264.236 141.761,261.206 143.651,258.446 C144.461,257.276 145.481,255.626 145.481,254.216 C145.481,252.446 143.831,251.456 142.211,251.456 C140.561,251.456 139.091,252.716 139.061,254.546 L136.271,253.976 C136.511,250.946 139.511,248.936 142.331,248.936 C145.451,248.936 148.391,251.036 148.391,254.216 C148.391,256.046 147.401,258.086 146.261,259.706 C144.551,262.136 142.481,264.506 140.411,266.696 L149.291,266.696 L149.291,269.216 Z M51.036,298.956 L50.276,297.276 C52.716,296.176 54.696,294.696 55.396,292.116 C54.596,292.916 53.596,293.336 52.396,293.336 C50.056,293.336 48.496,291.416 48.496,289.056 C48.496,286.596 50.276,284.696 52.716,284.696 C55.776,284.696 57.576,287.216 57.576,289.996 C57.576,294.236 54.636,297.496 51.036,298.956 Z M52.796,291.656 C53.976,291.656 55.116,291.016 55.676,289.976 C55.676,288.136 54.896,286.376 52.876,286.376 C51.356,286.376 50.416,287.576 50.416,289.096 C50.416,290.576 51.316,291.656 52.796,291.656 Z M67.016,284.936 L67.016,286.316 C65.376,289.736 62.936,295.196 61.496,298.656 L59.756,297.876 C61.536,293.676 63.856,288.956 64.936,286.656 L58.576,286.656 L58.576,284.936 L67.016,284.936 Z M73.036,298.456 C70.356,298.456 68.536,296.736 68.536,294.556 C68.536,292.976 69.336,291.896 70.596,291.216 C69.576,290.616 68.936,289.756 68.936,288.336 C68.936,286.316 70.576,284.696 73.036,284.696 C75.496,284.696 77.136,286.316 77.136,288.336 C77.136,289.756 76.496,290.616 75.476,291.216 C76.736,291.896 77.536,292.976 77.536,294.556 C77.536,296.736 75.716,298.456 73.036,298.456 Z M73.036,292.156 C71.616,292.156 70.456,293.196 70.456,294.476 C70.456,295.816 71.616,296.776 73.036,296.776 C74.456,296.776 75.616,295.816 75.616,294.476 C75.616,293.196 74.456,292.156 73.036,292.156 Z M73.036,286.376 C71.816,286.376 70.816,287.216 70.816,288.416 C70.816,289.556 71.816,290.476 73.036,290.476 C74.256,290.476 75.256,289.556 75.256,288.416 C75.256,287.216 74.256,286.376 73.036,286.376 Z M81.996,298.956 L81.236,297.276 C83.676,296.176 85.656,294.696 86.356,292.116 C85.556,292.916 84.556,293.336 83.356,293.336 C81.016,293.336 79.456,291.416 79.456,289.056 C79.456,286.596 81.236,284.696 83.676,284.696 C86.736,284.696 88.536,287.216 88.536,289.996 C88.536,294.236 85.596,297.496 81.996,298.956 Z M83.756,291.656 C84.936,291.656 86.076,291.016 86.636,289.976 C86.636,288.136 85.856,286.376 83.836,286.376 C82.316,286.376 81.376,287.576 81.376,289.096 C81.376,290.576 82.276,291.656 83.756,291.656 Z M96.676,284.196 L97.436,285.876 C94.996,286.976 93.016,288.456 92.316,291.036 C93.116,290.236 94.116,289.816 95.316,289.816 C97.656,289.816 99.216,291.736 99.216,294.096 C99.216,296.556 97.436,298.456 94.996,298.456 C91.936,298.456 90.136,295.936 90.136,293.156 C90.136,288.916 93.076,285.656 96.676,284.196 Z M94.916,291.496 C93.736,291.496 92.596,292.136 92.036,293.176 C92.036,295.016 92.816,296.776 94.836,296.776 C96.356,296.776 97.296,295.576 97.296,294.056 C97.296,292.576 96.396,291.496 94.916,291.496 Z M108.376,298.216 L106.536,298.216 L106.536,294.876 L100.536,294.876 L100.536,292.856 C102.216,290.676 104.636,287.396 106.436,284.936 L108.376,284.936 L108.376,293.196 L110.356,293.196 L110.356,294.876 L108.376,294.876 L108.376,298.216 Z M102.536,293.196 L106.536,293.196 L106.536,287.576 C105.296,289.376 103.496,291.876 102.536,293.196 Z M119.136,298.216 L117.296,298.216 L117.296,294.876 L111.296,294.876 L111.296,292.856 C112.976,290.676 115.396,287.396 117.196,284.936 L119.136,284.936 L119.136,293.196 L121.116,293.196 L121.116,294.876 L119.136,294.876 L119.136,298.216 Z M113.296,293.196 L117.296,293.196 L117.296,287.576 C116.056,289.376 114.256,291.876 113.296,293.196 Z M130.196,284.936 L130.196,286.616 L125.136,286.616 C125.076,287.796 125.016,289.236 124.896,290.336 C125.496,290.056 126.196,289.956 126.856,289.956 C129.056,289.956 130.916,291.716 130.916,294.036 C130.916,296.556 129.076,298.456 126.496,298.456 C124.856,298.456 123.016,297.596 122.276,296.236 L123.776,295.396 C124.276,296.296 125.216,296.776 126.256,296.776 C127.976,296.776 128.996,295.576 128.996,294.096 C128.996,292.616 127.856,291.636 126.316,291.636 C125.536,291.636 124.816,291.896 124.256,292.476 L122.896,291.736 C123.096,289.776 123.256,286.856 123.356,284.936 L130.196,284.936 Z M58.75,321.808 L58.142,320.464 C60.094,319.584 61.678,318.4 62.238,316.336 C61.598,316.976 60.798,317.312 59.838,317.312 C57.966,317.312 56.718,315.776 56.718,313.888 C56.718,311.92 58.142,310.4 60.094,310.4 C62.542,310.4 63.982,312.416 63.982,314.64 C63.982,318.032 61.63,320.64 58.75,321.808 Z M60.158,315.968 C61.102,315.968 62.014,315.456 62.462,314.624 C62.462,313.152 61.838,311.744 60.222,311.744 C59.006,311.744 58.254,312.704 58.254,313.92 C58.254,315.104 58.974,315.968 60.158,315.968 Z M71.534,310.592 L71.534,311.696 C70.222,314.432 68.27,318.8 67.118,321.568 L65.726,320.944 C67.15,317.584 69.006,313.808 69.87,311.968 L64.782,311.968 L64.782,310.592 L71.534,310.592 Z M76.35,321.408 C74.206,321.408 72.75,320.032 72.75,318.288 C72.75,317.024 73.39,316.16 74.398,315.616 C73.582,315.136 73.07,314.448 73.07,313.312 C73.07,311.696 74.382,310.4 76.35,310.4 C78.318,310.4 79.63,311.696 79.63,313.312 C79.63,314.448 79.118,315.136 78.302,315.616 C79.31,316.16 79.95,317.024 79.95,318.288 C79.95,320.032 78.494,321.408 76.35,321.408 Z M76.35,316.368 C75.214,316.368 74.286,317.2 74.286,318.224 C74.286,319.296 75.214,320.064 76.35,320.064 C77.486,320.064 78.414,319.296 78.414,318.224 C78.414,317.2 77.486,316.368 76.35,316.368 Z M76.35,311.744 C75.374,311.744 74.574,312.416 74.574,313.376 C74.574,314.288 75.374,315.024 76.35,315.024 C77.326,315.024 78.126,314.288 78.126,313.376 C78.126,312.416 77.326,311.744 76.35,311.744 Z M83.518,321.808 L82.91,320.464 C84.862,319.584 86.446,318.4 87.006,316.336 C86.366,316.976 85.566,317.312 84.606,317.312 C82.734,317.312 81.486,315.776 81.486,313.888 C81.486,311.92 82.91,310.4 84.862,310.4 C87.31,310.4 88.75,312.416 88.75,314.64 C88.75,318.032 86.398,320.64 83.518,321.808 Z M84.926,315.968 C85.87,315.968 86.782,315.456 87.23,314.624 C87.23,313.152 86.606,311.744 84.99,311.744 C83.774,311.744 83.022,312.704 83.022,313.92 C83.022,315.104 83.742,315.968 84.926,315.968 Z M95.262,310 L95.87,311.344 C93.918,312.224 92.334,313.408 91.774,315.472 C92.414,314.832 93.214,314.496 94.174,314.496 C96.046,314.496 97.294,316.032 97.294,317.92 C97.294,319.888 95.87,321.408 93.918,321.408 C91.47,321.408 90.03,319.392 90.03,317.168 C90.03,313.776 92.382,311.168 95.262,310 Z M93.854,315.84 C92.91,315.84 91.998,316.352 91.55,317.184 C91.55,318.656 92.174,320.064 93.79,320.064 C95.006,320.064 95.758,319.104 95.758,317.888 C95.758,316.704 95.038,315.84 93.854,315.84 Z M104.622,321.216 L103.15,321.216 L103.15,318.544 L98.35,318.544 L98.35,316.928 C99.694,315.184 101.63,312.56 103.07,310.592 L104.622,310.592 L104.622,317.2 L106.206,317.2 L106.206,318.544 L104.622,318.544 L104.622,321.216 Z M99.95,317.2 L103.15,317.2 L103.15,312.704 C102.158,314.144 100.718,316.144 99.95,317.2 Z M113.23,321.216 L111.758,321.216 L111.758,318.544 L106.958,318.544 L106.958,316.928 C108.302,315.184 110.238,312.56 111.678,310.592 L113.23,310.592 L113.23,317.2 L114.814,317.2 L114.814,318.544 L113.23,318.544 L113.23,321.216 Z M108.558,317.2 L111.758,317.2 L111.758,312.704 C110.766,314.144 109.326,316.144 108.558,317.2 Z M122.078,310.592 L122.078,311.936 L118.03,311.936 C117.982,312.88 117.934,314.032 117.838,314.912 C118.318,314.688 118.878,314.608 119.406,314.608 C121.166,314.608 122.654,316.016 122.654,317.872 C122.654,319.888 121.182,321.408 119.118,321.408 C117.806,321.408 116.334,320.72 115.742,319.632 L116.942,318.96 C117.342,319.68 118.094,320.064 118.926,320.064 C120.302,320.064 121.118,319.104 121.118,317.92 C121.118,316.736 120.206,315.952 118.974,315.952 C118.35,315.952 117.774,316.16 117.326,316.624 L116.238,316.032 C116.398,314.464 116.526,312.128 116.606,310.592 L122.078,310.592 Z" id="946573729789644597896445" fill="#DADADA"></path>
                </g>
            </g>
        </g>
    </g>
</svg>