<?xml version="1.0" encoding="UTF-8"?>
<svg width="37px" height="36px" viewBox="0 0 37 36" version="1.1" xmlns="http://www.w3.org/2000/svg" xmlns:xlink="http://www.w3.org/1999/xlink">
    <!-- Generator: Sketch 53.2 (72643) - https://sketchapp.com -->
    <title>Thumbnail_Product Copy 4</title>
    <desc>Created with Sketch.</desc>
    <g id="mock-up" stroke="none" stroke-width="1" fill="none" fill-rule="evenodd">
        <g id="MO_Web_Desktop_Offer_Details-Copy-8" transform="translate(-848.000000, -482.000000)">
            <g id="Thumbnail_Product-Copy-4" transform="translate(849.000000, 482.000000)">
                <g id="Group-15">
                    <path d="M31.8139535,16.744186 L31.8139535,31.8139535 C31.8139535,33.2010873 30.6109245,34.3255814 29.126913,34.3255814 L18.8531536,34.3255814 L2.68704048,34.3255814 C1.203029,34.3255814 0,33.2010873 0,31.8139535 L0,28.6218716 C0.955833431,28.4325744 1.86600728,27.842859 1.86600728,26.6379302 L1.86600728,21.1600388 C1.86600728,20.3839109 0.957936117,19.6888669 0,19.4357768 L0,16.744186 C0,15.3570523 1.203029,14.2325581 2.68704048,14.2325581 L4.89980015,14.2325581" id="Combined-Shape" stroke="#000000" stroke-width="2" stroke-linecap="round"></path>
                    <ellipse id="Oval-2" fill="#FFED00" cx="20.9302326" cy="15.4883721" rx="15.0697674" ry="15.4883721"></ellipse>
                    <g id="Group-9" transform="translate(13.395349, 9.209302)">
                        <path d="M1.2133825,3.71062227 C1.56477414,4.05337269 1.88485136,4.3662307 2.20556412,4.6783146 C2.67106272,5.13146448 3.13638798,5.58473345 3.60327319,6.03627556 C3.69837195,6.12827511 3.77452028,6.22908756 3.76157853,6.37027263 C3.74927231,6.5052053 3.69877638,6.61929664 3.56103917,6.66943491 C3.42809735,6.71784632 3.30549737,6.70861659 3.19895903,6.60560092 C2.81636853,6.23557814 2.43372025,5.86555537 2.05205416,5.4945203 C1.41819726,4.87827219 0.785033664,4.26136908 0.151696743,3.64458506 C-0.0429494972,3.45498858 -0.0530602398,3.25133909 0.137483928,3.06513677 C1.14353171,2.08190277 2.15177497,1.10111018 3.16100042,0.121329887 C3.3161281,-0.0292635476 3.51476086,-0.0381955425 3.66070221,0.0863164667 C3.77116929,0.18051924 3.80727909,0.372021211 3.72962859,0.507430254 C3.69369212,0.570073312 3.64036517,0.624022561 3.58842484,0.674875385 C2.84150095,1.40610804 2.09342154,2.1362093 1.34563101,2.86654875 C1.30888569,2.90245537 1.27208258,2.93830244 1.20870267,3.0001714 L1.413113,3.0001714 C5.80851283,3.0001714 10.2039704,3.0000523 14.599428,3.00076686 C14.6710699,3.00082641 14.7457738,2.99850409 14.8135447,3.01761856 C14.9726589,3.06239763 15.0846281,3.23353465 15.0681621,3.38770088 C15.0523315,3.53543608 14.9017681,3.68775636 14.7475071,3.70663265 C14.6904825,3.7135996 14.6321291,3.71050318 14.5744112,3.71050318 C10.1933975,3.71062227 5.81244158,3.71062227 1.43137011,3.71062227 L1.2133825,3.71062227 Z" id="Fill-1" fill="#000000"></path>
                        <path d="M1.2133825,3.71062227 C1.56477414,4.05337269 1.88485136,4.3662307 2.20556412,4.6783146 C2.67106272,5.13146448 3.13638798,5.58473345 3.60327319,6.03627556 C3.69837195,6.12827511 3.77452028,6.22908756 3.76157853,6.37027263 C3.74927231,6.5052053 3.69877638,6.61929664 3.56103917,6.66943491 C3.42809735,6.71784632 3.30549737,6.70861659 3.19895903,6.60560092 C2.81636853,6.23557814 2.43372025,5.86555537 2.05205416,5.4945203 C1.41819726,4.87827219 0.785033664,4.26136908 0.151696743,3.64458506 C-0.0429494972,3.45498858 -0.0530602398,3.25133909 0.137483928,3.06513677 C1.14353171,2.08190277 2.15177497,1.10111018 3.16100042,0.121329887 C3.3161281,-0.0292635476 3.51476086,-0.0381955425 3.66070221,0.0863164667 C3.77116929,0.18051924 3.80727909,0.372021211 3.72962859,0.507430254 C3.69369212,0.570073312 3.64036517,0.624022561 3.58842484,0.674875385 C2.84150095,1.40610804 2.09342154,2.1362093 1.34563101,2.86654875 C1.30888569,2.90245537 1.27208258,2.93830244 1.20870267,3.0001714 L1.413113,3.0001714 C5.80851283,3.0001714 10.2039704,3.0000523 14.599428,3.00076686 C14.6710699,3.00082641 14.7457738,2.99850409 14.8135447,3.01761856 C14.9726589,3.06239763 15.0846281,3.23353465 15.0681621,3.38770088 C15.0523315,3.53543608 14.9017681,3.68775636 14.7475071,3.70663265 C14.6904825,3.7135996 14.6321291,3.71050318 14.5744112,3.71050318 C10.1933975,3.71062227 5.81244158,3.71062227 1.43137011,3.71062227 L1.2133825,3.71062227 Z" id="Stroke-3" stroke="#000000" stroke-width="0.5" stroke-linecap="round" stroke-linejoin="round"></path>
                        <path d="M13.8162638,10.4004637 L13.6508765,10.4004637 C9.25624237,10.4004637 4.86155047,10.4010001 0.466974099,10.3973046 C0.361722395,10.3971854 0.244917266,10.3717938 0.154049576,10.3198779 C0.0196832405,10.2432857 -0.0246819125,10.0914721 0.0127511854,9.9609375 C0.0513973929,9.82617092 0.193908893,9.70284848 0.329141736,9.69116593 C0.381767588,9.68657636 0.434971111,9.68931818 0.487885799,9.68931818 C4.87293059,9.68931818 9.25791761,9.68931818 13.6429624,9.68931818 L13.8528881,9.68931818 C13.8011288,9.63591223 13.7709744,9.60324877 13.7392602,9.57225425 C12.9870167,8.83905494 12.2345999,8.10597485 11.482183,7.37295436 C11.4682034,7.35930484 11.4537038,7.34619178 11.4398397,7.33236345 C11.2850816,7.17768886 11.2587398,6.94886582 11.3797619,6.81254952 C11.5175943,6.65745769 11.7398822,6.6588286 11.9058471,6.82017894 C12.6660048,7.55927913 13.4251803,8.2993926 14.1846447,9.03914844 C14.4261691,9.27440879 14.6677512,9.50949034 14.9088134,9.74522753 C15.1176416,9.94943376 15.1252669,10.1458914 14.9199625,10.3463425 C13.9201291,11.3226104 12.9184471,12.2967921 11.9158986,13.2701394 C11.746121,13.4348872 11.5102001,13.4355428 11.3735808,13.2810471 C11.2525587,13.1442539 11.2856015,12.9132851 11.4511043,12.7516367 C12.2058896,12.0139075 12.9608482,11.2764166 13.716731,10.539939 C13.7539908,10.5036397 13.8006089,10.4775328 13.8428944,10.4467171 C13.8340561,10.431339 13.8251599,10.4159013 13.8162638,10.4004637" id="Fill-5" fill="#000000"></path>
                        <path d="M13.8162638,10.4004637 L13.6508765,10.4004637 C9.25624237,10.4004637 4.86155047,10.4010001 0.466974099,10.3973046 C0.361722395,10.3971854 0.244917266,10.3717938 0.154049576,10.3198779 C0.0196832405,10.2432857 -0.0246819125,10.0914721 0.0127511854,9.9609375 C0.0513973929,9.82617092 0.193908893,9.70284848 0.329141736,9.69116593 C0.381767588,9.68657636 0.434971111,9.68931818 0.487885799,9.68931818 C4.87293059,9.68931818 9.25791761,9.68931818 13.6429624,9.68931818 L13.8528881,9.68931818 C13.8011288,9.63591223 13.7709744,9.60324877 13.7392602,9.57225425 C12.9870167,8.83905494 12.2345999,8.10597485 11.482183,7.37295436 C11.4682034,7.35930484 11.4537038,7.34619178 11.4398397,7.33236345 C11.2850816,7.17768886 11.2587398,6.94886582 11.3797619,6.81254952 C11.5175943,6.65745769 11.7398822,6.6588286 11.9058471,6.82017894 C12.6660048,7.55927913 13.4251803,8.2993926 14.1846447,9.03914844 C14.4261691,9.27440879 14.6677512,9.50949034 14.9088134,9.74522753 C15.1176416,9.94943376 15.1252669,10.1458914 14.9199625,10.3463425 C13.9201291,11.3226104 12.9184471,12.2967921 11.9158986,13.2701394 C11.746121,13.4348872 11.5102001,13.4355428 11.3735808,13.2810471 C11.2525587,13.1442539 11.2856015,12.9132851 11.4511043,12.7516367 C12.2058896,12.0139075 12.9608482,11.2764166 13.716731,10.539939 C13.7539908,10.5036397 13.8006089,10.4775328 13.8428944,10.4467171 C13.8340561,10.431339 13.8251599,10.4159013 13.8162638,10.4004637 Z" id="Stroke-7" stroke="#000000" stroke-width="0.5" stroke-linecap="round" stroke-linejoin="round"></path>
                    </g>
                </g>
            </g>
        </g>
    </g>
</svg>