<?xml version="1.0" encoding="UTF-8"?>
<svg width="37px" height="36px" viewBox="0 0 37 36" version="1.1" xmlns="http://www.w3.org/2000/svg" xmlns:xlink="http://www.w3.org/1999/xlink">
    <!-- Generator: Sketch 53.2 (72643) - https://sketchapp.com -->
    <title>Thumbnail_Product Copy 3</title>
    <desc>Created with Sketch.</desc>
    <g id="mock-up" stroke="none" stroke-width="1" fill="none" fill-rule="evenodd">
        <g id="MO_Web_Desktop_Offer_Details-Copy-8" transform="translate(-846.000000, -393.000000)">
            <g id="Thumbnail_Product-Copy-3" transform="translate(847.000000, 393.000000)">
                <g id="Group-15">
                    <path d="M31.8139535,16.744186 L31.8139535,31.8139535 C31.8139535,33.2010873 30.6109245,34.3255814 29.126913,34.3255814 L18.8531536,34.3255814 L2.68704048,34.3255814 C1.203029,34.3255814 0,33.2010873 0,31.8139535 L0,28.6218716 C0.955833431,28.4325744 1.86600728,27.842859 1.86600728,26.6379302 L1.86600728,21.1600388 C1.86600728,20.3839109 0.957936117,19.6888669 0,19.4357768 L0,16.744186 C0,15.3570523 1.203029,14.2325581 2.68704048,14.2325581 L4.89980015,14.2325581" id="Combined-Shape" stroke="#000000" stroke-width="2" stroke-linecap="round"></path>
                    <ellipse id="Oval-2" fill="#FFED00" cx="20.9302326" cy="15.4883721" rx="15.0697674" ry="15.4883721"></ellipse>
                    <g id="Group-2" transform="translate(13.395349, 8.372093)" stroke="#000000" stroke-linecap="round" stroke-linejoin="round" stroke-width="2">
                        <path d="M0,7.53488372 L15.0576774,7.53488372" id="Line-9"></path>
                        <path d="M8.7510748e-16,7.95348837 L15.0697674,7.95348837" id="Line-9" transform="translate(7.534884, 7.953488) rotate(90.000000) translate(-7.534884, -7.953488) "></path>
                    </g>
                </g>
            </g>
        </g>
    </g>
</svg>