<?xml version="1.0" encoding="UTF-8"?>
<svg width="37px" height="36px" viewBox="0 0 37 36" version="1.1" xmlns="http://www.w3.org/2000/svg" xmlns:xlink="http://www.w3.org/1999/xlink">
    <!-- Generator: Sketch 53.2 (72643) - https://sketchapp.com -->
    <title>new_w</title>
    <desc>Created with Sketch.</desc>
    <g id="Page-1" stroke="none" stroke-width="1" fill="none" fill-rule="evenodd">
        <g id="new_w" transform="translate(1.000000, 0.000000)">
            <path d="M31.8139535,16.744186 L31.8139535,31.8139535 C31.8139535,33.2010873 30.6109245,34.3255814 29.126913,34.3255814 L18.8531536,34.3255814 L2.68704048,34.3255814 C1.203029,34.3255814 0,33.2010873 0,31.8139535 L0,28.6218716 C0.955833431,28.4325744 1.86600728,27.842859 1.86600728,26.6379302 L1.86600728,21.1600388 C1.86600728,20.3839109 0.957936117,19.6888669 0,19.4357768 L0,16.744186 C0,15.3570523 1.203029,14.2325581 2.68704048,14.2325581 L4.89980015,14.2325581" id="Combined-Shape" stroke="#FFFFFF" stroke-width="2" stroke-linecap="round"></path>
            <ellipse id="Oval-2" fill="#FFED00" fill-rule="nonzero" cx="20.9302326" cy="15.4883721" rx="15.0697674" ry="15.4883721"></ellipse>
            <g id="Group-2" stroke-linecap="round" stroke-linejoin="round" transform="translate(13.395349, 8.372093)" stroke="#00BEF2" stroke-width="2">
                <path d="M0,7.53488372 L15.0576774,7.53488372" id="Line-9"></path>
                <path d="M-7.00000005e-08,7.9534877 L15.0697673,7.9534877" id="Line-9" transform="translate(7.534884, 7.953488) rotate(90.000000) translate(-7.534884, -7.953488) "></path>
            </g>
        </g>
    </g>
</svg>