<?xml version="1.0" encoding="UTF-8"?>
<svg width="64px" height="40px" viewBox="0 0 64 40" version="1.1" xmlns="http://www.w3.org/2000/svg" xmlns:xlink="http://www.w3.org/1999/xlink">
    <!-- Generator: Sketch 53.2 (72643) - https://sketchapp.com -->
    <title>Group 12</title>
    <desc>Created with Sketch.</desc>
    <defs>
        <path d="M45.1723311,-3.44070018e-15 L51.9553,-3.49336178e-15 L62,9.72877986 L62,35.6 C62,36.9254834 60.9254834,38 59.6,38 L2.4,38 C1.0745166,38 0,36.9254834 0,35.6 L0,27.0851064 L0.196141479,27.0851064 C0.748426229,27.0851064 1.19614148,26.6373911 1.19614148,26.0851064 L1.19614148,11.9148936 C1.19614148,11.3626089 0.748426229,10.9148936 0.196141479,10.9148936 L0,10.9148936 L0,2.4 C0,1.0745166 1.0745166,-3.35211182e-15 2.4,-3.10862447e-15 L37.2346839,-3.3790739e-15 C37.3240214,0.460681556 37.7295754,0.808510638 38.2163692,0.808510638 L44.1906457,0.808510638 C44.6774395,0.808510638 45.0829935,0.460681556 45.1723311,-3.44169138e-15 Z" id="path-1"></path>
        <filter x="-3.2%" y="-2.6%" width="106.5%" height="110.5%" filterUnits="objectBoundingBox" id="filter-2">
            <feOffset dx="0" dy="1" in="SourceAlpha" result="shadowOffsetOuter1"></feOffset>
            <feGaussianBlur stdDeviation="0.5" in="shadowOffsetOuter1" result="shadowBlurOuter1"></feGaussianBlur>
            <feColorMatrix values="0 0 0 0 0.68627451   0 0 0 0 0.698039216   0 0 0 0 0.701960784  0 0 0 0.5 0" type="matrix" in="shadowBlurOuter1"></feColorMatrix>
        </filter>
        <polygon id="path-3" points="0.0890474512 0.0324247104 10.6739014 0.0324247104 10.6739014 10.1951612 0.0890474512 10.1951612"></polygon>
    </defs>
    <g id="mock-up" stroke="none" stroke-width="1" fill="none" fill-rule="evenodd">
        <g id="MO_Web_Desktop_Offer_Details-Copy-10" transform="translate(-155.000000, -459.000000)">
            <g id="Group-11" transform="translate(140.000000, 447.000000)">
                <g id="Group-8" transform="translate(16.000000, 12.000000)">
                    <g id="Group-12">
                        <g id="Combined-Shape">
                            <use fill="black" fill-opacity="1" filter="url(#filter-2)" xlink:href="#path-1"></use>
                            <use fill="#00C9FF" fill-rule="evenodd" xlink:href="#path-1"></use>
                        </g>
                        <g id="Page-1" transform="translate(14.784566, 10.851064)">
                            <polygon id="Fill-1" fill="#FFFF30" points="17.3778339 0.457926251 9.67954898 9.01170109 1.97058506 0.455151962 0 0.456859217 0.00439722519 17.6177606 3.89656969 17.6164802 3.89405699 8.12905021 9.68101473 14.747438 15.4646222 8.12606251 15.4671349 17.6134925 19.3593074 17.6124254 19.3547007 0.451737452"></polygon>
                            <g id="Group-7" transform="translate(20.709957, 0.000000)">
                                <g id="Group-4">
                                    <mask id="mask-4" fill="white">
                                        <use xlink:href="#path-3"></use>
                                    </mask>
                                    <g id="Clip-3"></g>
                                    <path d="M3.62425302,6.90319952 C4.09671546,7.37869083 4.68295024,7.62614257 5.38232177,7.62592925 C6.0816933,7.62571593 6.66750435,7.37826419 7.13996679,6.90234624 C7.61221737,6.40722944 7.85777072,5.81718504 7.85755885,5.11301419 C7.85734698,4.40905666 7.61158177,3.81901226 7.13890746,3.34330763 C6.66623316,2.84861747 6.0804221,2.60137905 5.38083871,2.60159237 C4.68146718,2.60180569 4.09565612,2.84947075 3.62319368,3.34416091 C3.15094311,3.82007886 2.9051779,4.41012326 2.90538976,5.11450743 C2.90560163,5.81867828 3.15157871,6.42749488 3.62425302,6.90319952 M9.12303784,1.51579122 C10.1628789,2.486186 10.6734774,3.68504701 10.6739011,5.11237423 C10.6743248,6.53970145 10.164362,7.73877577 9.12494464,8.72879604 C8.08573914,9.69961747 6.83826881,10.1947343 5.38295737,10.1951609 C3.90857795,10.1955875 2.66089575,9.70111071 1.62105465,8.73071593 C0.600281538,7.74133562 0.0892593838,6.54247461 0.0890475172,5.11514739 C0.0888356506,3.68782017 0.598798472,2.48874585 1.61914785,1.5177111 C2.65835335,0.527904151 3.90582368,0.0327873552 5.38020311,0.0323607143 C6.83551454,0.0319340734 8.08340861,0.526410907 9.12303784,1.51579122" id="Fill-2" fill="#FFFF30" mask="url(#mask-4)"></path>
                                </g>
                                <path d="M6.89723127,11.9727817 C6.87413782,12.397716 6.72667869,12.7595075 6.46078615,13.0662624 C6.17052895,13.3885896 5.81056766,13.5562595 5.38090227,13.5562595 C4.95081314,13.5564728 4.59085185,13.3890162 4.30038279,13.0669023 C4.03406651,12.7716668 3.88660738,12.3998492 3.86351393,11.9727817 L2.13298783,11.9727817 C2.15777622,12.8874998 2.46794887,13.6618531 3.06964991,14.3043743 C3.7084276,14.9614014 4.4751727,15.2961012 5.381326,15.2958878 C6.2754029,15.2954612 7.042148,14.9603347 7.68071383,14.3030944 C8.2930082,13.6603598 8.60551138,12.8872865 8.63029977,11.9727817 L6.89723127,11.9727817 Z" id="Fill-5" fill="#FFFF30"></path>
                            </g>
                        </g>
                    </g>
                </g>
            </g>
        </g>
    </g>
</svg>