<?xml version="1.0" encoding="UTF-8"?>
<svg width="48px" height="48px" viewBox="0 0 48 48" version="1.1" xmlns="http://www.w3.org/2000/svg" xmlns:xlink="http://www.w3.org/1999/xlink">
    <!-- Generator: Sketch 53.2 (72643) - https://sketchapp.com -->
    <title>Icon/Offer2/black</title>
    <desc>Created with Sketch.</desc>
    <g id="Icon/Offer2/black" stroke="none" stroke-width="1" fill="none" fill-rule="evenodd">
        <rect fill="#000000" x="0" y="0" width="48" height="48"></rect>
        <g id="Group-6" transform="translate(5.000000, 7.000000)">
            <g id="Page-1" transform="translate(0.000000, 9.130215)" stroke="#FFFFFF" stroke-linejoin="round" stroke-width="2">
                <polyline id="Stroke-1" points="19 23.9032228 4.29032258 18.3681712 4.29032258 14.6781368"></polyline>
                <polyline id="Stroke-3" points="33.7096774 14.6781368 33.7096774 18.3681712 19 23.9032228 19 7.91307376"></polyline>
                <polyline id="Stroke-5" points="19 7.91307376 14.0967742 15.9081483 0 10.3730967 4.29032258 1.76301643"></polyline>
                <polyline id="Stroke-7" points="19 7.91307376 23.9032258 15.9081483 38 10.3730967 33.7096774 1.76301643"></polyline>
                <polyline id="Stroke-10" points="28.9506807 0.430523918 33.7096774 1.76301643 19 7.91307376 4.29032258 1.76301643 8.3997872 0.642645429"></polyline>
            </g>
            <g id="Page-1" transform="translate(9.806452, 0.000000)" fill="#FFFFFF">
                <polygon id="Fill-1" points="11.0206934 0.189314397 6.13856914 5.46029221 1.24967243 0.187604834 -3.98378154e-05 0.188656873 0.00274880927 10.7634887 2.47109985 10.7626997 2.46950634 4.91638811 6.13949869 8.99474835 9.80736636 4.91454704 9.80895988 10.7608586 12.2773109 10.7602011 12.2743895 0.185500756"></polygon>
                <path d="M15.2852785,4.36714491 C15.5814062,4.66026924 15.9488437,4.81281488 16.3871924,4.81268338 C16.8255412,4.81255187 17.1927131,4.66000623 17.4888408,4.36661889 C17.7848358,4.06139611 17.9387425,3.69765367 17.9386098,3.26355612 C17.938477,2.82959008 17.7844374,2.46584764 17.4881769,2.1725918 C17.1919163,1.86763203 16.8247444,1.71521789 16.3862629,1.7153494 C15.9479141,1.7154809 15.5807423,1.86815805 15.2846145,2.17311782 C14.9886195,2.46650516 14.83458,2.83024761 14.8347128,3.26447666 C14.8348456,3.6985742 14.9890179,4.07388907 15.2852785,4.36714491 M18.7317807,1.04598966 C19.3835273,1.64420527 19.7035578,2.38326259 19.7038234,3.26316161 C19.7040889,4.14306063 19.3844569,4.88224945 18.7329758,5.49256351 C18.0816275,6.09104212 17.299744,6.39626491 16.3875908,6.39652792 C15.4634863,6.39679093 14.68147,6.09196266 14.0297233,5.49374705 C13.389928,4.88382751 13.069632,4.14477019 13.0694992,3.26487117 C13.0693664,2.38497215 13.3889984,1.64578333 14.0285282,1.0471732 C14.6798765,0.436990651 15.46176,0.13176787 16.3858645,0.13150486 C17.2980177,0.131241851 18.0801668,0.436070117 18.7317807,1.04598966" id="Fill-2"></path>
                <path d="M17.3367002,7.49237107 C17.3222258,7.75432875 17.2298021,7.97736099 17.0631472,8.16646498 C16.8812212,8.36516883 16.6556064,8.46853165 16.3863027,8.46853165 C16.1167335,8.46866315 15.8911187,8.36543184 15.7090599,8.1668595 C15.5421394,7.98485677 15.4497157,7.7556438 15.4352413,7.49237107 L14.3505903,7.49237107 C14.3661271,8.05626391 14.5605356,8.53362655 14.937667,8.92971919 C15.338037,9.33475416 15.8186138,9.54108529 16.3865683,9.54095378 C16.9469536,9.54069077 17.4275304,9.33409664 17.8277677,8.92893016 C18.2115386,8.53270602 18.4074079,8.0561324 18.4229446,7.49237107 L17.3367002,7.49237107 Z" id="Fill-5"></path>
            </g>
        </g>
    </g>
</svg>