<?xml version="1.0" encoding="UTF-8"?>
<svg width="48px" height="48px" viewBox="0 0 48 48" version="1.1" xmlns="http://www.w3.org/2000/svg" xmlns:xlink="http://www.w3.org/1999/xlink">
    <!-- Generator: Sketch 53.2 (72643) - https://sketchapp.com -->
    <title>Icon/Rewards/black</title>
    <desc>Created with Sketch.</desc>
    <g id="Icon/Rewards/black" stroke="none" stroke-width="1" fill="none" fill-rule="evenodd">
        <rect fill="#000000" x="0" y="0" width="48" height="48"></rect>
        <g id="Group" transform="translate(5.000000, 4.000000)" stroke="#FFFFFF" stroke-width="2">
            <path d="M25.3333333,2.19358528 L22.0704874,8.56392436 L14.8733109,9.57058031 L20.0794854,14.4619636 L18.8394409,21.4241842 L25.3333333,18.1335584 L31.8272258,21.4241842 L30.5871813,14.4619636 L35.7933558,9.57058031 L28.5961792,8.56392436 L25.3333333,2.19358528 Z" id="Path"></path>
            <path d="M11.4113975,22.5365481 L18.1661614,29.2046661 C18.5916749,29.6247214 18.8295596,30.190161 18.8295596,30.786666 C18.8295596,31.3840273 18.5918678,31.9495491 18.1644852,32.3714456 C17.738002,32.7904816 17.1693271,33.0182416 16.5819809,33.0182416 C15.9937483,33.0182416 15.4250119,32.7906737 14.9965614,32.3697005 L10.738194,28.1648278 C10.690872,28.1181128 10.628193,28.0930682 10.5590689,28.0930682 C10.4888317,28.0930682 10.4261422,28.1180932 10.3788003,28.1648278 C10.2882911,28.254176 10.2882911,28.3939827 10.3788958,28.4834252 L14.6372633,32.6882978 C15.1562551,33.2006324 15.8436122,33.4813927 16.5819809,33.4813927 L26.561467,33.4813927 C27.7981372,33.4813927 28.8090458,34.479334 28.8090458,35.7129682 C28.8090458,36.9474855 27.7983924,37.9445438 26.561467,37.9445438 L15.4681939,37.9445438 C14.6110366,37.9445438 13.769666,37.7147237 13.0328619,37.2788833 L2.9282975,31.2934619 C2.14679909,30.830009 1.25545959,30.5761385 0.343757418,30.5571309 L-0.635398693,30.5367171 L-0.635398693,21.166766 L8.06276797,21.166766 C9.32493395,21.166766 10.5173689,21.6539875 11.4113975,22.5365481 Z" id="Path"></path>
        </g>
    </g>
</svg>