<?xml version="1.0" encoding="UTF-8"?>
<svg width="30px" height="26px" viewBox="0 0 30 26" version="1.1" xmlns="http://www.w3.org/2000/svg" xmlns:xlink="http://www.w3.org/1999/xlink">
    <!-- Generator: Sketch 53.2 (72643) - https://sketchapp.com -->
    <title>order</title>
    <desc>Created with Sketch.</desc>
    <g id="mock-up" stroke="none" stroke-width="1" fill="none" fill-rule="evenodd">
        <g id="dashboard_delivery-status" transform="translate(-536.000000, -364.000000)">
            <g id="Group-16" transform="translate(536.000000, 364.000000)">
                <g id="order">
                    <circle id="Oval" fill="#FFFF30" cx="9.5" cy="9.5" r="9.5"></circle>
                    <path d="M29.1708763,9.02955042 C29.1267215,8.96783784 29.1267215,8.96783784 29.0894427,8.94697269 L29.2,9.12585812 L29.2,20.5537757 C29.2,20.8397957 29.0337396,21.1023122 28.7760248,21.228026 L19.3885609,25.7661353 C19.3841924,25.7724017 19.3841924,25.7724017 19.3320056,25.807604 C19.3298262,25.8082584 19.3277065,25.808895 19.3256446,25.809514 C19.3005889,25.8223216 19.2675603,25.8325098 19.1967963,25.8475973 C19.2214736,25.8451005 19.2321709,25.8440182 19.2404168,25.8421656 C19.2443752,25.8411189 19.2249654,25.8443757 19.1784897,25.8521739 L19.2417353,25.8419106 L19.2211403,25.8487756 C19.215243,25.8507413 19.212723,25.8515813 19.1978326,25.8545127 C19.2100333,25.8527859 19.2139837,25.8513545 19.2171146,25.8492098 C19.2055976,25.8564747 19.2041574,25.8567616 19.1868153,25.8602172 C19.1474141,25.8726952 19.1177845,25.8791823 19.0816625,25.8796111 C19.0697943,25.8816439 19.0631152,25.8821061 19.0454189,25.8833305 C19.0208389,25.8842346 19.0208389,25.8842346 19.0045767,25.8842105 C18.971182,25.8828681 18.971182,25.8828681 18.9527421,25.8806989 C18.9402896,25.8794356 18.9402896,25.8794356 18.9450801,25.8796339 C18.938516,25.8796339 18.9382283,25.8796339 18.8769266,25.8706619 C18.8793117,25.8706058 18.8821911,25.8705483 18.8855835,25.8704805 C18.8205145,25.8593674 18.8069799,25.8570558 18.7971354,25.8519196 C18.7990083,25.8535494 18.801991,25.8541992 18.808608,25.8556405 L18.788013,25.8487756 C18.7777155,25.8453431 18.7777155,25.8453431 18.8306636,25.8521739 C18.7756198,25.8467315 18.7745392,25.8466247 18.7471909,25.8362185 C18.7437748,25.8360825 18.7572454,25.8383442 18.812357,25.8475973 L18.7014169,25.8140073 C18.7101875,25.8193105 18.7101875,25.8193105 18.7148389,25.8213431 C18.7158001,25.8216984 18.7158001,25.8216984 18.7079215,25.8190273 L18.6931238,25.8098818 C18.6875782,25.808312 18.681465,25.8065807 18.6747826,25.8046882 L9.26183937,21.242357 C9.00077564,21.1180409 8.83661327,20.8560797 8.83661327,20.5675057 L8.83661327,9.09839817 L8.83681051,9.08494139 C8.84924314,8.80520729 9.01193109,8.5559832 9.260595,8.4378747 L18.674759,3.87495709 C18.880891,3.7750143 19.1236856,3.7750143 19.3298436,3.8749697 L28.605548,8.38076763 C28.8267145,8.42630191 29.0184645,8.57525063 29.1168905,8.78440581 C29.1646032,8.88579527 29.1896627,8.99442302 29.1908057,9.10425696 C29.1914633,9.09472234 29.1880555,9.08393443 29.1708763,9.02955042 Z M19.0000607,5.38019379 L16.4512919,6.61772383 L24.157834,10.35436 L26.7066028,9.11682994 L19.0000607,5.38019379 Z M19.0000111,12.8532507 L22.4408511,11.1853317 L14.7345426,7.44880884 L11.2937026,9.11672776 L19.0000111,12.8532507 Z M10.3350114,10.3192426 L10.3350114,20.0943831 L18.2508009,23.9324736 L18.2508009,14.1573332 L10.3350114,10.3192426 Z M27.6924485,20.0761439 L27.6924485,10.300955 L24.7514874,11.7271197 L24.7514874,14.8100686 C24.7514874,15.2225851 24.4148048,15.5592677 24.0022883,15.5592677 C23.5897719,15.5592677 23.2530892,15.2225851 23.2530892,14.8100686 L23.2530892,12.4566805 L19.7491991,14.157279 L19.7491991,23.9323017 L27.6924485,20.0761439 Z" id="Shape" fill="#000000" fill-rule="nonzero"></path>
                </g>
            </g>
        </g>
    </g>
</svg>