<?xml version="1.0" encoding="UTF-8"?>
<svg width="23px" height="21px" viewBox="0 0 23 21" version="1.1" xmlns="http://www.w3.org/2000/svg" xmlns:xlink="http://www.w3.org/1999/xlink">
    <!-- Generator: Sketch 53.2 (72643) - https://sketchapp.com -->
    <title>roaming</title>
    <desc>Created with Sketch.</desc>
    <defs>
        <polygon id="path-1" points="0 0.0432578815 19.2029873 0.0432578815 19.2029873 16.297467 0 16.297467"></polygon>
    </defs>
    <g id="mock-up" stroke="none" stroke-width="1" fill="none" fill-rule="evenodd">
        <g id="dashboard" transform="translate(-544.000000, -381.000000)">
            <g id="Group-10-Copy" transform="translate(540.000000, 291.000000)">
                <g id="Group-13">
                    <g id="Group-18" transform="translate(4.000000, 90.000000)">
                        <g id="roaming" transform="translate(0.245614, 0.000000)">
                            <ellipse id="Oval" fill="#FFFF30" cx="7.33333333" cy="8.03846154" rx="7.33333333" ry="8.03846154"></ellipse>
                            <g id="Icon_Travel-Pass" transform="translate(2.754386, 3.807692)">
                                <g id="Group-8" transform="translate(-0.000000, 0.192308)">
                                    <mask id="mask-2" fill="white">
                                        <use xlink:href="#path-1"></use>
                                    </mask>
                                    <g id="Clip-7"></g>
                                    <path d="M15.023577,9.31467654 L4.65398635,9.31467654 C4.6148538,9.30905864 4.57518519,9.307186 4.53551657,9.30879112 C4.36451267,9.3168167 4.20476608,9.39626995 4.09514133,9.52735444 L2.52715887,11.4021302 L1.66356238,11.4021302 L3.33688109,8.46904783 C3.44382554,8.28205179 3.44382554,8.05225266 3.33688109,7.86525662 L1.66356238,4.93217429 L2.52715887,4.93217429 L4.09514133,6.80695001 C4.20503411,6.93856954 4.36531676,7.01802279 4.53712476,7.02551333 C4.57625731,7.02738597 4.61565789,7.02524581 4.65425439,7.0196279 L15.023577,7.0196279 C16.0581774,7.0196279 17.0571296,7.44150594 17.7808138,8.16701847 C17.0571296,8.8927985 16.0581774,9.31467654 15.023577,9.31467654 L15.023577,9.31467654 Z M9.58951267,15.0767762 L8.30001462,15.0767762 L8.30001462,10.5316221 L11.4804727,10.5316221 L9.58951267,15.0767762 Z M8.30001462,1.26394875 L9.5897807,1.26394875 L11.4785965,5.79866952 L8.30001462,5.79866952 L8.30001462,1.26394875 Z M19.0767446,7.7959691 C18.116925,6.54531607 16.6017446,5.79866952 15.023577,5.79866952 L12.8032066,5.79866952 L10.5621979,0.41939011 C10.4673148,0.19146361 10.2448489,0.0432578815 9.99772417,0.0432578815 L7.68836745,0.0432578815 C7.35064815,0.0432578815 7.0769883,0.316395154 7.0769883,0.653737074 L7.0769883,5.79866952 L4.84482456,5.79866952 L3.28273879,3.93058179 C3.16668129,3.79147172 2.99433723,3.71121591 2.81314815,3.71121591 L0.611539961,3.71121591 C0.393898635,3.71121591 0.192339181,3.82705179 0.0829824561,4.01485039 C-0.0266423002,4.2029165 -0.027714425,4.43485579 0.0800341131,4.62372446 L2.10179337,8.16701847 L0.0800341131,11.71058 C-0.027714425,11.8994487 -0.0266423002,12.1313879 0.0829824561,12.3191865 C0.192339181,12.5075202 0.393630604,12.6230885 0.611539961,12.6230885 L2.81314815,12.6230885 C2.99460526,12.6230885 3.16668129,12.5428327 3.28273879,12.4037227 L4.84509259,10.5353674 L7.0769883,10.5353674 L7.0769883,15.6869878 C7.0769883,16.0243298 7.35064815,16.297467 7.68863548,16.297467 L9.99772417,16.297467 C10.2448489,16.297467 10.4678509,16.1489938 10.5624659,15.9210673 L12.8034747,10.5353674 L15.023577,10.5353674 C16.6020127,10.5353674 18.117193,9.78872086 19.0767446,8.53833534 C19.2450682,8.31923698 19.2450682,8.01506747 19.0767446,7.7959691 L19.0767446,7.7959691 Z" id="Fill-6" stroke="#000000" stroke-width="0.3" fill="#020303" mask="url(#mask-2)"></path>
                                </g>
                                <path d="M0.941112641,0.973664184 C0.838665463,0.861341705 0.696350868,0.796703297 0.551378446,0.796703297 C0.406406024,0.796703297 0.264091429,0.861341705 0.161644251,0.973664184 C0.0591970724,1.08598666 1.65945035e-12,1.24201954 1.65945035e-12,1.40096645 C1.65945035e-12,1.55991335 0.0591970724,1.71594623 0.161644251,1.82853362 C0.264091429,1.94138592 0.406406024,2.00549451 0.551378446,2.00549451 C0.696350868,2.00549451 0.838665463,1.94138592 0.941112641,1.82853362 C1.04380144,1.71594623 1.10275689,1.56044317 1.10275689,1.40096645 C1.10275689,1.24201954 1.04380144,1.08598666 0.941112641,0.973664184" id="Fill-9" stroke="#000000" stroke-width="0.3" fill="#020303"></path>
                                <path d="M5.44778145,0.796703297 L2.82316591,0.796703297 C2.48213099,0.796703297 2.20551378,1.06717795 2.20551378,1.40123136 C2.20551378,1.73501986 2.48213099,2.00549451 2.82316591,2.00549451 L5.44778145,2.00549451 C5.78881636,2.00549451 6.06516291,1.73501986 6.06516291,1.40123136 C6.06516291,1.06717795 5.78881636,0.796703297 5.44778145,0.796703297" id="Fill-11" stroke="#000000" stroke-width="0.3" fill="#020303"></path>
                                <path d="M4.90642536,15.3021978 L1.15873755,15.3021978 C0.823119746,15.3021978 0.551378446,15.5729374 0.551378446,15.9067259 C0.551378446,16.2405144 0.823119746,16.510989 1.15873755,16.510989 L4.90642536,16.510989 C5.24204316,16.510989 5.51378446,16.2405144 5.51378446,15.9067259 C5.51378446,15.5729374 5.24204316,15.3021978 4.90642536,15.3021978" id="Fill-13" stroke="#000000" stroke-width="0.3" fill="#020303"></path>
                            </g>
                        </g>
                    </g>
                </g>
            </g>
        </g>
    </g>
</svg>