<?xml version="1.0" encoding="UTF-8"?>
<svg width="86px" height="86px" viewBox="0 0 86 86" version="1.1" xmlns="http://www.w3.org/2000/svg" xmlns:xlink="http://www.w3.org/1999/xlink">
    <!-- Generator: Sketch 53.2 (72643) - https://sketchapp.com -->
    <title>email</title>
    <desc>Created with Sketch.</desc>
    <g id="MO-Web-Login-Sign-up" stroke="none" stroke-width="1" fill="none" fill-rule="evenodd">
        <g id="MO_Web_Desktop_signup" transform="translate(-450.000000, -332.000000)">
            <g id="email" transform="translate(452.000000, 334.000000)">
                <circle id="Oval" stroke="#000000" stroke-width="3" fill="#FFFFFF" cx="41" cy="41" r="41"></circle>
                <g id="noun_74354_cc" transform="translate(19.000000, 24.000000)" fill="#000000" fill-rule="nonzero">
                    <path d="M39.4166667,32.907563 L4.58333333,32.907563 C2.057,32.907563 0,30.8563249 0,28.3370682 L0,4.57049486 C0,2.0512381 2.057,0 4.58333333,0 L39.4166667,0 C41.943,0 44,2.0512381 44,4.57049486 L44,28.3370682 C44,30.8563249 41.943,32.907563 39.4166667,32.907563 Z M5.0212766,2.41122832 C3.54323404,2.41122832 2.34042553,3.59255811 2.34042553,5.04420704 L2.34042553,27.863356 C2.34042553,29.3150049 3.54323404,30.4963347 5.0212766,30.4963347 L38.9787234,30.4963347 C40.456766,30.4963347 41.6595745,29.3150049 41.6595745,27.863356 L41.6595745,5.04420704 C41.6595745,3.59255811 40.456766,2.41122832 38.9787234,2.41122832 L5.0212766,2.41122832 Z" id="Shape"></path>
                    <path d="M22.0091372,22.1848739 C20.1561183,22.1848739 18.4237101,21.4009199 17.1298862,19.9824241 L5.78517094,7.46129374 C5.44526806,7.08499578 5.47085215,6.50025825 5.84364885,6.15716305 C6.21461812,5.81406784 6.79391495,5.83989221 7.13564526,6.21619018 L18.4785331,18.7354759 C20.360791,20.8014255 23.6574834,20.8032701 25.5433961,18.7336313 L36.8643547,6.23279156 C37.2079125,5.854649 37.781727,5.83066923 38.1563512,6.17376443 C38.5291479,6.52054883 38.5547319,7.09975256 38.2148291,7.47789512 L26.892043,19.9805795 C25.5945643,21.4009199 23.8621561,22.1848739 22.0091372,22.1848739 Z" id="Shape"></path>
                    <path d="M6.46177046,28.1008403 C6.21445192,28.1008403 5.96530139,27.9988734 5.78576645,27.7986474 C5.44501647,27.4204426 5.47066432,26.8327422 5.84439011,26.4879085 L15.843387,17.2515562 C16.2189447,16.9048685 16.7978533,16.9326777 17.1386033,17.3108824 C17.4793533,17.6890871 17.4537054,18.2749336 17.0799796,18.6197673 L7.08098279,27.8579736 C6.90327984,28.0192668 6.68160916,28.1008403 6.46177046,28.1008403 Z" id="Shape"></path>
                    <path d="M37.5377584,28.1008403 C37.3179807,28.1008403 37.0963715,28.0211335 36.9205493,27.8580124 L26.9206627,18.6194285 C26.5470406,18.2746498 26.5195684,17.6888969 26.8620554,17.3107526 C27.2063738,16.9307547 27.7851218,16.9066573 28.155081,17.2514359 L38.1549675,26.4863125 C38.5285896,26.8347984 38.5560619,27.4168441 38.2135749,27.7949883 C38.0340898,27.9988897 37.7850083,28.1008403 37.5377584,28.1008403 Z" id="Shape"></path>
                </g>
            </g>
        </g>
    </g>
</svg>