<?xml version="1.0" encoding="UTF-8"?>
<svg width="86px" height="86px" viewBox="0 0 86 86" version="1.1" xmlns="http://www.w3.org/2000/svg" xmlns:xlink="http://www.w3.org/1999/xlink">
    <!-- Generator: Sketch 53.2 (72643) - https://sketchapp.com -->
    <title>G</title>
    <desc>Created with Sketch.</desc>
    <g id="MO-Web-Login-Sign-up" stroke="none" stroke-width="1" fill="none" fill-rule="evenodd">
        <g id="MO_Web_Desktop_Login" transform="translate(-260.000000, -592.000000)">
            <g id="G" transform="translate(262.000000, 594.000000)">
                <circle id="Oval-Copy" stroke="#000000" stroke-width="3" fill="#FFFFFF" cx="41" cy="41" r="41"></circle>
                <g id="Google" transform="translate(24.000000, 24.000000)">
                    <path d="M33.5277778,17.1898484 C33.5277778,15.9781084 33.4182186,14.8129737 33.2147517,13.6944444 L17,13.6944444 L17,20.3046417 L26.2655724,20.3046417 C25.8664641,22.4407219 24.653488,24.2505644 22.830111,25.4623045 L22.830111,29.75 L28.3941498,29.75 C31.6496212,26.7750228 33.5277778,22.3941165 33.5277778,17.1898484 L33.5277778,17.1898484 Z" id="Shape" fill="#4285F4"></path>
                    <path d="M17.0816936,34 C21.6719917,34 25.5204234,32.4860799 28.3333333,29.9039625 L22.8388856,25.6619123 C21.3165141,26.6763156 19.3691149,27.2757358 17.0816936,27.2757358 C12.6536788,27.2757358 8.90570816,24.3016897 7.56880317,20.3055556 L1.88888889,20.3055556 L1.88888889,24.6859334 C4.68634327,30.2113574 10.4358075,34 17.0816936,34 L17.0816936,34 Z" id="Shape" fill="#34A853"></path>
                    <path d="M7.55555556,20.1965812 C7.21247563,19.1871345 7.01754386,18.1088619 7.01754386,17 C7.01754386,15.8911381 7.21247563,14.8128655 7.55555556,13.8034188 L7.55555556,9.44444444 L1.8245614,9.44444444 C0.662768031,11.7156995 0,14.2852002 0,17 C0,19.7147998 0.662768031,22.2843005 1.8245614,24.5555556 L7.55555556,20.1965812 L7.55555556,20.1965812 Z" id="Shape" fill="#FBBC05"></path>
                    <path d="M17.0109883,6.72426425 C19.4954431,6.72426425 21.7260681,7.5772852 23.4798009,9.2525876 L28.3333333,4.40343247 C25.4027535,1.67530241 21.5722319,0 17.0109883,0 C10.3960313,0 4.67332428,3.7886426 1.88888889,9.31406659 L7.54236959,13.6944444 C8.87305281,9.69831026 12.6035809,6.72426425 17.0109883,6.72426425 L17.0109883,6.72426425 Z" id="Shape" fill="#EA4335"></path>
                    <polygon id="Shape" points="0 0 34 0 34 34 0 34"></polygon>
                </g>
            </g>
        </g>
    </g>
</svg>