<?xml version="1.0" encoding="UTF-8"?>
<svg width="86px" height="86px" viewBox="0 0 86 86" version="1.1" xmlns="http://www.w3.org/2000/svg" xmlns:xlink="http://www.w3.org/1999/xlink">
    <!-- Generator: Sketch 53.2 (72643) - https://sketchapp.com -->
    <title>Wechat</title>
    <desc>Created with Sketch.</desc>
    <defs>
        <polygon id="path-1" points="1.4851871e-05 0.0137288136 28.8759374 0.0137288136 28.8759374 26.9096797 1.4851871e-05 26.9096797"></polygon>
    </defs>
    <g id="MO-Web-Login-Sign-up" stroke="none" stroke-width="1" fill="none" fill-rule="evenodd">
        <g id="MO_Web_Desktop_Login" transform="translate(-567.000000, -592.000000)">
            <g id="Wechat" transform="translate(569.000000, 594.000000)">
                <circle id="Oval-Copy" stroke="#000000" stroke-width="3" fill="#FFFFFF" cx="41" cy="41" r="41"></circle>
                <g id="Group-6" transform="translate(20.000000, 23.384615)">
                    <g id="Group-3" transform="translate(0.000000, 0.615385)">
                        <mask id="mask-2" fill="white">
                            <use xlink:href="#path-1"></use>
                        </mask>
                        <g id="Clip-2"></g>
                        <path d="M20.3837176,8.08884915 C19.4318165,8.10562881 18.6274648,8.88176441 18.6443549,9.76742542 C18.6617231,10.6854254 19.450778,11.4035949 20.4296077,11.3923068 C21.4109868,11.3810186 22.155267,10.655222 22.1460253,9.71784915 C22.1378989,8.79771356 21.3523495,8.07191695 20.3837176,8.08884915 M11.1194923,9.7929 C11.1550253,8.91074746 10.3565692,8.11600169 9.40817363,8.08945932 C8.43715165,8.06215424 7.63853626,8.77254407 7.61017363,9.68856102 C7.58149231,10.6169339 8.32322308,11.3608831 9.30125604,11.3846797 C10.270844,11.4081712 11.0836407,10.6968661 11.1194923,9.7929 M28.8759374,11.2957475 C25.017822,11.4887136 21.6629044,12.6083746 18.9391352,15.1379847 C16.1871626,17.6936797 14.9309209,20.8253746 15.2743,24.7077305 C13.7663,24.5287983 12.3927835,24.3320186 11.0114593,24.2205102 C10.5343934,24.1820695 9.96825604,24.2368322 9.56416813,24.4551203 C8.22283846,25.1796966 6.93695934,25.9977814 5.41286593,26.9096797 C5.69250879,25.6989508 5.87351978,24.6386288 6.19395385,23.6187305 C6.42961868,22.8691373 6.32047033,22.4520864 5.59913516,21.9637983 C0.96773956,18.8334763 -0.984502198,14.1487475 0.476492308,9.32566271 C1.82817912,4.86379831 5.14756374,2.15784915 9.65786044,0.747289831 C15.8139868,-1.17779492 22.7323989,0.785883051 26.475789,5.4649678 C27.8277945,7.15513729 28.656844,9.05215424 28.8759374,11.2957475" id="Fill-1" fill="#2DC100" mask="url(#mask-2)"></path>
                    </g>
                    <path d="M32.9553462,19.7322048 C32.1937368,19.7270923 31.5463286,20.3277408 31.5152852,21.0690622 C31.4823116,21.8618191 32.1219992,22.5128187 32.9365271,22.5148327 C33.7243545,22.5174664 34.3468315,21.9434652 34.375623,21.1883553 C34.4061839,20.3938942 33.7661747,19.7376272 32.9553462,19.7322048 M23.905947,22.5242832 C24.6912008,22.5250578 25.3376439,21.9332401 25.3672397,21.1864962 C25.3987657,20.3955984 24.7383289,19.7325147 23.916402,19.7291063 C23.1025174,19.725543 22.4205272,20.3982322 22.4489971,21.1770457 C22.4756976,21.9214657 23.1266444,22.5235086 23.905947,22.5242832 M37.9438474,35.6153846 C36.7106354,35.0864669 35.5792393,34.2929353 34.3749796,34.1717831 C33.1752237,34.0510957 31.9138635,34.7178977 30.6587762,34.8413738 C26.835288,35.2181541 23.4097347,34.1917686 20.5854266,31.6760784 C15.2134667,26.8902559 15.9811882,19.5524905 22.1959851,15.630536 C27.7196235,12.1450084 35.8203486,13.3069542 39.7147702,18.1434376 C43.1133013,22.3634699 42.7139188,27.965753 38.5651984,31.5109272 C37.3644774,32.5370028 36.9326039,33.381505 37.702899,34.73401 C37.8449267,34.9837509 37.8611722,35.2999551 37.9438474,35.6153846" id="Fill-4" fill="#2DC100"></path>
                </g>
            </g>
        </g>
    </g>
</svg>