<?xml version="1.0" encoding="UTF-8"?>
<svg width="477px" height="255px" viewBox="0 0 477 255" version="1.1" xmlns="http://www.w3.org/2000/svg" xmlns:xlink="http://www.w3.org/1999/xlink">
    <!-- Generator: Sketch 53.2 (72643) - https://sketchapp.com -->
    <title>MO Logo Copy</title>
    <desc>Created with Sketch.</desc>
    <defs>
        <polygon id="path-1" points="0.313987465 0.498706528 156.504481 0.498706528 156.504481 156.806133 0.313987465 156.806133"></polygon>
    </defs>
    <g id="mock-up" stroke="none" stroke-width="1" fill="none" fill-rule="evenodd" opacity="0.5">
        <g id="offer-listing-without-login-copy-3" transform="translate(-843.000000, -581.000000)">
            <g id="MO-Logo-Copy" transform="translate(843.000000, 581.000000)">
                <polygon id="Fill-1" fill="#FFFFFF" points="264.806014 0.0919341605 147.498405 127.157625 30.0280677 0.0507222954 0 0.0760834431 0.0670055703 255 59.3765075 254.980979 59.3382186 114.045911 147.52074 212.36157 235.652209 114.001529 235.690498 254.936597 295 254.920746 294.929804 0"></polygon>
                <g id="Group-7" transform="translate(320.000000, 0.000000)">
                    <g id="Group-4">
                        <mask id="mask-2" fill="white">
                            <use xlink:href="#path-1"></use>
                        </mask>
                        <g id="Clip-3"></g>
                        <path d="M52.4796108,106.174292 C59.451284,113.487561 68.101786,117.293479 78.421738,117.290198 C88.74169,117.286917 97.3859395,113.480999 104.357613,106.161168 C111.326159,98.5460505 114.949554,89.4709041 114.946427,78.6404419 C114.943301,67.8132607 111.31678,58.7381142 104.341981,51.4215645 C97.3671816,43.813009 88.7229322,40.0103717 78.3998538,40.0136527 C68.0799018,40.0169336 59.4356524,43.8261329 52.4639793,51.4346884 C45.4954324,58.7545191 41.8689119,67.8296655 41.8720382,78.6634086 C41.8751645,89.4938708 45.5048114,98.8577421 52.4796108,106.174292 M133.619882,23.3135459 C148.963815,38.2386512 156.498224,56.6776689 156.504477,78.630599 C156.51073,100.583529 148.9857,119.025828 133.648019,134.252782 C118.313464,149.184449 99.905746,156.799566 78.431117,156.806128 C56.6751199,156.81269 38.2642755,149.207416 22.920342,134.28231 C7.85777645,119.065199 0.317114749,100.626182 0.313988439,78.6732515 C0.310862128,56.7203214 7.83589228,38.2780227 22.8922052,23.3430746 C38.2267598,8.11940162 56.6344779,0.504284167 78.3904749,0.497722239 C99.8651039,0.491160311 118.279075,8.09643487 133.619882,23.3135459" id="Fill-2" fill="#FFFFFF" mask="url(#mask-2)"></path>
                    </g>
                    <path d="M100.775798,184.146729 C100.43503,190.68241 98.2591181,196.246925 94.335598,200.964951 C90.0525522,205.922487 84.7409501,208.501325 78.4007917,208.501325 C72.0543808,208.504606 66.7427787,205.929049 62.4566065,200.974794 C58.5268338,196.43394 56.3509215,190.715219 56.0101536,184.146729 L30.4744468,184.146729 C30.8402252,198.215503 35.4171442,210.125402 44.295867,220.007666 C53.7216941,230.113035 65.035813,235.260868 78.4070444,235.257587 C91.600076,235.251025 102.914195,230.09663 112.336896,219.98798 C121.371934,210.102436 125.983242,198.212222 126.349021,184.146729 L100.775798,184.146729 Z" id="Fill-5" fill="#FFFFFF"></path>
                </g>
            </g>
        </g>
    </g>
</svg>