<?xml version="1.0" encoding="UTF-8"?>
<svg width="50px" height="45px" viewBox="0 0 50 45" version="1.1" xmlns="http://www.w3.org/2000/svg" xmlns:xlink="http://www.w3.org/1999/xlink">
    <!-- Generator: sketchtool 51.2 (57519) - http://www.bohemiancoding.com/sketch -->
    <title>5D8D2E65-79CB-467A-B4CD-61F5D4A9F2D9</title>
    <desc>Created with sketchtool.</desc>
    <defs></defs>
    <g id="Mobile-Dev-375" stroke="none" stroke-width="1" fill="none" fill-rule="evenodd">
        <g id="1-Product-Catalog" transform="translate(-35.000000, -2966.000000)" fill="#1800FF">
            <g id="Group-3" transform="translate(35.000000, 2966.000000)">
                <g id="emoticon/2/blue">
                    <path d="M9.58459108,24.9333655 C11.3960882,31.7601673 17.6198746,36.8049 24.9995688,36.8049 C32.3792629,36.8049 38.603912,31.7601673 40.4145465,24.9333655 L9.58459108,24.9333655 Z M24.9995687,45 C11.6945541,45 0.869565217,34.1598713 0.869565217,20.8362482 L0.869565217,16.7391304 L49.1304348,16.7391304 L49.1304348,20.8362482 C49.1304348,34.1598713 38.3045833,45 24.9995687,45 Z" id="Fill-189"></path>
                    <path d="M11.3043478,5.21701254 C11.3043478,7.85848819 9.16266641,10 6.52173913,10 C3.88005427,10 1.73913043,7.85848819 1.73913043,5.21701254 C1.73913043,2.57629441 3.88005427,0.434782609 6.52173913,0.434782609 C9.16266641,0.434782609 11.3043478,2.57629441 11.3043478,5.21701254 Z" id="Fill-1"></path>
                    <path d="M48.2608696,5.21701254 C48.2608696,7.85848819 46.1191881,10 43.4782609,10 C40.836576,10 38.6956522,7.85848819 38.6956522,5.21701254 C38.6956522,2.57629441 40.836576,0.434782609 43.4782609,0.434782609 C46.1191881,0.434782609 48.2608696,2.57629441 48.2608696,5.21701254 Z" id="Fill-1-Copy"></path>
                </g>
            </g>
        </g>
    </g>
</svg>