<?xml version="1.0" encoding="UTF-8"?>
<svg width="46px" height="44px" viewBox="0 0 46 44" version="1.1" xmlns="http://www.w3.org/2000/svg" xmlns:xlink="http://www.w3.org/1999/xlink">
    <!-- Generator: sketchtool 51.2 (57519) - http://www.bohemiancoding.com/sketch -->
    <title>2F48C98E-AEB8-4A97-A7B6-01D0E6E7A31A</title>
    <desc>Created with sketchtool.</desc>
    <defs></defs>
    <g id="Desktop-Dev" stroke="none" stroke-width="1" fill="none" fill-rule="evenodd">
        <g id="New_User_Receipt_2018-07-25" transform="translate(-876.000000, -1218.000000)" fill="#1800FF" fill-rule="nonzero">
            <g id="Group-2" transform="translate(387.000000, 1214.000000)">
                <g id="got-qs?" transform="translate(358.000000, 0.000000)">
                    <g id="Visible-Icon-Monoline-Help" transform="translate(129.000000, 0.000000)">
                        <path d="M37.7731286,21.6469571 L37.7731286,4.5327 L2.65872857,4.5327 L2.65872857,35.5183286 L8.80165714,35.5183286 L8.80165714,43.7183143 L20.5730714,35.5183286 L23.4445143,35.5183286 L23.4445143,41.3756143 L34.1159,41.3756143 L42.5872286,47.2897429 L42.5872286,41.3756143 L47.3444857,41.3756143 L47.3444857,21.6469571 L37.7731286,21.6469571 Z M19.3300429,31.5468571 L12.7731286,36.1325143 L12.7731286,31.5468571 L6.6159,31.5468571 L6.6159,8.48987143 L33.8159571,8.48987143 L33.8159571,31.5468571 L19.3300429,31.5468571 Z M43.3873143,37.4184429 L38.6157571,37.4184429 L38.6157571,39.6896429 L35.3587429,37.4184429 L27.4016714,37.4184429 L27.4016714,35.5183286 L37.7731143,35.5183286 L37.7731143,25.6041286 L43.3873143,25.6041286 L43.3873,37.4184429 L43.3873143,37.4184429 Z M27.473,15.6756286 C27.473,17.6897857 26.5158,19.3897 24.6158571,20.7038857 L23.4588,21.5182714 C22.6730143,22.0613143 22.2586714,22.8467429 22.2586714,23.7898286 C22.2586714,23.8327286 22.2586714,23.9467714 22.2872714,24.0897714 L22.3444714,24.5041143 L18.9015714,24.5041143 L18.8588429,24.0611714 C18.8445429,23.7469286 18.8159429,23.4612857 18.8159429,23.1184429 C18.8159429,21.2898286 19.5588286,19.9041571 21.1443429,18.7612286 L22.3873714,17.8614 C23.1586857,17.3040571 23.5158286,16.6612714 23.5158286,15.8039857 C23.5158286,14.7039571 22.8444429,13.4326857 20.9588,13.4326857 C20.1730143,13.4326857 19.5159286,13.6897286 19.0300857,14.1898714 C18.5158143,14.7182571 18.2301714,15.4611429 18.2586,16.2469286 L18.2729,16.6183714 L14.5445286,16.6183714 L14.5159286,16.2898286 C14.4015286,14.6610571 14.9873,13.0469429 16.1016286,11.8468143 C16.9301429,10.9612857 18.4588,9.90415714 20.9588,9.90415714 C25.2302286,9.90414286 27.473,12.8041857 27.473,15.6756286 Z M22.7159286,27.9039286 C22.7159286,29.0611571 21.7873286,29.9895857 20.6302714,29.9895857 C19.4730429,29.9895857 18.5301429,29.0611571 18.5301429,27.9039286 C18.5301429,26.7470571 19.4730429,25.8039714 20.6302714,25.8039714 C21.7873143,25.8039714 22.7159286,26.7470571 22.7159286,27.9039286 Z" id="Icon"></path>
                    </g>
                </g>
            </g>
        </g>
    </g>
</svg>