<?xml version="1.0" encoding="UTF-8"?>
<svg width="40px" height="47px" viewBox="0 0 40 47" version="1.1" xmlns="http://www.w3.org/2000/svg" xmlns:xlink="http://www.w3.org/1999/xlink">
    <!-- Generator: sketchtool 51.2 (57519) - http://www.bohemiancoding.com/sketch -->
    <title>2D4F10EE-0A3F-4478-ACC7-B9BAAE87E77C</title>
    <desc>Created with sketchtool.</desc>
    <defs></defs>
    <g id="Desktop-Dev" stroke="none" stroke-width="1" fill="none" fill-rule="evenodd">
        <g id="New_User_Receipt_2018-07-25" transform="translate(-521.000000, -1217.000000)" fill="#1800FF">
            <g id="Group-2" transform="translate(387.000000, 1214.000000)">
                <g id="got-qs?-copy" transform="translate(0.000000, 1.000000)">
                    <g id="Visible-Icon-Monoline-Apple" transform="translate(129.000000, 0.000000)">
                        <path d="M26.5659,5.67237143 C29.3049143,2.06232857 33.1128143,2.0447 33.1128143,2.0447 C33.1128143,2.0447 33.6791286,5.43878571 30.9581714,8.70838571 C28.0527714,12.1996286 24.7503143,11.6283 24.7503143,11.6283 C24.7503143,11.6283 24.1302429,8.88258571 26.5659,5.67237143 Z M18.7752286,48.0783143 C12.2322571,48.0783143 5.83577143,36.1175143 5.83577143,27.1903429 C5.83577143,17.6946714 12.0257857,12.5712 17.8502857,12.5712 C20.0531286,12.5712 21.8695429,13.2715286 23.3288,13.8337571 C23.9663571,14.0793 24.7587714,14.3848143 25.0866143,14.3924857 C25.3307571,14.3666714 26.0310857,14.0841714 26.5430857,13.8777 C28.0316429,13.2778143 30.0712714,12.4554 32.5266286,12.4554 C39.4741714,12.4554 42.3076,17.4344714 42.4247857,17.6465286 L43.4153,19.4371286 L41.5933143,20.3683571 C41.4677571,20.4353286 38.1627857,22.2468429 38.1627857,26.5032571 C38.1627857,31.3274714 42.3494429,33.0734286 42.5280143,33.1452714 L44.2872286,33.8553714 L43.6664143,35.6494571 C43.2158,36.9155 39.0835429,48.0176286 32.5712714,48.0176286 C31.0115571,48.0176286 29.6890143,47.5237714 28.5213286,47.0878 C27.5001286,46.7062429 26.6170286,46.3763 25.6753429,46.3763 C24.5732286,46.3763 23.3511286,46.8192429 22.1694857,47.2475286 C20.9892429,47.6744429 19.8759571,48.0783143 18.7752286,48.0783143 Z M17.8502857,16.5318571 C13.8477714,16.5318571 9.79504286,20.1932714 9.79504286,27.1903429 C9.79504286,35.1507286 15.6530286,44.1176571 18.7752286,44.1176571 C19.1798,44.1176571 20.0517286,43.8023714 20.8204286,43.5233429 C22.1820286,43.0301857 23.8770714,42.4156429 25.6753429,42.4156429 C27.3327143,42.4156429 28.6999,42.9269429 29.9080429,43.3775571 C30.8832143,43.7423714 31.7272429,44.0569714 32.5712714,44.0569714 C34.8982857,44.0569714 37.7149714,39.6240714 39.3193143,35.8866286 C37.2769,34.5487429 34.2035286,31.6755571 34.2035286,26.5032571 C34.2035286,22.3863571 36.2096714,19.7335857 37.8196,18.2680429 C36.8193143,17.4003 35.1145286,16.4160571 32.5266286,16.4160571 C30.8399714,16.4160571 29.3430286,17.0194286 28.0232857,17.5509571 C26.9560429,17.9813429 26.0352857,18.3531286 25.0991714,18.3531286 C24.0430857,18.3531286 23.0037429,17.9527429 21.9044143,17.5293286 C20.6920857,17.062 19.3165286,16.5318571 17.8502857,16.5318571 Z" id="Icon"></path>
                    </g>
                </g>
            </g>
        </g>
    </g>
</svg>