<?xml version="1.0" encoding="UTF-8"?>
<svg width="38px" height="38px" viewBox="0 0 38 38" version="1.1" xmlns="http://www.w3.org/2000/svg" xmlns:xlink="http://www.w3.org/1999/xlink">
    <!-- Generator: sketchtool 52.3 (67297) - http://www.bohemiancoding.com/sketch -->
    <title>95AB6874-5C37-4FB8-AF4D-9278D79315F9</title>
    <desc>Created with sketchtool.</desc>
    <defs>
        <polygon id="path-1" points="0.2671 0.1594 18.7981 0.1594 18.7981 27 0.2671 27"></polygon>
        <polygon id="path-3" points="0.7094 0.7537 5.496 0.7537 5.496 16.7407 0.7094 16.7407"></polygon>
    </defs>
    <g id="Style-Guide" stroke="none" stroke-width="1" fill="none" fill-rule="evenodd">
        <g transform="translate(-1321.000000, -7560.000000)"></g>
        <g id="Icons/ServiceAddress">
            <g id="Group-13" transform="translate(5.000000, 3.000000)">
                <g id="Group-3" transform="translate(4.000000, 4.246600)">
                    <mask id="mask-2" fill="white">
                        <use xlink:href="#path-1"></use>
                    </mask>
                    <g id="Clip-2"></g>
                    <path d="M6.5381,21.1304 L13.0981,18.4804 L14.0581,21.1304 L6.5381,21.1304 Z M7.3581,14.6804 L10.7081,16.4604 L6.0281,18.3504 L7.3581,14.6804 Z M11.3381,13.6504 L8.3181,12.0504 L9.3881,9.1004 C9.4881,9.1094 9.5881,9.1194 9.6881,9.1194 L11.3381,13.6504 Z M8.0381,4.6404 C8.0381,3.6994 8.8081,2.9304 9.7481,2.9304 C10.1281,2.9304 10.4881,3.0604 10.7981,3.2894 C11.2181,3.6194 11.4581,4.1094 11.4581,4.6404 C11.4581,4.9094 11.3981,5.1704 11.2881,5.4004 C11.1681,5.6304 11.0081,5.8294 10.7881,5.9894 C10.6881,6.0694 10.5681,6.1404 10.4481,6.1904 C10.2381,6.3004 9.9981,6.3504 9.7481,6.3504 C9.2381,6.3504 8.7671,6.1194 8.4581,5.7604 C8.2081,5.4704 8.0481,5.0904 8.0381,4.6804 L8.0381,4.6404 Z M12.3381,8.3004 C12.3881,8.2704 12.4381,8.2304 12.4881,8.1904 C13.5981,7.3294 14.2281,6.0394 14.2281,4.6404 C14.2281,3.2504 13.5981,1.9494 12.4981,1.1004 C11.7081,0.4894 10.7581,0.1594 9.7481,0.1594 C7.2781,0.1594 5.2671,2.1704 5.2671,4.6404 C5.2671,5.9894 5.8681,7.1994 6.8181,8.0294 L0.2671,26.0504 L2.8781,27.0004 L4.0081,23.9004 L15.0681,23.9004 L16.1981,27.0004 L18.7981,26.0504 L12.3381,8.3004 Z" id="Fill-1" fill="#1800FF" mask="url(#mask-2)"></path>
                </g>
                <path d="M6.4893,14.25 C5.3303,12.694 4.7173,10.842 4.7173,8.894 C4.7173,7.036 5.2703,5.259 6.3173,3.752 L8.5073,5.273 C7.7713,6.331 7.3833,7.583 7.3833,8.894 C7.3833,10.264 7.8133,11.564 8.6283,12.656 L6.4893,14.25 Z" id="Fill-4" fill="#1800FF"></path>
                <path d="M21.0068,14.25 L18.8678,12.656 C19.6828,11.564 20.1128,10.264 20.1128,8.894 C20.1128,7.58 19.7228,6.33 18.9838,5.28 L21.1628,3.745 C22.2208,5.247 22.7788,7.027 22.7788,8.894 C22.7788,10.842 22.1658,12.694 21.0068,14.25" id="Fill-6" fill="#1800FF"></path>
                <path d="M2.6504,16.9805 C0.9164,14.6315 0.0004,11.8345 0.0004,8.8935 C0.0004,6.0415 0.8644,3.3135 2.4994,1.0065 L4.6744,2.5475 C3.3604,4.4025 2.6664,6.5965 2.6664,8.8935 C2.6664,11.2605 3.4024,13.5095 4.7954,15.3965 L2.6504,16.9805 Z" id="Fill-8" fill="#1800FF"></path>
                <g id="Group-12" transform="translate(22.000000, 0.246600)">
                    <mask id="mask-4" fill="white">
                        <use xlink:href="#path-3"></use>
                    </mask>
                    <g id="Clip-11"></g>
                    <path d="M2.8594,16.7407 L0.7094,15.1647 C2.0964,13.2707 2.8304,11.0167 2.8304,8.6467 C2.8304,6.3477 2.1374,4.1477 0.8294,2.2867 L3.0104,0.7537 C4.6364,3.0657 5.4964,5.7957 5.4964,8.6467 C5.4964,11.5887 4.5854,14.3867 2.8594,16.7407" id="Fill-10" fill="#1800FF" mask="url(#mask-4)"></path>
                </g>
            </g>
        </g>
    </g>
</svg>