<?xml version="1.0" encoding="UTF-8"?>
<svg width="38px" height="38px" viewBox="0 0 38 38" version="1.1" xmlns="http://www.w3.org/2000/svg" xmlns:xlink="http://www.w3.org/1999/xlink">
    <!-- Generator: sketchtool 52.3 (67297) - http://www.bohemiancoding.com/sketch -->
    <title>3226BC8B-5A8A-4C9A-BC50-EBC6A6ECF31A</title>
    <desc>Created with sketchtool.</desc>
    <g id="Style-Guide" stroke="none" stroke-width="1" fill="none" fill-rule="evenodd">
        <g transform="translate(-1380.000000, -7560.000000)"></g>
        <g id="Icons/ShippingAddress" fill="#1800FF">
            <g id="Group-5" transform="translate(3.000000, 6.000000)">
                <path d="M20.821,19.8048 L22.321,19.8048 L22.321,15.0258 L20.821,15.0258 L20.821,19.8048 Z M16.552,19.8048 L18.052,19.8048 L18.052,15.0258 L16.552,15.0258 L16.552,19.8048 Z M13.771,22.5848 L25.091,22.5848 L25.091,12.2548 L13.771,12.2548 L13.771,22.5848 Z" id="Fill-1"></path>
                <polygon id="Fill-2" points="9.4167 -3.55271368e-15 9.4167 5.571 4.1487 5.571 4.1487 8.343 12.1887 8.343 12.1887 2.771 20.7827 2.771 26.7427 8.353 26.7427 24.114 12.1887 24.114 12.1887 22.003 9.4167 22.003 9.4167 26.885 29.5137 26.885 29.5137 7.151 21.8787 -3.55271368e-15"></polygon>
                <polygon id="Fill-3" points="5.518 19.2878 12.154 19.2878 12.154 16.5168 5.518 16.5168"></polygon>
                <polygon id="Fill-4" points="0 13.8158 12.154 13.8158 12.154 11.0438 0 11.0438"></polygon>
            </g>
        </g>
    </g>
</svg>