<?xml version="1.0" encoding="UTF-8"?>
<svg width="40px" height="29px" viewBox="0 0 40 29" version="1.1" xmlns="http://www.w3.org/2000/svg" xmlns:xlink="http://www.w3.org/1999/xlink">
    <!-- Generator: Sketch 53.2 (72643) - https://sketchapp.com -->
    <title>Group 21</title>
    <desc>Created with Sketch.</desc>
    <defs>
        <polygon id="path-1" points="0.00747945205 0.0871232877 39.9266575 0.0871232877 39.9266575 28.4930137 0.00747945205 28.4930137"></polygon>
        <polygon id="path-3" points="0.165561644 0.234136986 32.5545205 0.234136986 32.5545205 6.87276712 0.165561644 6.87276712"></polygon>
    </defs>
    <g id="mock-up" stroke="none" stroke-width="1" fill="none" fill-rule="evenodd">
        <g id="payment-copy-2" transform="translate(-438.000000, -1370.000000)">
            <g id="Group-21" transform="translate(438.000000, 1370.000000)">
                <g id="Group-3" transform="translate(0.000000, 0.186849)">
                    <mask id="mask-2" fill="white">
                        <use xlink:href="#path-1"></use>
                    </mask>
                    <g id="Clip-2"></g>
                    <path d="M37.7072055,28.4930137 L2.22693151,28.4930137 C1.00638356,28.4930137 0.00747945205,27.4943836 0.00747945205,26.2738356 L0.00747945205,2.30616438 C0.00747945205,1.08561644 1.00638356,0.0869863014 2.22693151,0.0869863014 L37.7072055,0.0869863014 C38.9277534,0.0869863014 39.9266575,1.08561644 39.9266575,2.30616438 L39.9266575,26.2738356 C39.9266575,27.4943836 38.9277534,28.4930137 37.7072055,28.4930137" id="Fill-1" fill="#016FD0" mask="url(#mask-2)"></path>
                </g>
                <path d="M19.9650685,10.5178082 C19.9650685,10.0336986 19.4894521,9.99150685 19.2913699,9.99150685 L18.1056164,9.99150685 L18.1056164,10.9736986 L19.13,10.9736986 C19.3513699,10.9736986 19.9650685,11.0021918 19.9650685,10.5178082" id="Fill-4" fill="#FFFFFF"></path>
                <polygon id="Fill-6" fill="#FFFFFF" points="28.9550685 10.0793151 28.3235616 11.689726 29.6076712 11.689726"></polygon>
                <polygon id="Fill-8" fill="#FFFFFF" points="2.16808219 11.6305753 3.44534247 11.6305753 2.82753425 10.0615342"></polygon>
                <g id="Group-12" transform="translate(7.397260, 16.351233)">
                    <mask id="mask-4" fill="white">
                        <use xlink:href="#path-3"></use>
                    </mask>
                    <g id="Clip-11"></g>
                    <path d="M26.5765205,5.93550685 L24.2737808,5.93550685 L24.2737808,4.84071233 L26.5754247,4.84071233 C26.7907671,4.84071233 27.1228219,4.75441096 27.1228219,4.43386301 C27.1228219,4.11276712 26.8206301,4.06783562 26.6228219,4.06783562 C26.3091233,4.07139726 26.0773425,4.06783562 25.4666575,4.06783562 C24.8562466,4.06783562 24.112137,3.74454795 24.112137,2.59632877 C24.112137,1.90619178 24.6625479,1.18043836 25.8537808,1.18043836 L28.231589,1.18043836 L27.7403562,2.27221918 L25.712411,2.27221918 C25.6091233,2.27221918 25.2981644,2.36865753 25.2981644,2.65030137 C25.2981644,2.93194521 25.552411,3.02865753 25.6491233,3.02865753 L27.0809041,3.04509589 C27.7685753,3.04509589 28.3439178,3.59852055 28.3439178,4.37057534 C28.3439178,5.39331507 27.7225479,5.93550685 26.5765205,5.93550685 L26.5765205,5.93550685 Z M23.7683014,5.93550685 L19.8899452,5.93550685 L19.8899452,1.18043836 L23.7543288,1.18043836 L23.7543288,2.27221918 L21.1154247,2.27221918 L21.1154247,3.02838356 L23.6839178,3.02838356 L23.6839178,4.04071233 L21.101726,4.04071233 L21.101726,4.84345205 L23.7683014,4.84756164 L23.7683014,5.93550685 Z M18.2452877,5.93550685 L16.8277534,4.19852055 L16.3995342,4.19852055 L16.3995342,5.93550685 L15.1855616,5.93550685 L15.1855616,1.18043836 L17.8381644,1.18043836 C18.7083014,1.18043836 19.4348767,1.75632877 19.4348767,2.77386301 C19.4348767,3.55989041 18.9332329,3.94263014 18.2381644,4.1949589 L19.7329589,5.93550685 L18.2452877,5.93550685 Z M13.1855616,4.34043836 L11.6346027,4.34043836 L11.6346027,5.93550685 L10.4414521,5.93550685 L10.4414521,1.18043836 L12.9959726,1.18043836 C13.6556986,1.18043836 14.6732329,1.49331507 14.6732329,2.74673973 C14.6732329,3.90016438 13.8170685,4.34043836 13.1855616,4.34043836 L13.1855616,4.34043836 Z M10.3151507,5.93550685 L8.79926027,5.93550685 L7.72556164,4.36126027 L6.59926027,5.93550685 L5.14309589,5.93550685 L7.03076712,3.54947945 L5.14309589,1.18043836 L6.63076712,1.18043836 L7.72556164,2.66509589 L8.8729589,1.18043836 L10.3362466,1.18043836 L8.39926027,3.56619178 L10.3151507,5.93550685 Z M5.04473973,2.25441096 L2.39926027,2.25441096 L2.39926027,3.02838356 L4.96775342,3.02838356 L4.96775342,3.99852055 L2.39926027,3.99852055 L2.39926027,4.84427397 L5.04473973,4.84427397 L5.04473973,5.93550685 L1.19131507,5.93550685 L1.19131507,1.18043836 L5.04473973,1.18043836 L5.04473973,2.25441096 Z M30.892411,5.93550685 L28.5896712,5.93550685 L28.5896712,4.84071233 L30.8913151,4.84071233 C31.1069315,4.84071233 31.4387123,4.75441096 31.4387123,4.43386301 C31.4387123,4.11276712 31.1367945,4.06783562 30.9387123,4.06783562 C30.6250137,4.07139726 30.3932329,4.06783562 29.7825479,4.06783562 C29.172137,4.06783562 28.4283014,3.74454795 28.4283014,2.59632877 C28.4283014,1.90619178 28.9787123,1.18043836 30.1696712,1.18043836 L32.5543288,1.18043836 L32.5546027,0.234136986 L8.40967123,0.234136986 L7.7359726,1.12838356 L7.06775342,0.234136986 L0.165561644,0.234136986 L0.165561644,6.86920548 L7.0729589,6.86920548 L7.70446575,5.96016438 L8.31515068,6.86920548 L12.5469315,6.87276712 L12.5469315,5.31194521 L12.9110411,5.31194521 C13.4025479,5.31934247 13.7962466,5.32482192 14.2206301,5.1179726 L14.2206301,6.86920548 L17.052137,6.86920548 L17.052137,5.7949589 L17.9014521,6.86893151 L31.0107671,6.86893151 C32.1787123,6.86893151 32.5546027,6.33550685 32.5546027,6.33550685 L32.5546027,5.01715068 C32.3335068,5.61989041 31.7658356,5.93550685 30.892411,5.93550685 L30.892411,5.93550685 Z" id="Fill-10" fill="#FFFFFF" mask="url(#mask-4)"></path>
                </g>
                <path d="M8.13208219,13.6818904 L6.9400274,10.2723014 L6.9400274,13.6818904 L5.71536986,13.6818904 L5.71536986,8.9950411 L7.60221918,9.00654795 L8.70852055,11.9986027 L9.74742466,8.92764384 L11.614,8.92764384 L11.614,13.6818904 L10.4490685,13.6818904 L10.4208493,10.216137 L9.17180822,13.6818904 L8.13208219,13.6818904 Z M4.30167123,13.6818904 L3.8649589,12.7002466 L1.75290411,12.7002466 L1.31180822,13.6818904 L0.0131780822,13.6818904 L2.04194521,8.98106849 L3.58550685,8.98106849 L5.6309863,13.6818904 L4.30167123,13.6818904 Z M12.414,8.92764384 L16.2101644,8.92764384 L16.2101644,10.005726 L13.5504384,10.005726 L13.5504384,10.7747671 L16.1463288,10.7747671 L16.1463288,11.7492877 L13.5504384,11.7492877 L13.5504384,12.6303836 L16.2101644,12.6303836 L16.2101644,13.6818904 L12.414,13.6818904 L12.414,8.92764384 Z M19.0950959,8.92764384 C21.0460548,8.92764384 21.144137,9.96654795 21.144137,10.4969589 C21.144137,11.2547671 20.6249589,11.8583288 19.8950959,11.9635342 L21.4597534,13.6818904 L20.0074247,13.6818904 L18.5405753,12.005726 L18.1126301,12.005726 L18.1126301,13.6818904 L16.9052329,13.6818904 L16.8915342,8.92764384 L19.0950959,8.92764384 Z M21.6479726,13.6818904 L22.8074247,13.6818904 L22.8074247,8.92764384 L21.6479726,8.92764384 L21.6479726,13.6818904 Z M25.754,8.92764384 L27.0287945,8.92764384 L27.0287945,10.0794247 L25.7772877,10.0794247 C25.3627671,10.0794247 24.5761918,10.2687397 24.5761918,11.3049041 C24.5761918,12.4479178 25.3813973,12.6665479 25.6805753,12.6665479 L26.1597534,12.6665479 L25.6718082,13.6818904 L25.6707123,13.6818904 C24.3759178,13.6818904 23.4159178,12.9424384 23.4159178,11.3410685 C23.4159178,10.0476438 24.1022192,8.92764384 25.754,8.92764384 L25.754,8.92764384 Z M29.734,8.92791781 L31.7657808,13.6818904 L30.4556438,13.6818904 L30.0134521,12.6898356 L27.8890685,12.6898356 L27.4603014,13.6818904 L26.1923562,13.6818904 L28.2287945,8.92791781 L29.734,8.92791781 Z M33.3868767,8.92791781 L35.2605753,11.8898356 L35.2498904,8.92791781 L36.4712603,8.92791781 L36.4712603,13.6818904 L35.0183836,13.6818904 L33.0709863,10.6583288 L33.0709863,13.6818904 L31.8603014,13.6818904 L31.8498904,8.92791781 L33.3868767,8.92791781 Z M18.7720822,14.615589 L18.7792055,13.5777808 L19.6074247,14.615589 L23.7548219,14.615589 L23.7548219,14.0476438 C24.133726,14.4618904 24.7668767,14.615589 25.5775616,14.615589 L28.1550959,14.615589 L28.5970137,13.6372329 L29.354274,13.6372329 L29.7866027,14.615589 L33.8287945,14.615589 L33.8287945,13.4479178 L34.5972877,14.615589 L37.4712603,14.615589 L37.4712603,7.98517808 L34.523589,7.98517808 L34.523589,9.22654795 L33.723589,7.98517808 L31.0076986,7.98517808 L31.0076986,9.65805479 L30.2753699,7.98517808 L25.9022192,7.98517808 C24.5687945,7.98517808 24.0918082,8.39860274 23.7408493,8.6369589 L23.7408493,7.98517808 L20.7279726,7.98517808 L9.19975342,7.98517808 L8.68057534,9.23367123 L8.19591781,7.98517808 L4.8909863,7.98517808 L4.8909863,9.73887671 L4.14413699,7.98517808 L1.45208219,7.98517808 L2.73972603e-05,11.2827123 L2.73972603e-05,14.615589 L1.94084932,14.615589 L2.37865753,13.6128493 L3.21646575,13.6591507 L3.65290411,14.6621644 L9.94057534,14.6191507 L18.7720822,14.615589 Z" id="Fill-13" fill="#FFFFFF"></path>
                <path d="M25.1512877,18.5883836 L23.7688219,18.5883836 L23.7688219,19.5831781 L25.1795068,19.5831781 C25.4460822,19.5831781 25.6567671,19.3390685 25.6567671,19.0864658 C25.6567671,18.8127671 25.4743014,18.5883836 25.1512877,18.5883836" id="Fill-15" fill="#FFFFFF"></path>
                <path d="M20.3372329,18.5883836 L19.0177808,18.5883836 L19.0177808,19.7259178 L20.3372329,19.7259178 C20.5720274,19.7259178 20.9090137,19.5645479 20.9090137,19.1533151 C20.9090137,18.7374247 20.5687397,18.5883836 20.3372329,18.5883836" id="Fill-17" fill="#FFFFFF"></path>
                <path d="M37.4254795,18.6234247 C37.3221918,18.6234247 37.0115068,18.720137 37.0115068,19.0015068 C37.0115068,19.2831507 37.2654795,19.379863 37.3624658,19.379863 L38.7939726,19.3963014 C39.3060274,19.3963014 39.7553425,19.7034247 39.9517808,20.1787671 L39.9517808,17.6321918 L39.4534247,18.6234247 L37.4254795,18.6234247 Z" id="Fill-19" fill="#FFFFFF"></path>
            </g>
        </g>
    </g>
</svg>