<?xml version="1.0" encoding="UTF-8"?>
<svg width="40px" height="29px" viewBox="0 0 40 29" version="1.1" xmlns="http://www.w3.org/2000/svg" xmlns:xlink="http://www.w3.org/1999/xlink">
    <!-- Generator: Sketch 53.2 (72643) - https://sketchapp.com -->
    <title>Group 10</title>
    <desc>Created with Sketch.</desc>
    <defs>
        <polygon id="path-1" points="0 0.0886730769 39.9187945 0.0886730769 39.9187945 28.9998606 0 28.9998606"></polygon>
    </defs>
    <g id="mock-up" stroke="none" stroke-width="1" fill="none" fill-rule="evenodd">
        <g id="payment-copy-2" transform="translate(-438.000000, -1240.000000)">
            <g id="Group-10" transform="translate(438.000000, 1240.000000)">
                <g id="Group-3">
                    <mask id="mask-2" fill="white">
                        <use xlink:href="#path-1"></use>
                    </mask>
                    <g id="Clip-2"></g>
                    <path d="M37.6996164,28.9998606 L2.21934247,28.9998606 C0.998794521,28.9998606 -0.000109589041,27.9834663 -0.000109589041,26.7412067 L-0.000109589041,2.3471875 C-0.000109589041,1.10492788 0.998794521,0.0885336538 2.21934247,0.0885336538 L37.6996164,0.0885336538 C38.9201644,0.0885336538 39.9187945,1.10492788 39.9187945,2.3471875 L39.9187945,26.7412067 C39.9187945,27.9834663 38.9201644,28.9998606 37.6996164,28.9998606" id="Fill-1" fill="#0071BC" mask="url(#mask-2)"></path>
                </g>
                <path d="M16.9535026,14.9998631 C16.9535026,12.4570162 18.144858,10.1926612 20,8.72736141 C18.6320559,7.6468021 16.9040688,7 15.023386,7 C10.592192,7 7,10.5815092 7,14.9998631 C7,19.418217 10.592192,23 15.023386,23 C16.9040688,23 18.6320559,22.3531979 20,21.2726386 C18.144858,19.8073388 16.9535026,17.5429838 16.9535026,14.9998631" id="Fill-4" fill="#E71B26"></path>
                <path d="M17,14.4998581 C17,17.1351581 18.1731194,19.4815882 19.9998648,21 C21.8266102,19.4815882 23,17.1351581 23,14.4998581 C23,11.8648419 21.8266102,9.5184118 19.9998648,8 C18.1731194,9.5184118 17,11.8648419 17,14.4998581" id="Fill-6" fill="#F36523"></path>
                <path d="M24.976614,7 C23.0959312,7 21.3679441,7.6468021 20,8.72736141 C21.855142,10.1926612 23.0464974,12.4570162 23.0464974,14.9998631 C23.0464974,17.5429838 21.855142,19.8073388 20,21.2726386 C21.3679441,22.3529241 23.0959312,23 24.976614,23 C29.407808,23 33,19.418217 33,14.9998631 C33,10.5815092 29.407808,7 24.976614,7" id="Fill-8" fill="#FA9F1B"></path>
            </g>
        </g>
    </g>
</svg>