<?xml version="1.0" encoding="UTF-8"?>
<svg width="40px" height="29px" viewBox="0 0 40 29" version="1.1" xmlns="http://www.w3.org/2000/svg" xmlns:xlink="http://www.w3.org/1999/xlink">
    <!-- Generator: Sketch 53.2 (72643) - https://sketchapp.com -->
    <title>Group 16</title>
    <desc>Created with Sketch.</desc>
    <defs>
        <polygon id="path-1" points="0 0 39.9189041 0 39.9189041 28.4058904 0 28.4058904"></polygon>
        <polygon id="path-3" points="2.79375934e-05 0.0346153846 15.892892 0.0346153846 15.892892 19.8076538 2.79375934e-05 19.8076538"></polygon>
        <polygon id="path-5" points="0.120178652 0.0346153846 16.3009658 0.0346153846 16.3009658 19.8076538 0.120178652 19.8076538"></polygon>
        <polygon id="path-7" points="0.178591174 0.0346153846 15.8793082 0.0346153846 15.8793082 19.8076538 0.178591174 19.8076538"></polygon>
    </defs>
    <g id="mock-up" stroke="none" stroke-width="1" fill="none" fill-rule="evenodd">
        <g id="payment-copy-2" transform="translate(-824.000000, -1370.000000)">
            <g id="Group-16" transform="translate(824.000000, 1370.000000)">
                <g id="Group-3" transform="translate(0.000000, 0.000000)">
                    <mask id="mask-2" fill="white">
                        <use xlink:href="#path-1"></use>
                    </mask>
                    <g id="Clip-2"></g>
                    <path d="M37.6995068,28.4058904 L2.21923288,28.4058904 C0.998684932,28.4058904 -0.000219178082,27.4072603 -0.000219178082,26.1867123 L-0.000219178082,2.2190411 C-0.000219178082,0.998493151 0.998684932,-0.000136986301 2.21923288,-0.000136986301 L37.6995068,-0.000136986301 C38.9200548,-0.000136986301 39.9189589,0.998493151 39.9189589,2.2190411 L39.9189589,26.1867123 C39.9189589,27.4072603 38.9200548,28.4058904 37.6995068,28.4058904" id="Fill-1" fill="#EEEEEE" mask="url(#mask-2)"></path>
                </g>
                <g id="Group-46" transform="translate(4.000000, 5.000000)">
                    <g id="Group-3">
                        <mask id="mask-4" fill="white">
                            <use xlink:href="#path-3"></use>
                        </mask>
                        <g id="Clip-2"></g>
                        <path d="M6.28105366,0.0345769231 L14.286322,0.0345769231 C15.4037854,0.0345769231 16.0988098,0.932269231 15.8381268,2.03726923 L12.1111024,17.8080385 C11.848078,18.9091923 10.7292488,19.8076538 9.61100488,19.8076538 L1.60651707,19.8076538 C0.490614634,19.8076538 -0.205970732,18.9091923 0.0547121951,17.8080385 L3.78329756,2.03726923 C4.04398049,0.932269231 5.16222439,0.0345769231 6.28105366,0.0345769231" id="Fill-1" fill="#E21837" mask="url(#mask-4)"></path>
                    </g>
                    <g id="Group-6" transform="translate(7.024390, 0.000000)">
                        <mask id="mask-6" fill="white">
                            <use xlink:href="#path-5"></use>
                        </mask>
                        <g id="Clip-5"></g>
                        <path d="M6.40070244,0.0345769231 L15.6065561,0.0345769231 C16.7238244,0.0345769231 16.2200195,0.932269231 15.9571902,2.03726923 L12.2307512,17.8080385 C11.9692878,18.9091923 12.0508488,19.8076538 10.931239,19.8076538 L1.72538537,19.8076538 C0.60577561,19.8076538 -0.087102439,18.9091923 0.175921951,17.8080385 L3.90216585,2.03726923 C4.16675122,0.932269231 5.28265366,0.0345769231 6.40070244,0.0345769231" id="Fill-4" fill="#00457C" mask="url(#mask-6)"></path>
                    </g>
                    <g id="Group-9" transform="translate(16.000000, 0.000000)">
                        <mask id="mask-8" fill="white">
                            <use xlink:href="#path-7"></use>
                        </mask>
                        <g id="Clip-8"></g>
                        <path d="M6.3830747,0.0345769231 L14.291894,0.0345769231 C15.3974361,0.0345769231 16.0840867,0.932269231 15.8244241,2.03726923 L12.1428819,17.8080385 C11.8830265,18.9091923 10.776906,19.8076538 9.67155663,19.8076538 L1.7664,19.8076538 C0.660279518,19.8076538 -0.0257927711,18.9091923 0.233291566,17.8080385 L3.91541205,2.03726923 C4.17295422,0.932269231 5.27695422,0.0345769231 6.3830747,0.0345769231" id="Fill-7" fill="#007B84" mask="url(#mask-8)"></path>
                    </g>
                    <path d="M23.6491985,11.794252 L22.6370455,14.9236757 L22.9105129,14.9236757 L22.6987375,15.569943 L22.4285064,15.569943 L22.3643872,15.7692308 L21.4013855,15.7692308 L21.4669206,15.569943 L19.5121951,15.569943 L19.7073845,14.9717014 L19.906417,14.9717014 L20.9319197,11.794252 L21.1366157,11.1538462 L22.1180238,11.1538462 L22.0152713,11.4766016 C22.0152713,11.4766016 22.2768048,11.3009485 22.5247864,11.2410109 C22.7721611,11.1797498 24.195122,11.1576277 24.195122,11.1576277 L23.9849647,11.794252 L23.6491985,11.794252 L23.6491985,11.794252 Z M21.9187891,11.794252 L21.6588737,12.5940504 C21.6588737,12.5940504 21.9511521,12.4707718 22.1085172,12.4301201 C22.2697254,12.3902247 22.5106275,12.3769893 22.5106275,12.3769893 L22.6987375,11.794252 L21.9187891,11.794252 L21.9187891,11.794252 Z M21.5294217,12.9899789 L21.2606065,13.8224876 C21.2606065,13.8224876 21.5585484,13.6806794 21.7173294,13.6354899 C21.8785376,13.601645 22.1234851,13.5727161 22.1234851,13.5727161 L22.3132132,12.9899789 L21.5294217,12.9899789 L21.5294217,12.9899789 Z M20.9044111,14.9310497 L21.6865845,14.9310497 L21.9109006,14.2286264 L21.1311544,14.2286264 L20.9044111,14.9310497 Z" id="Fill-10" fill="#FEFEFE"></path>
                    <path d="M23.804878,11.1538462 L24.9380874,11.1538462 L24.9492294,11.5503277 C24.9415829,11.617709 25.0029733,11.6489345 25.1353667,11.6489345 L25.3658537,11.6489345 L25.1550291,12.3038481 L24.5430917,12.3038481 C24.0139548,12.3391822 23.8125245,12.1255341 23.8262882,11.8849746 L23.804878,11.1538462 Z" id="Fill-12" fill="#FEFEFE"></path>
                    <path d="M24.0825965,13.9739656 L23.1669373,13.9739656 L23.3239022,13.4263296 L24.3707669,13.4263296 L24.5190218,12.9254242 L23.4860559,12.9254242 L23.6619233,12.3076923 L26.5365854,12.3076923 L26.3577529,12.9254242 L25.3935403,12.9254242 L25.2430616,13.4263296 L26.210054,13.4263296 L26.0493828,13.9739656 L25.0049272,13.9739656 L24.8188673,14.204722 L25.2430616,14.204722 L25.3464693,14.89506 C25.3581444,14.9636111 25.3581444,15.0087968 25.3798267,15.0383414 C25.401509,15.0624791 25.5290082,15.0752238 25.602765,15.0752238 L25.7315614,15.0752238 L25.5354943,15.7466379 L25.2089629,15.7466379 C25.1591122,15.7466379 25.0836876,15.7427759 24.9795385,15.7383345 C24.8824316,15.7292587 24.8136784,15.6695904 24.747149,15.6350252 C24.6871058,15.6054807 24.5979675,15.530171 24.5762852,15.4011792 L24.4741747,14.712386 L23.9986472,15.3905586 C23.8479832,15.6054807 23.6439474,15.7692308 23.2986988,15.7692308 L22.6341463,15.7692308 L22.8085311,15.1694573 L23.0626029,15.1694573 C23.1365451,15.1694573 23.2001093,15.1393335 23.2486628,15.113651 C23.2972163,15.0926029 23.3405808,15.066148 23.3891343,14.9916108 L24.0825965,13.9739656 Z" id="Fill-14" fill="#FEFEFE"></path>
                    <path d="M13.8084786,12.6923077 L16.3902439,12.6923077 L16.1990678,13.2542888 L15.1672298,13.2542888 L15.0060421,13.734596 L16.0619497,13.734596 L15.8691953,14.3149672 L14.8142741,14.3149672 L14.557597,15.0952862 C14.5268194,15.1812871 14.8087499,15.1924655 14.9105527,15.1924655 L15.4377173,15.126297 L15.2258255,15.7692308 L14.0365484,15.7692308 C13.9402698,15.7692308 13.8694419,15.7566101 13.7660608,15.7355155 C13.6658364,15.7122574 13.6212484,15.6713303 13.5772522,15.609489 C13.5340452,15.5460249 13.466374,15.4939195 13.5125404,15.3572555 L13.854645,14.3248835 L13.2682927,14.3248835 L13.4632173,13.734596 L14.051148,13.734596 L14.2076007,13.2542888 L13.6212484,13.2542888 L13.8084786,12.6923077 Z" id="Fill-16" fill="#FEFEFE"></path>
                    <path d="M15.3970808,11.4567201 L16.3902439,11.4567201 L16.2103754,12.0114506 L14.8534041,12.0114506 L14.7068445,12.1282807 C14.6431874,12.1847401 14.6215365,12.1616122 14.5390042,12.202086 C14.4623936,12.2372881 14.3019553,12.3076923 14.0930339,12.3076923 L13.6585366,12.3076923 L13.8335938,11.7748994 L13.9644241,11.7748994 C14.0743438,11.7748994 14.1502143,11.7655462 14.1885196,11.7436086 C14.2318213,11.7177598 14.2803044,11.6613004 14.3337838,11.5703191 L14.5845265,11.1538462 L15.5704726,11.1538462 L15.3970808,11.4567201 Z" id="Fill-18" fill="#FEFEFE"></path>
                    <path d="M16.9472601,11.1576234 L17.84453,11.1576234 L17.7133754,11.5921925 C17.7133754,11.5921925 17.9972819,11.3738692 18.1957807,11.2954919 C18.3929053,11.2254245 18.8401659,11.1619672 18.8401659,11.1619672 L20.2926829,11.1538462 L19.7981046,12.7393341 C19.7144641,13.0101607 19.6170799,13.1856126 19.5564111,13.2660673 C19.5020251,13.3465221 19.4376259,13.4165895 19.3117725,13.4830686 C19.1898459,13.546337 19.0779326,13.5818429 18.9750509,13.5922303 C18.8792373,13.5988404 18.731983,13.6011067 18.5279866,13.6039396 L17.1282848,13.6039396 L16.7348211,14.8566545 C16.6973203,14.9813028 16.6796498,15.0409828 16.7041922,15.0749778 C16.7240224,15.1038735 16.7715365,15.1376797 16.8375065,15.1376797 L17.4549931,15.0815879 L17.2433395,15.7692308 L16.5537964,15.7692308 C16.3337002,15.7692308 16.1740765,15.7641315 16.0621631,15.7560105 C15.955551,15.747134 15.844423,15.7560105 15.7692251,15.7014297 C15.7056112,15.6468489 15.6074417,15.5745151 15.6097977,15.5014259 C15.6166696,15.4336248 15.6465132,15.3206859 15.6910821,15.1650645 L16.9472601,11.1576234 L16.9472601,11.1576234 Z M18.8523389,12.7578425 L17.3821513,12.7578425 L17.2916389,13.0424559 L18.564702,13.0424559 C18.7143125,13.0256473 18.7457267,13.0462332 18.7588814,13.039623 L18.8523389,12.7578425 L18.8523389,12.7578425 Z M17.461865,12.5002361 C17.461865,12.5002361 17.7495018,12.2473512 18.2419204,12.1653856 C18.3538338,12.1453663 19.0526048,12.1521653 19.0526048,12.1521653 L19.159217,11.8127821 L17.67666,11.8127821 L17.461865,12.5002361 Z" id="Fill-20" fill="#FEFEFE"></path>
                    <path d="M19.5121951,13.8461538 L19.4339084,14.2048293 C19.4010133,14.3172712 19.3721612,14.4007131 19.2846859,14.4729463 C19.1928001,14.5487379 19.0851099,14.6280877 18.833159,14.6280877 L18.3665629,14.6467687 L18.3628875,15.0518798 C18.3579256,15.165923 18.3895344,15.1547144 18.4080953,15.1728616 C18.4295966,15.1936776 18.4490764,15.201328 18.4691075,15.2096899 L18.6170436,15.201328 L19.0621385,15.1776653 L18.8776318,15.7692308 L18.3665629,15.7692308 C18.0089434,15.7692308 17.7433934,15.7608688 17.6572045,15.6948625 C17.5710156,15.642022 17.5596218,15.5760157 17.561092,15.4619726 L17.5939871,13.8815588 L18.4095655,13.8815588 L18.3981716,14.2048293 L18.5940722,14.2048293 C18.6615163,14.2048293 18.7067242,14.1984244 18.7348412,14.1811667 C18.7598342,14.1630194 18.7778438,14.1388231 18.7892376,14.0991481 L18.8711998,13.8461538 L19.5121951,13.8461538 Z" id="Fill-22" fill="#FEFEFE"></path>
                    <path d="M7.07157978,5.38461538 C7.04245162,5.51980413 6.49668186,7.96175541 6.4951488,7.96398686 C6.37767799,8.45788136 6.29240147,8.81026467 6.00188638,9.03768673 C5.83727395,9.16971425 5.64487478,9.23368251 5.42181438,9.23368251 C5.06326971,9.23368251 4.85439013,9.06093101 4.81912973,8.73327961 L4.81242259,8.62059133 C4.81242259,8.62059133 4.92165319,7.95896609 4.92165319,7.95524701 C4.92165319,7.95524701 5.49444315,5.72956053 5.59696661,5.4353809 C5.6021407,5.41883097 5.60367376,5.41009112 5.60520682,5.40209508 C4.49047975,5.41157875 4.2929065,5.40209508 4.27949221,5.38461538 C4.27201854,5.40860348 4.24423181,5.54658154 4.24423181,5.54658154 L3.65956062,8.05473254 L3.6095445,8.26765016 L3.51219512,8.96349098 C3.51219512,9.16971425 3.55416267,9.33837476 3.6371396,9.48062977 C3.90370061,9.93249861 4.66352402,10 5.0931644,10 C5.64698273,10 6.16649882,9.88601004 6.51756982,9.67755532 C7.12696161,9.32814728 7.28639997,8.78199963 7.42859139,8.29665902 L7.49451302,8.04748032 C7.49451302,8.04748032 8.08435829,5.73625488 8.18477379,5.4353809 C8.18841481,5.41883097 8.18994787,5.41009112 8.19512195,5.40209508 C7.38681547,5.41009112 7.14784957,5.40209508 7.07157978,5.38461538" id="Fill-24" fill="#FEFEFE"></path>
                    <path d="M10.4543773,9.98291983 C10.0542218,9.97656019 9.91157295,9.97656019 9.44320259,10 L9.42571158,9.96656647 C9.4659409,9.79903541 9.51005711,9.63513843 9.55028643,9.46615374 L9.60800677,9.23757015 C9.69449009,8.88342912 9.77864128,8.47114281 9.78855285,8.34467685 C9.79768704,8.26945141 9.825867,8.08066099 9.5942083,8.08066099 C9.49703603,8.08066099 9.39539383,8.12463335 9.29219688,8.16951423 C9.23583696,8.35830465 9.1221454,8.88851683 9.06734023,9.1298197 C8.95131654,9.63859081 8.94432013,9.6976446 8.89204145,9.94894119 L8.85861419,9.98291983 C8.44563202,9.97656019 8.30142837,9.97656019 7.82625595,10 L7.80487805,9.96166046 C7.88378194,9.66003188 7.96288017,9.35476921 8.03867454,9.05241381 C8.23846074,8.23183869 8.28626949,7.91821764 8.34010293,7.50084363 L8.3787775,7.476677 C8.84267794,7.41562446 8.95500908,7.40290519 9.45680671,7.30769231 L9.49936816,7.35184637 L9.42201903,7.61295497 C9.50772498,7.56534853 9.588961,7.5179238 9.67466695,7.476677 C9.91157295,7.36801803 10.1751042,7.33549301 10.3193078,7.33549301 C10.5400832,7.33549301 10.7808761,7.39291147 10.8809636,7.63076196 C10.975998,7.8429922 10.9128361,8.10337398 10.7876782,8.6172328 L10.7231558,8.87997674 C10.5948884,9.45125402 10.5735105,9.55627891 10.5014087,9.94894119 L10.4543773,9.98291983 Z" id="Fill-26" fill="#FEFEFE"></path>
                    <path d="M11.9830415,9.98146432 C11.7503611,9.97988681 11.6000338,9.97456274 11.4549354,9.97988681 C11.3098369,9.98146432 11.1682866,9.98915465 10.9522262,10 L10.9406482,9.97988681 L10.9268293,9.95839331 C10.9858397,9.7233451 11.0179593,9.64170923 11.0470911,9.55790428 C11.0769698,9.47390216 11.1040473,9.39068878 11.1565218,9.15189399 C11.2244959,8.83994242 11.2659526,8.62264114 11.2930302,8.43176306 C11.3251498,8.24680062 11.3417698,8.08964171 11.3658595,7.90783428 L11.3826663,7.89403112 L11.400967,7.87628419 C11.6321535,7.84236783 11.7787459,7.81929683 11.9290731,7.79385956 C12.0807075,7.77315481 12.2332757,7.74081596 12.472492,7.69230769 L12.4812689,7.71380119 L12.4878049,7.7368722 C12.4441073,7.92952497 12.3981688,8.12198056 12.3542844,8.31759115 C12.3120807,8.51418768 12.2668892,8.70585451 12.2259927,8.89850729 C12.1399047,9.30826415 12.1047972,9.46147931 12.0844424,9.5724962 C12.0640875,9.67562558 12.0588587,9.73261294 12.0254319,9.94459014 L12.0033964,9.96371739 L11.9830415,9.98146432 Z" id="Fill-28" fill="#FEFEFE"></path>
                    <path d="M15.9304643,8.64956803 C16.07979,8.07211181 15.9635101,7.80268079 15.817489,7.63829145 C15.5956691,7.38797547 15.2034568,7.30769231 14.7969935,7.30769231 C14.5524546,7.30769231 13.9700224,7.32899192 13.5150231,7.69873139 C13.1882828,7.96543169 13.0373048,8.32734309 12.9462223,8.6745086 C12.8541072,9.02786374 12.7485672,9.66430351 13.4125811,9.90114794 C13.6174651,9.97870039 13.9126054,10 14.1030318,10 C14.5896311,10 15.0882096,9.8820329 15.4632794,9.53140848 C15.7522236,9.24686747 15.8844067,8.82378795 15.9304643,8.64956803 M14.8139295,8.60824313 C14.7928628,8.70582085 14.6959973,9.06773225 14.5654664,9.22210895 C14.4741774,9.33588894 14.3661589,9.40470308 14.246781,9.40470308 C14.2112567,9.40470308 13.9997636,9.40470308 13.9966656,9.12817219 C13.9950133,8.9916362 14.0264068,8.85218744 14.0652356,8.70072351 C14.1773848,8.26344424 14.309568,7.8964355 14.6476678,7.8964355 C14.9122407,7.8964355 14.9316551,8.16950748 14.8139295,8.60824313" id="Fill-30" fill="#FEFEFE"></path>
                    <path d="M25.5738963,9.98564888 C25.1380474,9.9819691 25.0129945,9.9819691 24.6105513,10 L24.5853659,9.9655941 C24.6939783,9.52990869 24.8032903,9.09587918 24.9008841,8.65541006 C25.0273362,8.08394093 25.0560197,7.84107576 25.0969461,7.50676816 L25.1298272,7.47880187 C25.5630525,7.41403782 25.6832083,7.39545495 26.1333989,7.30769231 L26.1463415,7.34724989 C26.063789,7.70657996 25.9831605,8.06388616 25.9025319,8.42468814 C25.7372522,9.17775418 25.6770868,9.56008285 25.6135984,9.95400281 L25.5738963,9.98564888 Z" id="Fill-32" fill="#FEFEFE"></path>
                    <path d="M25.7350791,8.66802969 C25.8677487,8.09431227 25.3322994,8.61688293 25.2477064,8.42776732 C25.1172388,8.13198978 25.1981618,7.53333603 24.6728048,7.33275335 C24.4705892,7.253758 23.9960614,7.35550547 23.5883272,7.72390778 C23.3015186,7.98692227 23.1638945,8.34731583 23.0857241,8.69296601 C23.0033331,9.04134645 22.9088313,9.67767771 23.4958438,9.90447083 C23.682829,9.98346618 23.8505469,10.0067644 24.0212007,9.99839157 C24.6111492,9.96708466 25.0605377,9.08248228 25.3939549,8.73337378 C25.6504862,8.45616196 25.6956269,8.83730545 25.7350791,8.66802969 M24.8318982,8.62543772 C24.8089609,8.71917645 24.722166,9.08393842 24.6061948,9.23683266 C24.5287583,9.34567879 24.3445255,9.41320708 24.2384633,9.41320708 C24.2083695,9.41320708 24.0226687,9.41320708 24.0162463,9.14163779 C24.0147783,9.0063992 24.0426701,8.86715623 24.0779018,8.714262 C24.1790097,8.28488401 24.2949809,7.92139617 24.5961023,7.92139617 C24.8318982,7.92139617 24.9330061,8.18604881 24.8318982,8.62543772" id="Fill-34" fill="#FEFEFE"></path>
                    <path d="M18.2573388,9.98291983 C17.8548642,9.97656019 17.7174007,9.97656019 17.2472637,10 L17.2297648,9.96656647 C17.2700123,9.79903541 17.3155094,9.63513843 17.3573123,9.46615374 L17.4119478,9.23757015 C17.5000255,8.88342912 17.5844091,8.47114281 17.5927697,8.34467685 C17.601908,8.26945141 17.6299062,8.08066099 17.399893,8.08066099 C17.299566,8.08066099 17.1994334,8.12463335 17.0959955,8.16951423 C17.0413601,8.35830465 16.9250896,8.88851683 16.8688988,9.1298197 C16.756517,9.63859081 16.7481564,9.6976446 16.6974096,9.94894119 L16.6616341,9.98291983 C16.2492435,9.97656019 16.1071136,9.97656019 15.6309492,10 L15.6097561,9.96166046 C15.6886956,9.66003188 15.767635,9.35476921 15.843658,9.05241381 C16.0433398,8.23183869 16.0890314,7.91821764 16.1452223,7.50084363 L16.1808033,7.476677 C16.6441352,7.41562446 16.7588502,7.40290519 17.260874,7.30769231 L17.299566,7.35184637 L17.2274317,7.61295497 C17.3102598,7.56534853 17.3946433,7.5179238 17.4788324,7.476677 C17.7142898,7.36801803 17.9793008,7.33549301 18.1237639,7.33549301 C18.3417224,7.33549301 18.5839848,7.39291147 18.6872283,7.63076196 C18.7805557,7.8429922 18.716782,8.10337398 18.59079,8.6172328 L18.5277939,8.87997674 C18.3955801,9.45125402 18.3765257,9.55627891 18.3059468,9.94894119 L18.2573388,9.98291983 Z" id="Fill-36" fill="#FEFEFE"></path>
                    <path d="M22.4801014,6.82334576 C22.4071724,7.12904345 22.1928052,7.38586667 21.9173626,7.51000409 C21.6905393,7.61537223 21.4128867,7.62410645 21.1263942,7.62410645 L20.9411585,7.62410645 L20.9552219,7.55516186 C20.9552219,7.55516186 21.2965619,6.18165938 21.2951555,6.18667691 L21.3060045,6.11624565 L21.3108262,6.06253949 L21.4472417,6.07573374 C21.4472417,6.07573374 22.1512176,6.13148407 22.167692,6.13297075 C22.4455455,6.23239219 22.5600621,6.4886579 22.4801014,6.82334576 M22.0320801,5.39111959 C22.0296693,5.39111959 21.6867221,5.39409294 21.6867221,5.39409294 C20.7904787,5.404128 20.4310572,5.40134049 20.283391,5.38461538 C20.2709348,5.44482575 20.2474288,5.55223807 20.2474288,5.55223807 C20.2474288,5.55223807 19.9263804,6.92852807 19.9263804,6.93075808 C19.9263804,6.93075808 19.1581144,9.85690747 19.1219512,9.99479664 C19.9044816,9.98624825 20.2253291,9.98624825 20.3603382,10 C20.3910768,9.86211083 20.5722944,9.04462505 20.5739016,9.04462505 C20.5739016,9.04462505 20.7283986,8.44512308 20.7378412,8.42319462 C20.7378412,8.42319462 20.7864606,8.36075424 20.8350799,8.33622409 L20.9066026,8.33622409 C21.5814471,8.33622409 22.343485,8.33622409 22.9407797,7.9296183 C23.3472133,7.65086661 23.6250668,7.23924328 23.7490261,6.73916275 C23.781372,6.61651201 23.804878,6.47063196 23.804878,6.32456608 C23.804878,6.13297075 23.7632904,5.94360544 23.6431484,5.79549537 C23.3385743,5.40134049 22.732038,5.39409294 22.0320801,5.39111959" id="Fill-38" fill="#FEFEFE"></path>
                    <path d="M29.2682927,6.96827149 L29.2313827,6.92307692 C28.7589725,7.02580995 28.6734675,7.04213575 28.239451,7.10504977 L28.2075489,7.13929412 C28.2060651,7.14486878 28.2047668,7.15342986 28.202541,7.16119457 L28.2010572,7.15342986 C27.877956,7.95359276 27.8874154,7.78097738 27.6244088,8.41091403 C27.622925,8.38224434 27.622925,8.36432579 27.6214412,8.33386425 L27.5555968,6.96827149 L27.5142354,6.92307692 C27.0193824,7.02580995 27.0076973,7.04213575 26.5506816,7.10504977 L26.51507,7.13929412 C26.5100621,7.15561991 26.5100621,7.17353846 26.5070945,7.19304977 L26.5100621,7.2000181 C26.5671891,7.51339367 26.5534638,7.44351131 26.6107762,7.93806335 C26.6374849,8.18076018 26.6730965,8.42485068 26.6998052,8.66456109 C26.7448762,9.06573756 26.7701011,9.26323982 26.8251878,9.87545701 C26.5165538,10.4221719 26.4434758,10.6290317 26.1463415,11.1088507 L26.1652601,11.1538462 C26.6107762,11.1361267 26.7142725,11.1361267 27.0447927,11.1361267 L27.1163869,11.0481267 C27.3664101,10.4703529 29.2682927,6.96827149 29.2682927,6.96827149" id="Fill-40" fill="#FEFEFE"></path>
                    <path d="M12.6703563,7.53178755 C12.9171496,7.35877487 12.9482019,7.12013041 12.740946,6.99615926 C12.5308016,6.87091194 12.1619656,6.91083794 11.913728,7.08385062 C11.6662125,7.25339939 11.6378683,7.49404927 11.8472906,7.62075508 C12.0540048,7.7425385 12.4242851,7.70625871 12.6703563,7.53178755" id="Fill-42" fill="#FEFEFE"></path>
                    <path d="M26.9268293,11.1538462 L26.5741976,11.8753151 C26.4628125,12.1221777 26.255879,12.3060115 25.9266506,12.3076923 L25.3658537,12.296137 L25.5295001,11.6471511 L25.6394775,11.6471511 C25.6964898,11.6471511 25.7376653,11.6437896 25.7693388,11.6248809 C25.7981969,11.6135358 25.8187847,11.5864334 25.841484,11.5469354 L26.0498253,11.1538462 L26.9268293,11.1538462 Z" id="Fill-44" fill="#FEFEFE"></path>
                </g>
            </g>
        </g>
    </g>
</svg>