<?xml version="1.0" encoding="UTF-8"?>
<svg width="40px" height="29px" viewBox="0 0 40 29" version="1.1" xmlns="http://www.w3.org/2000/svg" xmlns:xlink="http://www.w3.org/1999/xlink">
    <!-- Generator: Sketch 53.2 (72643) - https://sketchapp.com -->
    <title>Group 14</title>
    <desc>Created with Sketch.</desc>
    <defs>
        <polygon id="path-1" points="0 0.0871232877 39.9189041 0.0871232877 39.9189041 28.4930137 0 28.4930137"></polygon>
    </defs>
    <g id="mock-up" stroke="none" stroke-width="1" fill="none" fill-rule="evenodd">
        <g id="payment-copy-2" transform="translate(-824.000000, -1240.000000)">
            <g id="Group-14" transform="translate(824.000000, 1240.000000)">
                <g id="Group-3" transform="translate(0.000000, 0.186849)">
                    <mask id="mask-2" fill="white">
                        <use xlink:href="#path-1"></use>
                    </mask>
                    <g id="Clip-2"></g>
                    <path d="M2.21923288,28.4930137 C0.998684932,28.4930137 -0.000219178082,27.4943836 -0.000219178082,26.2738356 L-0.000219178082,2.30616438 C-0.000219178082,1.08561644 0.998684932,0.0869863014 2.21923288,0.0869863014 L37.6995068,0.0869863014 C38.9200548,0.0869863014 39.9189589,1.08561644 39.9189589,2.30616438 L39.9189589,26.2738356 C39.9189589,27.4943836 38.9200548,28.4930137 37.6995068,28.4930137 L2.21923288,28.4930137 Z" id="Fill-1" fill="#EEEEEE" mask="url(#mask-2)"></path>
                </g>
                <polygon id="Fill-4" fill="#00579F" points="14.6767123 19.1539726 16.1849315 9.82958904 18.5956164 9.82958904 17.0876712 19.1539726"></polygon>
                <path d="M25.827726,10.0576438 C25.3515616,9.86942466 24.597589,9.66093151 23.6649863,9.66093151 C21.2841644,9.66093151 19.6074521,10.9307945 19.597589,12.745863 C19.577863,14.0850411 20.798137,14.8291507 21.7107397,15.2754521 C22.6433425,15.7316164 22.9606027,16.0291507 22.9606027,16.436 C22.9507397,17.0609315 22.2066301,17.3488767 21.5123836,17.3488767 C20.5499178,17.3488767 20.0343014,17.2001096 19.2501918,16.8524384 L18.9329315,16.7036712 L18.5956712,18.7970959 C19.1611507,19.0546301 20.2027945,19.2828493 21.2841644,19.2927123 C23.8137534,19.2927123 25.4606027,18.0431233 25.4803288,16.1086027 C25.4904658,15.0469589 24.8455342,14.2338082 23.4567671,13.5694247 C22.6134795,13.1425753 22.097589,12.8549041 22.097589,12.4184658 C22.1074521,12.0217534 22.5343014,11.6151781 23.4863562,11.6151781 C24.2701918,11.5951781 24.8455342,11.7836712 25.2822466,11.9724384 L25.5006027,12.0713425 L25.827726,10.0576438 Z" id="Fill-6" fill="#00579F"></path>
                <path d="M32.008411,9.82953425 L30.1432055,9.82953425 C29.567863,9.82953425 29.1311507,9.99830137 28.8834795,10.6032329 L25.3018356,19.1539178 L27.8316986,19.1539178 C27.8316986,19.1539178 28.248137,18.0032329 28.337726,17.7552877 L31.4327945,17.7552877 C31.5021096,18.0826849 31.7204658,19.1539178 31.7204658,19.1539178 L33.9527945,19.1539178 L32.008411,9.82953425 Z M29.0322466,15.8509041 C29.2303288,15.3150137 29.9944384,13.241863 29.9944384,13.241863 C29.9843014,13.261589 30.1927945,12.6963836 30.3119726,12.3489863 L30.4804658,13.1525479 C30.4804658,13.1525479 30.9369041,15.3843288 31.0360822,15.8509041 L29.0322466,15.8509041 Z" id="Fill-8" fill="#00579F"></path>
                <path d="M12.6631233,9.82953425 L10.3017534,16.1881644 L10.0439452,14.8983014 C9.60750685,13.4103562 8.23846575,11.7936438 6.71052055,10.9900822 L8.87326027,19.1440548 L11.4231233,19.1440548 L15.2127123,9.82953425 L12.6631233,9.82953425 Z" id="Fill-10" fill="#00579F"></path>
                <path d="M8.10939726,9.82953425 L4.23049315,9.82953425 L4.19049315,10.0180274 C7.21652055,10.791726 9.22063014,12.6566575 10.0441918,14.8983014 L9.20063014,10.6130959 C9.062,10.0180274 8.63515068,9.84926027 8.10939726,9.82953425" id="Fill-12" fill="#F9A51A"></path>
            </g>
        </g>
    </g>
</svg>