<?xml version="1.0" encoding="UTF-8"?>
<svg width="129px" height="38px" viewBox="0 0 129 38" version="1.1" xmlns="http://www.w3.org/2000/svg" xmlns:xlink="http://www.w3.org/1999/xlink">
    <!-- Generator: Sketch 53.2 (72643) - https://sketchapp.com -->
    <title>Group 3</title>
    <desc>Created with Sketch.</desc>
    <g id="mock-up" stroke="none" stroke-width="1" fill="none" fill-rule="evenodd">
        <g id="MO_Web_Desktop_Offer_Details-Copy-8" transform="translate(-157.000000, -222.000000)">
            <g id="Group" transform="translate(128.000000, 206.000000)">
                <g id="Group-3" transform="translate(30.000000, 17.000000)">
                    <path d="M54.736,15 L52.672,15 L47.536,7.992 L47.536,15 L45.248,15 L45.248,3.8 L47.264,3.8 L52.448,10.824 L52.448,3.8 L54.736,3.8 L54.736,15 Z M66.208,3.8 L66.208,9.72 C66.208,13.24 64.864,15.192 61.664,15.192 C58.528,15.192 57.184,13.24 57.184,9.72 L57.184,3.8 L59.472,3.8 L59.472,10.024 C59.472,12.168 60.336,13.192 61.696,13.192 C63.056,13.192 63.92,12.168 63.92,10.024 L63.92,3.8 L66.208,3.8 Z M79.2,6.824 L75.856,15 L74.224,15 L70.96,6.792 L70.96,15 L68.672,15 L68.672,3.8 L72.048,3.8 L75.056,11.608 L78.176,3.8 L81.488,3.8 L81.488,15 L79.2,15 L79.2,6.824 Z M83.968,3.8 L86.912,3.8 C87.984,3.8 89.12,3.976 89.952,4.52 C90.816,5.08 91.264,5.96 91.264,6.968 C91.264,7.896 90.784,8.712 89.856,9.128 C90.992,9.512 91.728,10.488 91.728,11.672 C91.728,13 90.944,14.04 89.728,14.552 C88.88,14.904 87.792,15 86.784,15 L83.968,15 L83.968,3.8 Z M86.256,10.216 L86.256,13.08 L86.784,13.08 C87.456,13.08 88.16,13.08 88.64,12.84 C89.04,12.632 89.28,12.296 89.28,11.72 C89.28,10.792 88.672,10.216 87.536,10.216 L86.256,10.216 Z M86.256,5.72 L86.256,8.36 L86.896,8.36 C88.208,8.36 88.976,7.928 88.976,7.048 C88.976,6.536 88.768,6.216 88.496,6.008 C88.064,5.72 87.424,5.72 86.704,5.72 L86.256,5.72 Z M101.024,15 L93.84,15 L93.84,3.8 L101.024,3.8 L101.024,5.736 L96.128,5.736 L96.128,8.264 L101.024,8.264 L101.024,10.2 L96.128,10.2 L96.128,13.064 L101.024,13.064 L101.024,15 Z M103.12,3.8 L106.672,3.8 C108.48,3.8 110.768,4.728 110.768,7.16 C110.768,8.904 109.584,9.864 108.336,10.28 C109.328,11.672 110.992,13.96 111.76,15 L108.88,15 L105.808,10.536 L105.408,10.536 L105.408,15 L103.12,15 L103.12,3.8 Z M105.408,5.736 L105.408,8.6 L106.304,8.6 C107.456,8.6 108.32,8.184 108.32,7.208 C108.32,6.328 107.632,5.736 106.608,5.736 L105.408,5.736 Z M51.488,23.568 C50.864,23.04 50.032,22.56 49.168,22.56 C48.4,22.56 47.712,22.944 47.712,23.68 C47.712,24.544 48.768,24.784 49.632,25.088 C51.216,25.632 53.12,26.368 53.12,28.72 C53.12,31.152 50.832,32.192 48.88,32.192 C47.152,32.192 45.808,31.536 44.592,30.32 L46.112,28.832 C47.024,29.712 47.728,30.24 48.896,30.24 C49.792,30.24 50.672,29.808 50.672,28.816 C50.672,27.856 49.648,27.488 48.512,27.072 C47.056,26.528 45.424,25.888 45.424,23.744 C45.424,21.616 47.232,20.608 49.088,20.608 C50.528,20.608 51.664,21.072 52.8,21.936 L51.488,23.568 Z M62.176,32 L54.992,32 L54.992,20.8 L62.176,20.8 L62.176,22.736 L57.28,22.736 L57.28,25.264 L62.176,25.264 L62.176,27.2 L57.28,27.2 L57.28,30.064 L62.176,30.064 L62.176,32 Z M71.152,32 L64.272,32 L64.272,20.8 L66.56,20.8 L66.56,30.064 L71.152,30.064 L71.152,32 Z M79.648,32 L72.464,32 L72.464,20.8 L79.648,20.8 L79.648,22.736 L74.752,22.736 L74.752,25.264 L79.648,25.264 L79.648,27.2 L74.752,27.2 L74.752,30.064 L79.648,30.064 L79.648,32 Z M83.728,26.4 C83.728,28.64 85.056,30.192 87.248,30.192 C88.096,30.192 88.944,29.856 89.632,29.264 L90.912,30.928 C89.824,31.76 88.528,32.192 87.152,32.192 C83.792,32.192 81.28,29.824 81.28,26.4 C81.28,23.12 83.952,20.608 87.248,20.608 C88.528,20.608 89.584,21.008 90.688,21.696 L89.584,23.472 C88.912,22.96 88.112,22.608 87.248,22.608 C85.216,22.608 83.728,24.272 83.728,26.4 Z M99.024,22.736 L96.368,22.736 L96.368,32 L94.08,32 L94.08,22.736 L91.424,22.736 L91.424,20.8 L99.024,20.8 L99.024,22.736 Z M102.688,32 L100.4,32 L100.4,20.8 L102.688,20.8 L102.688,32 Z M114,26.4 C114,24.272 112.56,22.608 110.592,22.608 C108.608,22.608 107.168,24.272 107.168,26.4 C107.168,28.528 108.608,30.192 110.592,30.192 C112.56,30.192 114,28.528 114,26.4 Z M116.448,26.4 C116.448,29.6 113.904,32.192 110.592,32.192 C107.264,32.192 104.72,29.6 104.72,26.4 C104.72,23.2 107.264,20.608 110.592,20.608 C113.904,20.608 116.448,23.2 116.448,26.4 Z M127.968,32 L125.904,32 L120.768,24.992 L120.768,32 L118.48,32 L118.48,20.8 L120.496,20.8 L125.68,27.824 L125.68,20.8 L127.968,20.8 L127.968,32 Z" id="NUMBERSELECTION" fill="#FFFFFF" fill-rule="nonzero"></path>
                    <g id="Icon/Circle/Select_number/filling">
                        <circle id="Oval-Copy-8" stroke="#FFFFFF" stroke-width="2" fill="#FFFFFF" cx="18" cy="18" r="18"></circle>
                        <g id="Icon/Select_number/filling" transform="translate(3.000000, 3.000000)" stroke="#00C9FF" stroke-width="1">
                            <g id="Group" transform="translate(5.000000, 3.750000)">
                                <path d="M2.59825,1 C1.71761808,1 1,1.71761808 1,2.59825 C1,3.47816571 1.71769358,4.19570833 2.59825,4.19570833 C3.47880642,4.19570833 4.1965,3.47816571 4.1965,2.59825 C4.1965,1.71761808 3.47888192,1 2.59825,1 Z" id="Stroke-1" stroke-width="2"></path>
                                <path d="M9.50015833,1 C8.61952642,1 7.90190833,1.71761808 7.90190833,2.59825 C7.90190833,3.47816571 8.61960192,4.19570833 9.50015833,4.19570833 C10.3807147,4.19570833 11.0984083,3.47816571 11.0984083,2.59825 C11.0984083,1.71761808 10.3807903,1 9.50015833,1 Z" id="Stroke-3" stroke-width="2"></path>
                                <path d="M16.40175,1 C15.5218343,1 14.8042917,1.71769358 14.8042917,2.59825 C14.8042917,3.47809025 15.5219097,4.19570833 16.40175,4.19570833 C17.2823064,4.19570833 18,3.47816571 18,2.59825 C18,1.71761808 17.2823819,1 16.40175,1 Z" id="Stroke-5" stroke-width="2"></path>
                                <path d="M2.59825,6.8957 C1.71761808,6.8957 1,7.61331808 1,8.49395 C1,9.37386571 1.71769358,10.0914083 2.59825,10.0914083 C3.47880642,10.0914083 4.1965,9.37386571 4.1965,8.49395 C4.1965,7.61331808 3.47888192,6.8957 2.59825,6.8957 Z" id="Stroke-7" stroke-width="2"></path>
                                <path d="M9.50015833,6.8957 C8.61952642,6.8957 7.90190833,7.61331808 7.90190833,8.49395 C7.90190833,9.37386571 8.61960192,10.0914083 9.50015833,10.0914083 C10.3807147,10.0914083 11.0984083,9.37386571 11.0984083,8.49395 C11.0984083,7.61331808 10.3807903,6.8957 9.50015833,6.8957 Z" id="Stroke-9" stroke-width="2"></path>
                                <path d="M16.40175,6.8957 C15.5218343,6.8957 14.8042917,7.61339358 14.8042917,8.49395 C14.8042917,9.37379025 15.5219097,10.0914083 16.40175,10.0914083 C17.2823064,10.0914083 18,9.37386571 18,8.49395 C18,7.61331808 17.2823819,6.8957 16.40175,6.8957 Z" id="Stroke-11" stroke-width="2"></path>
                                <path d="M2.59825,12.791875 C1.71793838,12.791875 1,13.5099644 1,14.390125 C1,15.2700407 1.71769358,15.9875833 2.59825,15.9875833 C3.47880642,15.9875833 4.1965,15.2700407 4.1965,14.390125 C4.1965,13.5099644 3.47856162,12.791875 2.59825,12.791875 Z" id="Stroke-13" stroke-width="2"></path>
                                <path d="M9.50015833,12.791875 C8.61984672,12.791875 7.90190833,13.5099644 7.90190833,14.390125 C7.90190833,15.2700407 8.61960192,15.9875833 9.50015833,15.9875833 C10.3807147,15.9875833 11.0984083,15.2700407 11.0984083,14.390125 C11.0984083,13.5099644 10.3804699,12.791875 9.50015833,12.791875 Z" id="Stroke-15" stroke-width="2"></path>
                                <path d="M16.40175,12.791875 C15.5221545,12.791875 14.8042917,13.5100399 14.8042917,14.390125 C14.8042917,15.2699653 15.5219097,15.9875833 16.40175,15.9875833 C17.2823064,15.9875833 18,15.2700407 18,14.390125 C18,13.5099644 17.2820616,12.791875 16.40175,12.791875 Z" id="Stroke-17" stroke-width="2"></path>
                                <path d="M9.50015833,18.6876542 C8.61984672,18.6876542 7.90190833,19.4057436 7.90190833,20.2859042 C7.90190833,21.1662912 8.61928147,21.8833625 9.50015833,21.8833625 C10.3810352,21.8833625 11.0984083,21.1662912 11.0984083,20.2859042 C11.0984083,19.4057436 10.3804699,18.6876542 9.50015833,18.6876542 Z" id="Stroke-19" stroke-width="2"></path>
                            </g>
                        </g>
                    </g>
                </g>
            </g>
        </g>
    </g>
</svg>