<?xml version="1.0" encoding="UTF-8"?>
<svg width="119px" height="38px" viewBox="0 0 119 38" version="1.1" xmlns="http://www.w3.org/2000/svg" xmlns:xlink="http://www.w3.org/1999/xlink">
    <!-- Generator: Sketch 53.2 (72643) - https://sketchapp.com -->
    <title>Group 6</title>
    <desc>Created with Sketch.</desc>
    <g id="mock-up" stroke="none" stroke-width="1" fill="none" fill-rule="evenodd" opacity="0.75">
        <g id="MO_Web_Desktop_Offer_Details-Copy-8" transform="translate(-345.000000, -222.000000)">
            <g id="Group" transform="translate(128.000000, 206.000000)">
                <g id="Group-6" transform="translate(218.000000, 17.000000)">
                    <path d="M45.248,15 L45.248,3.8 L48.512,3.8 C51.408,3.8 54.656,5.304 54.656,9.352 C54.656,13.496 51.44,15 48.368,15 L45.248,15 Z M47.536,5.736 L47.536,13.064 L47.792,13.064 C50.416,13.064 52.208,12.136 52.208,9.496 C52.208,7.032 50.752,5.736 48.24,5.736 L47.536,5.736 Z M63.872,15 L56.688,15 L56.688,3.8 L63.872,3.8 L63.872,5.736 L58.976,5.736 L58.976,8.264 L63.872,8.264 L63.872,10.2 L58.976,10.2 L58.976,13.064 L63.872,13.064 L63.872,15 Z M72.848,15 L65.968,15 L65.968,3.8 L68.256,3.8 L68.256,13.064 L72.848,13.064 L72.848,15 Z M76.448,15 L74.16,15 L74.16,3.8 L76.448,3.8 L76.448,15 Z M88.4,3.8 L83.84,15 L81.968,15 L77.76,3.8 L80.416,3.8 L83.072,11.496 L83.088,11.496 L85.872,3.8 L88.4,3.8 Z M96.912,15 L89.728,15 L89.728,3.8 L96.912,3.8 L96.912,5.736 L92.016,5.736 L92.016,8.264 L96.912,8.264 L96.912,10.2 L92.016,10.2 L92.016,13.064 L96.912,13.064 L96.912,15 Z M99.008,3.8 L102.56,3.8 C104.368,3.8 106.656,4.728 106.656,7.16 C106.656,8.904 105.472,9.864 104.224,10.28 C105.216,11.672 106.88,13.96 107.648,15 L104.768,15 L101.696,10.536 L101.296,10.536 L101.296,15 L99.008,15 L99.008,3.8 Z M101.296,5.736 L101.296,8.6 L102.192,8.6 C103.344,8.6 104.208,8.184 104.208,7.208 C104.208,6.328 103.52,5.736 102.496,5.736 L101.296,5.736 Z M113.824,15 L111.536,15 L111.536,10.312 L107.968,3.8 L110.816,3.8 L112.752,7.832 L112.784,7.832 L114.896,3.8 L117.568,3.8 L113.824,10.376 L113.824,15 Z M45.248,32 L45.248,20.8 L48.512,20.8 C51.408,20.8 54.656,22.304 54.656,26.352 C54.656,30.496 51.44,32 48.368,32 L45.248,32 Z M47.536,22.736 L47.536,30.064 L47.792,30.064 C50.416,30.064 52.208,29.136 52.208,26.496 C52.208,24.032 50.752,22.736 48.24,22.736 L47.536,22.736 Z M63.872,32 L56.688,32 L56.688,20.8 L63.872,20.8 L63.872,22.736 L58.976,22.736 L58.976,25.264 L63.872,25.264 L63.872,27.2 L58.976,27.2 L58.976,30.064 L63.872,30.064 L63.872,32 Z M72.448,22.736 L69.792,22.736 L69.792,32 L67.504,32 L67.504,22.736 L64.848,22.736 L64.848,20.8 L72.448,20.8 L72.448,22.736 Z M83.408,32 L80.768,32 L80.048,29.92 L76.064,29.92 L75.312,32 L72.768,32 L77.344,20.8 L79.2,20.8 L83.408,32 Z M78.096,24.288 L76.736,28.048 L79.408,28.048 L78.112,24.288 L78.096,24.288 Z M87.136,32 L84.848,32 L84.848,20.8 L87.136,20.8 L87.136,32 Z M96.512,32 L89.632,32 L89.632,20.8 L91.92,20.8 L91.92,30.064 L96.512,30.064 L96.512,32 Z M104.064,23.568 C103.44,23.04 102.608,22.56 101.744,22.56 C100.976,22.56 100.288,22.944 100.288,23.68 C100.288,24.544 101.344,24.784 102.208,25.088 C103.792,25.632 105.696,26.368 105.696,28.72 C105.696,31.152 103.408,32.192 101.456,32.192 C99.728,32.192 98.384,31.536 97.168,30.32 L98.688,28.832 C99.6,29.712 100.304,30.24 101.472,30.24 C102.368,30.24 103.248,29.808 103.248,28.816 C103.248,27.856 102.224,27.488 101.088,27.072 C99.632,26.528 98,25.888 98,23.744 C98,21.616 99.808,20.608 101.664,20.608 C103.104,20.608 104.24,21.072 105.376,21.936 L104.064,23.568 Z" id="DELIVERYDETAILS" fill="#FFFFFF" fill-rule="nonzero"></path>
                    <g id="Icon/Circle/Delivery/normal" stroke="#FFFFFF">
                        <circle id="Oval-Copy-8" stroke-width="2" cx="18" cy="18" r="18"></circle>
                        <g id="Icon/Delivery/normal" transform="translate(3.000000, 3.000000)" fill-rule="evenodd" stroke-width="1">
                            <g id="Group-14" transform="translate(3.125000, 7.500000)">
                                <path d="M8.71560733,12.30554 C10.8931166,12.30554 13.0706258,12.30554 15.248135,12.30554 L15.248135,0.43054 L3.373135,0.43054 L3.373135,12.30554 L6.55994,12.30554" id="Stroke-1" stroke-width="2"></path>
                                <path d="M1.8848,5.03671 L8.4455,5.03671" id="Stroke-3" stroke-width="2"></path>
                                <path d="M0.942685,7.16072 L7.502435,7.16072" id="Stroke-4" stroke-width="2"></path>
                                <path d="M0.000190000001,9.2853 L6.55994,9.2853" id="Stroke-5" stroke-width="2"></path>
                                <polyline id="Stroke-6" stroke-width="2" points="15.248135 2.30554 20.2163928 2.30554 22.748135 4.97929544 22.748135 12.30554 20.0720439 12.30554"></polyline>
                                <path d="M17.88426,5.86837 L17.88426,7.41282 L19.83151,7.41282 L19.83151,6.61543356 L19.0844464,5.86837 L17.88426,5.86837 Z" id="Stroke-8" stroke-width="2"></path>
                                <path d="M6.84285237,12.566644 C6.62852454,12.7810694 6.51561,13.0481848 6.51561,13.332775 C6.51561,13.6226625 6.62682495,13.8868138 6.83649934,14.094551 C7.05566044,14.3085554 7.33020635,14.421825 7.62366,14.421825 C8.21081091,14.421825 8.69371,13.9343356 8.69371,13.332775 C8.69371,12.7312144 8.21081091,12.243725 7.62366,12.243725 C7.33059577,12.243725 7.05473923,12.3574144 6.84285287,12.5666436 Z" id="Fill-9" stroke-width="2"></path>
                                <path d="M18.1807218,12.5666409 C17.965674,12.7808723 17.85253,13.047858 17.85253,13.332775 C17.85253,13.6218258 17.9641012,13.8862256 18.1752114,14.0953742 C18.3928468,14.30839 18.6677936,14.421825 18.96058,14.421825 C19.5480548,14.421825 20.03158,13.9340127 20.03158,13.332775 C20.03158,12.7315373 19.5480548,12.243725 18.96058,12.243725 C18.6677986,12.243725 18.3912115,12.3578766 18.1807219,12.5666409 Z" id="Fill-11" stroke-width="2"></path>
                                <path d="M17.9923567,12.30554 L15.625,12.30554" id="Path-3" stroke-width="2"></path>
                            </g>
                        </g>
                    </g>
                </g>
            </g>
        </g>
    </g>
</svg>