<?xml version="1.0" encoding="UTF-8"?>
<svg width="119px" height="38px" viewBox="0 0 119 38" version="1.1" xmlns="http://www.w3.org/2000/svg" xmlns:xlink="http://www.w3.org/1999/xlink">
    <!-- Generator: Sketch 53.2 (72643) - https://sketchapp.com -->
    <title>02_finished</title>
    <desc>Created with Sketch.</desc>
    <g id="mock-up" stroke="none" stroke-width="1" fill="none" fill-rule="evenodd" opacity="0.75">
        <g id="Payment_1.1" transform="translate(-345.000000, -222.000000)">
            <g id="02_finished" transform="translate(346.000000, 223.000000)">
                <path d="M45.248,15 L45.248,3.8 L48.512,3.8 C51.408,3.8 54.656,5.304 54.656,9.352 C54.656,13.496 51.44,15 48.368,15 L45.248,15 Z M47.536,5.736 L47.536,13.064 L47.792,13.064 C50.416,13.064 52.208,12.136 52.208,9.496 C52.208,7.032 50.752,5.736 48.24,5.736 L47.536,5.736 Z M63.872,15 L56.688,15 L56.688,3.8 L63.872,3.8 L63.872,5.736 L58.976,5.736 L58.976,8.264 L63.872,8.264 L63.872,10.2 L58.976,10.2 L58.976,13.064 L63.872,13.064 L63.872,15 Z M72.848,15 L65.968,15 L65.968,3.8 L68.256,3.8 L68.256,13.064 L72.848,13.064 L72.848,15 Z M76.448,15 L74.16,15 L74.16,3.8 L76.448,3.8 L76.448,15 Z M88.4,3.8 L83.84,15 L81.968,15 L77.76,3.8 L80.416,3.8 L83.072,11.496 L83.088,11.496 L85.872,3.8 L88.4,3.8 Z M96.912,15 L89.728,15 L89.728,3.8 L96.912,3.8 L96.912,5.736 L92.016,5.736 L92.016,8.264 L96.912,8.264 L96.912,10.2 L92.016,10.2 L92.016,13.064 L96.912,13.064 L96.912,15 Z M99.008,3.8 L102.56,3.8 C104.368,3.8 106.656,4.728 106.656,7.16 C106.656,8.904 105.472,9.864 104.224,10.28 C105.216,11.672 106.88,13.96 107.648,15 L104.768,15 L101.696,10.536 L101.296,10.536 L101.296,15 L99.008,15 L99.008,3.8 Z M101.296,5.736 L101.296,8.6 L102.192,8.6 C103.344,8.6 104.208,8.184 104.208,7.208 C104.208,6.328 103.52,5.736 102.496,5.736 L101.296,5.736 Z M113.824,15 L111.536,15 L111.536,10.312 L107.968,3.8 L110.816,3.8 L112.752,7.832 L112.784,7.832 L114.896,3.8 L117.568,3.8 L113.824,10.376 L113.824,15 Z M45.248,32 L45.248,20.8 L48.512,20.8 C51.408,20.8 54.656,22.304 54.656,26.352 C54.656,30.496 51.44,32 48.368,32 L45.248,32 Z M47.536,22.736 L47.536,30.064 L47.792,30.064 C50.416,30.064 52.208,29.136 52.208,26.496 C52.208,24.032 50.752,22.736 48.24,22.736 L47.536,22.736 Z M63.872,32 L56.688,32 L56.688,20.8 L63.872,20.8 L63.872,22.736 L58.976,22.736 L58.976,25.264 L63.872,25.264 L63.872,27.2 L58.976,27.2 L58.976,30.064 L63.872,30.064 L63.872,32 Z M72.448,22.736 L69.792,22.736 L69.792,32 L67.504,32 L67.504,22.736 L64.848,22.736 L64.848,20.8 L72.448,20.8 L72.448,22.736 Z M83.408,32 L80.768,32 L80.048,29.92 L76.064,29.92 L75.312,32 L72.768,32 L77.344,20.8 L79.2,20.8 L83.408,32 Z M78.096,24.288 L76.736,28.048 L79.408,28.048 L78.112,24.288 L78.096,24.288 Z M87.136,32 L84.848,32 L84.848,20.8 L87.136,20.8 L87.136,32 Z M96.512,32 L89.632,32 L89.632,20.8 L91.92,20.8 L91.92,30.064 L96.512,30.064 L96.512,32 Z M104.064,23.568 C103.44,23.04 102.608,22.56 101.744,22.56 C100.976,22.56 100.288,22.944 100.288,23.68 C100.288,24.544 101.344,24.784 102.208,25.088 C103.792,25.632 105.696,26.368 105.696,28.72 C105.696,31.152 103.408,32.192 101.456,32.192 C99.728,32.192 98.384,31.536 97.168,30.32 L98.688,28.832 C99.6,29.712 100.304,30.24 101.472,30.24 C102.368,30.24 103.248,29.808 103.248,28.816 C103.248,27.856 102.224,27.488 101.088,27.072 C99.632,26.528 98,25.888 98,23.744 C98,21.616 99.808,20.608 101.664,20.608 C103.104,20.608 104.24,21.072 105.376,21.936 L104.064,23.568 Z" id="DELIVERYDETAILS" fill="#FFFFFF" fill-rule="nonzero"></path>
                <circle id="Oval" stroke="#FFFFFF" stroke-width="2" cx="18" cy="18" r="18"></circle>
                <polyline id="Path-4-Copy" stroke="#FFFFFF" stroke-width="3" points="10 16.6699305 15.9990371 25 26 11"></polyline>
            </g>
        </g>
    </g>
</svg>