<?xml version="1.0" encoding="UTF-8"?>
<svg width="120px" height="38px" viewBox="0 0 120 38" version="1.1" xmlns="http://www.w3.org/2000/svg" xmlns:xlink="http://www.w3.org/1999/xlink">
    <!-- Generator: Sketch 53.2 (72643) - https://sketchapp.com -->
    <title>03</title>
    <desc>Created with Sketch.</desc>
    <g id="mock-up" stroke="none" stroke-width="1" fill="none" fill-rule="evenodd" opacity="0.75">
        <g id="MO_Web_Desktop_Offer_Details-Copy-8" transform="translate(-525.000000, -212.000000)">
            <g id="Group" transform="translate(128.000000, 206.000000)">
                <g id="03" transform="translate(398.000000, 7.000000)">
                    <path d="M45.248,3.8 L48.816,3.8 C50.72,3.8 53.008,4.728 53.008,7.272 C53.008,9.848 50.736,10.776 48.816,10.776 L47.536,10.776 L47.536,15 L45.248,15 L45.248,3.8 Z M47.536,5.736 L47.536,8.84 L48.448,8.84 C49.664,8.84 50.576,8.44 50.576,7.32 C50.576,6.328 49.84,5.736 48.752,5.736 L47.536,5.736 Z M64.24,15 L61.6,15 L60.88,12.92 L56.896,12.92 L56.144,15 L53.6,15 L58.176,3.8 L60.032,3.8 L64.24,15 Z M58.928,7.288 L57.568,11.048 L60.24,11.048 L58.944,7.288 L58.928,7.288 Z M70.352,15 L68.064,15 L68.064,10.312 L64.496,3.8 L67.344,3.8 L69.28,7.832 L69.312,7.832 L71.424,3.8 L74.096,3.8 L70.352,10.376 L70.352,15 Z M85.936,6.824 L82.592,15 L80.96,15 L77.696,6.792 L77.696,15 L75.408,15 L75.408,3.8 L78.784,3.8 L81.792,11.608 L84.912,3.8 L88.224,3.8 L88.224,15 L85.936,15 L85.936,6.824 Z M97.888,15 L90.704,15 L90.704,3.8 L97.888,3.8 L97.888,5.736 L92.992,5.736 L92.992,8.264 L97.888,8.264 L97.888,10.2 L92.992,10.2 L92.992,13.064 L97.888,13.064 L97.888,15 Z M109.472,15 L107.408,15 L102.272,7.992 L102.272,15 L99.984,15 L99.984,3.8 L102,3.8 L107.184,10.824 L107.184,3.8 L109.472,3.8 L109.472,15 Z M118.432,5.736 L115.776,5.736 L115.776,15 L113.488,15 L113.488,5.736 L110.832,5.736 L110.832,3.8 L118.432,3.8 L118.432,5.736 Z M45.248,32 L45.248,20.8 L48.512,20.8 C51.408,20.8 54.656,22.304 54.656,26.352 C54.656,30.496 51.44,32 48.368,32 L45.248,32 Z M47.536,22.736 L47.536,30.064 L47.792,30.064 C50.416,30.064 52.208,29.136 52.208,26.496 C52.208,24.032 50.752,22.736 48.24,22.736 L47.536,22.736 Z M63.872,32 L56.688,32 L56.688,20.8 L63.872,20.8 L63.872,22.736 L58.976,22.736 L58.976,25.264 L63.872,25.264 L63.872,27.2 L58.976,27.2 L58.976,30.064 L63.872,30.064 L63.872,32 Z M72.448,22.736 L69.792,22.736 L69.792,32 L67.504,32 L67.504,22.736 L64.848,22.736 L64.848,20.8 L72.448,20.8 L72.448,22.736 Z M83.408,32 L80.768,32 L80.048,29.92 L76.064,29.92 L75.312,32 L72.768,32 L77.344,20.8 L79.2,20.8 L83.408,32 Z M78.096,24.288 L76.736,28.048 L79.408,28.048 L78.112,24.288 L78.096,24.288 Z M87.136,32 L84.848,32 L84.848,20.8 L87.136,20.8 L87.136,32 Z M96.512,32 L89.632,32 L89.632,20.8 L91.92,20.8 L91.92,30.064 L96.512,30.064 L96.512,32 Z M104.064,23.568 C103.44,23.04 102.608,22.56 101.744,22.56 C100.976,22.56 100.288,22.944 100.288,23.68 C100.288,24.544 101.344,24.784 102.208,25.088 C103.792,25.632 105.696,26.368 105.696,28.72 C105.696,31.152 103.408,32.192 101.456,32.192 C99.728,32.192 98.384,31.536 97.168,30.32 L98.688,28.832 C99.6,29.712 100.304,30.24 101.472,30.24 C102.368,30.24 103.248,29.808 103.248,28.816 C103.248,27.856 102.224,27.488 101.088,27.072 C99.632,26.528 98,25.888 98,23.744 C98,21.616 99.808,20.608 101.664,20.608 C103.104,20.608 104.24,21.072 105.376,21.936 L104.064,23.568 Z" id="PAYMENTDETAILS" fill="#FFFFFF" fill-rule="nonzero"></path>
                    <g id="Icon/Circle/payment/normal" stroke="#FFFFFF">
                        <circle id="Oval-Copy-8" stroke-width="2" cx="18" cy="18" r="18"></circle>
                        <g id="Icon/payment/normal" transform="translate(3.000000, 3.000000)" fill-rule="evenodd" stroke-width="1">
                            <g id="Group" transform="translate(2.500000, 6.250000)">
                                <path d="M2,15.4324324 L22.6486486,15.4324324 C23.2009334,15.4324324 23.6486486,14.9847172 23.6486486,14.4324324 L23.6486486,2 C23.6486486,1.44771525 23.2009334,1 22.6486486,1 L2,1 C1.44771525,1 1,1.44771525 1,2 L1,14.4324324 C1,14.9847172 1.44771525,15.4324324 2,15.4324324 Z" id="Stroke-1" stroke-width="2"></path>
                                <path d="M3.08108108,10.1081081 L10.2702703,10.1081081" id="Stroke-5" stroke-width="2"></path>
                                <path d="M3.08108108,12.7871622 L10.2702703,12.7871622" id="Stroke-6" stroke-width="2"></path>
                                <path d="M18.4594595,12.3513514 L20.5675676,12.3513514 L20.5675676,10.2432432 L18.4594595,10.2432432 L18.4594595,12.3513514 Z" id="Stroke-7" stroke-width="2"></path>
                                <path d="M0.708114044,3.78379877 L24.0727539,3.78379877" id="Path-4" stroke-width="2"></path>
                                <path d="M0.708114044,7.09459459 L24.0727539,7.09459459" id="Path-4-Copy" stroke-width="2"></path>
                            </g>
                        </g>
                    </g>
                </g>
            </g>
        </g>
    </g>
</svg>