<svg xmlns="http://www.w3.org/2000/svg" xmlns:xlink="http://www.w3.org/1999/xlink" width="1440" height="80" viewBox="0 0 1440 80">
    <defs>
        <path id="a" d="M0 0h119v45H0z"/>
        <path id="c" d="M0 0h193v73H0z"/>
    </defs>
    <g fill="none" fill-rule="evenodd">
        <path fill="#1800FF" d="M0 80h1440V0H0z"/>
        <g transform="translate(55 1)">
            <mask id="b" fill="#fff">
                <use xlink:href="#a"/>
            </mask>
            <path fill="#FFF" d="M50.116 13.861c2.159-7.944-2.64-16.141-10.7-18.271C31.358-6.54 23.044-1.806 20.884 6.139c-2.159 7.945 2.641 16.142 10.7 18.271 8.06 2.13 16.373-2.604 18.532-10.549M1.214.942c5.066-18.64 24.567-29.74 43.473-24.745 18.905 4.994 30.165 24.22 25.1 42.86-5.067 18.64-24.57 29.74-43.474 24.747C7.407 38.809-3.852 19.583 1.213.942" mask="url(#b)"/>
        </g>
        <path fill="#FFF" d="M149.775 63.583c-7.752-2.078-12.353-10.05-10.276-17.806s10.045-12.356 17.797-10.278c7.752 2.078 12.353 10.048 10.276 17.804-2.077 7.755-10.046 12.358-17.797 10.28"/>
        <g transform="translate(1247 1)">
            <mask id="d" fill="#fff">
                <use xlink:href="#c"/>
            </mask>
            <path fill="#FFF" d="M89.06 73L46 61.116l6.226-22.498 20.172 5.567 8.24-31.702 31.616 8.725 8.24-31.699 31.62 8.722L157.374-22 180-16.135l-11.226 43.18-31.618-8.726-8.242 31.705L97.3 41.3z" mask="url(#d)"/>
        </g>
    </g>
</svg>
