<?xml version="1.0" encoding="UTF-8"?>
<svg width="52px" height="46px" viewBox="0 0 52 46" version="1.1" xmlns="http://www.w3.org/2000/svg" xmlns:xlink="http://www.w3.org/1999/xlink">
    <!-- Generator: Sketch 53.2 (72643) - https://sketchapp.com -->
    <title>icon_invite</title>
    <desc>Created with Sketch.</desc>
    <g id="mock-up" stroke="none" stroke-width="1" fill="none" fill-rule="evenodd">
        <g id="Payment_1.1" transform="translate(-606.000000, -1059.000000)" fill-rule="nonzero">
            <g id="icon_invite" transform="translate(606.000000, 1059.000000)">
                <circle id="Oval" fill="#FFFF30" cx="12.5" cy="12.5" r="12.5"></circle>
                <g id="Group-33" transform="translate(5.000000, 18.000000)" fill="#000000">
                    <path d="M39.6634627,9.80185693 C39.6634627,5.6571667 36.3524918,2.29690848 32.2692239,2.29690848 C28.1859559,2.29690848 24.874985,5.6571667 24.874985,9.80185693 C24.874985,13.9477588 28.1852721,17.3068054 32.2692239,17.3068054 C36.3531756,17.3068054 39.6634627,13.9477588 39.6634627,9.80185693 Z M41.7069409,9.80185693 C41.7069409,15.0933494 37.4816481,19.3808795 32.2692239,19.3808795 C27.0567997,19.3808795 22.8315068,15.0933494 22.8315068,9.80185693 C22.8315068,4.51164772 27.0574129,0.222834405 32.2692239,0.222834405 C37.4810348,0.222834405 41.7069409,4.51164772 41.7069409,9.80185693 Z" id="Stroke-1"></path>
                    <path d="M44.6070084,24.5581918 C44.3651068,23.2714731 43.8924923,22.0033074 43.1359648,20.8192967 C43.1327141,20.8142114 43.1327141,20.8142114 43.1289502,20.8083329 C42.6646354,20.0820858 42.1197022,19.38754 41.510215,18.7282077 C40.7692621,17.9266581 39.97289,17.2181415 39.1774256,16.6123059 C38.9002272,16.4011882 38.6438865,16.2185825 38.4154804,16.0655195 C38.2826119,15.9764797 38.1915746,15.9188034 38.149437,15.8934565 L39.1912871,14.1091963 C39.4457119,14.2622398 39.8683975,14.5454963 40.4039073,14.9533473 C41.2888995,15.6273683 42.172984,16.4139209 43.0004573,17.3090666 C43.6895836,18.0545512 44.30962,18.8448199 44.8426396,19.6785308 C44.8465555,19.6846463 44.8465555,19.6846463 44.8504646,19.6907617 C45.7591902,21.1129713 46.3251709,22.6316665 46.6142713,24.169444 C46.8085016,25.2025902 46.8558462,26.1061674 46.8196416,26.810571 C46.8155596,26.8899902 46.8111236,26.949304 46.8074501,26.9872469 L46.7168652,27.922865 L18.748093,27.922865 L18.748093,25.848791 L44.7708874,25.848791 C44.746914,25.4622463 44.6953375,25.0280297 44.6070084,24.5581918 Z" id="Stroke-3"></path>
                    <path d="M39.0930096,23.2772436 L40.9077833,22.3238176 C41.0507639,22.6041809 41.2553988,23.0575782 41.4597346,23.6144392 C41.6645928,24.1727239 41.8245266,24.7233367 41.9220769,25.2529949 C42.0472976,25.9328921 42.0659801,26.5532822 41.9435997,27.1111945 L39.9489587,26.6604615 C40.0027801,26.4150984 39.9921363,26.0616504 39.9133931,25.6341071 C39.8396796,25.2338725 39.711716,24.7933256 39.544757,24.3383247 C39.4442065,24.0643019 39.336087,23.8027095 39.2283132,23.5639216 C39.1649096,23.423442 39.1171654,23.3246095 39.0930096,23.2772436 Z" id="Stroke-7"></path>
                    <path d="M22.4655947,9.80185693 C22.4655947,5.6567577 19.1556776,2.29690848 15.0722944,2.29690848 C10.9872891,2.29690848 7.67711705,5.6564989 7.67711705,9.80185693 C7.67711705,13.9484265 10.9866053,17.3068054 15.0722944,17.3068054 C19.1563612,17.3068054 22.4655947,13.9481678 22.4655947,9.80185693 Z M24.5090729,9.80185693 C24.5090729,15.093667 20.2849237,19.3808795 15.0722944,19.3808795 C9.8581134,19.3808795 5.63363876,15.0939973 5.63363876,9.80185693 C5.63363876,4.51099966 9.85872664,0.222834405 15.0722944,0.222834405 C20.2843105,0.222834405 24.5090729,4.51133 24.5090729,9.80185693 Z" id="Stroke-9"></path>
                    <path d="M27.4093524,24.5564784 C27.1675473,23.2704518 26.6948799,22.0030173 25.9381061,20.8196379 C25.9348528,20.814553 25.9348528,20.814553 25.930865,20.8083296 C25.4665542,20.0820824 24.9216256,19.3875367 24.3121437,18.7282045 C23.5711974,17.9266551 22.7748322,17.2181388 21.9793749,16.6123034 C21.7021791,16.4011858 21.4458407,16.2185802 21.2174366,16.0655172 C21.0845694,15.9764775 20.993533,15.9188014 20.951396,15.8934545 L21.9932527,14.1091983 C22.2476755,14.2622419 22.6703578,14.5454986 23.2058633,14.9533498 C24.0908483,15.6273711 24.9749255,16.4139238 25.8023919,17.3090699 C26.4915125,18.0545545 27.1115436,18.8448232 27.6443374,19.6781889 C27.6482569,19.6843047 27.6482569,19.6843047 27.6521696,19.6904205 C28.561362,21.1121389 29.1275466,22.6303353 29.4166055,24.1676786 C29.610879,25.2009114 29.6580991,26.1048343 29.6216418,26.8099442 C29.6175072,26.8899109 29.6130147,26.9496305 29.6092957,26.9878233 L29.5182471,27.922865 L0.624488056,27.922865 L0.533439424,26.9878233 C0.529717591,26.9496012 0.525220789,26.8898247 0.521081759,26.8097763 C0.484620537,26.1046195 0.531765519,25.2007182 0.725832175,24.1675543 C1.0145704,22.630382 1.58018257,21.1123548 2.48850204,19.6907659 C2.4924114,19.68465 2.4924114,19.68465 2.49604091,19.6789819 C3.0293381,18.8455558 3.64885333,18.0562388 4.33724492,17.311579 C5.16539086,16.4157415 6.0501954,15.6285697 6.93590731,14.9540102 C7.47184813,14.545837 7.89486805,14.2623572 8.14948256,14.1091983 L9.19133925,15.8934545 C9.14915197,15.9188315 9.05802278,15.9765661 8.92502643,16.0656914 C8.69640784,16.2188964 8.43983058,16.401669 8.16237765,16.6129776 C7.36618699,17.2193575 6.56908895,17.9285007 5.82745914,18.7307504 C5.21854582,19.3894355 4.67399394,20.0832425 4.2095136,20.8091228 C4.2062576,20.8142077 4.2062576,20.8142077 4.20300724,20.8192925 C3.44693676,22.0026003 2.97471355,23.269984 2.73315566,24.5559796 C2.6447551,25.0266028 2.59324097,25.4615714 2.56941965,25.848791 L27.5732359,25.848791 C27.5493714,25.4617239 27.497808,25.0269244 27.4093524,24.5564784 Z" id="Stroke-11"></path>
                    <path d="M6.43216774,22.3238176 L8.24694139,23.2772436 C8.22283143,23.3245196 8.17516217,23.4232023 8.1118525,23.5634895 C8.00423182,23.8019651 7.89626439,24.0632381 7.79585479,24.3369521 C7.62883022,24.7922568 7.5008936,25.2331144 7.42734674,25.6335832 C7.34886609,26.0609169 7.3385017,26.4141387 7.39256947,26.6593137 L5.39843335,27.1123423 C5.27535694,26.5542418 5.29356734,25.9336257 5.41847025,25.2535188 C5.51584937,24.7232814 5.67580652,24.1720841 5.88081306,23.6132415 C6.08492011,23.0568509 6.2893308,22.6038992 6.43216774,22.3238176 Z" id="Stroke-13"></path>
                    <path d="M21.5298582,23.2772436 L23.3446319,22.3238176 C23.4874688,22.6038992 23.6918795,23.0568509 23.8959866,23.6132415 C24.1009931,24.1720841 24.2609502,24.7232814 24.3583294,25.2535188 C24.4832322,25.9336257 24.5014427,26.5542418 24.3783663,27.1123423 L22.3842301,26.6593137 C22.4382979,26.4141387 22.4279335,26.0609169 22.3494529,25.6335832 C22.275906,25.2331144 22.1479694,24.7922568 21.9809448,24.3369521 C21.8805352,24.0632381 21.7725678,23.8019651 21.6649471,23.5634895 C21.6016375,23.4232023 21.5539682,23.3245196 21.5298582,23.2772436 Z" id="Stroke-15"></path>
                    <path d="M7.68353173,12.4811342 L7.82269664,14.5503931 C7.76212707,14.5545895 7.63459846,14.5687378 7.46448211,14.5970601 C7.17996428,14.6444289 6.8969649,14.7135521 6.6425603,14.8053663 C6.14104194,14.9863635 5.89666929,15.1954507 5.87278792,15.3597316 C5.80381746,15.8411196 5.87179172,16.1053398 5.99390069,16.2578111 C6.02239955,16.2933962 6.03157627,16.2999375 5.98647333,16.2798715 L5.16610341,18.1794694 C4.93338274,18.0759334 4.66113287,17.8818704 4.40820515,17.5660523 C3.91907984,16.9553064 3.70078397,16.1067765 3.85088566,15.0591383 C4.01160232,13.9534593 4.81990121,13.2618725 5.95794259,12.851155 C6.60759762,12.6166955 7.23531862,12.5121876 7.68353173,12.4811342 Z" id="Stroke-17"></path>
                    <polygon id="Stroke-31" points="22.231192 15.1549134 22.5480031 13.1059171 25.5942927 13.5911373 25.2774816 15.6401337"></polygon>
                </g>
                <path d="M14.3291733,14.1296125 C14.3291733,15.0339056 14.3279075,15.8958297 14.3296796,16.7577539 C14.3305656,17.1988971 14.1785481,17.5660528 13.7994536,17.8078722 C13.4458008,18.0336293 13.0648076,18.0687892 12.6876117,17.8687064 C12.2825692,17.6536997 12.0648588,17.3076653 12.0614412,16.8456537 C12.0557453,16.066191 12.0597958,15.2864753 12.0596692,14.5068861 L12.0596692,14.1298654 C11.7305721,14.1298654 11.4283091,14.1298654 11.1259195,14.1298654 C10.4722821,14.1297389 9.81839147,14.1359362 9.16488061,14.1279683 C8.49757298,14.119621 8.00152242,13.6356028 8.00000351,13.0076566 C7.9984846,12.3536567 8.49023159,11.867109 9.17108282,11.8634413 C10.1187558,11.8582558 11.066682,11.86205 12.0444801,11.86205 C12.0500494,11.7456934 12.0589097,11.6447667 12.0590363,11.5437136 C12.0601755,10.7641244 12.0562516,9.98453517 12.0605552,9.20494597 C12.0642259,8.51275069 12.5385054,8.00381706 13.1735362,8.00002282 C13.8312241,7.99610211 14.3213256,8.49782669 14.3275278,9.20115173 C14.3351223,10.0740792 14.3292999,10.9468801 14.3292999,11.8619236 L15.6350558,11.8619236 C16.0356682,11.86205 16.4364072,11.8576234 16.8370196,11.8631883 C17.4867332,11.8720415 17.9988589,12.3727543 17.9999981,12.9927326 C18.0011373,13.6119521 17.4923026,14.1197475 16.8400575,14.1273359 C16.0192134,14.1368215 15.1979896,14.1296125 14.3291733,14.1296125" id="Fill-6" fill="#000000"></path>
            </g>
        </g>
    </g>
</svg>