<?xml version="1.0" encoding="UTF-8"?>
<svg width="51px" height="44px" viewBox="0 0 51 44" version="1.1" xmlns="http://www.w3.org/2000/svg" xmlns:xlink="http://www.w3.org/1999/xlink">
    <!-- Generator: Sketch 53.2 (72643) - https://sketchapp.com -->
    <title>icon_accumulated</title>
    <desc>Created with Sketch.</desc>
    <g id="mock-up" stroke="none" stroke-width="1" fill="none" fill-rule="evenodd">
        <g id="Dashboard_rewards" transform="translate(-149.000000, -472.000000)" fill-rule="nonzero">
            <g id="icon_accumulated" transform="translate(149.000000, 472.000000)">
                <g id="icon/warning" fill="#FFFF30">
                    <circle id="Oval" cx="12.5" cy="12.5" r="12.5"></circle>
                </g>
                <g id="money-svgrepo-com" transform="translate(16.000000, 23.000000)" fill="#000000">
                    <path d="M26.3035496,10.0434783 C26.3035496,10.9850543 25.5538556,11.7514535 24.6328029,11.7514535 C23.7117503,11.7514535 22.9620563,10.9850543 22.9620563,10.0434783 C22.9620563,9.10190217 23.7117503,8.33550304 24.6328029,8.33550304 C25.5538556,8.33550304 26.3035496,9.10190217 26.3035496,10.0434783 Z M5.43349653,10.0434783 C5.43349653,10.9850543 6.18319053,11.7514535 7.10424317,11.7514535 C8.0252958,11.7514535 8.7749898,10.9850543 8.7749898,10.0434783 C8.7749898,9.10190217 8.0252958,8.33550304 7.10424317,8.33550304 C6.18319053,8.33550304 5.43349653,9.10190217 5.43349653,10.0434783 Z M2.74887801,20.0869565 L21.8839249,20.0869565 L21.8839249,18.3028744 L5.41538129,18.3028744 C5.44394106,18.1349965 5.62627499,17.8961492 5.62627499,17.1600417 C5.62627499,15.5907482 4.37678498,14.3134163 2.84169727,14.3134163 C2.16015157,14.3134163 2.00436884,14.4427475 1.8472901,14.4719437 L1.8472901,5.51746365 C2.00436884,5.54665981 2.18283725,5.76624116 2.84169727,5.76624116 C4.37678498,5.76624116 5.62627499,4.48890925 5.62627499,2.91961577 C5.62627499,2.28317555 5.451081,2.02065178 5.41538129,1.84547484 L26.1208751,1.84547484 C26.0637556,2.06444602 25.9179927,2.21388247 25.9179927,3.08749368 C25.9179927,4.65678716 27.1674826,5.93411906 28.7025703,5.93411906 C29.537363,5.93411906 29.6386904,5.82463347 29.8528887,5.76624116 L29.8528887,11.6784631 L31.7370461,11.6784631 L31.7370461,2.81013018 C31.7370461,1.26273383 30.501836,0 28.9881681,0 L2.74887801,0 C1.23521012,0 0,1.26273383 0,2.81013018 L0,17.2768264 C0,18.8242227 1.23521012,20.0869565 2.74887801,20.0869565 Z M34.6501428,12.7826087 L26.2250102,12.7826087 C26.0322317,12.7826087 25.875153,12.9431876 25.875153,13.1402616 L25.875153,14.0798471 C25.875153,14.2769211 26.0322317,14.4375 26.2250102,14.4375 L34.6501428,14.4375 C34.8429213,14.4375 35,14.2769211 35,14.0798471 L35,13.1402616 C35,12.9431876 34.8429213,12.7826087 34.6501428,12.7826087 Z M33.0057591,15.5217391 L24.5806264,15.5217391 C24.387848,15.5217391 24.2307692,15.682318 24.2307692,15.879392 L24.2307692,16.8189775 C24.2307692,17.0160516 24.387848,17.1766304 24.5806264,17.1766304 L33.0057591,17.1766304 C33.1985375,17.1766304 33.3556163,17.0160516 33.3556163,16.8189775 L33.3556163,15.879392 C33.3556163,15.682318 33.1985375,15.5217391 33.0057591,15.5217391 Z M31.3903744,18.4434783 L22.9652418,18.4434783 C22.7724634,18.4434783 22.6153846,18.6040571 22.6153846,18.8011312 L22.6153846,19.7407166 C22.6153846,19.9377907 22.7724634,20.0983696 22.9652418,20.0983696 L31.3903744,20.0983696 C31.5831529,20.0983696 31.7402317,19.9377907 31.7402317,19.7407166 L31.7402317,18.8011312 C31.7402317,18.6040571 31.5831529,18.4434783 31.3903744,18.4434783 Z M15.872093,3.88308898 C19.1993064,3.88308898 21.8982048,6.64212588 21.8982048,10.0434783 C21.8982048,13.4448306 19.1993064,16.2038675 15.872093,16.2038675 C12.5448797,16.2038675 9.84598121,13.4448306 9.84598121,10.0434783 C9.84598121,6.64212588 12.5377397,3.88308898 15.872093,3.88308898 Z M16.4004488,5.46698054 L15.7150143,5.46698054 C15.6079152,5.46698054 15.5293758,5.55456901 15.5293758,5.65675556 L15.5293758,6.49614509 C15.0081599,6.57643453 14.5797633,6.76620956 14.2584659,7.08736729 C13.9014688,7.43772118 13.7229702,7.88296259 13.7229702,8.43039054 C13.7229702,9.02891178 13.8943288,9.4887513 14.2299062,9.79531094 C14.5654835,10.1018706 15.1081191,10.4084302 15.8435333,10.7149899 C16.1505508,10.8463726 16.3576092,10.9850543 16.4789882,11.1237361 C16.6003672,11.2624179 16.6574867,11.4594919 16.6574867,11.7149583 C16.6574867,11.9339295 16.6003672,12.1091065 16.4861281,12.2477882 C16.3718891,12.3791708 16.2005304,12.4521613 15.9720522,12.4521613 C15.7007344,12.4521613 15.4793962,12.3645728 15.3151775,12.1893959 C15.1795186,12.0434151 15.0938392,11.8244439 15.0724194,11.5324823 C15.0652795,11.4156977 14.9653203,11.3281092 14.8510812,11.3354082 L13.7229702,11.3573054 C13.6015912,11.3573054 13.5016319,11.466791 13.5016319,11.5908746 C13.5301918,12.203994 13.7229702,12.6711325 14.0799674,13.0068882 C14.4655243,13.3645412 14.9510404,13.5835124 15.5293758,13.6492037 L15.5293758,14.4375 C15.5293758,14.5469856 15.6150551,14.627275 15.7150143,14.627275 L16.4004488,14.627275 C16.5075479,14.627275 16.5860873,14.5396865 16.5860873,14.4375 L16.5860873,13.6200076 C17.0501836,13.5324191 17.4286005,13.3426441 17.7213382,13.0579815 C18.0640555,12.7149267 18.2354141,12.2696852 18.2354141,11.7076592 C18.2354141,11.1237361 18.0640555,10.6711957 17.7213382,10.3500379 C17.378621,10.0361792 16.8431253,9.71502146 16.114851,9.40116277 C15.8006936,9.26248105 15.5864953,9.12379929 15.4722562,8.98511754 C15.3580171,8.8464358 15.3008976,8.66395981 15.3008976,8.44498863 C15.3008976,8.22601744 15.3508772,8.0508405 15.4579763,7.90485971 C15.5650754,7.76617795 15.7292942,7.69318756 15.9506324,7.69318756 C16.1719706,7.69318756 16.3433292,7.78077604 16.4789882,7.94865394 C16.5860873,8.08733569 16.6503468,8.27711072 16.6717666,8.5325771 C16.6789066,8.64936173 16.7860057,8.72965116 16.8931048,8.72965116 L18.0212159,8.71505308 C18.1425949,8.71505308 18.249694,8.60556749 18.2425541,8.48148383 C18.2139943,7.9778501 18.0569155,7.55450582 17.7641778,7.21145096 C17.4643003,6.85379803 17.0716034,6.62752781 16.5789474,6.52534126 L16.5789474,5.65675556 C16.5860873,5.54726997 16.500408,5.46698054 16.4004488,5.46698054 Z" id="Shape"></path>
                </g>
                <g id="money-svgrepo-com-copy-2" transform="translate(6.000000, 16.000000)" fill="#000000">
                    <path d="M32.4171257,4.54545455 L26.8875856,4.54545455 C26.6248682,4.11626539 26.4733782,3.61244925 26.4733782,3.07412791 C26.4733782,2.20429856 26.6222646,2.05550903 26.6806082,1.83748577 L5.53142518,1.83748577 C5.56788988,2.01190437 5.74683803,2.27329167 5.74683803,2.90697675 C5.74683803,4.46947675 4.47057323,5.74127907 2.90259078,5.74127907 C2.22961233,5.74127907 2.04731961,5.5226483 1.88687489,5.49357853 L1.88687489,14.4092946 C2.04731961,14.3802248 2.20644053,14.2514535 2.90259078,14.2514535 C4.47057323,14.2514535 5.74683803,15.5232558 5.74683803,17.0857558 C5.74683803,17.8186767 5.56059694,18.05649 5.53142518,18.2236412 L6.41666667,18.2236412 L6.41666667,20 L2.80778254,20 C1.26167891,20 -1.20081722e-12,18.7427325 -1.20081722e-12,17.2020349 L-1.20081722e-12,2.79796512 C-1.20081722e-12,1.25726745 1.26167891,1.0658141e-14 2.80778254,1.0658141e-14 L29.6093431,1.0658141e-14 C31.1554468,1.0658141e-14 32.4171257,1.25726745 32.4171257,2.79796512 L32.4171257,4.54545455 Z" id="Combined-Shape"></path>
                </g>
                <g id="money-svgrepo-com-copy-3" transform="translate(11.000000, 20.000000)" fill="#000000">
                    <path d="M32.4171257,4.54545455 L26.8875856,4.54545455 C26.6248682,4.11626539 26.4733782,3.61244925 26.4733782,3.07412791 C26.4733782,2.20429856 26.6222646,2.05550903 26.6806082,1.83748577 L5.53142518,1.83748577 C5.56788988,2.01190437 5.74683803,2.27329167 5.74683803,2.90697675 C5.74683803,4.46947675 4.47057323,5.74127907 2.90259078,5.74127907 C2.22961233,5.74127907 2.04731961,5.5226483 1.88687489,5.49357853 L1.88687489,14.4092946 C2.04731961,14.3802248 2.20644053,14.2514535 2.90259078,14.2514535 C4.47057323,14.2514535 5.74683803,15.5232558 5.74683803,17.0857558 C5.74683803,17.8186767 5.56059694,18.05649 5.53142518,18.2236412 L6.41666667,18.2236412 L6.41666667,20 L2.80778254,20 C1.26167891,20 -1.20081722e-12,18.7427325 -1.20081722e-12,17.2020349 L-1.20081722e-12,2.79796512 C-1.20081722e-12,1.25726745 1.26167891,1.0658141e-14 2.80778254,1.0658141e-14 L29.6093431,1.0658141e-14 C31.1554468,1.0658141e-14 32.4171257,1.25726745 32.4171257,2.79796512 L32.4171257,4.54545455 Z" id="Combined-Shape"></path>
                </g>
            </g>
        </g>
    </g>
</svg>