<?xml version="1.0" encoding="UTF-8"?>
<svg width="138px" height="138px" viewBox="0 0 138 138" version="1.1" xmlns="http://www.w3.org/2000/svg" xmlns:xlink="http://www.w3.org/1999/xlink">
    <!-- Generator: Sketch 53.2 (72643) - https://sketchapp.com -->
    <title>dummy_qr</title>
    <desc>Created with Sketch.</desc>
    <g id="mock-up" stroke="none" stroke-width="1" fill="none" fill-rule="evenodd">
        <g id="Dashboard_rewards_details_internal_promo_code_activated" transform="translate(-567.000000, -698.000000)" fill="#000000" fill-rule="nonzero">
            <g id="dummy_qr" transform="translate(567.000000, 698.000000)">
                <rect id="Rectangle" x="0" y="0" width="7" height="7"></rect>
                <rect id="Rectangle" x="6" y="0" width="7" height="7"></rect>
                <rect id="Rectangle" x="13" y="0" width="7" height="7"></rect>
                <rect id="Rectangle" x="20" y="0" width="7" height="7"></rect>
                <rect id="Rectangle" x="26" y="0" width="7" height="7"></rect>
                <rect id="Rectangle" x="33" y="0" width="7" height="7"></rect>
                <rect id="Rectangle" x="39" y="0" width="7" height="7"></rect>
                <rect id="Rectangle" x="59" y="0" width="7" height="7"></rect>
                <rect id="Rectangle" x="72" y="0" width="7" height="7"></rect>
                <rect id="Rectangle" x="79" y="0" width="7" height="7"></rect>
                <rect id="Rectangle" x="92" y="0" width="7" height="7"></rect>
                <rect id="Rectangle" x="98" y="0" width="7" height="7"></rect>
                <rect id="Rectangle" x="105" y="0" width="7" height="7"></rect>
                <rect id="Rectangle" x="112" y="0" width="7" height="7"></rect>
                <rect id="Rectangle" x="118" y="0" width="7" height="7"></rect>
                <rect id="Rectangle" x="125" y="0" width="7" height="7"></rect>
                <rect id="Rectangle" x="131" y="0" width="7" height="7"></rect>
                <rect id="Rectangle" x="0" y="6" width="7" height="7"></rect>
                <rect id="Rectangle" x="39" y="6" width="7" height="7"></rect>
                <rect id="Rectangle" x="52" y="6" width="7" height="7"></rect>
                <rect id="Rectangle" x="59" y="6" width="7" height="7"></rect>
                <rect id="Rectangle" x="72" y="6" width="7" height="7"></rect>
                <rect id="Rectangle" x="92" y="6" width="7" height="7"></rect>
                <rect id="Rectangle" x="131" y="6" width="7" height="7"></rect>
                <rect id="Rectangle" x="0" y="13" width="7" height="7"></rect>
                <rect id="Rectangle" x="13" y="13" width="7" height="7"></rect>
                <rect id="Rectangle" x="20" y="13" width="7" height="7"></rect>
                <rect id="Rectangle" x="26" y="13" width="7" height="7"></rect>
                <rect id="Rectangle" x="39" y="13" width="7" height="7"></rect>
                <rect id="Rectangle" x="52" y="13" width="7" height="7"></rect>
                <rect id="Rectangle" x="59" y="13" width="7" height="7"></rect>
                <rect id="Rectangle" x="79" y="13" width="7" height="7"></rect>
                <rect id="Rectangle" x="92" y="13" width="7" height="7"></rect>
                <rect id="Rectangle" x="105" y="13" width="7" height="7"></rect>
                <rect id="Rectangle" x="112" y="13" width="7" height="7"></rect>
                <rect id="Rectangle" x="118" y="13" width="7" height="7"></rect>
                <rect id="Rectangle" x="131" y="13" width="7" height="7"></rect>
                <rect id="Rectangle" x="0" y="20" width="7" height="7"></rect>
                <rect id="Rectangle" x="13" y="20" width="7" height="7"></rect>
                <rect id="Rectangle" x="20" y="20" width="7" height="7"></rect>
                <rect id="Rectangle" x="26" y="20" width="7" height="7"></rect>
                <rect id="Rectangle" x="39" y="20" width="7" height="7"></rect>
                <rect id="Rectangle" x="59" y="20" width="7" height="7"></rect>
                <rect id="Rectangle" x="72" y="20" width="7" height="7"></rect>
                <rect id="Rectangle" x="92" y="20" width="7" height="7"></rect>
                <rect id="Rectangle" x="105" y="20" width="7" height="7"></rect>
                <rect id="Rectangle" x="112" y="20" width="7" height="7"></rect>
                <rect id="Rectangle" x="118" y="20" width="7" height="7"></rect>
                <rect id="Rectangle" x="131" y="20" width="7" height="7"></rect>
                <rect id="Rectangle" x="0" y="26" width="7" height="7"></rect>
                <rect id="Rectangle" x="13" y="26" width="7" height="7"></rect>
                <rect id="Rectangle" x="20" y="26" width="7" height="7"></rect>
                <rect id="Rectangle" x="26" y="26" width="7" height="7"></rect>
                <rect id="Rectangle" x="39" y="26" width="7" height="7"></rect>
                <rect id="Rectangle" x="52" y="26" width="7" height="7"></rect>
                <rect id="Rectangle" x="79" y="26" width="7" height="7"></rect>
                <rect id="Rectangle" x="92" y="26" width="7" height="7"></rect>
                <rect id="Rectangle" x="105" y="26" width="7" height="7"></rect>
                <rect id="Rectangle" x="112" y="26" width="7" height="7"></rect>
                <rect id="Rectangle" x="118" y="26" width="7" height="7"></rect>
                <rect id="Rectangle" x="131" y="26" width="7" height="7"></rect>
                <rect id="Rectangle" x="0" y="33" width="7" height="7"></rect>
                <rect id="Rectangle" x="39" y="33" width="7" height="7"></rect>
                <rect id="Rectangle" x="52" y="33" width="7" height="7"></rect>
                <rect id="Rectangle" x="72" y="33" width="7" height="7"></rect>
                <rect id="Rectangle" x="79" y="33" width="7" height="7"></rect>
                <rect id="Rectangle" x="92" y="33" width="7" height="7"></rect>
                <rect id="Rectangle" x="131" y="33" width="7" height="7"></rect>
                <rect id="Rectangle" x="0" y="39" width="7" height="7"></rect>
                <rect id="Rectangle" x="6" y="39" width="7" height="7"></rect>
                <rect id="Rectangle" x="13" y="39" width="7" height="7"></rect>
                <rect id="Rectangle" x="20" y="39" width="7" height="7"></rect>
                <rect id="Rectangle" x="26" y="39" width="7" height="7"></rect>
                <rect id="Rectangle" x="33" y="39" width="7" height="7"></rect>
                <rect id="Rectangle" x="39" y="39" width="7" height="7"></rect>
                <rect id="Rectangle" x="52" y="39" width="7" height="7"></rect>
                <rect id="Rectangle" x="66" y="39" width="7" height="7"></rect>
                <rect id="Rectangle" x="79" y="39" width="7" height="7"></rect>
                <rect id="Rectangle" x="92" y="39" width="7" height="7"></rect>
                <rect id="Rectangle" x="98" y="39" width="7" height="7"></rect>
                <rect id="Rectangle" x="105" y="39" width="7" height="7"></rect>
                <rect id="Rectangle" x="112" y="39" width="7" height="7"></rect>
                <rect id="Rectangle" x="118" y="39" width="7" height="7"></rect>
                <rect id="Rectangle" x="125" y="39" width="7" height="7"></rect>
                <rect id="Rectangle" x="131" y="39" width="7" height="7"></rect>
                <rect id="Rectangle" x="52" y="46" width="7" height="7"></rect>
                <rect id="Rectangle" x="59" y="46" width="7" height="7"></rect>
                <rect id="Rectangle" x="66" y="46" width="7" height="7"></rect>
                <rect id="Rectangle" x="72" y="46" width="7" height="7"></rect>
                <rect id="Rectangle" x="79" y="46" width="7" height="7"></rect>
                <rect id="Rectangle" x="0" y="52" width="7" height="7"></rect>
                <rect id="Rectangle" x="6" y="52" width="7" height="7"></rect>
                <rect id="Rectangle" x="20" y="52" width="7" height="7"></rect>
                <rect id="Rectangle" x="39" y="52" width="7" height="7"></rect>
                <rect id="Rectangle" x="46" y="52" width="7" height="7"></rect>
                <rect id="Rectangle" x="59" y="52" width="7" height="7"></rect>
                <rect id="Rectangle" x="66" y="52" width="7" height="7"></rect>
                <rect id="Rectangle" x="92" y="52" width="7" height="7"></rect>
                <rect id="Rectangle" x="98" y="52" width="7" height="7"></rect>
                <rect id="Rectangle" x="105" y="52" width="7" height="7"></rect>
                <rect id="Rectangle" x="118" y="52" width="7" height="7"></rect>
                <rect id="Rectangle" x="125" y="52" width="7" height="7"></rect>
                <rect id="Rectangle" x="0" y="59" width="7" height="7"></rect>
                <rect id="Rectangle" x="26" y="59" width="7" height="7"></rect>
                <rect id="Rectangle" x="66" y="59" width="7" height="7"></rect>
                <rect id="Rectangle" x="72" y="59" width="7" height="7"></rect>
                <rect id="Rectangle" x="85" y="59" width="7" height="7"></rect>
                <rect id="Rectangle" x="131" y="59" width="7" height="7"></rect>
                <rect id="Rectangle" x="6" y="66" width="7" height="7"></rect>
                <rect id="Rectangle" x="13" y="66" width="7" height="7"></rect>
                <rect id="Rectangle" x="20" y="66" width="7" height="7"></rect>
                <rect id="Rectangle" x="26" y="66" width="7" height="7"></rect>
                <rect id="Rectangle" x="39" y="66" width="7" height="7"></rect>
                <rect id="Rectangle" x="46" y="66" width="7" height="7"></rect>
                <rect id="Rectangle" x="79" y="66" width="7" height="7"></rect>
                <rect id="Rectangle" x="85" y="66" width="7" height="7"></rect>
                <rect id="Rectangle" x="98" y="66" width="7" height="7"></rect>
                <rect id="Rectangle" x="112" y="66" width="7" height="7"></rect>
                <rect id="Rectangle" x="118" y="66" width="7" height="7"></rect>
                <rect id="Rectangle" x="131" y="66" width="7" height="7"></rect>
                <rect id="Rectangle" x="0" y="72" width="7" height="7"></rect>
                <rect id="Rectangle" x="6" y="72" width="7" height="7"></rect>
                <rect id="Rectangle" x="13" y="72" width="7" height="7"></rect>
                <rect id="Rectangle" x="20" y="72" width="7" height="7"></rect>
                <rect id="Rectangle" x="26" y="72" width="7" height="7"></rect>
                <rect id="Rectangle" x="33" y="72" width="7" height="7"></rect>
                <rect id="Rectangle" x="46" y="72" width="7" height="7"></rect>
                <rect id="Rectangle" x="52" y="72" width="7" height="7"></rect>
                <rect id="Rectangle" x="59" y="72" width="7" height="7"></rect>
                <rect id="Rectangle" x="72" y="72" width="7" height="7"></rect>
                <rect id="Rectangle" x="85" y="72" width="7" height="7"></rect>
                <rect id="Rectangle" x="92" y="72" width="7" height="7"></rect>
                <rect id="Rectangle" x="112" y="72" width="7" height="7"></rect>
                <rect id="Rectangle" x="125" y="72" width="7" height="7"></rect>
                <rect id="Rectangle" x="131" y="72" width="7" height="7"></rect>
                <rect id="Rectangle" x="0" y="79" width="7" height="7"></rect>
                <rect id="Rectangle" x="13" y="79" width="7" height="7"></rect>
                <rect id="Rectangle" x="20" y="79" width="7" height="7"></rect>
                <rect id="Rectangle" x="26" y="79" width="7" height="7"></rect>
                <rect id="Rectangle" x="39" y="79" width="7" height="7"></rect>
                <rect id="Rectangle" x="52" y="79" width="7" height="7"></rect>
                <rect id="Rectangle" x="59" y="79" width="7" height="7"></rect>
                <rect id="Rectangle" x="66" y="79" width="7" height="7"></rect>
                <rect id="Rectangle" x="72" y="79" width="7" height="7"></rect>
                <rect id="Rectangle" x="79" y="79" width="7" height="7"></rect>
                <rect id="Rectangle" x="105" y="79" width="7" height="7"></rect>
                <rect id="Rectangle" x="125" y="79" width="7" height="7"></rect>
                <rect id="Rectangle" x="131" y="79" width="7" height="7"></rect>
                <rect id="Rectangle" x="52" y="85" width="7" height="7"></rect>
                <rect id="Rectangle" x="59" y="85" width="7" height="7"></rect>
                <rect id="Rectangle" x="72" y="85" width="7" height="7"></rect>
                <rect id="Rectangle" x="79" y="85" width="7" height="7"></rect>
                <rect id="Rectangle" x="105" y="85" width="7" height="7"></rect>
                <rect id="Rectangle" x="118" y="85" width="7" height="7"></rect>
                <rect id="Rectangle" x="0" y="92" width="7" height="7"></rect>
                <rect id="Rectangle" x="6" y="92" width="7" height="7"></rect>
                <rect id="Rectangle" x="13" y="92" width="7" height="7"></rect>
                <rect id="Rectangle" x="20" y="92" width="7" height="7"></rect>
                <rect id="Rectangle" x="26" y="92" width="7" height="7"></rect>
                <rect id="Rectangle" x="33" y="92" width="7" height="7"></rect>
                <rect id="Rectangle" x="39" y="92" width="7" height="7"></rect>
                <rect id="Rectangle" x="52" y="92" width="7" height="7"></rect>
                <rect id="Rectangle" x="66" y="92" width="7" height="7"></rect>
                <rect id="Rectangle" x="79" y="92" width="7" height="7"></rect>
                <rect id="Rectangle" x="98" y="92" width="7" height="7"></rect>
                <rect id="Rectangle" x="105" y="92" width="7" height="7"></rect>
                <rect id="Rectangle" x="118" y="92" width="7" height="7"></rect>
                <rect id="Rectangle" x="125" y="92" width="7" height="7"></rect>
                <rect id="Rectangle" x="0" y="98" width="7" height="7"></rect>
                <rect id="Rectangle" x="39" y="98" width="7" height="7"></rect>
                <rect id="Rectangle" x="59" y="98" width="7" height="7"></rect>
                <rect id="Rectangle" x="72" y="98" width="7" height="7"></rect>
                <rect id="Rectangle" x="98" y="98" width="7" height="7"></rect>
                <rect id="Rectangle" x="0" y="105" width="7" height="7"></rect>
                <rect id="Rectangle" x="13" y="105" width="7" height="7"></rect>
                <rect id="Rectangle" x="20" y="105" width="7" height="7"></rect>
                <rect id="Rectangle" x="26" y="105" width="7" height="7"></rect>
                <rect id="Rectangle" x="39" y="105" width="7" height="7"></rect>
                <rect id="Rectangle" x="59" y="105" width="7" height="7"></rect>
                <rect id="Rectangle" x="66" y="105" width="7" height="7"></rect>
                <rect id="Rectangle" x="72" y="105" width="7" height="7"></rect>
                <rect id="Rectangle" x="79" y="105" width="7" height="7"></rect>
                <rect id="Rectangle" x="85" y="105" width="7" height="7"></rect>
                <rect id="Rectangle" x="0" y="112" width="7" height="7"></rect>
                <rect id="Rectangle" x="13" y="112" width="7" height="7"></rect>
                <rect id="Rectangle" x="20" y="112" width="7" height="7"></rect>
                <rect id="Rectangle" x="26" y="112" width="7" height="7"></rect>
                <rect id="Rectangle" x="39" y="112" width="7" height="7"></rect>
                <rect id="Rectangle" x="52" y="112" width="7" height="7"></rect>
                <rect id="Rectangle" x="59" y="112" width="7" height="7"></rect>
                <rect id="Rectangle" x="79" y="112" width="7" height="7"></rect>
                <rect id="Rectangle" x="85" y="112" width="7" height="7"></rect>
                <rect id="Rectangle" x="92" y="112" width="7" height="7"></rect>
                <rect id="Rectangle" x="98" y="112" width="7" height="7"></rect>
                <rect id="Rectangle" x="105" y="112" width="7" height="7"></rect>
                <rect id="Rectangle" x="112" y="112" width="7" height="7"></rect>
                <rect id="Rectangle" x="118" y="112" width="7" height="7"></rect>
                <rect id="Rectangle" x="125" y="112" width="7" height="7"></rect>
                <rect id="Rectangle" x="131" y="112" width="7" height="7"></rect>
                <rect id="Rectangle" x="0" y="118" width="7" height="7"></rect>
                <rect id="Rectangle" x="13" y="118" width="7" height="7"></rect>
                <rect id="Rectangle" x="20" y="118" width="7" height="7"></rect>
                <rect id="Rectangle" x="26" y="118" width="7" height="7"></rect>
                <rect id="Rectangle" x="39" y="118" width="7" height="7"></rect>
                <rect id="Rectangle" x="59" y="118" width="7" height="7"></rect>
                <rect id="Rectangle" x="72" y="118" width="7" height="7"></rect>
                <rect id="Rectangle" x="79" y="118" width="7" height="7"></rect>
                <rect id="Rectangle" x="85" y="118" width="7" height="7"></rect>
                <rect id="Rectangle" x="105" y="118" width="7" height="7"></rect>
                <rect id="Rectangle" x="112" y="118" width="7" height="7"></rect>
                <rect id="Rectangle" x="118" y="118" width="7" height="7"></rect>
                <rect id="Rectangle" x="131" y="118" width="7" height="7"></rect>
                <rect id="Rectangle" x="0" y="125" width="7" height="7"></rect>
                <rect id="Rectangle" x="39" y="125" width="7" height="7"></rect>
                <rect id="Rectangle" x="52" y="125" width="7" height="7"></rect>
                <rect id="Rectangle" x="79" y="125" width="7" height="7"></rect>
                <rect id="Rectangle" x="85" y="125" width="7" height="7"></rect>
                <rect id="Rectangle" x="105" y="125" width="7" height="7"></rect>
                <rect id="Rectangle" x="0" y="131" width="7" height="7"></rect>
                <rect id="Rectangle" x="6" y="131" width="7" height="7"></rect>
                <rect id="Rectangle" x="13" y="131" width="7" height="7"></rect>
                <rect id="Rectangle" x="20" y="131" width="7" height="7"></rect>
                <rect id="Rectangle" x="26" y="131" width="7" height="7"></rect>
                <rect id="Rectangle" x="33" y="131" width="7" height="7"></rect>
                <rect id="Rectangle" x="39" y="131" width="7" height="7"></rect>
                <rect id="Rectangle" x="52" y="131" width="7" height="7"></rect>
                <rect id="Rectangle" x="59" y="131" width="7" height="7"></rect>
                <rect id="Rectangle" x="66" y="131" width="7" height="7"></rect>
                <rect id="Rectangle" x="92" y="131" width="7" height="7"></rect>
                <rect id="Rectangle" x="125" y="131" width="7" height="7"></rect>
            </g>
        </g>
    </g>
</svg>