<?xml version="1.0" encoding="UTF-8"?>
<svg width="39px" height="35px" viewBox="0 0 39 35" version="1.1" xmlns="http://www.w3.org/2000/svg" xmlns:xlink="http://www.w3.org/1999/xlink">
    <!-- Generator: Sketch 53.2 (72643) - https://sketchapp.com -->
    <title>Group 12</title>
    <desc>Created with Sketch.</desc>
    <g id="mock-up" stroke="none" stroke-width="1" fill="none" fill-rule="evenodd">
        <g id="Dashboard_Inbox-Copy" transform="translate(-140.000000, -279.000000)">
            <g id="Group-12" transform="translate(140.000000, 279.000000)">
                <circle id="Oval" fill="#FFFF30" cx="29" cy="10" r="10"></circle>
                <path d="M11.2172291,26.0925824 L11.1944624,26.0698059 C9.3427365,24.2172857 7.78754212,22.6614374 4.50824055,19.3807667 C4.48284618,19.4066232 4.45618858,19.4337531 4.42803115,19.462399 L4.28311667,19.6098042 C3.69669311,20.2064033 3.38985315,20.5256405 3.05622735,20.8938557 C2.97152934,20.9873366 2.8937284,21.1620224 2.84426105,21.3726535 C2.70396374,21.9711916 2.86597309,22.4721753 3.34644671,22.9494865 C5.07018948,24.6617224 6.45656093,26.0426682 9.53909778,29.1160061 L9.57511183,29.1519127 C10.7666527,30.3398978 11.3119208,30.8834607 11.9817053,31.5508684 C12.0705834,31.639321 12.1178217,31.6844748 12.1691393,31.7286419 C12.7500819,32.2293286 13.6391791,32.2447365 14.1667455,31.7672417 C14.4609739,31.500948 14.7442045,31.2228554 15.1523039,30.8060732 C15.1463862,30.8121168 15.3602967,30.5928744 15.5360179,30.4132644 C13.5443209,28.4206788 13.4276971,28.3040046 11.2172291,26.0925824 Z M19.257021,26.7222943 L19.3604174,26.6192655 C23.0458119,22.9469727 24.7270106,21.2701271 26.7924508,19.2041457 C27.5799234,18.4163987 27.98659,17.4793636 28.0047113,16.3913502 C28.0420489,14.1490298 28.0691296,12.2296439 28.1197984,8.38759411 C28.1212565,8.27396103 28.108413,8.15883311 28.0825148,8.05442021 C27.9013588,7.32294728 27.2869426,6.85874565 26.4944241,6.8682837 C24.1606865,6.8963809 21.7546348,6.93108012 18.6599768,6.97994728 C17.5001259,6.99819062 16.5150107,7.42639773 15.6697872,8.26984183 C13.8159753,10.1195932 12.2817648,11.6483673 9.01858899,14.8984516 L8.81388536,15.1023339 C7.45709677,16.4536793 6.73004707,17.1778783 5.9506423,17.9544356 C9.63784039,21.6292636 13.3137968,25.2928013 17.0025599,28.9690157 C17.5977907,28.3756787 18.1909821,27.7845434 19.257021,26.7222943 Z M22.0983742,4.59153615 L22.5983742,4.59153615 C22.929143,4.59153615 23.1933052,4.59301533 23.7870911,4.59744828 L23.8000231,4.59754482 C25.1031907,4.60727256 25.6920231,4.60612513 26.4159848,4.58450855 C28.6332217,4.51835482 30.4619803,6.25935974 30.418081,8.58493542 C30.4086294,9.0833256 30.4006766,9.57236964 30.3896308,10.3091847 C30.3871268,10.4766127 30.3871268,10.4766127 30.3846344,10.6440765 C30.3742767,11.3399909 30.3695275,11.6494168 30.3630504,12.0362649 C30.3562983,12.4410024 30.3496121,12.8183368 30.3380172,13.4570958 L30.3352244,13.6108701 C30.3108369,14.9533189 30.3006445,15.5498652 30.2903264,16.2951976 C30.2655977,18.0822345 29.6164025,19.6141819 28.3478534,20.8767556 C26.6426011,22.5740606 25.2788981,23.9328892 22.2118968,26.9900394 C19.09403,30.0978918 17.7080324,31.4789189 15.974787,33.2040042 C14.3723719,34.7989941 12.0325179,34.8028294 10.42146,33.2068933 C7.58309423,30.3949871 4.66117482,27.4825498 1.59411051,24.4095625 C0.140695201,22.953257 0.134811154,20.5821085 1.57947865,19.1085492 C2.3579567,18.31451 2.98783179,17.6848034 4.40396647,16.2785035 L4.4090521,16.2734532 C4.99003074,15.6965093 5.25026274,15.4377895 5.57318325,15.1156511 C9.79316065,10.9055215 11.668845,9.03449204 14.0139639,6.6962345 C14.8510516,5.86161634 15.6798168,5.31396148 16.6309734,5.04754415 C17.3380936,4.84932046 17.9848288,4.73332438 18.6006725,4.71128638 C18.8296795,4.70307412 19.0109947,4.69621291 19.4272652,4.68018943 C20.4010496,4.6427056 20.8380851,4.62749876 21.3829526,4.61455027 C21.631021,4.60865505 21.8684178,4.60439511 22.0983742,4.60183726 L22.0983742,4.59153615 Z" id="Fill-1" fill="#000000" fill-rule="nonzero"></path>
                <path d="M23.2829569,13.0037349 C23.2848322,12.2918052 22.7142455,11.7175617 22.0050053,11.7164923 C21.2989397,11.7154235 20.721557,12.2917136 20.7183405,13.0027748 C20.7152735,13.7053418 21.2970257,14.2899833 22.0004753,14.2909169 C22.7070803,14.2918519 23.2811463,13.716932 23.2829568,13.0037825 L23.7829552,13.0050519 L23.2829569,13.0037349 Z M25.4997498,12.9739934 C25.5226599,14.8919113 23.9741402,16.4780521 22.0572696,16.4997643 C20.0972268,16.5220543 18.5085935,14.9651832 18.5000326,13.0113869 C18.4917843,11.0967183 20.0450701,9.52060237 21.9602026,9.50020802 C23.9147731,9.47943118 25.476286,11.0129111 25.4997496,12.9739837 L24.9997854,12.9799656 L25.4997498,12.9739934 Z" id="Fill-4" fill="#000000" fill-rule="nonzero"></path>
            </g>
        </g>
    </g>
</svg>